<svg width="144" height="32" viewBox="0 0 144 32" fill="none" xmlns="http://www.w3.org/2000/svg">
<g clip-path="url(#clip0_369_1756)">
<path d="M73.5171 3.44582L70.8024 0.733501C70.6781 0.609341 70.4757 0.609341 70.3514 0.733501L67.6367 3.44582C67.5124 3.56998 67.5124 3.77222 67.6367 3.89638L70.3514 6.6087C70.4757 6.73286 70.6781 6.73286 70.8024 6.6087L73.5171 3.89638C73.6414 3.77222 73.6414 3.56998 73.5171 3.44582Z" fill="#0080FF"/>
<path d="M43.0477 24.2944C41.504 24.2944 40.1267 23.9629 38.9186 23.2999C37.7105 22.6381 36.7689 21.7165 36.0963 20.5389C35.4224 19.3613 35.0854 18.0199 35.0854 16.5159C35.0854 15.0119 35.4224 13.6461 36.0963 12.4787C36.7689 11.3114 37.7003 10.3962 38.8892 9.73186C40.078 9.0701 41.445 8.7373 42.9901 8.7373C44.5351 8.7373 45.8316 9.10338 47.0603 9.83682C48.2889 10.569 49.1793 11.6288 49.734 13.0138L46.0494 14.3194C45.7714 13.7459 45.3397 13.2851 44.7555 12.9395C44.1713 12.5939 43.523 12.4199 42.8107 12.4199C42.0984 12.4199 41.4335 12.5939 40.8788 12.9395C40.324 13.2851 39.8872 13.7651 39.572 14.3795C39.2543 14.9927 39.0954 15.7056 39.0954 16.5171C39.0954 17.3287 39.2543 18.0365 39.572 18.6394C39.8872 19.2435 40.333 19.7235 40.9082 20.0794C41.4835 20.4352 42.1368 20.6131 42.8697 20.6131C43.6025 20.6131 44.2302 20.425 44.8144 20.0487C45.3986 19.6723 45.8304 19.177 46.1084 18.5639L49.8237 19.8695C49.2484 21.2749 48.3516 22.3629 47.1346 23.1347C45.9162 23.9066 44.5531 24.2919 43.0477 24.2919V24.2944Z" fill="white"/>
<path d="M72.5368 9.09326H68.6152V23.9374H72.5368V9.09326Z" fill="white"/>
<path d="M87.2765 10.3847C86.3157 9.28642 84.9346 8.7373 83.132 8.7373C82.0033 8.7373 81.022 9.03042 80.1905 9.6141C79.6409 9.99938 79.1797 10.5063 78.7915 11.1155L78.616 9.09442H74.9302V23.9386H78.8517V16.16C78.8517 14.9133 79.1246 13.9738 79.6691 13.3402C80.2136 12.7066 80.9912 12.3994 82.0021 12.4199C82.5555 12.4199 83.0423 12.5427 83.4574 12.7911C83.8738 13.0394 84.1954 13.44 84.4247 13.9943C84.6515 14.5485 84.7668 15.3306 84.7668 16.3392V23.9399H88.6883V15.4471C88.7063 13.1712 88.2374 11.4829 87.2752 10.3847H87.2765Z" fill="white"/>
<path d="M109.722 9.09326L106.565 18.5934L103.542 9.09326H103.096H100.153H99.6791L96.5633 18.8187L93.4681 9.09326H89.4863L94.5379 23.9374H94.9235H98.193H98.4005L101.615 13.7755L104.79 23.9374H108.267H108.652L113.704 9.09326H109.722Z" fill="white"/>
<path d="M141.979 10.3847C141.018 9.28642 139.637 8.7373 137.834 8.7373C136.705 8.7373 135.724 9.03042 134.893 9.6141C134.343 9.99938 133.882 10.5063 133.494 11.1155L133.318 9.09442H129.632V23.9386H133.554V16.16C133.554 14.9133 133.827 13.9738 134.371 13.3402C134.916 12.7066 135.693 12.3994 136.704 12.4199C137.258 12.4199 137.745 12.5427 138.16 12.7911C138.576 13.0394 138.898 13.44 139.127 13.9943C139.354 14.5485 139.469 15.3306 139.469 16.3392V23.9399H143.39V15.4471C143.408 13.1712 142.94 11.4829 141.977 10.3847H141.979Z" fill="white"/>
<path d="M65.2266 12.4787C64.5617 11.3114 63.6456 10.3962 62.4772 9.73186C61.3088 9.0701 59.9508 8.7373 58.4058 8.7373C56.8607 8.7373 55.5591 9.0701 54.3804 9.73186C53.2018 10.3962 52.2819 11.3114 51.6183 12.4787C50.9534 13.6474 50.6216 14.9927 50.6216 16.5159C50.6216 18.0391 50.9585 19.3856 51.6311 20.553C52.305 21.7216 53.2313 22.6368 54.4099 23.2986C55.5886 23.9616 56.9402 24.2931 58.4647 24.2931C59.9893 24.2931 61.3332 23.9616 62.4926 23.2986C63.6508 22.6368 64.5617 21.7203 65.2266 20.553C65.8902 19.3856 66.222 18.0391 66.222 16.5159C66.222 14.9927 65.8902 13.6461 65.2266 12.4787ZM61.5113 14.4679C61.8187 15.0618 61.9725 15.744 61.9725 16.5159C61.9725 17.2877 61.8226 17.9712 61.5266 18.5639C61.2294 19.1578 60.8169 19.6237 60.2929 19.9591C59.7676 20.2957 59.1591 20.4634 58.4647 20.4634C57.7703 20.4634 57.1528 20.2957 56.6083 19.9591C56.0639 19.6224 55.6424 19.1578 55.3451 18.5639C55.0479 17.9699 54.8993 17.2877 54.8993 16.5159C54.8993 15.744 55.0479 15.0605 55.3451 14.4679C55.6424 13.8739 56.0587 13.4093 56.593 13.0727C57.1285 12.736 57.7332 12.5683 58.4058 12.5683H62.4311L61.6048 13.449C61.4165 13.6487 61.1859 13.9943 61.3396 14.2183C61.3934 14.3053 61.4626 14.3757 61.5113 14.4691V14.4679Z" fill="white"/>
<path d="M126.482 11.8989C125.986 10.8595 125.243 10.0723 124.253 9.53858C123.261 9.00482 122.024 8.7373 120.538 8.7373C119.309 8.7373 118.265 8.9357 117.403 9.33122C116.54 9.72674 115.849 10.2272 115.323 10.8301C114.798 11.4343 114.397 12.0525 114.119 12.6861L117.625 13.8739C117.962 13.3005 118.369 12.8845 118.844 12.6272C119.319 12.3699 119.853 12.2407 120.449 12.2407C121.122 12.2407 121.662 12.4032 122.067 12.7309C122.473 13.0573 122.771 13.5322 122.96 14.1555C123.034 14.4013 123.082 14.6842 123.127 14.9722H119.765C117.843 14.9722 116.352 15.3728 115.293 16.1741C114.232 16.9754 113.703 18.1683 113.703 19.7517C113.703 21.1968 114.193 22.3155 115.173 23.1066C116.155 23.8989 117.536 24.2944 119.32 24.2944C121.105 24.2944 122.355 23.7299 123.137 22.6023C123.204 22.5063 123.251 22.3885 123.311 22.2874L123.33 23.9386H127.224V15.7146C127.224 14.2106 126.975 12.9395 126.481 11.8989H126.482ZM123.154 18.7623C123.019 18.8864 122.943 19.0375 122.899 19.1463L122.89 19.1591C122.855 19.232 122.838 19.3075 122.796 19.3805C122.518 19.8656 122.139 20.2611 121.653 20.5683C121.167 20.8755 120.607 21.0291 119.974 21.0291C119.261 21.0291 118.707 20.905 118.31 20.6579C117.914 20.4109 117.716 20.0691 117.716 19.6339C117.716 19.081 117.964 18.6496 118.46 18.3424C118.954 18.0352 119.846 17.8816 121.135 17.8816H123.981L123.155 18.7623H123.154Z" fill="white"/>
<path d="M9.80057 29.6435C12.2386 31.9334 16.0384 31.9321 18.4764 29.6422L22.0393 26.2937V17.3017L12.5396 26.2246V24.0115C12.5396 23.5097 12.3321 23.0297 11.9657 22.6854L0.608398 12.0166V20.2214C0.608398 20.7232 0.815943 21.2032 1.18235 21.5475L9.80057 29.6422V29.6435Z" fill="#0080FF"/>
<path d="M17.0729 16.2895L14.3579 13.5769C14.2333 13.4525 14.0313 13.4525 13.9068 13.5769L11.1918 16.2895C11.0672 16.414 11.0672 16.6158 11.1918 16.7402L13.9068 19.4528C14.0313 19.5773 14.2333 19.5773 14.3579 19.4528L17.0729 16.7402C17.1975 16.6158 17.1975 16.414 17.0729 16.2895Z" fill="#0080FF"/>
<path d="M27.0819 11.4829L18.4624 3.38819C16.0243 1.09827 12.2232 1.09955 9.78648 3.38947L6.22363 6.73795V15.7312L15.7233 6.80835V9.02147C15.7233 9.52323 15.9308 10.0045 16.2972 10.3475L27.6545 21.0151V12.809C27.6545 12.3072 27.447 11.8272 27.0806 11.4829H27.0819Z" fill="#0080FF"/>
</g>
<defs>
<clipPath id="clip0_369_1756">
<rect width="144" height="32" fill="white"/>
</clipPath>
</defs>
</svg>
