<svg width="24" height="24" viewBox="0 0 24 24" fill="none" xmlns="http://www.w3.org/2000/svg">
<path d="M24 12C24 5.37258 18.6274 0 12 0C5.37258 0 0 5.37258 0 12C0 18.6274 5.37258 24 12 24C18.6274 24 24 18.6274 24 12Z" fill="white"/>
<g clip-path="url(#clip0_369_1807)">
<path d="M17.3876 9.1476C16.8094 8.56845 16.115 8.11845 15.3487 7.82595C15.7825 6.5556 17.3147 6.0912 17.3147 6.0912C14.9734 4.97565 12.3508 4.5846 9.78487 4.9734C8.41147 5.2452 7.17352 5.98365 6.28072 7.06185C5.31727 8.1675 4.83892 9.61605 4.94917 11.0812C5.06212 12.5433 5.75557 13.9032 6.87562 14.8522C7.23427 15.1596 8.03617 15.6352 8.04967 15.6609C7.52227 16.9965 5.84152 17.3623 5.84152 17.3623C7.44487 18.2835 9.21427 18.8784 11.0471 19.1106C11.8769 19.2154 12.718 19.2276 13.5505 19.1407C14.9941 18.9697 16.3369 18.3114 17.3543 17.2683C18.4415 16.1995 19.0585 14.7415 19.0648 13.216C19.072 11.6901 18.4672 10.2258 17.389 9.1476H17.3876ZM16.3661 16.3831C15.5224 17.1823 14.4397 17.6841 13.2845 17.8105C12.574 17.8857 11.8594 17.883 11.1515 17.8011C10.2821 17.6818 9.42892 17.4496 8.62027 17.1099C9.00727 16.7485 9.31372 16.3107 9.52027 15.8229C9.61882 15.5673 9.60712 15.2842 9.48967 15.0376C8.69767 13.4068 9.04462 11.452 10.3451 10.1907C12.0466 8.54325 14.7565 8.55765 16.4413 10.2262C18.0986 11.956 18.0653 14.6934 16.3661 16.3836V16.3831Z" fill="#141414"/>
</g>
<defs>
<clipPath id="clip0_369_1807">
<rect width="14.4" height="14.4" fill="white" transform="translate(4.7998 4.80005)"/>
</clipPath>
</defs>
</svg>
