<?xml version="1.0" encoding="UTF-8"?>
<svg width="17px" height="10px" viewBox="0 0 17 10" version="1.1" xmlns="http://www.w3.org/2000/svg" xmlns:xlink="http://www.w3.org/1999/xlink">
    <title>编组 21</title>
    <g id="页面-1" stroke="none" stroke-width="1" fill="none" fill-rule="evenodd">
        <g id="买币" transform="translate(-1257.000000, -722.000000)" fill-rule="nonzero">
            <g id="编组-13" transform="translate(360.000000, 707.000000)">
                <g id="编组-12" transform="translate(896.000000, 10.000000)">
                    <g id="编组-8" transform="translate(0.000000, 3.000000)">
                        <g id="visa" transform="translate(0.538462, 0.615385)">
                            <g id="编组-21" transform="translate(0.000000, 0.766551)">
                                <path d="M1.36820512,0.618064862 L16.5548718,0.618064862 C17.1593162,0.618064862 17.4615385,0.901150494 17.4615385,1.46732176 L17.4615385,9.76880796 C17.4615385,10.3349792 17.1593162,10.6180649 16.5548718,10.6180649 L1.36820512,10.6180649 C0.763760683,10.6180649 0.461538462,10.3349792 0.461538462,9.76880796 L0.461538462,1.46732176 C0.461538462,0.901150494 0.763760683,0.618064862 1.36820512,0.618064862 Z" id="路径" fill="#0E4595"></path>
                                <path d="M6.43482132,8.18480738 L7.19197299,3.50053431 L8.40305253,3.50053431 L7.64537884,8.18480738 L6.43482132,8.18480738 Z M10.9352437,3.4048451 C9.7385764,3.4048451 8.89563235,4.04014109 8.88848299,4.95068417 C8.88171947,5.62378685 9.49023246,5.99922166 9.94960745,6.22331006 C10.4210115,6.45287804 10.5794778,6.59931915 10.5772535,6.80436063 C10.5742576,7.11829975 10.2007884,7.26177375 9.85271655,7.26177373 C9.36796698,7.26177373 9.11045371,7.19080243 8.71272212,7.01588667 L8.55668441,6.94146971 L8.38668843,7.99007899 C8.66957628,8.12084708 9.19263735,8.2341475 9.73571664,8.24000993 C11.0087573,8.24000993 11.835133,7.61194028 11.8445747,6.63961437 C11.8491594,6.1067793 11.5265075,5.70124271 10.8278217,5.3669167 C10.4045113,5.15024606 10.1452504,5.00559958 10.1480193,4.78622506 C10.1480193,4.59152059 10.3674254,4.38327272 10.8415303,4.38327272 C11.2375824,4.37681208 11.5244648,4.46788314 11.7479562,4.56273486 L11.8564449,4.61681279 L12.0206533,3.60153561 C11.7807071,3.50668388 11.4047413,3.4048451 10.9352437,3.4048451 Z M14.2012547,3.50053431 C13.911331,3.50053431 13.6943988,3.58397224 13.5670721,3.88898611 L11.7684964,8.1817924 L13.0401753,8.1817924 C13.0401753,8.1817924 13.2481424,7.60457037 13.2951693,7.47787008 C13.4341393,7.47787008 14.669504,7.47988007 14.84615,7.47988007 C14.8823508,7.64383669 14.9934496,8.1817924 14.9934496,8.1817924 L16.1172161,8.1817924 L15.1370043,3.50048645 L14.2012547,3.50053431 Z M14.1347997,5.21580957 C14.1276276,5.22825228 14.2342099,4.94458246 14.2953766,4.76870955 L14.3772198,5.17261902 C14.3772198,5.17261902 14.6091089,6.29071604 14.6575657,6.52521324 L13.6522743,6.52521324 C13.7524335,6.25532609 14.1347997,5.21580957 14.1347997,5.21580957 Z M4.22115131,6.69486479 L4.09480048,6.04573824 C3.87407805,5.29740502 3.18637735,4.48666684 2.41758242,4.0807474 L3.50169833,8.17736568 L4.78304591,8.17581033 L6.68963372,3.50058217 L5.40683358,3.50058217 L4.22115131,6.69486479 Z" id="形状" fill="#FFFFFF"></path>
                                <path d="M0.822846195,3.42508843 L0.805860806,3.51755806 C2.47057782,3.88543869 3.57206641,4.77446843 4.02930403,5.84267084 L3.56405865,3.80030216 C3.48373245,3.51889754 3.25071185,3.43491886 2.96253229,3.42508843 L0.822846195,3.42508843 Z" id="路径" fill="#F2AE14"></path>
                            </g>
                        </g>
                    </g>
                </g>
            </g>
        </g>
    </g>
</svg>