<?xml version="1.0" encoding="UTF-8"?>
<svg width="34px" height="34px" viewBox="0 0 34 34" version="1.1" xmlns="http://www.w3.org/2000/svg" xmlns:xlink="http://www.w3.org/1999/xlink">
    <title>步骤一</title>
    <defs>
        <rect id="path-1" x="0" y="0" width="34" height="34"></rect>
    </defs>
    <g id="3.16一键买币" stroke="none" stroke-width="1" fill="none" fill-rule="evenodd">
        <g id="买币" transform="translate(-396.000000, -288.000000)">
            <g id="编组-18" transform="translate(360.000000, 213.000000)">
                <g id="编组-3" transform="translate(36.000000, 75.000000)">
                    <mask id="mask-2" fill="white">
                        <use xlink:href="#path-1"></use>
                    </mask>
                    <use id="蒙版" fill="#000000" fill-rule="nonzero" opacity="0" xlink:href="#path-1"></use>
                    <g mask="url(#mask-2)">
                        <g transform="translate(-3.000000, -3.000000)">
                            <path d="M6,20 C6,27.7319865 12.2680135,34 20,34 C25.1899142,34 29.7202428,31.1759778 32.1381584,26.9807604 M34,20 C34,12.2680135 27.7319865,6 20,6 C14.8263494,6 10.3081571,8.80635069 7.88463489,12.9798403" id="形状" stroke="#212833" stroke-width="2" stroke-linecap="round" transform="translate(20.000000, 20.000000) rotate(-30.000000) translate(-20.000000, -20.000000) "></path>
                            <line x1="6.00778604" y1="19.9955047" x2="11.5515141" y2="16.7948318" id="路径-3" stroke="#212833" stroke-width="2" stroke-linecap="round"></line>
                            <g id="编组-2" stroke="none" stroke-width="1" fill-rule="evenodd" transform="translate(14.000000, 13.000000)">
                                <path d="M0.779088317,0.292893219 C1.16961261,-0.0976310729 1.80277759,-0.0976310729 2.19330188,0.292893219 L2.19330188,0.292893219 L5.9861951,4.085 L9.77908832,0.292893219 C10.1696126,-0.0976310729 10.8027776,-0.0976310729 11.1933019,0.292893219 C11.5537858,0.65337718 11.5815154,1.22060824 11.2764905,1.61289944 L11.1933019,1.70710678 L7.6591951,5.241 L10.4861951,5.24159441 C11.0384798,5.24159441 11.4861951,5.68930966 11.4861951,6.24159441 C11.4861951,6.75443025 11.1001549,7.17710157 10.6028162,7.23486668 L10.4861951,7.24159441 L6.9861951,7.241 L6.9861951,8.5 L10.4861951,8.5 C11.0384798,8.5 11.4861951,8.94771525 11.4861951,9.5 C11.4861951,10.0128358 11.1001549,10.4355072 10.6028162,10.4932723 L10.4861951,10.5 L6.9861951,10.5 L6.9861951,14 C6.9861951,14.5522847 6.53847985,15 5.9861951,15 C5.47335926,15 5.05068794,14.6139598 4.99292283,14.1166211 L4.9861951,14 L4.9861951,10.5 L1.4861951,10.5 C0.933910348,10.5 0.486195098,10.0522847 0.486195098,9.5 C0.486195098,8.98716416 0.872235288,8.56449284 1.36957397,8.50672773 L1.4861951,8.5 L4.9861951,8.5 L4.9861951,7.241 L1.4861951,7.24159441 C0.933910348,7.24159441 0.486195098,6.79387916 0.486195098,6.24159441 C0.486195098,5.72875857 0.872235288,5.30608725 1.36957397,5.24832215 L1.4861951,5.24159441 L4.3121951,5.241 L0.779088317,1.70710678 L0.69589971,1.61289944 C0.390874819,1.22060824 0.418604355,0.65337718 0.779088317,0.292893219 Z" id="形状结合" fill="#357AFF" fill-rule="nonzero"></path>
                            </g>
                            <line x1="28.3747142" y1="23.2477602" x2="33.9184423" y2="20.0470874" id="路径-3备份" stroke="#212833" stroke-width="2" stroke-linecap="round"></line>
                        </g>
                    </g>
                </g>
            </g>
        </g>
    </g>
</svg>