<?xml version="1.0" standalone="no"?><!DOCTYPE svg PUBLIC "-//W3C//DTD SVG 1.1//EN" "http://www.w3.org/Graphics/SVG/1.1/DTD/svg11.dtd"><svg t="1617939808659" class="icon" viewBox="0 0 1024 1024" version="1.1" xmlns="http://www.w3.org/2000/svg" p-id="569" xmlns:xlink="http://www.w3.org/1999/xlink" width="200" height="200"><defs><style type="text/css"></style></defs><path d="M888 789H136c-39.76 0-72-32.24-72-72V307c0-39.76 32.24-72 72-72h752c39.76 0 72 32.24 72 72v410c0 39.76-32.24 72-72 72z" fill="#F7F9FB" p-id="570"></path><path d="M360.18 482.7c-18.28-3.21-35.75-1.42-50.38 11.78-0.85 0.76-1.16 2.61-3.01 1.81-1.15-3.65 0.63-7.61-1.16-11.18h-30.11c-0.96 5.32-0.95 189.56 0 194.6H306v-65.72c18.65 16.01 38.97 18.72 60.57 13.06 31.93-8.37 53.63-40.09 52.23-75.23-1.34-33.6-26.38-63.46-58.62-69.12z m18.23 101.78c-11.1 14.8-26.21 19.82-44 15.76-16.45-3.75-25.44-15-28.73-31.2-0.92-4.5-1.42-9.03-1.3-11.98-0.22-13.81 2.28-25.2 10.51-34.58 16.19-18.45 47.09-17.41 62.37 1.95 12.62 15.97 13.33 43.81 1.15 60.05zM548.92 497.08c-16.21-15.95-35.24-18.19-55.27-13.88-40.84 8.79-65.74 52.48-53.72 93.26 11.72 39.76 49.53 61.36 87.99 50.26 8.07-2.33 15.12-6.55 22.2-13.42v13.35h30.45V485.27h-31.11c-0.18 4.02-0.34 7.51-0.54 11.81z m2.44 58.35c-0.16 13.63-2.49 26.7-13.3 36.27-12.46 11.02-27.17 12.65-42.2 7.06-15.34-5.7-24.12-17.81-26.35-33.84-2.6-18.69 0.98-36 17.06-47.94 12.77-9.49 27.3-10.31 41.68-3.88 15.31 6.85 21.5 20.15 23.09 36.07 0.2 2.06 0.02 4.17 0.02 6.26zM676.07 584.46c-14.79-34.22-28.94-66.97-42.92-99.32H599.8c20.39 44.79 40.49 88.92 60.58 133.05-8.75 20.42-17.41 40.64-26.36 61.52h32.74c27.37-64.61 54.8-129.36 82.44-194.62h-33.49c-13.09 32.79-26.09 65.38-39.64 99.37zM455.85 357.31l1.14 0.09v63.92h18.87c-0.57-24.98-1.13-49.61-1.7-74.37h-30.38c-3.01 18.65-5.99 37.06-8.96 55.47h-0.7c-2.96-18.48-5.92-36.95-8.87-55.38h-30.42c-0.56 24.86-1.12 49.5-1.69 74.33h19.06v-64.36l0.82-0.03c4.01 21.52 8.02 43.03 12.01 64.45H444c3.97-21.51 7.91-42.82 11.85-64.12zM655.02 360.91c6.15 20.35 12.11 40.07 18.06 59.77h26.41v-73.57h-17.78v56.21c-0.12 0.02-0.24 0.05-0.36 0.07-5.49-18.77-10.97-37.55-16.48-56.41h-27.46v73.78h17.61v-59.85zM616.5 402.11c0.03-12.54 0.01-25.07 0.01-37.6v-17.37h-18.82v15.54c0.01 13.13 0.07 26.25 0.01 39.38-0.03 6.36-4.73 9.79-10.27 7.68-3.61-1.37-4.24-4.36-4.24-7.76 0.01-17.03 0-34.06-0.05-51.09 0-1.25 0.44-2.59-0.56-3.9h-18.39c0 7.33-0.03 14.28 0.01 21.23 0.07 12.29-0.12 24.6 0.36 36.88 0.37 9.35 5.43 14.96 14.41 17.39 6.82 1.85 13.73 1.88 20.61 0.48 11.62-2.36 16.9-8.94 16.92-20.86zM771.86 379.65h-26.43c0.07 3.75-0.32 7.24 0.31 10.98h7.23c-0.01 4.74 0.52 9.21-0.33 13.63-0.71 3.66-3.76 5.47-8.08 5.17-3.84-0.27-6.75-2.5-6.79-5.89-0.14-12.89-0.17-25.78 0.02-38.67 0.06-4.17 3.44-6.74 7.68-6.6 4.27 0.14 6.76 2.51 7.23 6.7 0.2 1.82-0.52 3.78 0.63 5.42h17.93c1.99-13.47-3.97-22.2-16.84-24.78-6.17-1.23-12.37-1.17-18.56 0.15-10.3 2.18-15.95 8.11-16.6 18.68-0.8 13.1-0.63 26.24-0.05 39.35 0.4 8.99 5.31 14.76 13.64 17.4 8.63 2.73 17.39 2.73 25.99-0.3 6.56-2.31 11.26-6.75 12.33-13.81 1.36-9.01 0.52-18.13 0.69-27.43zM288.7 423.55c7.88-1.57 14.25-5.42 16.17-13.83 2.21-9.66 1.91-18.89-7.01-25.63-3.58-2.71-7.44-4.92-11.37-7.06-4.43-2.4-9.15-4.4-12.75-8.12-2.26-2.34-2.7-6.18-1.03-8.83 1.86-2.94 4.73-3.33 7.77-2.65 3.34 0.74 4.73 3.16 4.93 6.47 0.09 1.49-0.41 3.05 0.52 4.61h17.72c2.32-11.58-2.8-20.18-13.68-22.84-7.65-1.87-15.38-1.89-23.01 0.27-8.71 2.47-13.13 7.89-14.28 16.86-1.18 9.29 2.57 16.14 10.13 20.99 5.34 3.43 10.95 6.43 16.39 9.7 2.52 1.51 5.02 3.13 6.63 5.72 1.7 2.73 1.52 7.03-0.46 9.36-2.41 2.83-5.64 2.77-8.78 1.89-3.27-0.92-4.44-3.5-4.47-6.82-0.02-2.18 0.31-4.44-0.5-6.38h-19.58c0 2.2-0.03 4.08 0.01 5.97 0.22 10.27 4.92 16.62 14.67 19.62 7.25 2.22 14.64 2.16 21.98 0.7zM342.96 388.45c1.65-10.94 3.28-21.89 4.92-32.83l0.81 0.03c3.22 21.93 6.43 43.86 9.64 65.75h20.14c-4.61-25.03-9.15-49.7-13.69-74.35h-33.29c-4.57 24.85-9.1 49.51-13.67 74.42h20.14c1.68-11.12 3.35-22.07 5-33.02zM510.58 423.09c6.61 1.46 13.32 1.53 19.94 0.05 7.85-1.75 14.18-5.68 15.83-14.2 1.82-9.41 1.54-18.47-7.23-24.95-4.95-3.66-10.39-6.45-15.76-9.37-3.01-1.63-6.06-3.21-8.34-5.85-2.19-2.52-2.29-5.45-0.76-8.26 1.68-3.07 4.65-3.35 7.71-2.76 3.25 0.63 4.69 2.84 4.87 6.06 0.09 1.5-0.31 3.06 0.44 4.64h17.69c1.59-13.59-3.52-20.82-16.18-23.03-6.68-1.17-13.39-0.94-19.94 0.8-7.11 1.88-12.07 6.22-13.86 13.63-2.38 9.89 0.41 17.23 8.63 23.26 5.34 3.92 11.33 6.72 16.96 10.13 2.34 1.42 4.47 3.08 6.19 5.21 1.97 2.44 2.2 6.85 0.51 9.34-2.14 3.16-5.3 3.21-8.53 2.53-3.54-0.75-4.87-3.35-5.06-6.76-0.12-2.1 0.33-4.25-0.4-6.49h-19.11c-2.18 13.82 3.75 23.22 16.4 26.02z" fill="#3058D4" p-id="571"></path></svg>