<svg width="48" height="48" viewBox="0 0 48 48" fill="none" xmlns="http://www.w3.org/2000/svg">
<path opacity="0.4" d="M33.5858 19.3961V15.1021C33.5858 10.0761 29.3023 6.00009 24.0205 6.00009C18.7386 5.97809 14.4383 10.0341 14.4152 15.0621V15.1021V19.3961" stroke="#1772F8" stroke-width="1.5" stroke-linecap="round" stroke-linejoin="round"/>
<path fill-rule="evenodd" clip-rule="evenodd" d="M32.0299 42.9997H15.97C11.5689 42.9997 8 39.6057 8 35.4157V26.8377C8 22.6477 11.5689 19.2537 15.97 19.2537H32.0299C36.4311 19.2537 40 22.6477 40 26.8377V35.4157C40 39.6057 36.4311 42.9997 32.0299 42.9997Z" stroke="#1772F8" stroke-width="1.5" stroke-linecap="round" stroke-linejoin="round"/>
<path d="M28.7463 24H26.9174C26.8168 24 26.7228 24.0595 26.6792 24.154L23.8369 30.062H23.7262L20.884 24.154C20.8617 24.1079 20.8277 24.0692 20.7856 24.042C20.7436 24.0148 20.6952 24.0003 20.6457 24H18.7766C18.733 24 18.6894 24.0105 18.6491 24.035C18.5182 24.1085 18.4712 24.28 18.5417 24.413L22.0282 31.119H20.1155C19.9679 31.119 19.8471 31.245 19.8471 31.399V32.3475C19.8471 32.5015 19.9679 32.6275 20.1155 32.6275H22.6658V33.9925H20.1155C19.9679 33.9925 19.8471 34.1185 19.8471 34.2725V35.221C19.8471 35.375 19.9679 35.501 20.1155 35.501H22.6658V37.72C22.6658 37.874 22.7866 38 22.9343 38H24.6087C24.7564 38 24.8772 37.874 24.8772 37.72V35.4975H27.4376C27.5852 35.4975 27.706 35.3715 27.706 35.2175V34.269C27.706 34.115 27.5852 33.989 27.4376 33.989H24.8772V32.624H27.4376C27.5852 32.624 27.706 32.498 27.706 32.344V31.3955C27.706 31.2415 27.5852 31.1155 27.4376 31.1155H25.5047L28.9845 24.4095C29.0046 24.3675 29.0181 24.322 29.0181 24.2765C29.0147 24.126 28.8939 24 28.7463 24Z" fill="#1772F8"/>
</svg>
