<svg width="94" height="34" viewBox="0 0 94 34" fill="none" xmlns="http://www.w3.org/2000/svg"><g clip-path="url(#clip0_67_2107)"><path d="M16.8916 10.8464L21.7878 5.91644C21.8945 5.8084 21.9544 5.66222 21.9544 5.50985C21.9544 5.35748 21.8945 5.21131 21.7878 5.10327L16.8916 0.169021C16.8392 0.114614 16.7764 0.0713613 16.7071 0.0418252C16.6377 0.0122891 16.5632 -0.00292969 16.4878 -0.00292969C16.4125 -0.00292969 16.338 0.0122891 16.2686 0.0418252C16.1993 0.0713613 16.1365 0.114614 16.0841 0.169021L0.500868 15.8784C0.180183 16.2017 3.6417e-05 16.6399 0 17.0968V32.8515C4.74699e-05 32.9652 0.0335743 33.0764 0.0963434 33.1709C0.159113 33.2655 0.248307 33.3392 0.352653 33.3827C0.456999 33.4262 0.571814 33.4376 0.682587 33.4154C0.79336 33.3932 0.89512 33.3385 0.975004 33.2581L7.72828 26.4482C7.88859 26.2865 8.01551 26.0945 8.10172 25.8832C8.18792 25.6719 8.23171 25.4455 8.23056 25.2171L8.08002 10.0956C8.07741 9.86646 8.12038 9.6391 8.2064 9.42694C8.29242 9.21478 8.41975 9.02211 8.58088 8.86027L10.9403 6.4831C11.0476 6.37566 11.1928 6.31535 11.3441 6.31535C11.4954 6.31535 11.6406 6.37566 11.7479 6.4831L16.0798 10.8464C16.1339 10.8993 16.1768 10.9625 16.2062 11.0323C16.2355 11.1021 16.2506 11.1772 16.2506 11.253C16.2506 11.3288 16.2355 11.4039 16.2062 11.4737C16.1768 11.5436 16.1339 11.6068 16.0798 11.6596L11.1837 16.5896C11.0771 16.6974 11.0172 16.8433 11.0172 16.9955C11.0172 17.1476 11.0771 17.2936 11.1837 17.4014L16.0855 22.337C16.1922 22.4451 16.2521 22.5912 16.2521 22.7436C16.2521 22.896 16.1922 23.0422 16.0855 23.1502L11.1837 28.0844C11.077 28.1925 11.0171 28.3387 11.0171 28.491C11.0171 28.6434 11.077 28.7896 11.1837 28.8976L16.0855 33.8319C16.1379 33.886 16.2006 33.9291 16.2698 33.9585C16.339 33.9879 16.4134 34.0031 16.4885 34.0031C16.5637 34.0031 16.6381 33.9879 16.7073 33.9585C16.7765 33.9291 16.8392 33.886 16.8916 33.8319L27.5013 23.1502C27.608 23.0422 27.6679 22.896 27.6679 22.7436C27.6679 22.5912 27.608 22.4451 27.5013 22.337L16.8916 11.6596C16.8376 11.6068 16.7946 11.5436 16.7653 11.4737C16.736 11.4039 16.7209 11.3288 16.7209 11.253C16.7209 11.1772 16.736 11.1021 16.7653 11.0323C16.7946 10.9625 16.8376 10.8993 16.8916 10.8464Z" fill="url(#paint0_linear_67_2107)"></path><path d="M16.8916 10.8464L21.7878 5.91644C21.8945 5.8084 21.9544 5.66222 21.9544 5.50985C21.9544 5.35748 21.8945 5.21131 21.7878 5.10327L16.8916 0.169021C16.8392 0.114614 16.7764 0.0713613 16.7071 0.0418252C16.6377 0.0122891 16.5632 -0.00292969 16.4878 -0.00292969C16.4125 -0.00292969 16.338 0.0122891 16.2686 0.0418252C16.1993 0.0713613 16.1365 0.114614 16.0841 0.169021L0.500868 15.8784C0.180183 16.2017 3.6417e-05 16.6399 0 17.0968V32.8515C4.74699e-05 32.9652 0.0335743 33.0764 0.0963434 33.1709C0.159113 33.2655 0.248307 33.3392 0.352653 33.3827C0.456999 33.4262 0.571814 33.4376 0.682587 33.4154C0.79336 33.3932 0.89512 33.3385 0.975004 33.2581L7.72828 26.4482C7.88859 26.2865 8.01551 26.0945 8.10172 25.8832C8.18792 25.6719 8.23171 25.4455 8.23056 25.2171L8.08002 10.0956C8.07741 9.86646 8.12038 9.6391 8.2064 9.42694C8.29242 9.21478 8.41975 9.02211 8.58088 8.86027L10.9403 6.4831C11.0476 6.37566 11.1928 6.31535 11.3441 6.31535C11.4954 6.31535 11.6406 6.37566 11.7479 6.4831L16.0798 10.8464C16.1339 10.8993 16.1768 10.9625 16.2062 11.0323C16.2355 11.1021 16.2506 11.1772 16.2506 11.253C16.2506 11.3288 16.2355 11.4039 16.2062 11.4737C16.1768 11.5436 16.1339 11.6068 16.0798 11.6596L11.1837 16.5896C11.0771 16.6974 11.0172 16.8433 11.0172 16.9955C11.0172 17.1476 11.0771 17.2936 11.1837 17.4014L16.0855 22.337C16.1922 22.4451 16.2521 22.5912 16.2521 22.7436C16.2521 22.896 16.1922 23.0422 16.0855 23.1502L11.1837 28.0844C11.077 28.1925 11.0171 28.3387 11.0171 28.491C11.0171 28.6434 11.077 28.7896 11.1837 28.8976L16.0855 33.8319C16.1379 33.886 16.2006 33.9291 16.2698 33.9585C16.339 33.9879 16.4134 34.0031 16.4885 34.0031C16.5637 34.0031 16.6381 33.9879 16.7073 33.9585C16.7765 33.9291 16.8392 33.886 16.8916 33.8319L27.5013 23.1502C27.608 23.0422 27.6679 22.896 27.6679 22.7436C27.6679 22.5912 27.608 22.4451 27.5013 22.337L16.8916 11.6596C16.8376 11.6068 16.7946 11.5436 16.7653 11.4737C16.736 11.4039 16.7209 11.3288 16.7209 11.253C16.7209 11.1772 16.736 11.1021 16.7653 11.0323C16.7946 10.9625 16.8376 10.8993 16.8916 10.8464Z" fill="#DCDCFF"></path><path d="M52.9837 11.3333L54.9534 9.34993C55.0123 9.28998 55.0454 9.20903 55.0454 9.12468C55.0454 9.04032 55.0123 8.95938 54.9534 8.89943L52.9837 6.9161C52.9241 6.85632 52.8434 6.82275 52.7593 6.82275C52.6752 6.82275 52.5945 6.85632 52.5349 6.9161L50.5652 8.89943C50.5058 8.95944 50.4725 9.04069 50.4725 9.12539C50.4725 9.21009 50.5058 9.29134 50.5652 9.35135L52.5349 11.3347C52.5947 11.3943 52.6755 11.4276 52.7596 11.4273C52.8437 11.427 52.9243 11.3932 52.9837 11.3333Z" fill="url(#paint1_linear_67_2107)"></path><path d="M52.9837 11.3333L54.9534 9.34993C55.0123 9.28998 55.0454 9.20903 55.0454 9.12468C55.0454 9.04032 55.0123 8.95938 54.9534 8.89943L52.9837 6.9161C52.9241 6.85632 52.8434 6.82275 52.7593 6.82275C52.6752 6.82275 52.5945 6.85632 52.5349 6.9161L50.5652 8.89943C50.5058 8.95944 50.4725 9.04069 50.4725 9.12539C50.4725 9.21009 50.5058 9.29134 50.5652 9.35135L52.5349 11.3347C52.5947 11.3943 52.6755 11.4276 52.7596 11.4273C52.8437 11.427 52.9243 11.3932 52.9837 11.3333Z" fill="#DCDCFF"></path><path d="M45.7577 8.04085C44.9009 7.57335 43.8175 7.33252 42.5372 7.33252H35.0186C34.9349 7.33252 34.8546 7.36591 34.7952 7.42538C34.7359 7.48485 34.7024 7.56556 34.702 7.64985V26.5992C34.702 26.6837 34.7354 26.7648 34.7947 26.8246C34.8541 26.8844 34.9346 26.9179 35.0186 26.9179H42.6484C44.0244 26.9179 45.2076 26.6658 46.1657 26.1699C47.0625 25.7304 47.8161 25.0421 48.3377 24.1861C48.8594 23.3301 49.1274 22.3419 49.1104 21.3377C49.1288 20.3352 48.8527 19.3495 48.3169 18.5044C47.7467 17.6527 46.9594 16.971 46.0377 16.5309L45.8576 16.4389L46.0321 16.3369C47.5923 15.4231 48.383 14.0914 48.383 12.3702C48.3881 11.4934 48.1566 10.6316 47.7133 9.87685C47.2393 9.09722 46.5632 8.46246 45.7577 8.04085ZM38.2602 10.5639C38.2602 10.4794 38.2935 10.3983 38.3529 10.3385C38.4122 10.2788 38.4928 10.2452 38.5767 10.2452H42.0941C42.8988 10.2452 43.5573 10.4563 44.0525 10.8756C44.5477 11.2949 44.8038 11.9296 44.8038 12.747C44.8038 13.5644 44.5506 14.192 44.0511 14.6071C43.5516 15.0222 42.8988 15.2234 42.0941 15.2234H38.5767C38.4928 15.2234 38.4122 15.1898 38.3529 15.13C38.2935 15.0702 38.2602 14.9891 38.2602 14.9046V10.5639ZM44.7321 23.1454C44.2002 23.7191 43.4532 24.0095 42.5119 24.0095H38.5767C38.4928 24.0095 38.4122 23.9759 38.3529 23.9162C38.2935 23.8564 38.2602 23.7753 38.2602 23.6908V18.4165C38.2602 18.332 38.2935 18.2509 38.3529 18.1911C38.4122 18.1314 38.4928 18.0978 38.5767 18.0978H42.5091C43.4503 18.0978 44.1974 18.3896 44.7292 18.9648C45.2426 19.5375 45.5267 20.2815 45.5267 21.0529C45.5267 21.8244 45.2426 22.5684 44.7292 23.1411L44.7321 23.1454Z" fill="url(#paint2_linear_67_2107)"></path><path d="M45.7577 8.04085C44.9009 7.57335 43.8175 7.33252 42.5372 7.33252H35.0186C34.9349 7.33252 34.8546 7.36591 34.7952 7.42538C34.7359 7.48485 34.7024 7.56556 34.702 7.64985V26.5992C34.702 26.6837 34.7354 26.7648 34.7947 26.8246C34.8541 26.8844 34.9346 26.9179 35.0186 26.9179H42.6484C44.0244 26.9179 45.2076 26.6658 46.1657 26.1699C47.0625 25.7304 47.8161 25.0421 48.3377 24.1861C48.8594 23.3301 49.1274 22.3419 49.1104 21.3377C49.1288 20.3352 48.8527 19.3495 48.3169 18.5044C47.7467 17.6527 46.9594 16.971 46.0377 16.5309L45.8576 16.4389L46.0321 16.3369C47.5923 15.4231 48.383 14.0914 48.383 12.3702C48.3881 11.4934 48.1566 10.6316 47.7133 9.87685C47.2393 9.09722 46.5632 8.46246 45.7577 8.04085ZM38.2602 10.5639C38.2602 10.4794 38.2935 10.3983 38.3529 10.3385C38.4122 10.2788 38.4928 10.2452 38.5767 10.2452H42.0941C42.8988 10.2452 43.5573 10.4563 44.0525 10.8756C44.5477 11.2949 44.8038 11.9296 44.8038 12.747C44.8038 13.5644 44.5506 14.192 44.0511 14.6071C43.5516 15.0222 42.8988 15.2234 42.0941 15.2234H38.5767C38.4928 15.2234 38.4122 15.1898 38.3529 15.13C38.2935 15.0702 38.2602 14.9891 38.2602 14.9046V10.5639ZM44.7321 23.1454C44.2002 23.7191 43.4532 24.0095 42.5119 24.0095H38.5767C38.4928 24.0095 38.4122 23.9759 38.3529 23.9162C38.2935 23.8564 38.2602 23.7753 38.2602 23.6908V18.4165C38.2602 18.332 38.2935 18.2509 38.3529 18.1911C38.4122 18.1314 38.4928 18.0978 38.5767 18.0978H42.5091C43.4503 18.0978 44.1974 18.3896 44.7292 18.9648C45.2426 19.5375 45.5267 20.2815 45.5267 21.0529C45.5267 21.8244 45.2426 22.5684 44.7292 23.1411L44.7321 23.1454Z" fill="#DCDCFF"></path><path d="M54.1796 13.5347H51.339C51.1641 13.5347 51.0224 13.6774 51.0224 13.8534V26.5992C51.0224 26.7752 51.1641 26.9179 51.339 26.9179H54.1796C54.3544 26.9179 54.4961 26.7752 54.4961 26.5992V13.8534C54.4961 13.6774 54.3544 13.5347 54.1796 13.5347Z" fill="url(#paint3_linear_67_2107)"></path><path d="M54.1796 13.5347H51.339C51.1641 13.5347 51.0224 13.6774 51.0224 13.8534V26.5992C51.0224 26.7752 51.1641 26.9179 51.339 26.9179H54.1796C54.3544 26.9179 54.4961 26.7752 54.4961 26.5992V13.8534C54.4961 13.6774 54.3544 13.5347 54.1796 13.5347Z" fill="#DCDCFF"></path><path d="M64.5656 13.5349H62.8041C62.7593 13.5349 62.7164 13.517 62.6847 13.4852C62.6531 13.4533 62.6353 13.41 62.6353 13.3649V9.53994C62.6353 9.45541 62.6019 9.37433 62.5425 9.31455C62.4832 9.25478 62.4027 9.22119 62.3187 9.22119H59.5048C59.4632 9.22101 59.422 9.22912 59.3835 9.24508C59.345 9.26103 59.31 9.2845 59.2806 9.31414C59.2511 9.34377 59.2278 9.37899 59.212 9.41774C59.1962 9.4565 59.1881 9.49803 59.1883 9.53994V13.3649C59.1883 13.41 59.1705 13.4533 59.1388 13.4852C59.1072 13.517 59.0642 13.5349 59.0194 13.5349H56.736C56.652 13.5349 56.5715 13.5685 56.5122 13.6283C56.4528 13.6881 56.4194 13.7692 56.4194 13.8537V16.2351C56.4194 16.3196 56.4528 16.4007 56.5122 16.4605C56.5715 16.5203 56.652 16.5539 56.736 16.5539H59.0194C59.0642 16.5539 59.1072 16.5718 59.1388 16.6037C59.1705 16.6355 59.1883 16.6788 59.1883 16.7239V26.5994C59.1883 26.684 59.2216 26.7651 59.281 26.8248C59.3404 26.8846 59.4209 26.9182 59.5048 26.9182H62.3187C62.4027 26.9182 62.4832 26.8846 62.5425 26.8248C62.6019 26.7651 62.6353 26.684 62.6353 26.5994V16.7239C62.6351 16.7015 62.6393 16.6793 62.6477 16.6586C62.6561 16.6379 62.6686 16.6191 62.6843 16.6032C62.7 16.5874 62.7187 16.5749 62.7393 16.5664C62.7598 16.5579 62.7819 16.5537 62.8041 16.5539H65.5448C65.597 16.554 65.6485 16.5411 65.6946 16.5163C65.7406 16.4915 65.7799 16.4557 65.8089 16.4119C65.8379 16.3682 65.8556 16.3179 65.8606 16.2655C65.8656 16.2131 65.8576 16.1604 65.8374 16.1119L64.8526 13.7304C64.8288 13.6733 64.789 13.6244 64.738 13.5896C64.687 13.5549 64.6271 13.5359 64.5656 13.5349Z" fill="url(#paint4_linear_67_2107)"></path><path d="M64.5656 13.5349H62.8041C62.7593 13.5349 62.7164 13.517 62.6847 13.4852C62.6531 13.4533 62.6353 13.41 62.6353 13.3649V9.53994C62.6353 9.45541 62.6019 9.37433 62.5425 9.31455C62.4832 9.25478 62.4027 9.22119 62.3187 9.22119H59.5048C59.4632 9.22101 59.422 9.22912 59.3835 9.24508C59.345 9.26103 59.31 9.2845 59.2806 9.31414C59.2511 9.34377 59.2278 9.37899 59.212 9.41774C59.1962 9.4565 59.1881 9.49803 59.1883 9.53994V13.3649C59.1883 13.41 59.1705 13.4533 59.1388 13.4852C59.1072 13.517 59.0642 13.5349 59.0194 13.5349H56.736C56.652 13.5349 56.5715 13.5685 56.5122 13.6283C56.4528 13.6881 56.4194 13.7692 56.4194 13.8537V16.2351C56.4194 16.3196 56.4528 16.4007 56.5122 16.4605C56.5715 16.5203 56.652 16.5539 56.736 16.5539H59.0194C59.0642 16.5539 59.1072 16.5718 59.1388 16.6037C59.1705 16.6355 59.1883 16.6788 59.1883 16.7239V26.5994C59.1883 26.684 59.2216 26.7651 59.281 26.8248C59.3404 26.8846 59.4209 26.9182 59.5048 26.9182H62.3187C62.4027 26.9182 62.4832 26.8846 62.5425 26.8248C62.6019 26.7651 62.6353 26.684 62.6353 26.5994V16.7239C62.6351 16.7015 62.6393 16.6793 62.6477 16.6586C62.6561 16.6379 62.6686 16.6191 62.6843 16.6032C62.7 16.5874 62.7187 16.5749 62.7393 16.5664C62.7598 16.5579 62.7819 16.5537 62.8041 16.5539H65.5448C65.597 16.554 65.6485 16.5411 65.6946 16.5163C65.7406 16.4915 65.7799 16.4557 65.8089 16.4119C65.8379 16.3682 65.8556 16.3179 65.8606 16.2655C65.8656 16.2131 65.8576 16.1604 65.8374 16.1119L64.8526 13.7304C64.8288 13.6733 64.789 13.6244 64.738 13.5896C64.687 13.5549 64.6271 13.5359 64.5656 13.5349Z" fill="#DCDCFF"></path><path d="M93.9437 26.4178L89.6751 20.1958C89.6384 20.1423 89.6187 20.0788 89.6187 20.0138C89.6187 19.9488 89.6384 19.8853 89.6751 19.8318L93.6877 14.0348C93.7205 13.9869 93.7398 13.931 93.7433 13.8729C93.7468 13.8149 93.7345 13.757 93.7077 13.7055C93.6809 13.654 93.6406 13.6108 93.5912 13.5807C93.5418 13.5506 93.4851 13.5347 93.4274 13.5347H90.3617C90.3092 13.5344 90.2574 13.5471 90.211 13.5718C90.1646 13.5966 90.125 13.6325 90.0958 13.6763L87.6449 17.4829C87.6355 17.4978 87.6225 17.5101 87.6071 17.5186C87.5918 17.5272 87.5745 17.5316 87.557 17.5316C87.5394 17.5316 87.5222 17.5272 87.5068 17.5186C87.4914 17.5101 87.4784 17.4978 87.469 17.4829L84.9872 13.6778C84.9583 13.6339 84.9189 13.598 84.8727 13.5733C84.8266 13.5485 84.775 13.5358 84.7227 13.5361H81.4389C81.3811 13.5362 81.3243 13.5522 81.2749 13.5825C81.2255 13.6128 81.1852 13.6561 81.1585 13.7078C81.1318 13.7595 81.1197 13.8176 81.1235 13.8757C81.1273 13.9339 81.1469 13.9899 81.18 14.0376L85.2602 19.887C85.2982 19.9408 85.3187 20.0052 85.3187 20.0712C85.3187 20.1372 85.2982 20.2016 85.2602 20.2553L80.8987 26.415C80.8648 26.4627 80.8446 26.5188 80.8403 26.5772C80.8361 26.6357 80.8479 26.6942 80.8745 26.7463C80.9011 26.7984 80.9415 26.8422 80.9912 26.8727C81.0408 26.9032 81.0979 26.9194 81.1561 26.9193H84.2429C84.2949 26.9191 84.3461 26.906 84.3919 26.8813C84.4378 26.8567 84.477 26.8211 84.506 26.7777L87.265 22.5971C87.2747 22.5825 87.2877 22.5705 87.3031 22.5622C87.3184 22.5539 87.3356 22.5496 87.353 22.5496C87.3704 22.5496 87.3875 22.5539 87.4029 22.5622C87.4182 22.5705 87.4313 22.5825 87.4409 22.5971L90.1507 26.7748C90.1797 26.8189 90.2193 26.8549 90.2657 26.8797C90.3122 26.9044 90.364 26.9171 90.4166 26.9165H93.6835C93.741 26.9163 93.7974 26.9004 93.8466 26.8703C93.8958 26.8403 93.9359 26.7973 93.9626 26.746C93.9894 26.6948 94.0018 26.6371 93.9985 26.5793C93.9951 26.5215 93.9762 26.4657 93.9437 26.4178Z" fill="url(#paint5_linear_67_2107)"></path><path d="M93.9437 26.4178L89.6751 20.1958C89.6384 20.1423 89.6187 20.0788 89.6187 20.0138C89.6187 19.9488 89.6384 19.8853 89.6751 19.8318L93.6877 14.0348C93.7205 13.9869 93.7398 13.931 93.7433 13.8729C93.7468 13.8149 93.7345 13.757 93.7077 13.7055C93.6809 13.654 93.6406 13.6108 93.5912 13.5807C93.5418 13.5506 93.4851 13.5347 93.4274 13.5347H90.3617C90.3092 13.5344 90.2574 13.5471 90.211 13.5718C90.1646 13.5966 90.125 13.6325 90.0958 13.6763L87.6449 17.4829C87.6355 17.4978 87.6225 17.5101 87.6071 17.5186C87.5918 17.5272 87.5745 17.5316 87.557 17.5316C87.5394 17.5316 87.5222 17.5272 87.5068 17.5186C87.4914 17.5101 87.4784 17.4978 87.469 17.4829L84.9872 13.6778C84.9583 13.6339 84.9189 13.598 84.8727 13.5733C84.8266 13.5485 84.775 13.5358 84.7227 13.5361H81.4389C81.3811 13.5362 81.3243 13.5522 81.2749 13.5825C81.2255 13.6128 81.1852 13.6561 81.1585 13.7078C81.1318 13.7595 81.1197 13.8176 81.1235 13.8757C81.1273 13.9339 81.1469 13.9899 81.18 14.0376L85.2602 19.887C85.2982 19.9408 85.3187 20.0052 85.3187 20.0712C85.3187 20.1372 85.2982 20.2016 85.2602 20.2553L80.8987 26.415C80.8648 26.4627 80.8446 26.5188 80.8403 26.5772C80.8361 26.6357 80.8479 26.6942 80.8745 26.7463C80.9011 26.7984 80.9415 26.8422 80.9912 26.8727C81.0408 26.9032 81.0979 26.9194 81.1561 26.9193H84.2429C84.2949 26.9191 84.3461 26.906 84.3919 26.8813C84.4378 26.8567 84.477 26.8211 84.506 26.7777L87.265 22.5971C87.2747 22.5825 87.2877 22.5705 87.3031 22.5622C87.3184 22.5539 87.3356 22.5496 87.353 22.5496C87.3704 22.5496 87.3875 22.5539 87.4029 22.5622C87.4182 22.5705 87.4313 22.5825 87.4409 22.5971L90.1507 26.7748C90.1797 26.8189 90.2193 26.8549 90.2657 26.8797C90.3122 26.9044 90.364 26.9171 90.4166 26.9165H93.6835C93.741 26.9163 93.7974 26.9004 93.8466 26.8703C93.8958 26.8403 93.9359 26.7973 93.9626 26.746C93.9894 26.6948 94.0018 26.6371 93.9985 26.5793C93.9951 26.5215 93.9762 26.4657 93.9437 26.4178Z" fill="#DCDCFF"></path><path d="M80.1642 13.535H77.1084C77.0441 13.5352 76.9814 13.5551 76.9286 13.592C76.8758 13.629 76.8355 13.6812 76.8129 13.7418L73.6965 22.1172C73.6892 22.1377 73.6757 22.1554 73.6579 22.1679C73.6402 22.1805 73.619 22.1872 73.5974 22.1872C73.5757 22.1872 73.5545 22.1805 73.5368 22.1679C73.5191 22.1554 73.5056 22.1377 73.4982 22.1172L70.5225 13.7418C70.5006 13.6799 70.4602 13.6263 70.4068 13.5885C70.3533 13.5507 70.2895 13.5305 70.2242 13.5308H67.1881C67.136 13.5307 67.0848 13.5437 67.0388 13.5683C66.9929 13.593 66.9538 13.6287 66.9248 13.6723C66.8959 13.7159 66.8781 13.766 66.8729 13.8181C66.8678 13.8703 66.8755 13.9229 66.8954 13.9713L71.6889 25.6277C71.7205 25.7043 71.7359 25.7867 71.7339 25.8697C71.732 25.9527 71.7128 26.0343 71.6776 26.1093L69.4167 30.926C69.3941 30.9742 69.3838 31.0274 69.3869 31.0806C69.39 31.1338 69.4063 31.1854 69.4343 31.2306C69.4623 31.2758 69.5011 31.3133 69.5472 31.3395C69.5932 31.3658 69.6451 31.3799 69.698 31.3808H72.6062C72.6676 31.381 72.7278 31.3632 72.7793 31.3294C72.8307 31.2957 72.8713 31.2476 72.896 31.1909L80.4526 13.9827C80.4739 13.9342 80.4829 13.8812 80.4787 13.8284C80.4745 13.7756 80.4573 13.7247 80.4287 13.6803C80.4001 13.6359 80.3609 13.5993 80.3147 13.5739C80.2685 13.5486 80.2168 13.5352 80.1642 13.535Z" fill="url(#paint6_linear_67_2107)"></path><path d="M80.1642 13.535H77.1084C77.0441 13.5352 76.9814 13.5551 76.9286 13.592C76.8758 13.629 76.8355 13.6812 76.8129 13.7418L73.6965 22.1172C73.6892 22.1377 73.6757 22.1554 73.6579 22.1679C73.6402 22.1805 73.619 22.1872 73.5974 22.1872C73.5757 22.1872 73.5545 22.1805 73.5368 22.1679C73.5191 22.1554 73.5056 22.1377 73.4982 22.1172L70.5225 13.7418C70.5006 13.6799 70.4602 13.6263 70.4068 13.5885C70.3533 13.5507 70.2895 13.5305 70.2242 13.5308H67.1881C67.136 13.5307 67.0848 13.5437 67.0388 13.5683C66.9929 13.593 66.9538 13.6287 66.9248 13.6723C66.8959 13.7159 66.8781 13.766 66.8729 13.8181C66.8678 13.8703 66.8755 13.9229 66.8954 13.9713L71.6889 25.6277C71.7205 25.7043 71.7359 25.7867 71.7339 25.8697C71.732 25.9527 71.7128 26.0343 71.6776 26.1093L69.4167 30.926C69.3941 30.9742 69.3838 31.0274 69.3869 31.0806C69.39 31.1338 69.4063 31.1854 69.4343 31.2306C69.4623 31.2758 69.5011 31.3133 69.5472 31.3395C69.5932 31.3658 69.6451 31.3799 69.698 31.3808H72.6062C72.6676 31.381 72.7278 31.3632 72.7793 31.3294C72.8307 31.2957 72.8713 31.2476 72.896 31.1909L80.4526 13.9827C80.4739 13.9342 80.4829 13.8812 80.4787 13.8284C80.4745 13.7756 80.4573 13.7247 80.4287 13.6803C80.4001 13.6359 80.3609 13.5993 80.3147 13.5739C80.2685 13.5486 80.2168 13.5352 80.1642 13.535Z" fill="#DCDCFF"></path></g><defs><linearGradient id="paint0_linear_67_2107" x1="-36.7857" y1="-5.76965" x2="84.6579" y2="53.6586" gradientUnits="userSpaceOnUse"><stop stop-color="#047FFE"></stop><stop offset="0.99" stop-color="#00007F"></stop></linearGradient><linearGradient id="paint1_linear_67_2107" x1="-25.1532" y1="-29.5404" x2="96.2904" y2="29.8864" gradientUnits="userSpaceOnUse"><stop stop-color="#047FFE"></stop><stop offset="0.99" stop-color="#00007F"></stop></linearGradient><linearGradient id="paint2_linear_67_2107" x1="-30.8695" y1="-17.8572" x2="90.574" y2="41.5696" gradientUnits="userSpaceOnUse"><stop stop-color="#047FFE"></stop><stop offset="0.99" stop-color="#00007F"></stop></linearGradient><linearGradient id="paint3_linear_67_2107" x1="-29.5287" y1="-20.5999" x2="91.9148" y2="38.8283" gradientUnits="userSpaceOnUse"><stop stop-color="#047FFE"></stop><stop offset="0.99" stop-color="#00007F"></stop></linearGradient><linearGradient id="paint4_linear_67_2107" x1="-27.0876" y1="-25.5877" x2="94.3559" y2="33.8391" gradientUnits="userSpaceOnUse"><stop stop-color="#047FFE"></stop><stop offset="0.99" stop-color="#00007F"></stop></linearGradient><linearGradient id="paint5_linear_67_2107" x1="-22.781" y1="-34.3869" x2="98.6625" y2="25.0399" gradientUnits="userSpaceOnUse"><stop stop-color="#047FFE"></stop><stop offset="0.99" stop-color="#00007F"></stop></linearGradient><linearGradient id="paint6_linear_67_2107" x1="-26.0747" y1="-27.6574" x2="95.3688" y2="31.7709" gradientUnits="userSpaceOnUse"><stop stop-color="#047FFE"></stop><stop offset="0.99" stop-color="#00007F"></stop></linearGradient><clipPath id="clip0_67_2107"><rect width="94" height="34" fill="white"></rect></clipPath></defs></svg>