<svg width="88" height="112" viewBox="0 0 88 112" fill="none" xmlns="http://www.w3.org/2000/svg">
<path fill-rule="evenodd" clip-rule="evenodd" d="M27.5086 0.69002C25.7921 1.32583 26.0719 1.48754 42.7948 9.4881C60.0985 17.7668 61.0013 18.0566 60.6078 15.2081C60.5025 14.4471 56.548 12.3128 45.5244 7.0674C37.3067 3.15708 30.285 -0.0230545 29.9205 0.000125924C29.5555 0.0233064 28.4704 0.333483 27.5086 0.69002ZM23.1434 2.50472C22.3961 3.24483 22.2913 7.79979 22.2913 39.5239V75.6991L21.0374 75.294C20.3481 75.0716 17.857 74.7686 15.5025 74.6213C7.47706 74.119 2.22913 77.25 2.22913 82.5396C2.22913 84.2191 1.85909 85.521 1.11457 86.4582C0.246876 87.5504 0 88.6973 0 91.6313C0 95.041 0.161054 95.583 1.68857 97.3055C3.81906 99.7091 7.44585 100.959 12.2892 100.959C17.1838 100.959 19.4949 100.086 24.526 96.3375C26.8187 94.6293 29.0238 93.2318 29.4267 93.2318C29.8297 93.2318 30.0041 92.9835 29.8146 92.6799C29.6251 92.3764 29.6731 92.1291 29.9211 92.1308C30.169 92.1319 39.1396 96.354 49.8562 101.513C60.5721 106.672 69.905 110.893 70.5954 110.893C71.2853 110.893 72.1096 110.413 72.4272 109.826C73.2108 108.375 73.2303 38.0403 72.4467 38.0403C72.0811 38.0403 71.8894 50.3723 71.8894 73.9319C71.8894 102.827 71.7485 109.878 71.1666 110.098C70.7693 110.25 61.553 106.092 50.6865 100.859C39.8201 95.626 29.9261 90.8663 28.7 90.2818L26.4709 89.2189L26.6559 84.4641C26.8387 79.7717 26.8187 79.6889 25.1234 78.0889L23.4059 76.468V39.9014C23.4059 19.0969 23.6199 3.20399 23.9024 3.03069C24.1755 2.86346 27.1848 4.00703 30.5898 5.57171C36.5856 8.32742 36.7806 8.47258 36.7806 10.1841C36.7806 13.0921 38.6453 14.6717 46.9293 18.7818C55.7901 23.1778 57.5667 23.4598 57.8532 20.5165C58.0114 18.8944 58.1379 18.7801 59.1717 19.3282C60.0394 19.7879 60.2612 19.773 60.0901 19.2653C59.9101 18.7299 28.6014 3.35798 24.9546 2.01406C24.4084 1.81317 23.6282 2.02455 23.1434 2.50472ZM70.2176 7.01883C70.2176 7.25946 71.306 7.7446 72.6362 8.09672C74.0952 8.48306 76.1404 9.70887 77.7911 11.1863C84.8301 17.4853 87.7909 28.421 84.1363 34.6207L82.9337 36.6605L84.9243 34.7686C87.5469 32.2761 88.2412 29.9884 87.9314 24.86C87.3674 15.5145 79.8497 6.58116 72.5493 6.58116C71.267 6.58116 70.2176 6.77819 70.2176 7.01883ZM65.3035 9.35729C60.897 12.0181 60.0171 20.0512 63.3636 27.0633C66.612 33.8706 71.8248 38.0403 77.0861 38.0403C79.1525 38.0403 80.0297 37.7125 81.5884 36.357C84.0917 34.1802 84.8747 31.7065 84.6083 26.8182C83.9708 15.1232 72.6752 4.90665 65.3035 9.35729ZM62.9016 9.75467C62.2089 10.63 62.2284 10.6493 63.1122 9.9633C64.0407 9.24194 64.3355 8.78882 63.8768 8.78882C63.7615 8.78882 63.3223 9.22373 62.9016 9.75467ZM75.3346 11.4275C80.1829 14.7313 83.8309 21.894 83.8092 28.0689C83.7885 34.0985 81.3449 37.1446 76.5857 37.0734C69.7751 36.9713 63.0755 28.6727 62.5299 19.6638C62.0846 12.3056 64.4012 9.14205 69.9679 9.50521C72.0109 9.63877 73.4833 10.1664 75.3346 11.4275ZM74.5415 21.5552L71.8995 23.7971L70.9192 22.0916C69.9233 20.3586 68.8991 19.9187 68.2565 20.9481C67.9823 21.3879 70.6333 26.9082 71.666 28.0462C71.8293 28.2267 73.3105 27.0809 78.7429 22.5718C79.2004 22.1921 78.0998 19.2598 77.5119 19.2945C77.3313 19.305 75.9949 20.3227 74.5415 21.5552ZM73.5613 74.2112V109.959L75.5385 107.942C76.6263 106.833 77.8028 105.997 77.8028 105.997C77.9002 105.997 77.8028 97.1659 77.8028 97.1659C77.8028 97.1659 77.7653 81.2889 77.8028 81.6416C77.8028 81.6416 77.4717 70.5829 77.4684 59.427C77.4634 43.576 77.3101 39.1425 76.7657 39.1364C76.3828 39.1326 75.5051 38.9791 74.8152 38.7964L73.5613 38.4636V74.2112ZM42.9364 40.487C38.7869 42.2603 37.8952 43.4877 37.8952 47.4278C37.8952 49.8971 38.268 51.3244 39.5375 53.7136L41.1793 56.8054H39.5214C38.6096 56.8054 36.356 57.5594 34.5136 58.4805L31.1632 60.155L31.3249 64.6443L31.4865 69.133L43.3638 75.1732L55.2412 81.2128L57.7139 80.2778L60.1865 79.3429V74.6328C60.1865 70.1441 60.0973 69.8036 58.2873 67.3608C56.3039 64.6851 53.5905 62.334 49.9648 60.15L47.8232 58.8602L50.5082 57.4186C53.697 55.7071 54.5986 54.1706 54.5931 50.4584C54.5869 45.9824 51.5397 40.9561 48.0294 39.6309C46.3509 38.9979 46.469 38.978 42.9364 40.487ZM45.5595 44.2494C47.8828 46.6265 49.0409 49.5246 49.0409 52.9608C49.0409 56.7442 48.3404 57.9093 46.0655 57.9093C42.509 57.9093 39.0098 52.6997 39.0098 47.4041C39.0098 43.6207 39.7103 42.4556 41.9851 42.4556C43.3092 42.4556 44.2856 42.9457 45.5595 44.2494ZM43.2641 62.3113C45.7886 63.5371 48.3699 65.4313 50.852 67.8807L54.6137 71.5929V75.5137C54.6137 77.6695 54.49 79.434 54.3389 79.434C54.1874 79.434 49.1718 77.0155 43.1933 74.0594L32.3224 68.6849V64.769C32.3224 62.6149 32.5107 60.6633 32.7403 60.4321C33.7111 59.4546 39.513 60.4911 43.2641 62.3113ZM20.1185 76.1986C21.16 76.5441 22.828 77.4261 23.8238 78.1585C25.3274 79.264 25.635 79.8556 25.635 81.6416C25.635 83.4276 25.3274 84.0193 23.8238 85.1248C21.2386 87.0256 18.7604 87.7127 14.4893 87.7127C10.2183 87.7127 7.7401 87.0256 5.15486 85.1248C3.65132 84.0193 3.3437 83.4276 3.3437 81.6416C3.3437 79.8567 3.65243 79.2623 5.15486 78.1524C6.15128 77.4173 7.71836 76.5546 8.63788 76.2367C10.9094 75.4502 17.7924 75.4276 20.1185 76.1986ZM12.1454 79.8904C9.78365 81.0053 7.83985 82.0936 7.82647 82.3083C7.77632 83.1042 12.696 85.505 14.3773 85.505C15.3804 85.505 16.5435 85.0525 17.1225 84.4371C17.6748 83.8498 18.8133 83.1108 19.652 82.7951C20.4907 82.4794 21.1767 81.864 21.1767 81.4286C21.1767 80.5107 18.0615 77.7578 17.0935 77.8207C16.7341 77.8439 14.5072 78.7755 12.1454 79.8904ZM18.3903 81.1488C18.3903 81.7299 17.7244 81.7774 16.4387 81.2889C15.7471 81.0262 15.6869 80.8281 16.203 80.5118C17.0044 80.0218 18.3903 80.4252 18.3903 81.1488ZM14.4481 82.4204C15.3659 83.5154 14.2636 84.064 12.754 83.2637C11.7949 82.7554 11.7085 82.5291 12.3243 82.1428C13.3831 81.4788 13.693 81.5191 14.4481 82.4204ZM5.34601 86.3318C8.1419 88.2111 11.2008 88.9379 15.4094 88.7221L18.9498 88.5406L18.9487 90.3343L18.9476 92.128H14.851C8.34085 92.128 3.71875 89.9424 3.22834 86.6309C3.09125 85.7081 3.05001 84.9531 3.13694 84.9531C3.22332 84.9531 4.21751 85.5735 5.34601 86.3318ZM7.20566 91.7141C9.68111 92.9559 10.9467 93.2274 14.1711 93.2075C16.3384 93.1943 19.1053 92.8328 20.3196 92.4045C23.0475 91.4425 23.3964 91.6738 21.3484 93.0872C18.9119 94.7678 16.3183 95.4395 12.2602 95.4395C7.9892 95.4395 5.51097 94.7524 2.92573 92.8516C1.43835 91.7582 1.11457 91.1467 1.11457 89.4324C1.11457 86.589 1.59717 86.3307 2.99706 88.4246C3.65466 89.4087 5.52546 90.8707 7.20566 91.7141ZM21.734 89.3359C21.734 90.2289 21.4832 91.1125 21.1767 91.3001C20.8452 91.5032 20.6195 90.8459 20.6195 89.6769C20.6195 88.5968 20.8702 87.7127 21.1767 87.7127C21.4832 87.7127 21.734 88.4429 21.734 89.3359ZM38.4525 91.3393C38.4525 91.8405 52.4715 98.2968 52.817 97.9551C53.245 97.5307 53.4373 97.6389 46.0466 94.1486C39.6183 91.113 38.4525 90.682 38.4525 91.3393ZM3.11688 94.0586C5.91277 95.9379 8.97169 96.6647 13.1803 96.4489L16.7207 96.2674L16.7196 98.0611L16.7185 99.8548H12.6219C6.11172 99.8548 1.48962 97.6692 0.999207 94.3577C0.862116 93.4349 0.820878 92.6799 0.907814 92.6799C0.994193 92.6799 1.98838 93.3003 3.11688 94.0586ZM19.5049 97.0627C19.5049 97.9557 19.2541 98.8393 18.9476 99.0269C18.616 99.23 18.3903 98.5727 18.3903 97.4038C18.3903 96.3237 18.6411 95.4395 18.9476 95.4395C19.2541 95.4395 19.5049 96.1697 19.5049 97.0627ZM72.3754 111.307C71.6827 112.182 71.7022 112.202 72.586 111.516C73.5145 110.794 73.8093 110.341 73.3506 110.341C73.2353 110.341 72.7961 110.776 72.3754 111.307Z" fill="#252525"/>
<path fill-rule="evenodd" clip-rule="evenodd" d="M42.7731 40.2628C38.6236 42.0361 37.732 43.2635 37.732 47.2036C37.732 49.6729 38.1048 51.1002 39.3743 53.4894L41.016 56.5812H39.3581C38.4464 56.5812 36.1928 57.3352 34.3504 58.2563L31 59.9308L31.1616 64.4201L31.3232 68.9088L43.2006 74.949L55.0779 80.9886L57.5506 80.0536L60.0233 79.1187V74.4086C60.0233 69.9199 59.9341 69.5794 58.1241 67.1366C56.1407 64.4609 53.4273 62.1098 49.8016 59.9258L47.66 58.636L50.3449 57.1944C53.5337 55.4829 54.4354 53.9464 54.4298 50.2342C54.4237 45.7582 51.3765 40.7319 47.8662 39.4067C46.1876 38.7737 46.3058 38.7538 42.7731 40.2628ZM45.3963 44.0252C47.7196 46.4023 48.8776 49.3004 48.8776 52.7366C48.8776 56.52 48.1771 57.6851 45.9023 57.6851C42.3457 57.6851 38.8465 52.4755 38.8465 47.1799C38.8465 43.3965 39.547 42.2314 41.8219 42.2314C43.146 42.2314 44.1223 42.7215 45.3963 44.0252ZM43.1008 62.0871C45.6253 63.3129 48.2067 65.2071 50.6888 67.6565L54.4504 71.3687V75.2895C54.4504 77.4453 54.3267 79.2098 54.1757 79.2098C54.0241 79.2098 49.0086 76.7913 43.0301 73.8352L32.1591 68.4607V64.5448C32.1591 62.3907 32.3475 60.4391 32.5771 60.2079C33.5479 59.2304 39.3498 60.2669 43.1008 62.0871Z" fill="#1772F8"/>
</svg>
