<?xml version="1.0" encoding="utf-8"?>
<!-- Generator: Adobe Illustrator 25.2.0, SVG Export Plug-In . SVG Version: 6.00 Build 0)  -->
<svg version="1.1" id="bityx_logo" xmlns="http://www.w3.org/2000/svg" xmlns:xlink="http://www.w3.org/1999/xlink" x="0px"
	 y="0px" viewBox="0 0 1124 250" style="enable-background:new 0 0 1124 250;" xml:space="preserve">
<style type="text/css">
	.st0{fill:#007FFF;}
	.st1{fill:#161616;}
</style>
<path class="st0" d="M573.8,26.9L552.7,5.7c-1-1-2.5-1-3.5,0l-21.2,21.2c-1,1-1,2.5,0,3.5l21.2,21.2c1,1,2.5,1,3.5,0l21.2-21.2
	C574.8,29.5,574.8,27.9,573.8,26.9z"/>
<g>
	<path class="st1" d="M336,189.8c-12,0-22.8-2.6-32.2-7.8c-9.4-5.2-16.8-12.4-22-21.6c-5.3-9.2-7.9-19.7-7.9-31.4s2.6-22.4,7.9-31.5
		c5.2-9.1,12.5-16.3,21.8-21.5c9.3-5.2,20-7.8,32-7.8s22.2,2.9,31.8,8.6c9.6,5.7,16.5,14,20.9,24.8l-28.8,10.2
		c-2.2-4.5-5.5-8.1-10.1-10.8s-9.6-4.1-15.2-4.1s-10.8,1.4-15.1,4.1s-7.7,6.4-10.2,11.2c-2.5,4.8-3.7,10.4-3.7,16.7
		c0,6.3,1.2,11.9,3.7,16.6c2.5,4.7,5.9,8.5,10.4,11.2s9.6,4.2,15.3,4.2s10.6-1.5,15.2-4.4s7.9-6.8,10.1-11.6l29,10.2
		c-4.5,11-11.5,19.5-21,25.5C358.4,186.8,347.8,189.8,336,189.8L336,189.8z"/>
	<rect x="535.6" y="71" class="st1" width="30.6" height="116"/>
	<path class="st1" d="M681.2,81.1c-7.5-8.6-18.3-12.9-32.3-12.9c-8.8,0-16.5,2.3-23,6.8c-4.3,3-7.9,7-10.9,11.7L613.6,71h-28.8v116
		h30.6v-60.8c0-9.7,2.1-17.1,6.4-22s10.3-7.3,18.2-7.2c4.3,0,8.1,1,11.4,2.9c3.2,1.9,5.8,5.1,7.5,9.4c1.8,4.3,2.7,10.4,2.7,18.3V187
		h30.6v-66.3C692.4,102.9,688.7,89.7,681.2,81.1L681.2,81.1z"/>
	<polygon class="st1" points="856.4,71 831.8,145.3 808.2,71 804.7,71 781.8,71 778,71 753.7,147 729.6,71 698.5,71 737.9,187 
		740.9,187 766.5,187 768.1,187 793.2,107.6 817.9,187 845.1,187 848.1,187 887.5,71 	"/>
	<path class="st1" d="M1108.2,81.1c-7.5-8.6-18.3-12.9-32.3-12.9c-8.8,0-16.5,2.3-23,6.8c-4.3,3-7.9,7-10.9,11.7l-1.4-15.8h-28.8
		v116h30.6v-60.8c0-9.7,2.1-17.1,6.4-22s10.3-7.3,18.2-7.2c4.3,0,8.1,1,11.4,2.9c3.2,1.9,5.8,5.1,7.6,9.4c1.8,4.3,2.7,10.4,2.7,18.3
		V187h30.6v-66.3C1119.4,102.9,1115.7,89.7,1108.2,81.1L1108.2,81.1z"/>
	<path class="st1" d="M509.1,97.5c-5.2-9.1-12.3-16.3-21.5-21.5c-9.1-5.2-19.7-7.8-31.8-7.8s-22.2,2.6-31.4,7.8
		c-9.2,5.2-16.4,12.3-21.6,21.5c-5.2,9.1-7.8,19.6-7.8,31.5c0,11.9,2.6,22.4,7.9,31.5c5.3,9.1,12.5,16.3,21.7,21.4
		c9.2,5.2,19.8,7.8,31.6,7.8s22.4-2.6,31.4-7.8c9-5.2,16.1-12.3,21.3-21.4c5.2-9.1,7.8-19.6,7.8-31.5S514.3,106.6,509.1,97.5
		L509.1,97.5z M480.1,113c2.4,4.6,3.6,10,3.6,16c0,6-1.2,11.4-3.5,16c-2.3,4.6-5.5,8.3-9.6,10.9c-4.1,2.6-8.9,3.9-14.3,3.9
		s-10.2-1.3-14.5-3.9s-7.5-6.3-9.9-10.9c-2.3-4.6-3.5-10-3.5-16c0-6,1.2-11.4,3.5-16c2.3-4.6,5.6-8.3,9.7-10.9
		c4.2-2.6,8.9-3.9,14.1-3.9h31.4l-6.5,6.9c-1.5,1.6-3.3,4.3-2.1,6C479.2,111.8,479.8,112.3,480.1,113L480.1,113z"/>
	<path class="st1" d="M987.3,93c-3.9-8.1-9.7-14.3-17.4-18.4c-7.7-4.2-17.4-6.3-29-6.3c-9.6,0-17.7,1.6-24.5,4.6s-12.1,7-16.2,11.7
		c-4.1,4.7-7.2,9.6-9.4,14.5l27.4,9.3c2.6-4.5,5.8-7.7,9.5-9.7c3.7-2,7.9-3,12.5-3c5.2,0,9.5,1.3,12.6,3.8c3.2,2.6,5.5,6.3,7,11.1
		c0.6,1.9,1,4.1,1.3,6.4h-26.2c-15,0-26.6,3.1-34.9,9.4c-8.3,6.3-12.4,15.6-12.4,28c0,11.3,3.8,20,11.5,26.2
		c7.7,6.2,18.4,9.3,32.4,9.3s23.7-4.4,29.8-13.2c0.5-0.8,0.9-1.7,1.4-2.5l0.2,12.9h30.4v-64.2C993.1,111,991.1,101.1,987.3,93
		L987.3,93z M961.3,146.6c-1,1-1.6,2.1-2,3l-0.1,0.1c-0.3,0.6-0.4,1.2-0.7,1.7c-2.2,3.8-5.1,6.9-8.9,9.3c-3.8,2.4-8.2,3.6-13.1,3.6
		c-5.6,0-9.9-1-13-2.9c-3.1-1.9-4.6-4.6-4.6-8c0-4.3,1.9-7.7,5.8-10.1c3.9-2.4,10.8-3.6,20.9-3.6h22.2L961.3,146.6L961.3,146.6z"/>
</g>
<g>
	<path class="st0" d="M76.5,231.6c19,17.9,48.7,17.9,67.7,0l27.8-26.2v-70.2l-74.2,69.7v-17.3c0-3.9-1.6-7.7-4.5-10.4L4.8,93.9V158
		c0,3.9,1.6,7.7,4.5,10.4L76.5,231.6L76.5,231.6z"/>
	<path class="st0" d="M87.3,127.3l21.2-21.2c1-1,2.5-1,3.5,0l21.2,21.2c1,1,1,2.5,0,3.5L112.1,152c-1,1-2.5,1-3.5,0l-21.2-21.2
		C86.4,129.8,86.4,128.2,87.3,127.3z"/>
	<path class="st0" d="M211.4,89.7l-67.3-63.2c-19-17.9-48.7-17.9-67.7,0L48.6,52.6v70.3l74.2-69.7v17.3c0,3.9,1.6,7.7,4.5,10.4
		l88.7,83.3v-64.1C215.9,96.1,214.2,92.4,211.4,89.7L211.4,89.7z"/>
</g>
</svg>
