<svg width="48" height="48" viewBox="0 0 48 48" fill="none" xmlns="http://www.w3.org/2000/svg">
<path d="M45 4.49103H3C1.35075 4.49103 0 5.84103 0 7.49103V33C0 34.6493 1.35075 35.9992 3 35.9992H22.5V40.509H15C14.172 40.509 13.5 41.181 13.5 42.009C13.5 42.837 14.172 43.509 15 43.509H33C33.828 43.509 34.5 42.837 34.5 42.009C34.5 41.181 33.828 40.509 33 40.509H25.5V35.9992H45C46.6493 35.9992 48 34.6492 48 33V7.49103C48 5.84103 46.6493 4.49103 45 4.49103ZM45 33H3V7.49103H45V33Z" fill="#1772F8"/>
<path d="M21.0381 24.0455L16.5338 19.692L15 21.1641L21.0381 27L34 14.472L32.477 13L21.0381 24.0455Z" fill="#1772F8" fill-opacity="0.4"/>
</svg>
