<?xml version="1.0" encoding="UTF-8"?>
<svg width="468px" height="113px" viewBox="0 0 468 113" version="1.1" xmlns="http://www.w3.org/2000/svg" xmlns:xlink="http://www.w3.org/1999/xlink">
    <title>卡片背景</title>
    <defs>
        <path d="M16,0 L452,0 C460.836556,-1.623249e-15 468,7.163444 468,16 L468,112 C468,112.552285 467.552285,113 467,113 L1,113 C0.44771525,113 6.76353751e-17,112.552285 0,112 L0,16 C-1.082166e-15,7.163444 7.163444,1.623249e-15 16,0 Z" id="path-1"></path>
    </defs>
    <g id="活动-积分" stroke="none" stroke-width="1" fill="none" fill-rule="evenodd">
        <g id="活动-使用" transform="translate(-436.000000, -565.000000)">
            <g id="编组-8" transform="translate(420.000000, 549.000000)">
                <g id="形状结合" transform="translate(16.000000, 16.000000)">
                    <mask id="mask-2" fill="white">
                        <use xlink:href="#path-1"></use>
                    </mask>
                    <use id="蒙版" fill="#F0F9FA" xlink:href="#path-1"></use>
                    <path d="M329.817439,15 C337.683271,15 345.196958,18.2795589 350.561417,24.0545805 L464.382488,146.586895 C474.539171,157.521 474.539171,174.479 464.382488,185.413105 L350.561417,307.945419 C345.196958,313.720441 337.683271,317 329.817439,317 L278.908667,317 C272.481077,317 269.147189,309.305096 273.530811,304.586106 L374.211542,196.200192 L318.573702,196.200192 L262,135.799808 L374.211542,135.799808 L262,15 L329.817439,15 Z M271.090414,-103 C277.51799,-103 280.85187,-95.3051728 276.469215,-90.5864901 L175.788714,17.7998078 L231.426427,17.7998078 L288,78.2001922 L175.788714,78.2001922 L288,199 L220.182715,199 C212.315945,199 204.802275,195.720441 199.437828,189.945419 L85.6177439,67.4131052 C75.4607393,56.4790002 75.4607584,39.5209998 85.617763,28.5868948 L199.437828,-93.9455348 C204.802275,-99.7206333 212.315945,-103 220.182715,-103 L271.090414,-103 Z" fill="#1DA2B4" fill-rule="nonzero" opacity="0.0494777134" mask="url(#mask-2)"></path>
                </g>
            </g>
        </g>
    </g>
</svg>