<svg width="436" height="375" viewBox="0 0 436 375" fill="none" xmlns="http://www.w3.org/2000/svg">
<path d="M218.6 275.9C181.9 275.9 147.3 261.6 121.4 235.6C95.4 209.6 81.1 175.1 81.1 138.4C81.1 101.7 95.4 67.1 121.4 41.2C147.4 15.2 181.9 0.899963 218.6 0.899963C255.3 0.899963 289.9 15.2 315.8 41.2C341.8 67.2 356.1 101.7 356.1 138.4C356.1 175.1 341.8 209.7 315.8 235.6C289.9 261.5 255.3 275.9 218.6 275.9Z" fill="black"/>
<mask id="mask0" mask-type="alpha" maskUnits="userSpaceOnUse" x="80" y="0" width="277" height="277">
<path d="M218.4 276.89C181.568 276.89 146.843 262.538 120.85 236.445C94.7566 210.351 80.4051 175.727 80.4051 138.895C80.4051 102.063 94.7566 67.3383 120.85 41.345C146.944 15.2514 181.568 0.899963 218.4 0.899963C255.232 0.899963 289.957 15.2514 315.95 41.345C342.044 67.4386 356.395 102.063 356.395 138.895C356.395 175.727 342.044 210.452 315.95 236.445C289.957 262.438 255.232 276.89 218.4 276.89Z" fill="black"/>
</mask>
<g mask="url(#mask0)">
<path d="M222.515 277.693H276.207C276.207 253.105 303.606 217.878 303.606 164.888C303.606 119.726 296.079 95.3388 291.562 83.9981C287.849 74.5643 283.534 69.1448 274.3 69.1448C265.067 69.1448 256.135 72.7578 253.626 93.5323C246.4 155.555 218.701 191.383 222.515 277.693Z" fill="white"/>
<path d="M214.285 277.693H160.593C160.593 253.105 133.194 217.878 133.194 164.888C133.194 119.726 140.721 95.3388 145.238 83.9981C148.951 74.5643 153.266 69.1448 162.499 69.1448C171.733 69.1448 180.665 72.7578 183.174 93.5323C190.4 155.555 218.099 191.383 214.285 277.693Z" fill="white"/>
<path d="M218.701 278.295H217.296C205.654 278.295 195.819 271.972 188.995 259.929C182.973 249.391 179.36 234.939 178.457 217.979C176.65 185.161 172.937 122.737 170.729 94.7365C169.725 82.3922 165.811 81.3886 162.299 81.3886C158.084 81.3886 155.575 84.8009 153.066 93.6326C150.858 101.461 143.331 138.493 146.342 176.128C148.248 199.111 155.675 218.48 162.198 235.542C168.22 251.097 173.338 264.546 173.338 277.693H170.528C170.528 265.148 165.41 251.9 159.589 236.545C152.965 219.283 145.438 199.813 143.531 176.329C140.42 138.293 148.148 100.858 150.356 92.8297C152.463 85.403 155.374 78.4782 162.299 78.4782C169.324 78.4782 172.636 83.2955 173.539 94.4354C175.747 122.436 179.46 184.96 181.267 217.677C182.17 234.237 185.683 248.287 191.403 258.424C197.826 269.664 206.457 275.384 217.296 275.384H218.701C224.221 275.384 229.239 273.879 233.755 270.868C237.97 268.058 241.784 263.843 244.995 258.424C250.917 248.287 254.73 233.835 255.634 217.677C257.44 184.86 261.153 122.436 263.361 94.4354C264.264 83.1951 267.576 78.4782 274.602 78.4782C281.627 78.4782 284.537 85.403 286.544 92.8297C288.752 100.758 296.48 138.293 293.369 176.329C291.462 199.713 283.935 219.384 277.311 236.746C271.39 252.201 266.372 265.549 266.372 278.094H263.562C263.562 264.947 268.781 251.398 274.702 235.642C281.225 218.48 288.652 199.011 290.559 176.028C293.67 138.393 286.043 101.36 283.835 93.5322C281.326 84.7005 278.817 81.2883 274.602 81.2883C270.989 81.2883 267.175 82.2919 266.171 94.6362C263.963 122.637 260.25 185.061 258.444 217.878C257.54 234.739 253.727 249.191 247.404 259.929C240.379 271.972 230.443 278.295 218.701 278.295Z" fill="black"/>
<path d="M239.756 69.5462V71.5534C227.11 74.3635 222.193 79.0803 219.382 92.2275H216.873C214.063 78.98 209.547 74.3635 196.4 71.5534V69.5462C209.547 66.7361 214.063 62.0192 216.873 48.872H219.382C222.193 62.1195 227.11 66.8365 239.756 69.5462Z" fill="white"/>
</g>
<path d="M218.5 276.89C181.668 276.89 146.943 262.538 120.95 236.445C94.8566 210.351 80.5051 175.727 80.5051 138.895C80.5051 102.063 94.8566 67.3383 120.95 41.345C147.044 15.2514 181.668 0.899963 218.5 0.899963C255.332 0.899963 290.057 15.2514 316.05 41.345C342.144 67.4386 356.495 102.063 356.495 138.895C356.495 175.727 342.144 210.452 316.05 236.445C290.057 262.438 255.332 276.89 218.5 276.89ZM218.5 4.11148C144.234 4.11148 83.7167 64.5282 83.7167 138.895C83.7167 213.161 144.133 273.678 218.5 273.678C292.867 273.678 353.284 213.262 353.284 138.895C353.284 64.5282 292.767 4.11148 218.5 4.11148Z" fill="white"/>
<path d="M413.9 309.9C401.8 309.9 391.9 319.7 391.9 331.9C391.9 344 401.7 353.9 413.9 353.9C426 353.9 435.9 344.1 435.9 331.9C435.9 319.7 426.1 309.9 413.9 309.9ZM413.9 347.8C405.1 347.8 397.9 340.7 397.9 331.8C397.9 323 405.1 315.8 413.9 315.8C422.7 315.8 429.9 322.9 429.9 331.8C429.9 340.7 422.7 347.8 413.9 347.8Z" fill="white"/>
<path d="M167 309.9C160.8 309.9 156.1 314.8 154.8 318.8V311.6H136.6V317.6H148.9V346.3H136.6V352.3H170V346.3H154.8V328.1C154.8 325.4 157.2 315.5 165.3 315.5C167.8 315.5 170.1 316.2 171.6 317.9C171 318.7 170.7 319.6 170.7 320.7C170.7 323.3 172.8 325.4 175.4 325.4C178.2 325.4 180 323.1 180 320.3C180 315.8 174.8 309.9 167 309.9Z" fill="white"/>
<path d="M322.6 309.9C316.4 309.9 311.7 314.8 310.4 318.8V311.6H292.2V317.6H304.5V346.3H292.2V352.3H325.6V346.3H310.4V328.1C310.4 325.4 312.8 315.5 320.9 315.5C323.4 315.5 325.7 316.2 327.2 317.9C326.6 318.7 326.3 319.6 326.3 320.7C326.3 323.3 328.4 325.4 331 325.4C333.8 325.4 335.6 323.1 335.6 320.3C335.6 315.8 330.5 309.9 322.6 309.9Z" fill="white"/>
<path d="M223.2 329.1C225.8 329.1 227.9 327 227.9 324.4C227.9 324.2 227.9 324 227.9 323.8C227.3 318.4 218.8 310 207.9 310C195.6 310 185.6 319.9 185.6 332C185.6 344.2 195.6 354 207.9 354C216.4 354 223.8 349.3 227.5 342.3L222.7 339C219.8 344.3 214.3 347.9 207.9 347.9C199 347.9 192 340.7 192 331.9C192 323.1 199 315.9 207.9 315.9C212.9 315.9 217 317.8 219.8 321C219 321.8 218.5 323 218.5 324.3C218.5 327 220.6 329.1 223.2 329.1Z" fill="white"/>
<path d="M371 317.6H376L365.3 345.3L353.6 317.7H358.7V311.6H341.2V317.6H347.2L362.2 353.4L353.9 374.8H360.3L382.4 317.7H388.6V311.6H371V317.6Z" fill="white"/>
<path d="M72.7 327.2C72.7 316.5 65.6001 309.9 56.8001 309.9C49.9001 309.9 44.2 314.9 41.7 319.9C39.3 313.6 33.6 309.9 27.1 309.9C20.6 309.9 15.0001 314.8 13.3001 318.8V311.6H0.900024V317.6H7.30005V352.2H13.3001V327.9C13.3001 325.1 16.6001 315.2 26.3001 315.2C30.9001 315.2 37.1 319.3 37.1 327.8V352.2H43.1C43.1 352.2 43.1 328.3 43.1 327.8C43.1 325 46.1001 315.2 56.0001 315.2C60.6001 315.2 66.8001 318.9 66.8001 327.3V352.1H79.2V346.2H72.8001L72.7 327.2Z" fill="white"/>
<path d="M107.7 309.9C95.5001 309.9 85.7001 319.6 85.7001 331.8C85.7001 332.2 85.8001 333.8 85.8001 334.1C86.9001 345.2 96.4001 353.9 107.9 353.9C116.4 353.9 123.8 349.2 127.5 342.2L122.7 338.9C119.8 344.2 114.3 347.8 107.9 347.8C99.7001 347.8 92.9001 341.8 91.8001 333.9H128.7C128.8 333.2 128.8 332.4 128.8 331.7C128.9 319.6 119.9 309.9 107.7 309.9ZM92.1001 328C93.8001 320.9 100.1 315.7 107.7 315.7C115.3 315.7 120.8 321 122.5 328H92.1001Z" fill="white"/>
<path d="M276.6 311.6H270.6V335.7C270.6 341.2 264.9 348.6 257.6 348.6C253 348.6 246.9 344.3 246.9 336.4V311.6H234.5V317.6H240.9V336.8C240.9 347.5 248 353.8 256.8 353.8C263 353.8 267.8 350 270.6 346V352.3H283V346.3H276.6V311.6Z" fill="white"/>
</svg>
