<?xml version="1.0" standalone="no"?><!DOCTYPE svg PUBLIC "-//W3C//DTD SVG 1.1//EN" "http://www.w3.org/Graphics/SVG/1.1/DTD/svg11.dtd"><svg t="1617940105397" class="icon" viewBox="0 0 1024 1024" version="1.1" xmlns="http://www.w3.org/2000/svg" p-id="10755" xmlns:xlink="http://www.w3.org/1999/xlink" width="200" height="200"><defs><style type="text/css"></style></defs><path d="M888.021333 788.992H136.021333A72.021333 72.021333 0 0 1 64 717.013333v-410.026666c0-39.765333 32.256-71.978667 72.021333-71.978667h752c39.722667 0 71.978667 32.213333 71.978667 71.978667v410.026666c0 39.765333-32.256 71.978667-72.021333 71.978667z" fill="#F7F9FB" p-id="10756"></path><path d="M355.498667 537.472a53.077333 53.077333 0 0 1-24.405334-23.808 52.778667 52.778667 0 0 1-5.034666-27.221333c0.810667-14.122667 7.125333-25.6 17.493333-34.986667 2.389333-2.176 4.949333-4.138667 7.722667-5.845333a51.882667 51.882667 0 0 0-7.424-9.088 54.528 54.528 0 0 0-34.176-14.421334 58.154667 58.154667 0 0 0-24.234667 3.754667c-5.333333 1.834667-10.666667 3.882667-16 5.845333a18.688 18.688 0 0 1-13.397333-0.085333l-14.805334-5.546667a47.914667 47.914667 0 0 0-29.781333-1.749333 57.514667 57.514667 0 0 0-32.725333 22.186667c-6.826667 9.301333-10.666667 19.84-12.586667 31.146666-0.426667 2.688-0.725333 5.333333-1.109333 7.978667v15.786667c0.426667 1.493333 0.341333 3.029333 0.512 4.522666 1.578667 14.976 5.546667 29.269333 11.52 43.093334 4.821333 11.221333 11.306667 21.461333 18.602666 31.232 4.522667 6.101333 9.386667 11.946667 15.616 16.384a25.642667 25.642667 0 0 0 20.565334 4.821333c4.992-0.938667 9.642667-2.816 14.250666-4.864 13.013333-5.845333 26.026667-6.058667 39.04-0.128 3.413333 1.578667 6.826667 3.029333 10.496 3.925333 8.106667 1.92 15.957333 1.28 23.253334-3.114666a47.36 47.36 0 0 0 11.477333-9.984c6.656-7.808 12.16-16.384 17.237333-25.258667 3.84-6.698667 6.997333-13.738667 9.386667-21.12 0.768-2.346667 0.768-2.346667-1.493333-3.456z m501.973333-96.426667h-31.658667c-1.109333 0-1.536 0.298667-1.877333 1.408l-39.552 127.061334c-0.128 0.426667-0.128 1.024-0.64 1.28-0.725333-0.213333-0.597333-0.853333-0.768-1.365334l-39.466667-126.933333c-0.341333-1.152-0.853333-1.450667-2.048-1.450667h-32.042666c-0.469333 0-1.024-0.170667-1.450667 0.298667l0.341333 1.024c18.730667 51.626667 37.418667 103.296 56.192 154.922667a8.021333 8.021333 0 0 1 0.170667 5.845333c-1.706667 4.821333-2.773333 9.856-5.034667 14.506667a24.149333 24.149333 0 0 1-20.650666 14.634666c-4.949333 0.426667-9.898667 0.298667-14.933334-0.170666v26.325333c1.834667 0.426667 3.584 0.426667 5.333334 0.512 2.474667 0.213333 4.992 0.170667 7.424 0.725333h6.4l7.125333-0.810666a47.786667 47.786667 0 0 0 35.712-21.76c5.376-8.106667 9.386667-16.810667 12.629333-25.941334 12.928-36.266667 25.770667-72.618667 38.613334-108.970666l21.077333-59.477334c0.170667-0.426667 0.213333-0.938667 0.597333-1.237333v-0.298667l-1.493333-0.085333z m-585.557333-23.04c11.050667-2.56 19.712-8.746667 26.24-17.834666 6.4-8.96 10.496-18.858667 10.794666-30.037334l-0.128-5.802666h-1.706666c-1.194667 0.213333-2.432 0.341333-3.626667 0.64-21.589333 5.205333-35.712 18.346667-41.770667 39.765333a32.170667 32.170667 0 0 0-0.853333 13.781333 32.426667 32.426667 0 0 0 11.093333-0.512z m243.2-28.16a77.056 77.056 0 0 0-37.376-8.789333h-79.786667c-0.512 0-1.024-0.128-1.536 0.170667v217.770666h33.962667V524.8h46.08c10.112-0.042667 19.968-1.450667 29.482666-5.034667 14.336-5.376 25.728-14.378667 33.792-27.434666a71.68 71.68 0 0 0 10.368-33.450667c0.853333-13.056-0.853333-25.728-6.186666-37.802667a63.914667 63.914667 0 0 0-28.8-31.146666z m-2.432 79.786667c-4.522667 13.397333-14.08 21.290667-27.52 24.832-5.248 1.408-10.666667 1.962667-16.042667 1.962667h-39.253333V410.112c0.554667-0.298667 1.066667-0.170667 1.578666-0.170667h36.906667c7.68 0 15.232 0.810667 22.442667 3.669334 13.312 5.290667 20.906667 15.232 23.381333 29.184 1.621333 9.045333 1.450667 18.048-1.493333 26.88z m178.773333 0.597333c-5.973333-14.378667-16.938667-23.168-31.232-28.16-11.093333-3.84-22.613333-4.906667-34.304-4.266666a79.232 79.232 0 0 0-28.501333 6.485333c-15.488 6.997333-26.154667 18.218667-30.293334 35.029333a33.408 33.408 0 0 0-1.109333 8.405334l0.768 0.085333h29.269333c0.938667 0 1.109333-0.426667 1.28-1.152a26.581333 26.581333 0 0 1 18.346667-19.626667c8.661333-2.944 17.493333-3.2 26.282667-0.938666 9.813333 2.517333 16.597333 8.448 19.2 18.517333 1.792 6.656 0.853333 13.482667 1.109333 20.48l-20.437333 1.066667c-10.24 0.64-20.608 0.853333-30.848 1.962666a80.384 80.384 0 0 0-27.605334 7.722667 43.946667 43.946667 0 0 0-18.730666 16.853333c-5.205333 8.789333-6.485333 18.346667-5.205334 28.330667 1.962667 15.36 9.685333 26.965333 23.296 34.218667 15.658667 8.362667 32.170667 9.557333 49.066667 4.266666 13.568-4.266667 24.192-12.501333 31.232-25.045333 0.170667-0.298667 0.213333-0.725333 0.938667-0.725333v25.898666h31.189333v-1.408-107.392c0-7.082667-1.024-14.037333-3.754667-20.608z m-29.994667 77.312a34.261333 34.261333 0 0 1-16.981333 22.912 44.373333 44.373333 0 0 1-34.005333 4.778667 22.442667 22.442667 0 0 1-16.042667-12.501333 20.992 20.992 0 0 1 9.088-27.818667 40.917333 40.917333 0 0 1 17.066667-4.778667c13.44-0.938667 26.922667-1.706667 40.405333-2.56h1.28c-0.298667 6.826667 0.64 13.44-0.810667 19.968z" fill="#000000" p-id="10757"></path></svg>