<?xml version="1.0" encoding="UTF-8"?>
<svg width="18px" height="11px" viewBox="0 0 18 11" version="1.1" xmlns="http://www.w3.org/2000/svg" xmlns:xlink="http://www.w3.org/1999/xlink">
    <title>编组 7</title>
    <g id="页面-1" stroke="none" stroke-width="1" fill="none" fill-rule="evenodd">
        <g id="买币" transform="translate(-1287.000000, -722.000000)" fill-rule="nonzero">
            <g id="编组-13" transform="translate(360.000000, 707.000000)">
                <g id="编组-12" transform="translate(896.000000, 10.000000)">
                    <g id="Mastercard" transform="translate(30.000000, 4.000000)">
                        <g id="编组-7" transform="translate(0.307692, 0.384615)">
                            <path d="M18.6923077,6.11569315 C18.6923077,9.15338877 16.2300732,11.6153846 13.1923077,11.6153846 C10.1545421,11.6153846 7.69230769,9.15338877 7.69230769,6.11569315 C7.69230769,3.07799752 10.1545422,0.615384615 13.1923077,0.615384615 C16.2300732,0.615384615 18.6923077,3.07799749 18.6923077,6.11569315 Z" id="路径" fill="#F79F1A"></path>
                            <path d="M11.6923077,6.11569315 C11.6923077,9.15338877 9.23007322,11.6153846 6.19230769,11.6153846 C3.15516034,11.6153846 0.692307692,9.15338877 0.692307692,6.11569315 C0.692307692,3.07799752 3.15516034,0.615384615 6.19230769,0.615384615 C9.23007325,0.615384615 11.6923077,3.07799749 11.6923077,6.11569315 Z" id="路径" fill="#EA001B"></path>
                            <path d="M7.69230769,6.1147433 C7.69021552,7.87121331 8.42770478,9.53105191 9.69201531,10.6153846 C10.9564758,9.53111949 11.6941726,7.87130087 11.6923077,6.1147433 C11.6943393,4.35850345 10.9565726,2.69900044 9.69201531,1.61538462 C8.42760798,2.69906801 7.69004874,4.35859104 7.69230769,6.1147433 Z" id="路径" fill="#FF5F01"></path>
                        </g>
                    </g>
                </g>
            </g>
        </g>
    </g>
</svg>