<svg width="48" height="48" viewBox="0 0 48 48" fill="none" xmlns="http://www.w3.org/2000/svg">
<path d="M24 41.625C21.1024 41.623 18.25 40.9067 15.6953 39.5394C13.1406 38.1721 10.9624 36.1961 9.3535 33.7862C7.74463 31.3763 6.75472 28.607 6.47141 25.7233C6.18811 22.8396 6.62014 19.9305 7.72926 17.2536C8.83839 14.5767 10.5904 12.2145 12.8302 10.3762C15.0699 8.53789 17.7284 7.28015 20.5702 6.71432C23.412 6.14848 26.3495 6.29202 29.1226 7.13221C31.8957 7.9724 34.4188 9.48333 36.4687 11.5312C36.676 11.7447 36.792 12.0306 36.792 12.3281C36.792 12.6257 36.676 12.9115 36.4687 13.125C36.3655 13.2322 36.2418 13.3174 36.1048 13.3757C35.9679 13.4339 35.8206 13.4639 35.6719 13.4639C35.5231 13.4639 35.3758 13.4339 35.2389 13.3757C35.102 13.3174 34.9782 13.2322 34.875 13.125C32.3939 10.6442 29.1388 9.08659 25.6504 8.71085C22.1619 8.33511 18.6499 9.16382 15.6974 11.0594C12.7449 12.9549 10.5295 15.8033 9.41914 19.1316C8.30875 22.4599 8.37012 26.0679 9.59306 29.3565C10.816 32.645 13.127 35.4164 16.1422 37.2105C19.1575 39.0046 22.6957 39.7133 26.1693 39.2192C29.643 38.725 32.8431 37.0576 35.2385 34.4939C37.6338 31.9301 39.0802 28.6242 39.3375 25.125H24C23.7016 25.125 23.4155 25.0065 23.2045 24.7955C22.9935 24.5845 22.875 24.2984 22.875 24C22.875 23.7016 22.9935 23.4155 23.2045 23.2045C23.4155 22.9935 23.7016 22.875 24 22.875H40.5C40.7983 22.875 41.0845 22.9935 41.2955 23.2045C41.5065 23.4155 41.625 23.7016 41.625 24C41.62 28.6729 39.7615 33.153 36.4573 36.4573C33.153 39.7615 28.6729 41.62 24 41.625Z" fill="#1772F8"/>
</svg>
