<svg width="48" height="48" viewBox="0 0 48 48" fill="none" xmlns="http://www.w3.org/2000/svg">
<path opacity="0.4" fill-rule="evenodd" clip-rule="evenodd" d="M32.6688 5.50043H15.3308C9.28879 5.50043 5.50079 9.77843 5.50079 15.8324V32.1684C5.50079 38.2224 9.27079 42.5004 15.3308 42.5004H32.6668C38.7288 42.5004 42.5008 38.2224 42.5008 32.1684V15.8324C42.5008 9.77843 38.7288 5.50043 32.6688 5.50043Z" stroke="#1772F8" stroke-width="1.5" stroke-linecap="round" stroke-linejoin="round"/>
<path fill-rule="evenodd" clip-rule="evenodd" d="M21.3846 24.0004C21.3846 26.0444 19.7266 27.7044 17.6806 27.7044C15.6366 27.7044 13.9786 26.0444 13.9786 24.0004C13.9786 21.9564 15.6366 20.2964 17.6806 20.2964C19.7266 20.2964 21.3846 21.9564 21.3846 24.0004Z" stroke="#1772F8" stroke-width="1.5" stroke-linecap="round" stroke-linejoin="round"/>
<path d="M21.3846 24.0004H34.0206V27.7044" stroke="#1772F8" stroke-width="1.5" stroke-linecap="round" stroke-linejoin="round"/>
<path d="M28.3632 27.7035V23.9995" stroke="#1772F8" stroke-width="1.5" stroke-linecap="round" stroke-linejoin="round"/>
</svg>
