<svg width="1451" height="1451" viewBox="0 0 1451 1451" fill="none" xmlns="http://www.w3.org/2000/svg">
<g clip-path="url(#clip0_709_4364)">
<path d="M530.907 554.088L530.908 554.086C533.95 551.063 535.76 547.024 535.99 542.748C536.218 538.506 534.875 534.328 532.216 531.01C531.743 530.618 531.284 530.215 530.821 529.754L531.527 529.046L530.821 529.754L372.759 372.11L373.465 371.402L372.758 372.11C371.143 370.498 369.225 369.22 367.114 368.348C365.003 367.476 362.74 367.027 360.455 367.027C358.17 367.027 355.907 367.476 353.796 368.348C351.685 369.22 349.767 370.498 348.152 372.11L347.445 371.402L348.152 372.11L190.089 529.754L6.17963 713.176L6.17877 713.177C2.91699 716.422 1.07996 720.825 1.06982 725.419C1.05969 730.013 2.87683 734.423 6.1236 737.683C6.1239 737.683 6.12421 737.683 6.12451 737.684L348.237 1078.92C351.503 1082.17 355.928 1083.99 360.541 1083.99C365.155 1083.99 369.579 1082.17 372.845 1078.92L530.907 921.275C532.523 919.664 533.804 917.752 534.678 915.647C535.552 913.542 536.002 911.286 536.002 909.008C536.002 906.73 535.553 904.475 534.678 902.37C533.804 900.265 532.523 898.353 530.907 896.742L531.613 896.034L530.907 896.742L372.844 739.098C371.043 737.301 369.614 735.168 368.639 732.82C367.663 730.473 367.161 727.956 367.161 725.414C367.161 722.873 367.663 720.356 368.639 718.009C369.614 715.661 371.043 713.528 372.844 711.731L530.907 554.088Z" stroke="url(#paint0_linear_709_4364)" stroke-width="2"/>
</g>
<g clip-path="url(#clip1_709_4364)">
<path d="M531.912 530.907L531.914 530.908C534.937 533.95 538.976 535.76 543.252 535.99C547.494 536.218 551.672 534.875 554.99 532.216C555.382 531.743 555.785 531.284 556.246 530.821L556.954 531.527L556.246 530.821L713.89 372.759L714.598 373.465L713.89 372.758C715.502 371.143 716.78 369.225 717.652 367.114C718.525 365.003 718.973 362.74 718.973 360.455C718.973 358.17 718.525 355.907 717.652 353.796C716.78 351.685 715.502 349.767 713.89 348.152L714.598 347.445L713.89 348.152L556.246 190.089L372.824 6.17961L372.823 6.17876C369.578 2.91698 365.175 1.07994 360.581 1.06981C355.987 1.05968 351.577 2.87681 348.317 6.12358C348.317 6.12389 348.317 6.12419 348.316 6.1245L7.08173 348.237C3.83375 351.503 2.00947 355.928 2.00947 360.541C2.00947 365.155 3.83375 369.579 7.08173 372.845L164.725 530.907C166.336 532.523 168.248 533.804 170.353 534.678C172.458 535.552 174.714 536.002 176.992 536.002C179.27 536.002 181.525 535.552 183.63 534.678C185.735 533.804 187.647 532.523 189.258 530.907L189.966 531.613L189.258 530.907L346.902 372.844C348.699 371.043 350.832 369.614 353.18 368.639C355.527 367.663 358.044 367.161 360.586 367.161C363.127 367.161 365.644 367.663 367.991 368.639C370.339 369.614 372.472 371.043 374.269 372.844L531.912 530.907Z" stroke="url(#paint1_linear_709_4364)" stroke-width="2"/>
</g>
<g clip-path="url(#clip2_709_4364)">
<path d="M920.088 920.093L920.086 920.092C917.063 917.05 913.024 915.24 908.748 915.01C904.506 914.782 900.328 916.125 897.01 918.784C896.618 919.257 896.215 919.716 895.754 920.179L895.046 919.473L895.754 920.179L738.11 1078.24L737.402 1077.54L738.11 1078.24C736.498 1079.86 735.22 1081.77 734.348 1083.89C733.476 1086 733.027 1088.26 733.027 1090.54C733.027 1092.83 733.476 1095.09 734.348 1097.2C735.22 1099.31 736.498 1101.23 738.11 1102.85L737.402 1103.55L738.11 1102.85L895.754 1260.91L1079.18 1444.82L1079.18 1444.82C1082.42 1448.08 1086.83 1449.92 1091.42 1449.93C1096.01 1449.94 1100.42 1448.12 1103.68 1444.88C1103.68 1444.88 1103.68 1444.88 1103.68 1444.88L1444.92 1102.76C1448.17 1099.5 1449.99 1095.07 1449.99 1090.46C1449.99 1085.85 1448.17 1081.42 1444.92 1078.15L1287.28 920.093C1285.66 918.477 1283.75 917.196 1281.65 916.322C1279.54 915.447 1277.29 914.998 1275.01 914.998C1272.73 914.998 1270.47 915.447 1268.37 916.322C1266.27 917.196 1264.35 918.477 1262.74 920.093L1262.03 919.387L1262.74 920.093L1105.1 1078.16C1103.3 1079.96 1101.17 1081.39 1098.82 1082.36C1096.47 1083.34 1093.96 1083.84 1091.41 1083.84C1088.87 1083.84 1086.36 1083.34 1084.01 1082.36C1081.66 1081.39 1079.53 1079.96 1077.73 1078.16L920.088 920.093Z" stroke="url(#paint2_linear_709_4364)" stroke-width="2"/>
</g>
<g clip-path="url(#clip3_709_4364)">
<path d="M1262.91 530.907L1262.91 530.908C1265.94 533.95 1269.98 535.76 1274.25 535.99C1278.49 536.218 1282.67 534.875 1285.99 532.216C1286.38 531.743 1286.78 531.284 1287.25 530.821L1287.95 531.527L1287.25 530.821L1444.89 372.759L1445.6 373.465L1444.89 372.758C1446.5 371.143 1447.78 369.225 1448.65 367.114C1449.52 365.003 1449.97 362.74 1449.97 360.455C1449.97 358.17 1449.52 355.907 1448.65 353.796C1447.78 351.685 1446.5 349.767 1444.89 348.152L1445.6 347.445L1444.89 348.152L1287.25 190.089L1103.82 6.17961L1103.82 6.17876C1100.58 2.91698 1096.17 1.07994 1091.58 1.06981C1086.99 1.05968 1082.58 2.87681 1079.32 6.12358C1079.32 6.12389 1079.32 6.12419 1079.32 6.1245L738.082 348.237C734.834 351.503 733.009 355.928 733.009 360.541C733.009 365.155 734.834 369.579 738.082 372.845L895.725 530.907C897.336 532.523 899.248 533.804 901.353 534.678C903.458 535.552 905.714 536.002 907.992 536.002C910.27 536.002 912.525 535.552 914.63 534.678C916.735 533.804 918.647 532.523 920.258 530.907L920.966 531.613L920.258 530.907L1077.9 372.844C1079.7 371.043 1081.83 369.614 1084.18 368.639C1086.53 367.663 1089.04 367.161 1091.59 367.161C1094.13 367.161 1096.64 367.663 1098.99 368.639C1101.34 369.614 1103.47 371.043 1105.27 372.844L1262.91 530.907Z" stroke="url(#paint3_linear_709_4364)" stroke-width="2"/>
</g>
<g clip-path="url(#clip4_709_4364)">
<path d="M189.088 920.093L189.086 920.092C186.063 917.05 182.024 915.24 177.748 915.01C173.506 914.782 169.328 916.125 166.01 918.784C165.618 919.257 165.215 919.716 164.754 920.179L164.046 919.473L164.754 920.179L7.10969 1078.24L6.40165 1077.54L7.10963 1078.24C5.49832 1079.86 4.21993 1081.77 3.34771 1083.89C2.47551 1086 2.02662 1088.26 2.02662 1090.54C2.02662 1092.83 2.47551 1095.09 3.34771 1097.2C4.21993 1099.31 5.49832 1101.23 7.10964 1102.85L6.40165 1103.55L7.10969 1102.85L164.754 1260.91L348.176 1444.82L348.177 1444.82C351.422 1448.08 355.825 1449.92 360.419 1449.93C365.013 1449.94 369.423 1448.12 372.683 1444.88C372.683 1444.88 372.683 1444.88 372.684 1444.88L713.918 1102.76C717.166 1099.5 718.991 1095.07 718.991 1090.46C718.991 1085.85 717.166 1081.42 713.918 1078.15L556.275 920.093C554.664 918.477 552.752 917.196 550.647 916.322C548.542 915.447 546.286 914.998 544.008 914.998C541.73 914.998 539.475 915.447 537.37 916.322C535.265 917.196 533.353 918.477 531.742 920.093L531.034 919.387L531.742 920.093L374.098 1078.16C372.301 1079.96 370.168 1081.39 367.82 1082.36C365.473 1083.34 362.956 1083.84 360.414 1083.84C357.873 1083.84 355.356 1083.34 353.009 1082.36C350.661 1081.39 348.528 1079.96 346.731 1078.16L189.088 920.093Z" stroke="url(#paint4_linear_709_4364)" stroke-width="2"/>
</g>
<g clip-path="url(#clip5_709_4364)">
<path d="M1261.91 554.088L1261.91 554.086C1264.95 551.063 1266.76 547.024 1266.99 542.748C1267.22 538.506 1265.87 534.328 1263.22 531.01C1262.74 530.618 1262.28 530.215 1261.82 529.754L1262.53 529.046L1261.82 529.754L1103.76 372.11L1104.46 371.402L1103.76 372.11C1102.14 370.498 1100.23 369.22 1098.11 368.348C1096 367.476 1093.74 367.027 1091.46 367.027C1089.17 367.027 1086.91 367.476 1084.8 368.348C1082.69 369.22 1080.77 370.498 1079.15 372.11L1078.45 371.402L1079.15 372.11L921.089 529.754L737.18 713.176L737.179 713.177C733.917 716.422 732.08 720.825 732.07 725.419C732.06 730.013 733.877 734.423 737.124 737.683C737.124 737.683 737.124 737.683 737.125 737.684L1079.24 1078.92C1082.5 1082.17 1086.93 1083.99 1091.54 1083.99C1096.15 1083.99 1100.58 1082.17 1103.85 1078.92L1261.91 921.275C1263.52 919.664 1264.8 917.752 1265.68 915.647C1266.55 913.542 1267 911.286 1267 909.008C1267 906.73 1266.55 904.475 1265.68 902.37C1264.8 900.265 1263.52 898.353 1261.91 896.742L1262.61 896.034L1261.91 896.742L1103.84 739.098C1102.04 737.301 1100.61 735.168 1099.64 732.82C1098.66 730.473 1098.16 727.956 1098.16 725.414C1098.16 722.873 1098.66 720.356 1099.64 718.009C1100.61 715.661 1102.04 713.528 1103.84 711.731L1261.91 554.088Z" stroke="url(#paint5_linear_709_4364)" stroke-width="2"/>
</g>
<g clip-path="url(#clip6_709_4364)">
<path d="M371.416 738.39L713.532 1079.63C716.985 1083.06 721.664 1084.99 726.541 1084.99C731.418 1084.99 736.097 1083.06 739.55 1079.63L897.613 921.983C899.322 920.28 900.677 918.257 901.602 916.031C902.526 913.804 903.002 911.418 903.002 909.008C903.002 906.599 902.526 904.213 901.602 901.986C900.677 899.76 899.322 897.737 897.613 896.034L739.55 738.39C737.842 736.686 736.487 734.663 735.562 732.437C734.637 730.211 734.161 727.824 734.161 725.414C734.161 723.005 734.637 720.619 735.562 718.392C736.487 716.166 737.842 714.143 739.55 712.44L897.613 554.796C900.83 551.598 902.745 547.325 902.989 542.802C903.232 538.279 901.786 533.826 898.931 530.303C898.444 529.903 897.985 529.503 897.527 529.046L739.465 371.402C737.756 369.698 735.728 368.346 733.496 367.423C731.264 366.501 728.871 366.027 726.455 366.027C724.039 366.027 721.647 366.501 719.414 367.423C717.182 368.346 715.154 369.698 713.445 371.402L555.383 529.046L371.473 712.468C368.024 715.9 366.081 720.557 366.07 725.417C366.059 730.277 367.982 734.942 371.416 738.39Z" fill="#0052FF"/>
</g>
<defs>
<linearGradient id="paint0_linear_709_4364" x1="1.85052e-05" y1="726" x2="537" y2="726" gradientUnits="userSpaceOnUse">
<stop stop-color="#0052FF" stop-opacity="0"/>
<stop offset="1" stop-color="#0052FF"/>
</linearGradient>
<linearGradient id="paint1_linear_709_4364" x1="274.5" y1="278" x2="391.5" y2="711" gradientUnits="userSpaceOnUse">
<stop stop-color="#0052FF" stop-opacity="0"/>
<stop offset="1" stop-color="#0052FF"/>
</linearGradient>
<linearGradient id="paint2_linear_709_4364" x1="1177.5" y1="1173" x2="1060.5" y2="740" gradientUnits="userSpaceOnUse">
<stop stop-color="#0052FF" stop-opacity="0"/>
<stop offset="1" stop-color="#0052FF"/>
</linearGradient>
<linearGradient id="paint3_linear_709_4364" x1="1116.5" y1="202.5" x2="888.5" y2="686" gradientUnits="userSpaceOnUse">
<stop stop-color="#0052FF" stop-opacity="0"/>
<stop offset="1" stop-color="#0052FF"/>
</linearGradient>
<linearGradient id="paint4_linear_709_4364" x1="335.5" y1="1248.5" x2="563.5" y2="765" gradientUnits="userSpaceOnUse">
<stop stop-color="#0052FF" stop-opacity="0"/>
<stop offset="1" stop-color="#0052FF"/>
</linearGradient>
<linearGradient id="paint5_linear_709_4364" x1="731" y1="726" x2="1268" y2="726" gradientUnits="userSpaceOnUse">
<stop stop-color="#0052FF"/>
<stop offset="1" stop-color="#0052FF" stop-opacity="0"/>
</linearGradient>
<clipPath id="clip0_709_4364">
<rect width="537" height="719" fill="white" transform="matrix(-1 0 0 1 537 366)"/>
</clipPath>
<clipPath id="clip1_709_4364">
<rect width="537" height="719" fill="white" transform="matrix(4.37114e-08 -1 -1 -4.37114e-08 720 537)"/>
</clipPath>
<clipPath id="clip2_709_4364">
<rect width="537" height="719" fill="white" transform="matrix(4.37114e-08 1 1 -4.37114e-08 732 914)"/>
</clipPath>
<clipPath id="clip3_709_4364">
<rect width="537" height="719" fill="white" transform="matrix(4.37114e-08 -1 -1 -4.37114e-08 1451 537)"/>
</clipPath>
<clipPath id="clip4_709_4364">
<rect width="537" height="719" fill="white" transform="matrix(4.37114e-08 1 1 -4.37114e-08 1 914)"/>
</clipPath>
<clipPath id="clip5_709_4364">
<rect width="537" height="719" fill="white" transform="matrix(-1 0 0 1 1268 366)"/>
</clipPath>
<clipPath id="clip6_709_4364">
<rect width="537" height="719" fill="white" transform="matrix(-1 0 0 1 903 366)"/>
</clipPath>
</defs>
</svg>
