<svg width="30" height="37" viewBox="0 0 30 37" fill="none" xmlns="http://www.w3.org/2000/svg">
<path d="M18.1495 11.8039L23.4103 6.43886C23.5249 6.32129 23.5893 6.16221 23.5893 5.9964C23.5893 5.83058 23.5249 5.67151 23.4103 5.55394L18.1495 0.184315C18.0932 0.125107 18.0257 0.0780385 17.9512 0.0458963C17.8767 0.0137541 17.7966 -0.00280762 17.7157 -0.00280762C17.6348 -0.00280762 17.5547 0.0137541 17.4801 0.0458963C17.4056 0.0780385 17.3382 0.125107 17.2818 0.184315L0.538167 17.2799C0.193601 17.6316 3.91289e-05 18.1085 0 18.6057V35.7506C5.10049e-05 35.8743 0.0360745 35.9953 0.103518 36.0982C0.170961 36.201 0.266797 36.2812 0.378914 36.3286C0.491031 36.3759 0.614396 36.3883 0.733418 36.3642C0.85244 36.3401 0.961778 36.2805 1.04761 36.193L8.30379 28.7822C8.47604 28.6063 8.61241 28.3974 8.70504 28.1674C8.79767 27.9375 8.84472 27.6911 8.84347 27.4425L8.68172 10.9868C8.67892 10.7374 8.72509 10.49 8.81752 10.2591C8.90994 10.0282 9.04675 9.81855 9.21989 9.64244L11.755 7.05552C11.8703 6.9386 12.0263 6.87296 12.1889 6.87296C12.3515 6.87296 12.5074 6.9386 12.6227 7.05552L17.2773 11.8039C17.3353 11.8613 17.3815 11.9301 17.413 12.0061C17.4445 12.0821 17.4608 12.1638 17.4608 12.2463C17.4608 12.3288 17.4445 12.4105 17.413 12.4865C17.3815 12.5625 17.3353 12.6313 17.2773 12.6888L12.0165 18.0538C11.902 18.1711 11.8377 18.3299 11.8377 18.4955C11.8377 18.661 11.902 18.8198 12.0165 18.9371L17.2833 24.3083C17.398 24.4259 17.4623 24.585 17.4623 24.7508C17.4623 24.9166 17.398 25.0757 17.2833 25.1932L12.0165 30.5629C11.9019 30.6804 11.8375 30.8395 11.8375 31.0053C11.8375 31.1711 11.9019 31.3302 12.0165 31.4478L17.2833 36.8174C17.3397 36.8764 17.407 36.9232 17.4814 36.9552C17.5558 36.9872 17.6357 37.0037 17.7164 37.0037C17.7972 37.0037 17.8771 36.9872 17.9515 36.9552C18.0258 36.9232 18.0932 36.8764 18.1495 36.8174L29.5493 25.1932C29.6639 25.0757 29.7283 24.9166 29.7283 24.7508C29.7283 24.585 29.6639 24.4259 29.5493 24.3083L18.1495 12.6888C18.0915 12.6313 18.0453 12.5625 18.0138 12.4865C17.9823 12.4105 17.966 12.3288 17.966 12.2463C17.966 12.1638 17.9823 12.0821 18.0138 12.0061C18.0453 11.9301 18.0915 11.8613 18.1495 11.8039Z" fill="#0052FF"/>
</svg>
