<svg width="15" height="16" viewBox="0 0 15 16" fill="none" xmlns="http://www.w3.org/2000/svg">
<path d="M13.7044 6.69469L7.41703 12.9821C6.20875 14.1904 4.25145 14.1904 3.04318 12.9821C1.8349 11.7738 1.8349 9.81652 3.04318 8.60824L9.87731 1.77411C10.6318 1.01962 11.8565 1.01962 12.611 1.77411C13.3655 2.5286 13.3655 3.75327 12.611 4.50776L6.87029 10.2484C6.56959 10.5491 6.07753 10.5491 5.77683 10.2484C5.47613 9.94773 5.47613 9.45568 5.77683 9.15497L10.9708 3.96103L10.1507 3.14094L4.95674 8.33488C4.20225 9.08937 4.20225 10.314 4.95674 11.0685C5.71123 11.823 6.9359 11.823 7.69039 11.0685L13.4311 5.32786C14.6393 4.11958 14.6393 2.16229 13.4311 0.954013C12.2228 -0.254262 10.2655 -0.254262 9.05722 0.954013L2.22308 7.78815C0.561021 9.45021 0.561022 12.1401 2.22308 13.8022C3.88514 15.4642 6.57506 15.4642 8.23712 13.8022L14.5245 7.51478L13.7044 6.69469Z" fill="#535774"/>
</svg>
