<svg width="162" height="42" viewBox="0 0 162 42" fill="none" xmlns="http://www.w3.org/2000/svg">
<path d="M34.5089 35.4269H3.35504V3.88281H34.5089V35.4269Z" fill="#6B82B0"/>
<path d="M15.497 30.0884H22.3668V23.1325H29.2367V16.1766H22.3668V9.2207H15.497V16.1766H8.6272V23.1325H15.497V30.0884Z" fill="white"/>
<path d="M153.942 7.3355L150.807 12.1002L147.809 7.3355H142.833L143.31 8.02604C142.561 7.74982 141.402 7.3355 140.584 7.3355H133.496V11.893C133.224 10.8572 132.679 9.95954 131.861 9.19995C130.566 8.02603 129.066 7.26644 126.34 7.26644H126.272C123.614 7.26644 122.183 8.02603 120.888 9.19995C120.138 9.89049 119.593 10.7882 119.252 11.824C119.116 11.4787 118.912 10.8572 118.843 10.581C118.434 9.68332 117.753 8.92373 116.935 8.3713C116.185 7.88793 115.436 7.61171 114.55 7.47361C114.55 7.47361 113.936 7.26644 112.641 7.26644C109.847 7.19739 108.552 7.95698 107.325 9.13089C106.099 10.3048 105.485 12.0311 105.417 14.2409V14.448C104.94 13.8956 104.395 13.4122 103.713 13.136C102.35 12.5836 100.987 12.1693 99.556 11.9621C99.0108 11.893 98.5337 11.7549 98.0566 11.4787C97.8522 11.3406 97.784 11.1335 97.784 10.9263C97.784 10.6501 97.9203 10.3739 98.1929 10.1667C98.5337 9.95954 98.9426 9.82143 99.3515 9.89049C99.8968 9.89049 100.374 10.0286 100.851 10.3048C101.26 10.581 101.464 11.0644 101.532 11.5478H105.758C105.69 10.3048 105.008 9.13089 103.986 8.3713C102.691 7.61171 101.26 7.26644 99.8286 7.26644C98.0566 7.26644 97.4432 7.54266 96.2846 7.95698C95.5349 8.2332 94.8534 8.71657 94.3763 9.40711C93.9674 9.95954 93.763 10.6501 93.763 11.3406C93.763 12.3764 94.24 13.3432 94.9897 13.9647C96.2165 14.7933 97.6477 15.3457 99.1471 15.5529C99.9649 15.691 100.715 15.8982 101.396 16.3815C101.669 16.5887 101.873 16.934 101.873 17.2792C101.873 17.6936 101.669 18.0388 101.328 18.246C100.919 18.5222 100.374 18.7294 99.8286 18.6603C99.0789 18.7294 98.3974 18.3841 97.8522 17.8317C97.5114 17.4864 97.3751 17.003 97.3069 16.5196H93.2859L89.5374 7.3355H84.9712L80.2686 19.2818L75.9749 12.6526L81.4953 7.3355H75.7023L70.8634 12.5836V7.3355H66.3653V16.4506C66.2971 16.8649 66.0927 17.2102 65.7519 17.4864C65.2748 17.9007 64.5933 18.1079 63.9799 18.1079C63.2984 18.1769 62.685 17.9007 62.2079 17.4864C61.7309 17.003 61.5264 16.3815 61.5946 15.7601V7.3355H57.1646V10.581C57.0964 10.0976 57.0283 9.61427 56.8238 9.19995C56.5512 8.16414 56.0741 7.26644 55.3926 6.50685C54.7111 5.74726 53.8251 5.12578 52.8709 4.71146C51.6442 4.15903 50.2811 3.88281 48.918 3.88281H40.7396V21.1462H48.2365C49.5996 21.0081 50.9626 20.87 52.3257 20.4557C53.2798 20.2485 54.0977 19.7652 54.8474 19.1437C55.6652 18.4531 56.2786 17.6245 56.6875 16.6577C56.9601 16.0363 57.0964 15.3457 57.2327 14.6552V15.6219C57.2327 16.3815 57.369 17.1411 57.6417 17.9007C57.8461 18.4531 58.1869 19.0056 58.5958 19.489C59.0047 19.9723 59.55 20.3866 60.0952 20.6629C60.7086 20.9391 61.4583 21.1462 62.1398 21.2153C62.9576 21.2843 63.7073 21.3534 64.3888 21.3534C65.2067 21.3534 65.8882 21.3534 66.7061 21.1462H70.7271V18.1079L73.1125 15.5529L76.1112 21.1462H84.2215L84.903 18.8675H89.9464L90.6279 21.1462H95.2623L94.8534 19.9723C95.8075 20.87 97.4432 21.2843 99.8968 21.2843C101.055 21.3534 102.282 21.1462 103.373 20.7319C104.259 20.3866 104.94 19.8342 105.485 19.0746C105.826 18.6603 106.031 18.1079 106.167 17.5554C106.303 17.8317 106.439 18.1079 106.644 18.3841C107.257 19.3508 108.143 20.1795 109.166 20.6629C110.392 21.1462 111.687 21.3534 112.982 21.2843C113.527 21.2843 114.073 21.2153 114.686 21.1462C115.231 21.0772 115.708 20.9391 116.185 20.7319C117.003 20.3866 117.685 19.8342 118.23 19.1437C118.639 18.6603 118.98 18.1079 119.184 17.4864C119.252 17.3483 119.32 17.003 119.32 16.7268C119.457 17.2102 119.729 17.7626 120.002 18.1769C120.615 19.2127 121.501 19.9723 122.592 20.4557C123.819 20.9391 124.296 21.2153 125.795 21.2153H126.885C127.976 21.2153 129.339 20.9391 130.634 20.3176C132.065 19.558 133.156 18.246 133.633 16.6577V21.1462H138.063V15.9672H140.516C142.288 15.9672 143.651 15.6219 144.469 14.8624C145.355 14.0337 145.832 12.8598 145.764 11.6859C145.764 11.5478 145.764 11.3406 145.764 11.2025L148.763 15.4148V21.0772H153.193V15.4148L158.645 7.61171L157.759 7.3355H153.942ZM51.3034 15.4838C51.0989 16.0363 50.69 16.4506 50.1448 16.7959C49.7359 17.003 49.3269 16.934 48.918 17.003H48.2365H46.1919V8.02604H48.918C49.5996 8.02604 51.7123 8.50941 51.7123 12.5145C51.7805 13.5503 51.6442 14.5171 51.3034 15.4838ZM85.9253 15.8982L87.4247 11.2716L87.4928 11.0644L89.0604 15.8982H85.9253ZM119.184 16.1744H115.299C115.231 16.6577 114.959 17.1411 114.686 17.4864C114.141 17.9698 113.459 18.1769 112.778 18.1769C112.028 18.246 111.278 17.9007 110.733 17.3483C110.256 16.7959 109.983 15.7601 109.983 14.3099C109.915 13.4122 110.12 12.4455 110.597 11.6859C111.142 10.9263 111.96 10.512 112.914 10.512C113.323 10.512 113.732 10.581 114.141 10.7882C114.345 10.8572 114.55 10.9953 114.686 11.1335C114.959 11.3406 115.163 11.6859 115.299 12.0312H119.32C119.116 12.7907 118.98 13.6194 118.98 14.379C118.98 14.9314 119.048 15.5529 119.184 16.1744ZM128.657 17.2792C128.112 17.9007 127.294 18.1769 126.408 18.1769C125.591 18.246 124.773 17.9007 124.228 17.2792C123.614 16.4506 123.342 15.4148 123.41 14.379C123.342 13.3432 123.614 12.3074 124.228 11.4097C124.773 10.7882 125.591 10.4429 126.34 10.512H126.408C127.226 10.512 128.044 10.7882 128.589 11.4097C129.203 12.1693 129.475 13.2051 129.407 14.1718C129.407 15.6219 129.135 16.7268 128.657 17.2792ZM140.857 12.9288C140.312 13.2051 139.698 13.4122 139.085 13.3432H137.994V10.3048H139.289C139.903 10.2358 140.448 10.4429 140.993 10.7191C141.266 10.9953 141.47 11.4097 141.47 11.824C141.402 12.2383 141.198 12.6526 140.857 12.9288Z" fill="#6B82B0"/>
<path d="M41.1624 33.4113C41.4354 33.886 41.845 34.225 42.391 34.4284C43.0053 34.6997 43.6196 34.7675 44.3022 34.7675C44.8482 34.7675 45.3943 34.6319 45.9403 34.4284C46.4181 34.225 46.7594 33.886 47.0324 33.4791C47.3055 33.1401 47.442 32.6654 47.442 32.3264C47.442 31.9196 47.3055 31.5127 47.1007 31.1737C46.8277 30.7668 46.4181 30.4956 46.0086 30.2922C45.3943 30.0887 44.78 29.8853 44.1657 29.7497C43.5514 29.6819 43.0053 29.4785 42.4593 29.1394C42.2545 28.936 42.118 28.6648 42.118 28.3935C42.118 28.0545 42.3227 27.7155 42.5958 27.512C43.0053 27.2408 43.5514 27.1052 44.0974 27.1052C44.6435 27.0374 45.1213 27.2408 45.5308 27.512C45.8721 27.7833 46.0768 28.2579 46.1451 28.6648L47.2372 28.597C47.2372 28.1223 47.1007 27.6477 46.8277 27.3764C46.5546 26.9696 46.1451 26.6983 45.7356 26.4949C45.1895 26.2915 44.6435 26.1559 44.0974 26.2237C43.5514 26.2237 43.0736 26.2915 42.5275 26.4949C42.118 26.6305 41.7084 26.9696 41.4354 27.3086C41.2306 27.6477 41.0941 28.0545 41.0941 28.3935C41.0941 28.7326 41.1624 29.1394 41.3672 29.4107C41.5719 29.7497 41.9132 30.0209 42.2545 30.2244C42.8005 30.4278 43.3466 30.6312 43.8926 30.7668C44.3704 30.9024 44.9165 31.0381 45.3943 31.1737C45.6673 31.2415 45.9403 31.4449 46.1451 31.6483C46.2816 31.8517 46.3499 32.0552 46.3499 32.3264C46.3499 32.5976 46.2816 32.8689 46.0768 33.0723C45.8721 33.3435 45.6673 33.4791 45.326 33.6148C44.9847 33.7504 44.5752 33.8182 44.2339 33.8182C43.8244 33.8182 43.3466 33.7504 42.9371 33.5469C42.5958 33.4113 42.3227 33.2079 42.118 32.8689C41.9132 32.5298 41.7767 32.1908 41.7767 31.8517H40.7529C40.6846 32.462 40.8894 32.9367 41.1624 33.4113ZM51.1278 34.4963L52.3564 29.9531L52.6294 30.9702L53.585 34.4284H54.6771L56.5883 28.597H55.5645L54.5406 31.9874L54.1993 33.0723L53.9263 31.9874L52.9025 28.6648H51.8104L50.8548 32.0552C50.65 32.8011 50.5818 33.2079 50.5135 33.2079L50.1722 32.0552L49.2166 28.6648H48.1245L49.9675 34.4963H51.1278ZM58.5677 27.512V26.3593H57.5439V27.512H58.5677ZM58.5677 34.4963V28.6648H57.5439V34.4963H58.5677ZM60.6154 34.1572C61.1615 34.4963 61.7758 34.6997 62.4584 34.6319C62.8679 34.6319 63.3457 34.5641 63.7552 34.3606C64.0965 34.225 64.4378 33.9538 64.6426 33.6826C64.8473 33.4113 64.9156 33.0723 64.9156 32.7333C64.9156 32.3942 64.8473 32.123 64.6426 31.8517C64.4378 31.5805 64.233 31.4449 63.96 31.3093C63.4822 31.1059 62.9361 30.9702 62.4584 30.8346C61.9806 30.699 61.6393 30.6312 61.571 30.5634C61.4345 30.4956 61.298 30.4278 61.1615 30.2922C61.0932 30.2244 61.025 30.0887 61.025 29.9531C61.025 29.7497 61.1615 29.5463 61.298 29.4107C61.571 29.2072 61.9806 29.1394 62.3218 29.2072C62.6631 29.2072 63.0044 29.275 63.2774 29.4785C63.4822 29.6819 63.6187 29.9531 63.687 30.2244L64.7108 30.0887C64.6426 29.7497 64.5743 29.4107 64.3695 29.1394C64.1648 28.8682 63.8917 28.6648 63.5505 28.597C63.1409 28.3935 62.6631 28.3257 62.2536 28.3257C61.9806 28.3257 61.6393 28.3935 61.3663 28.4614C61.1615 28.5292 60.8885 28.597 60.6837 28.7326C60.4789 28.8682 60.2742 29.0716 60.1376 29.275C60.0011 29.4785 59.9329 29.7497 59.9329 30.0209C59.9329 30.6312 60.2742 31.1059 60.8202 31.3771C61.298 31.5805 61.844 31.7161 62.3901 31.8517C62.7314 31.9196 63.1409 32.0552 63.4822 32.1908C63.687 32.3264 63.7552 32.5298 63.7552 32.7333C63.7552 33.0045 63.6187 33.2757 63.4139 33.4113C63.1409 33.6148 62.7314 33.7504 62.3218 33.6826C61.9123 33.6826 61.571 33.6148 61.2297 33.3435C60.9567 33.0723 60.7519 32.8011 60.7519 32.3942L59.7281 32.6654C59.9329 33.3435 60.2059 33.8182 60.6154 34.1572ZM66.622 34.1572C67.168 34.4963 67.7823 34.6997 68.4649 34.6319C68.8744 34.6319 69.3522 34.5641 69.7618 34.3606C70.1031 34.225 70.4443 33.9538 70.6491 33.6826C70.8539 33.4113 70.9221 33.0723 70.9221 32.7333C70.9221 32.3942 70.8539 32.123 70.6491 31.8517C70.4443 31.5805 70.2396 31.4449 69.9665 31.3093C69.4888 31.1059 68.9427 30.9702 68.4649 30.8346C67.9871 30.699 67.6458 30.6312 67.5776 30.5634C67.4411 30.4956 67.3046 30.4278 67.168 30.2922C67.0998 30.1566 67.0315 30.0887 67.0315 29.9531C67.0315 29.7497 67.168 29.5463 67.3046 29.4107C67.5776 29.2072 67.9871 29.1394 68.3284 29.2072C68.6697 29.2072 69.011 29.275 69.284 29.4785C69.4888 29.6819 69.6253 29.9531 69.6935 30.2244L70.7174 30.0887C70.6491 29.7497 70.5809 29.4107 70.3761 29.1394C70.1713 28.8682 69.8983 28.6648 69.557 28.597C69.1475 28.4614 68.7379 28.3935 68.2601 28.3935C67.9871 28.3935 67.6458 28.4614 67.3728 28.5292C67.168 28.597 66.895 28.6648 66.6902 28.8004C66.4855 28.936 66.2807 29.1394 66.1442 29.3429C66.0077 29.5463 65.9394 29.8175 65.9394 30.0887C65.9394 30.699 66.2807 31.1737 66.8268 31.4449C67.3046 31.6483 67.8506 31.7839 68.3967 31.9196C68.7379 31.9874 69.1475 32.123 69.4888 32.2586C69.6935 32.3942 69.83 32.5976 69.7618 32.8011C69.7618 33.0723 69.6253 33.3435 69.4205 33.4791C69.1475 33.6826 68.7379 33.8182 68.3284 33.7504C67.9189 33.7504 67.5776 33.6826 67.2363 33.4113C66.9633 33.1401 66.7585 32.8689 66.7585 32.462L65.7347 32.5976C65.9394 33.3435 66.2125 33.8182 66.622 34.1572ZM78.9081 34.4963C79.3859 34.4963 79.7955 34.4284 80.2732 34.3606C80.6145 34.2928 80.8876 34.1572 81.2288 33.9538C81.5019 33.7504 81.7066 33.4791 81.8431 33.1401C81.9797 32.8011 82.1162 32.3942 82.1162 32.123C82.1162 31.6483 81.9797 31.2415 81.7066 30.9024C81.4336 30.5634 81.0241 30.2922 80.5463 30.1566C80.8876 30.0209 81.2288 29.7497 81.4336 29.4107C81.6384 29.1394 81.7066 28.7326 81.7066 28.3935C81.7066 27.9867 81.5701 27.6477 81.3653 27.3764C81.1606 27.0374 80.8193 26.7662 80.478 26.5627C80.0002 26.3593 79.4542 26.2915 78.9081 26.2915H75.7683V34.3606L78.9081 34.4963ZM76.8604 27.4442H78.5668C78.9764 27.4442 79.4542 27.4442 79.8637 27.5799C80.0685 27.6477 80.2733 27.7833 80.4098 27.9867C80.5463 28.1901 80.6145 28.4614 80.6145 28.7326C80.6145 29.0038 80.5463 29.275 80.4098 29.4785C80.2733 29.6819 80.0002 29.8175 79.7955 29.8853C79.4542 29.9531 79.1129 30.0209 78.7034 29.9531H76.8604C76.8604 29.8175 76.8604 27.4442 76.8604 27.4442ZM76.8604 30.7668H78.8399C79.2494 30.7668 79.6589 30.7668 80.0685 30.9024C80.3415 30.9702 80.5463 31.1737 80.751 31.3771C81.0241 31.8517 81.0923 32.3942 80.8193 32.8011C80.751 33.0045 80.5463 33.1401 80.4098 33.2757C80.205 33.4113 80.0002 33.4791 79.7955 33.4791C79.5224 33.4791 79.3177 33.5469 79.0446 33.5469H76.9287V30.7668H76.8604ZM87.7814 34.4963H88.8735C88.737 34.2928 88.6688 34.0216 88.6005 33.7504C88.5323 33.1401 88.5323 32.5976 88.5323 31.9874V30.699C88.5323 30.36 88.5323 30.0887 88.464 29.7497C88.3957 29.4785 88.3275 29.275 88.1227 29.0716C87.918 28.8682 87.7132 28.7326 87.3719 28.597C86.9624 28.4614 86.5528 28.3935 86.075 28.3935C85.5972 28.3935 85.1194 28.4614 84.7099 28.597C84.3686 28.7326 84.0273 28.936 83.8226 29.2072C83.6178 29.5463 83.413 29.8853 83.3448 30.2244L84.3686 30.36C84.4369 30.0209 84.6417 29.6819 84.9147 29.4785C85.256 29.275 85.5972 29.2072 86.0068 29.2072C86.4163 29.2072 86.8259 29.275 87.1671 29.5463C87.3719 29.8175 87.5084 30.0887 87.4402 30.4278C87.4402 30.4956 87.4402 30.5634 87.4402 30.699C86.8259 30.9024 86.2115 30.9702 85.5972 31.0381C85.256 31.0381 84.9829 31.1059 84.6417 31.1737C84.3686 31.2415 84.0956 31.3771 83.8908 31.5127C83.6861 31.6483 83.4813 31.8517 83.3448 32.123C83.2083 32.3942 83.14 32.6654 83.14 32.9367C83.14 33.4113 83.3448 33.886 83.6861 34.0894C84.0956 34.4284 84.6417 34.6319 85.256 34.5641C85.6655 34.5641 86.0068 34.4963 86.4163 34.3606C86.8259 34.225 87.1671 33.9538 87.5084 33.6826C87.5767 34.0216 87.6449 34.2928 87.7814 34.4963ZM87.5084 31.9196C87.5084 32.2586 87.4402 32.5976 87.3719 32.9367C87.2354 33.2079 86.9624 33.4791 86.6893 33.6148C86.3481 33.8182 86.0068 33.886 85.5972 33.886C85.256 33.886 84.9147 33.8182 84.7099 33.6148C84.5051 33.4791 84.3686 33.2079 84.3686 32.9367C84.3686 32.7332 84.4369 32.5976 84.5051 32.462C84.5734 32.3264 84.7782 32.1908 84.9147 32.123C85.1877 31.9874 85.529 31.9196 85.802 31.9196C86.3481 31.8517 86.9624 31.7161 87.5084 31.5127V31.9196ZM91.3308 34.4963V31.3093C91.2625 30.7668 91.4673 30.2244 91.8086 29.8175C92.1498 29.5463 92.5594 29.4107 92.9689 29.4107C93.2419 29.4107 93.4467 29.4785 93.7197 29.6141C93.9245 29.7497 94.061 29.8853 94.1293 30.0887C94.1975 30.4278 94.2658 30.699 94.2658 31.0381V34.5641H95.2896V30.9702C95.2896 30.6312 95.2896 30.2922 95.2214 29.9531C95.1531 29.6819 95.0849 29.4107 94.8801 29.2072C94.6753 29.0038 94.4706 28.8004 94.1975 28.6648C93.8563 28.5292 93.515 28.4614 93.1737 28.4614C92.4229 28.4614 91.672 28.8004 91.2625 29.4785V28.597H90.3069V34.4284L91.3308 34.4963ZM97.9516 34.4963V32.1908L98.7024 31.5127L100.682 34.5641H101.979L99.385 30.9024L101.706 28.7326H100.341L97.8834 31.1059V26.4949H96.8595V34.5641L97.9516 34.4963ZM103.958 27.512V26.3593H102.934V27.512H103.958ZM103.958 34.4963V28.6648H102.934V34.4963H103.958ZM106.688 34.4963V31.3093C106.62 30.7668 106.825 30.2244 107.166 29.8175C107.508 29.5463 107.917 29.4107 108.327 29.4107C108.6 29.4107 108.804 29.4785 109.077 29.6141C109.282 29.7497 109.419 29.8853 109.487 30.0887C109.555 30.36 109.623 30.699 109.623 31.0381V34.5641H110.647V30.9702C110.647 30.6312 110.647 30.2922 110.579 29.9531C110.511 29.6819 110.443 29.4107 110.238 29.2072C110.033 29.0038 109.828 28.8004 109.555 28.6648C109.214 28.5292 108.873 28.4614 108.531 28.4614C107.781 28.4614 107.03 28.8004 106.552 29.4785V28.597H105.596V34.4284L106.688 34.4963ZM112.763 36.3949C113.309 36.7339 113.924 36.9373 114.538 36.8695C115.084 36.8695 115.63 36.8017 116.108 36.5305C116.517 36.3271 116.859 35.988 117.063 35.5812C117.268 34.9709 117.405 34.2928 117.336 33.6148V28.597H116.381V29.3429C115.971 28.8004 115.289 28.4614 114.606 28.4614C113.582 28.4614 112.627 29.0716 112.285 29.9531C112.081 30.4278 111.944 30.9702 111.944 31.5127C111.944 32.2586 112.149 33.0045 112.627 33.6148C113.105 34.225 113.787 34.5641 114.606 34.4963C115.289 34.4963 115.903 34.225 116.313 33.6826C116.313 34.1572 116.313 34.5641 116.244 34.9031C116.176 35.2421 115.971 35.5134 115.698 35.7168C115.357 35.9202 115.016 36.0558 114.606 35.988C114.265 35.988 113.855 35.9202 113.582 35.7168C113.378 35.5812 113.241 35.31 113.241 35.0387L112.217 34.9031C112.081 35.5134 112.285 36.0558 112.763 36.3949ZM113.446 29.8853C113.719 29.5463 114.197 29.3429 114.606 29.3429C115.084 29.3429 115.493 29.5463 115.835 29.8853C116.176 30.36 116.381 30.9024 116.313 31.5127C116.381 32.123 116.176 32.6654 115.835 33.1401C115.289 33.8182 114.265 33.886 113.651 33.3435C113.582 33.2757 113.514 33.2079 113.446 33.1401C113.105 32.6654 112.9 32.0552 112.968 31.4449C112.968 30.9024 113.105 30.36 113.446 29.8853ZM128.94 31.3771V32.8689C128.599 33.1401 128.257 33.3435 127.916 33.4791C127.438 33.6826 126.961 33.7504 126.483 33.7504C125.937 33.7504 125.391 33.6148 124.913 33.4113C124.435 33.1401 124.026 32.8011 123.821 32.3264C123.548 31.7161 123.411 31.1737 123.411 30.4956C123.411 29.9531 123.548 29.4107 123.753 28.8682C123.889 28.597 124.094 28.2579 124.299 28.0545C124.572 27.7833 124.845 27.5799 125.186 27.4442C125.595 27.3086 126.073 27.173 126.483 27.2408C126.892 27.2408 127.302 27.3086 127.643 27.4442C127.984 27.5799 128.257 27.7833 128.462 28.0545C128.667 28.3257 128.872 28.6648 128.94 29.0716L129.964 28.8004C129.827 28.3257 129.623 27.8511 129.35 27.512C129.076 27.173 128.667 26.834 128.189 26.6983C127.643 26.4949 127.097 26.3593 126.551 26.4271C125.8 26.4271 124.981 26.5627 124.299 26.9696C123.616 27.3086 123.138 27.8511 122.797 28.4614C122.456 29.1394 122.251 29.8853 122.251 30.699C122.251 31.4449 122.387 32.1908 122.797 32.8689C123.138 33.5469 123.684 34.0216 124.299 34.3606C124.981 34.6997 125.8 34.9031 126.551 34.9031C127.165 34.9031 127.78 34.7675 128.326 34.5641C128.94 34.3606 129.486 34.0216 130.032 33.6148V30.6312H126.483V31.5805L128.94 31.3771ZM132.694 34.4963V31.4449C132.694 31.0381 132.762 30.6312 132.899 30.2922C132.967 30.0887 133.104 29.8853 133.308 29.7497C133.513 29.6141 133.718 29.5463 133.923 29.5463C134.196 29.5463 134.469 29.6141 134.674 29.7497L135.015 28.8004C134.674 28.597 134.332 28.4614 133.923 28.4614C133.718 28.4614 133.445 28.5292 133.24 28.6648C132.967 28.8682 132.762 29.2072 132.558 29.5463V28.597H131.602V34.4284L132.694 34.4963ZM136.107 33.8182C136.653 34.3606 137.404 34.6319 138.155 34.6319C138.701 34.6319 139.178 34.4963 139.656 34.2928C140.066 34.0216 140.475 33.6826 140.68 33.2757C140.953 32.7332 141.09 32.123 141.021 31.5127C141.09 30.699 140.817 29.9531 140.202 29.3429C139.656 28.8004 138.905 28.4614 138.155 28.5292C137.472 28.5292 136.789 28.7326 136.243 29.2072C135.561 29.8853 135.22 30.699 135.288 31.6483C135.22 32.3942 135.493 33.2757 136.107 33.8182ZM136.858 29.8853C137.472 29.2072 138.564 29.1394 139.247 29.7497C139.315 29.8175 139.383 29.8175 139.383 29.8853C139.724 30.36 139.929 30.9024 139.929 31.5127C139.998 32.123 139.793 32.7333 139.383 33.2079C139.042 33.6148 138.632 33.8182 138.086 33.8182C137.609 33.8182 137.131 33.6148 136.789 33.2079C136.175 32.2586 136.175 30.9702 136.858 29.8853ZM147.233 34.4963V28.6648H146.209V31.7839C146.209 32.1908 146.141 32.5976 146.004 32.9367C145.868 33.2079 145.663 33.4113 145.39 33.5469C145.117 33.6826 144.844 33.8182 144.502 33.7504C144.229 33.7504 143.956 33.6826 143.752 33.5469C143.547 33.4113 143.41 33.1401 143.342 32.9367C143.274 32.5976 143.274 32.1908 143.274 31.9196V28.6648H142.318V32.2586C142.318 32.5976 142.318 32.9367 142.386 33.2079C142.455 33.4791 142.523 33.7504 142.728 33.9538C142.933 34.1572 143.137 34.3606 143.41 34.4963C143.752 34.6319 144.093 34.6997 144.434 34.6997C145.185 34.6997 145.936 34.3606 146.345 33.6826V34.5641H147.233V34.4963ZM150.031 36.8017V33.9538C150.236 34.1572 150.441 34.3606 150.714 34.4963C150.987 34.6319 151.328 34.6997 151.669 34.6997C152.147 34.6997 152.625 34.5641 153.034 34.2928C153.444 34.0216 153.785 33.6148 153.99 33.2079C154.195 32.6654 154.331 32.1908 154.331 31.5805C154.331 31.0381 154.263 30.5634 154.058 30.0209C153.854 29.5463 153.581 29.1394 153.171 28.936C152.761 28.7326 152.284 28.5292 151.806 28.5292C151.465 28.5292 151.123 28.597 150.782 28.7326C150.509 28.936 150.236 29.1394 150.031 29.4107V28.597H149.076V36.7339H150.031V36.8017ZM150.441 29.8853C150.714 29.4785 151.123 29.275 151.601 29.275C152.079 29.275 152.488 29.4785 152.761 29.8175C153.103 30.2922 153.307 30.9024 153.239 31.5127C153.307 32.123 153.103 32.7333 152.761 33.2079C152.488 33.5469 152.011 33.8182 151.601 33.8182C151.123 33.8182 150.714 33.6148 150.441 33.2757C150.099 32.8011 149.895 32.2586 149.963 31.5805C149.895 31.0381 150.099 30.36 150.441 29.8853Z" fill="#4F566F"/>
</svg>
