<svg width="88" height="42" viewBox="0 0 88 42" fill="none" xmlns="http://www.w3.org/2000/svg">
<path fill-rule="evenodd" clip-rule="evenodd" d="M36.1313 28.2179C33.0243 34.4993 25.6689 38.7937 17.6159 37.0631C9.68981 35.3966 3.85619 28.1538 4.23665 19.565C4.6171 11.3608 10.8312 4.63073 18.7573 3.5411C27.0005 2.38738 33.595 7.32274 36.1948 12.7709C36.1313 12.835 36.0679 12.835 36.0045 12.835C35.3704 12.835 34.6729 12.835 34.0389 12.835C33.8486 12.835 33.7852 12.7709 33.6584 12.6427C33.0243 11.6172 32.3268 10.7198 31.5025 9.88657C29.2832 7.70732 26.6834 6.29721 23.6398 5.84854C19.3914 5.14349 15.5868 6.10493 12.1628 8.73285C9.24595 11.0403 7.34368 14.0528 6.70959 17.7062C5.82187 22.5134 7.09005 26.8078 10.3239 30.5254C12.5432 32.961 15.2698 34.4993 18.5037 35.1403C19.3914 35.3325 20.2791 35.3966 21.1668 35.3966C23.3861 35.3966 25.5421 34.8839 27.5711 33.9224C28.9661 33.2174 30.2343 32.32 31.3757 31.2304C32.2 30.3972 32.9609 29.4998 33.595 28.4743C33.6584 28.3461 33.7218 28.282 33.8486 28.282C34.6095 28.282 35.307 28.282 36.0679 28.282C36.0679 28.2179 36.0679 28.2179 36.1313 28.2179Z" fill="#6B82B0"/>
<path fill-rule="evenodd" clip-rule="evenodd" d="M35.4339 23.988C36.1948 20.655 35.9412 17.3862 34.5462 14.2455C34.6096 14.1814 34.673 14.1814 34.7364 14.1814C35.3705 14.1814 36.0046 14.1814 36.6387 14.1814C36.7655 14.1814 36.8923 14.2455 36.8923 14.3737C37.3362 15.5915 37.6532 16.8093 37.78 18.0271C37.9068 19.1167 37.9702 20.1423 37.9068 21.2319C37.8434 23.0266 37.463 24.8213 36.7655 26.4877C36.6387 26.7441 36.7021 26.7441 36.4484 26.7441C35.8143 26.7441 35.2437 26.7441 34.6096 26.7441C34.4193 26.7441 34.2925 26.68 34.2291 26.5518C32.7073 24.3085 31.1221 22.1292 29.6003 19.8859C29.1564 19.1808 28.6491 18.5399 28.2053 17.8348C28.1419 17.7707 28.1419 17.7066 28.015 17.6425C28.015 17.7707 28.015 17.8348 28.015 17.8989C28.015 20.7191 28.015 23.5393 28.015 26.4237V26.4877C28.015 26.7441 28.015 26.7441 27.7614 26.7441C27.1907 26.7441 26.62 26.7441 26.0494 26.7441C25.8591 26.7441 25.8591 26.7441 25.8591 26.5518C25.8591 26.4877 25.8591 26.4237 25.8591 26.3596C25.8591 22.3856 25.8591 18.4117 25.8591 14.4378C25.8591 14.0532 25.7957 14.1173 26.1762 14.1173C26.6835 14.1173 27.1907 14.1173 27.7614 14.1173C27.9516 14.1173 28.015 14.1814 28.1419 14.3096C29.41 16.0402 30.7416 17.7707 32.0732 19.5654C33.1512 20.9755 34.1657 22.3856 35.2437 23.7957C35.3071 23.8598 35.3071 23.988 35.4339 23.988ZM72.8452 20.4628C72.8452 18.4758 72.8452 16.4888 72.8452 14.4378C72.8452 14.1173 72.7818 14.1173 73.1622 14.1173C73.6695 14.1173 74.1768 14.1173 74.684 14.1173C75.0011 14.1173 74.9377 14.1173 74.9377 14.3737C74.9377 15.9761 74.9377 17.5785 74.9377 19.1808C74.9377 19.5654 74.9377 19.5654 75.3181 19.5654C77.157 19.5654 78.9324 19.5654 80.7713 19.5654C80.8347 19.5654 80.8347 19.5654 80.8981 19.5654C81.0883 19.5654 81.0883 19.5654 81.0883 19.3731C81.0883 19.1167 81.0883 18.8604 81.0883 18.6681C81.0883 17.3221 81.0883 15.912 81.0883 14.566C81.0883 14.5019 81.0883 14.4378 81.0883 14.3737C81.0883 14.2455 81.1517 14.1814 81.2786 14.1814C81.8492 14.1814 82.4199 14.1814 83.054 14.1814C83.1808 14.1814 83.2442 14.2455 83.2442 14.3737C83.2442 14.4378 83.2442 14.5019 83.2442 14.5019C83.2442 18.4758 83.2442 22.3856 83.2442 26.3596C83.2442 26.4237 83.2442 26.4237 83.2442 26.4877C83.2442 26.8723 83.2442 26.8082 82.9272 26.8082C82.4199 26.8082 81.9127 26.8082 81.4054 26.8082C81.0883 26.8082 81.1517 26.8723 81.0883 26.5518C81.0883 25.7827 81.0883 24.9495 81.0883 24.1803C81.0883 23.4112 81.0883 22.642 81.0883 21.937C81.0883 21.6806 81.0883 21.6806 80.8347 21.6806C78.9324 21.6806 77.0302 21.6806 75.1279 21.6806C74.8108 21.6806 74.8743 21.6806 74.8743 21.937C74.8743 23.4753 74.8743 24.9495 74.8743 26.4877C74.8743 26.8723 74.9377 26.8082 74.5572 26.8082C74.0499 26.8082 73.5427 26.8082 72.972 26.8082C72.7818 26.8082 72.7818 26.8082 72.7818 26.6159C72.7818 25.3981 72.7818 24.1803 72.7818 22.9625C72.8452 22.1292 72.8452 21.296 72.8452 20.4628ZM49.8277 20.3346C49.8277 18.4117 49.8277 16.5529 49.8277 14.6301C49.8277 14.566 49.8277 14.566 49.8277 14.5019C49.8277 14.2455 49.8277 14.2455 50.0814 14.2455C52.2373 14.2455 54.3932 14.2455 56.5491 14.2455C57.0563 14.2455 57.627 14.2455 58.1343 14.2455C58.3245 14.2455 58.3245 14.2455 58.3245 14.4378C58.3245 14.9505 58.3245 15.4633 58.3245 15.9761C58.3245 16.1043 58.2611 16.1683 58.1343 16.1683C57.9441 16.1683 57.7538 16.1683 57.627 16.1683C55.7882 16.1683 54.0127 16.1683 52.1739 16.1683C52.1104 16.1683 52.1104 16.1683 52.047 16.1683C51.8568 16.1683 51.8568 16.1683 51.8568 16.4247C51.8568 17.3221 51.8568 18.2194 51.8568 19.1808C51.8568 19.4372 51.8568 19.4372 52.1104 19.4372C53.8859 19.4372 55.5979 19.4372 57.3734 19.4372C57.6904 19.4372 57.6904 19.4372 57.6904 19.7577C57.6904 20.2064 57.6904 20.655 57.6904 21.1037C57.6904 21.296 57.6904 21.296 57.5002 21.296C56.2954 21.296 55.0907 21.296 53.8859 21.296C53.3152 21.296 52.7445 21.296 52.1739 21.296C51.9202 21.296 51.9202 21.296 51.9202 21.4883C51.9202 22.3856 51.9202 23.3471 51.9202 24.2444C51.9202 24.5008 51.9202 24.5008 52.1739 24.5008C54.2029 24.5008 56.232 24.5008 58.2611 24.5008C58.6416 24.5008 58.5782 24.4367 58.5782 24.8213C58.5782 25.2699 58.5782 25.7827 58.5782 26.2314C58.5782 26.3596 58.5782 26.4237 58.3879 26.4237C58.3245 26.4237 58.2611 26.4237 58.1977 26.4237C55.5345 26.4237 52.8079 26.4237 50.1448 26.4237H50.0814C49.8277 26.4237 49.8277 26.4237 49.8277 26.1673C49.8277 24.2444 49.8277 22.2574 49.8277 20.3346ZM71.3868 25.2699C70.8161 25.9109 70.182 26.4237 69.4845 26.7441C68.4065 27.321 67.2018 27.5133 65.9336 27.4492C64.7288 27.3851 63.5241 27.0646 62.5095 26.4237C60.8609 25.334 59.8463 23.7957 59.6561 21.8088C59.5293 20.5269 59.5927 19.309 60.1634 18.0912C61.1145 16.1043 62.6997 14.8864 64.7922 14.4378C66.1238 14.1173 67.5188 14.1814 68.8504 14.6301C69.8649 14.9505 70.6893 15.5915 71.4502 16.2965C71.5136 16.3606 71.577 16.4247 71.4502 16.4888C71.0063 16.9375 70.6259 17.3862 70.182 17.8989C70.0552 17.8348 69.9918 17.7707 69.9284 17.7066C69.3577 17.1939 68.7236 16.7452 67.9627 16.5529C66.1872 16.1043 64.5386 16.2965 63.1436 17.5785C62.4461 18.2194 62.0022 18.9886 61.8754 19.95C61.7486 20.9114 61.812 21.8729 62.1925 22.7061C62.7631 23.9239 64.2215 25.334 66.3775 25.2699C67.5188 25.2058 68.4699 24.8213 69.3577 24.1162C69.4845 23.988 69.6747 23.8598 69.8015 23.7316C69.8649 23.6675 69.9284 23.6675 69.9918 23.7316C70.499 24.3726 70.9429 24.8213 71.3868 25.2699ZM11.8458 20.3346C11.8458 18.4117 11.8458 16.4888 11.8458 14.566C11.8458 14.2455 11.8458 14.3096 12.1628 14.3096C14.826 14.3096 17.5526 14.3096 20.2157 14.3096H20.2791C20.5328 14.3096 20.5328 14.3096 20.5328 14.566C20.5328 15.0146 20.5328 15.5274 20.5328 15.9761C20.5328 16.1683 20.5962 16.2324 20.2791 16.2324C18.4403 16.2324 16.6014 16.2324 14.7626 16.2324C14.6358 16.2324 14.4455 16.2324 14.3187 16.2324C14.0651 16.2324 14.0651 16.2324 14.0651 16.4888C14.0651 17.1298 14.0651 17.7707 14.0651 18.4117C14.0651 18.7322 14.0651 19.0527 14.0651 19.3731C14.0651 19.5654 14.0651 19.5654 14.2553 19.5654C14.9528 19.5654 15.6503 19.5654 16.3478 19.5654C17.4257 19.5654 18.5037 19.5654 19.5817 19.5654C19.8353 19.5654 19.8353 19.5654 19.8353 19.8218C19.8353 20.3346 19.8353 20.7832 19.8353 21.296C19.8353 21.4883 19.8353 21.4883 19.5817 21.4883C17.8696 21.4883 16.1576 21.4883 14.3821 21.4883C13.9383 21.4883 14.0017 21.4883 14.0017 21.8088C14.0017 23.2189 14.0017 24.6931 14.0017 26.1032C14.0017 26.1673 14.0017 26.2314 14.0017 26.2314C14.0017 26.4237 14.0017 26.4237 13.8114 26.4237C13.2408 26.4237 12.6067 26.4237 12.036 26.4237C11.8458 26.4237 11.7823 26.4237 11.7823 26.2314C11.7823 25.5263 11.7823 24.8213 11.7823 24.1162C11.8458 22.8343 11.8458 21.6165 11.8458 20.3346ZM42.7893 21.296C42.7893 19.6936 42.7893 18.0912 42.7893 16.4888C42.7893 16.1683 42.8527 16.1683 42.4723 16.1683C41.3943 16.1683 40.3798 16.1683 39.3018 16.1683C39.2384 16.1683 39.175 16.1683 39.1116 16.1683C38.9848 16.1683 38.9848 16.1043 38.9848 16.0402C38.9848 15.5274 38.9848 14.9505 38.9848 14.4378C38.9848 14.3096 39.0482 14.3096 39.1116 14.3096C39.175 14.3096 39.2384 14.3096 39.2384 14.3096C42.2821 14.3096 45.3257 14.3096 48.4327 14.3096C48.4961 14.3096 48.5595 14.3096 48.5595 14.3096C48.6864 14.3096 48.6864 14.3096 48.6864 14.4378C48.6864 14.9505 48.6864 15.5274 48.6864 16.0402C48.6864 16.1683 48.623 16.1683 48.5595 16.1683C48.4327 16.1683 48.3059 16.1683 48.1157 16.1683C47.1011 16.1683 46.15 16.1683 45.1355 16.1683C45.072 16.1683 45.0086 16.1683 44.9452 16.1683C44.8818 16.1683 44.8184 16.1683 44.8184 16.2965C44.8184 16.3606 44.8184 16.4247 44.8184 16.5529C44.8184 19.7577 44.8184 22.9625 44.8184 26.1032C44.8184 26.4877 44.8818 26.4237 44.5014 26.4237C43.9941 26.4237 43.4868 26.4237 42.9796 26.4237C42.6625 26.4237 42.7259 26.4237 42.7259 26.1673C42.7893 24.5008 42.7893 22.8984 42.7893 21.296ZM21.6107 20.3346C21.6107 18.4117 21.6107 16.4888 21.6107 14.566C21.6107 14.2455 21.5473 14.3096 21.9278 14.3096C22.4985 14.3096 23.0691 14.3096 23.6398 14.3096C23.8301 14.3096 23.83 14.3096 23.83 14.5019C23.83 14.566 23.83 14.566 23.83 14.6301C23.83 18.4758 23.83 22.3215 23.83 26.1032C23.83 26.4877 23.83 26.4237 23.513 26.4237C23.0057 26.4237 22.4351 26.4237 21.9278 26.4237C21.6741 26.4237 21.6741 26.4237 21.6741 26.1673C21.6107 24.2444 21.6107 22.2574 21.6107 20.3346ZM56.1686 31.5513C56.1686 31.8077 56.1686 32.1282 56.1686 32.3845C56.1686 32.5127 56.232 32.5127 56.2954 32.5127C56.6759 32.5127 57.0563 32.5127 57.3734 32.5127C57.5002 32.5127 57.627 32.5127 57.8172 32.4486C58.2611 32.3205 58.4513 32.1282 58.5147 31.6795C58.5782 30.9744 58.3245 30.654 57.6904 30.5899C57.2466 30.5258 56.8027 30.5899 56.3588 30.5899C56.232 30.5899 56.1686 30.654 56.1686 30.7822C56.1686 31.0385 56.1686 31.2949 56.1686 31.5513ZM58.3245 33.2178C58.7684 33.8587 59.2122 34.4997 59.6561 35.1407C59.5927 35.2048 59.5293 35.2048 59.4659 35.2048C59.2757 35.2048 59.022 35.2048 58.8318 35.2048C58.6416 35.2048 58.5147 35.1407 58.4513 35.0125C58.1343 34.4997 57.8172 34.051 57.5002 33.5383C57.4368 33.4101 57.31 33.346 57.1832 33.346C56.9295 33.346 56.7393 33.346 56.4857 33.346C56.2954 33.346 56.2954 33.346 56.232 33.6024C56.232 34.051 56.232 34.5638 56.232 35.0125C56.232 35.2048 56.232 35.2048 56.0418 35.2048C55.8516 35.2048 55.6613 35.2048 55.4711 35.2048C55.3443 35.2048 55.3443 35.1407 55.3443 35.0766C55.3443 35.0125 55.3443 35.0125 55.3443 34.9484C55.3443 33.2819 55.3443 31.6154 55.3443 30.013C55.3443 29.6925 55.3443 29.7566 55.5979 29.7566C56.3588 29.7566 57.0563 29.7566 57.8172 29.8207C58.0709 29.8207 58.3245 29.8848 58.5147 29.9489C59.022 30.1412 59.3391 30.4617 59.4025 31.0385C59.4659 31.4231 59.4659 31.7436 59.4025 32.1282C59.2757 32.6409 59.022 32.9614 58.5782 33.1537C58.4513 33.1537 58.3879 33.2178 58.3245 33.2178ZM79.1861 32.4486C79.1861 31.6154 79.1861 30.8463 79.1861 30.013C79.1861 29.9489 79.1861 29.8848 79.1861 29.8207C79.1861 29.7566 79.2495 29.6925 79.3129 29.6925C79.3763 29.6925 79.4397 29.6925 79.5031 29.6925C80.7079 29.6925 81.9761 29.6925 83.1808 29.6925C83.2442 29.6925 83.2442 29.6925 83.3076 29.6925C83.4345 29.6925 83.4345 29.7566 83.4345 29.8207C83.4345 30.013 83.4345 30.2053 83.4345 30.4617C83.4345 30.5899 83.3711 30.5899 83.2442 30.5899C82.9906 30.5899 82.737 30.5899 82.4199 30.5899C81.7224 30.5899 81.0883 30.5899 80.3908 30.5899C80.2006 30.5899 80.1372 30.5899 80.1372 30.7822C80.1372 31.1026 80.1372 31.4872 80.1372 31.8077C80.1372 32 80.1372 32 80.3274 32C81.0883 32 81.9127 32 82.6736 32C82.737 32 82.8004 32 82.8638 32C82.9272 32 82.9906 32 82.9906 32.1282C82.9906 32.3205 82.9906 32.5768 82.9906 32.7691C82.9906 32.8332 82.9272 32.8332 82.8638 32.8332C82.8004 32.8332 82.737 32.8332 82.6736 32.8332C81.9127 32.8332 81.0883 32.8332 80.3274 32.8332C80.0738 32.8332 80.0738 32.8332 80.0738 33.0255C80.0738 33.346 80.0738 33.7306 80.0738 34.051C80.0738 34.2433 80.0738 34.2433 80.3274 34.2433C81.2151 34.2433 82.1663 34.2433 83.054 34.2433C83.1174 34.2433 83.1808 34.2433 83.2442 34.2433C83.3711 34.2433 83.3711 34.3074 83.3711 34.3715C83.3711 34.5638 83.3711 34.7561 83.3711 35.0125C83.3711 35.1407 83.3076 35.1407 83.2442 35.1407C83.1808 35.1407 83.054 35.1407 82.9906 35.1407C81.7858 35.1407 80.5811 35.1407 79.3763 35.1407C79.0592 35.1407 79.0592 35.1407 79.0592 34.8843C79.1861 34.1151 79.1861 33.2819 79.1861 32.4486ZM67.5822 33.7306C67.7725 33.9228 67.9627 34.051 68.0895 34.1792C68.2163 34.3074 68.2163 34.3074 68.0895 34.4356C67.6456 34.8202 67.2018 35.0766 66.6311 35.2048C65.5531 35.397 64.602 35.2048 63.7777 34.5638C63.2704 34.1792 62.9534 33.6024 62.89 33.0255C62.7631 32.1923 62.9534 31.4231 63.5241 30.7822C64.0947 30.1412 64.7922 29.8207 65.68 29.7566C66.5677 29.6925 67.392 29.8848 68.0895 30.4617C68.1529 30.5258 68.1529 30.5258 68.2163 30.5899C68.2797 30.654 68.2797 30.7181 68.2163 30.7822C68.0261 30.9103 67.8993 31.1026 67.7724 31.2308C67.709 31.2949 67.6456 31.2949 67.5822 31.2308C67.4554 31.1026 67.3286 31.0385 67.2018 30.9744C66.5043 30.5258 65.0459 30.4617 64.285 31.4231C63.7777 32.0641 63.7777 32.7691 64.1581 33.4742C64.5386 34.1151 65.2361 34.4356 66.0604 34.4356C66.5043 34.4356 66.8847 34.2433 67.2018 34.051C67.392 33.8587 67.4554 33.7947 67.5822 33.7306ZM45.8964 33.7306C46.0866 33.8587 46.2768 34.051 46.4036 34.1792C46.5305 34.2433 46.467 34.3074 46.4036 34.3715C45.7695 35.0125 44.9452 35.2689 43.9941 35.2048C42.9161 35.1407 42.0284 34.7561 41.5211 33.8587C40.4432 32.1282 41.5211 29.8207 43.9941 29.6925C44.8184 29.6284 45.5159 29.8207 46.2134 30.2694C46.6573 30.5899 46.6573 30.5899 46.2768 30.9744C46.15 31.0385 46.0866 31.2308 45.9598 31.2308C45.833 31.2308 45.7695 31.1026 45.6427 31.0385C44.6282 30.3335 43.1064 30.5258 42.4723 31.5513C42.0284 32.1923 42.0918 32.8973 42.5357 33.5383C42.9796 34.1792 43.6136 34.4356 44.438 34.3715C44.9452 34.3715 45.3257 34.1792 45.7061 33.8587C45.7695 33.7947 45.833 33.7306 45.8964 33.7306ZM72.4647 32.0641C72.4647 32.7691 72.4647 33.4742 72.4647 34.1151C72.4647 34.3715 72.4647 34.3715 72.6549 34.3715C73.289 34.3715 73.9865 34.3715 74.6206 34.3715C74.8108 34.3715 74.8108 34.3715 74.8108 34.5638C74.8108 34.7561 74.8108 34.8843 74.8108 35.0766C74.8108 35.2048 74.8108 35.2689 74.684 35.2689C74.6206 35.2689 74.5572 35.2689 74.4938 35.2689C73.6061 35.2689 72.7818 35.2689 71.894 35.2689C71.8306 35.2689 71.8306 35.2689 71.7672 35.2689C71.6404 35.2689 71.6404 35.2048 71.6404 35.1407C71.6404 35.0766 71.6404 35.0766 71.6404 35.0125C71.6404 33.346 71.6404 31.6795 71.6404 30.0771C71.6404 29.8207 71.6404 29.8207 71.894 29.8207C72.0209 29.8207 72.1477 29.8207 72.3379 29.8207C72.5915 29.8207 72.5915 29.8207 72.5915 30.0771C72.5915 30.7181 72.5915 31.359 72.5915 32C72.4647 31.9359 72.4647 32 72.4647 32.0641ZM49.8277 32.4486C49.8277 31.6154 49.8277 30.8463 49.8277 30.013C49.8277 29.9489 49.8277 29.8848 49.8277 29.8207C49.8277 29.7566 49.8911 29.7566 49.9545 29.7566C50.2716 29.7566 50.5252 29.7566 50.8423 29.7566C50.9057 29.7566 50.9691 29.8207 50.9691 29.8207C50.9691 29.8848 50.9691 29.9489 50.9691 30.013C50.9691 31.6795 50.9691 33.346 50.9691 34.9484C50.9691 35.2048 51.0325 35.2048 50.652 35.2048C50.4618 35.2048 50.2716 35.2048 50.0814 35.2048C49.9545 35.2048 49.8911 35.1407 49.8911 35.0766C49.8911 34.7561 49.8911 34.4356 49.8911 34.1151C49.8277 33.5383 49.8277 33.0255 49.8277 32.4486Z" fill="#6B82B0"/>
</svg>
