<svg width="202" height="55" viewBox="0 0 202 55" fill="none" xmlns="http://www.w3.org/2000/svg">
<path fill-rule="evenodd" clip-rule="evenodd" d="M8.62579 12.9186C8.37486 12.407 7.74753 12.2791 7.24566 12.5349C6.86927 12.9186 6.61834 13.4302 6.86927 13.9418C7.1202 14.4535 7.74753 14.5814 8.24939 14.3256C8.75126 14.0698 8.87672 13.4302 8.62579 12.9186ZM4.35995 41.6657C4.73635 42.1773 5.36368 42.4331 5.99101 42.0494C6.49287 41.7936 6.7438 41.0261 6.49287 40.3866C6.11647 39.875 5.48914 39.6192 4.86181 40.0029C4.23448 40.3546 3.98355 41.0261 4.35995 41.6657ZM22.082 51.1628L20.0745 51.0349C20.0745 50.907 20.0745 50.6511 19.8236 50.5232C19.4472 50.0116 18.8199 49.7558 18.1926 50.1395C17.6907 50.5232 17.4398 51.1628 17.8162 51.8023C18.1926 52.3139 18.8199 52.5698 19.4472 52.186C19.8236 52.0581 19.9491 51.8023 20.0745 51.4186L22.082 51.5465C22.082 51.8023 22.2075 52.186 22.3329 52.4418C22.8348 53.4651 24.0895 53.7209 24.9677 53.2093C25.9714 52.6977 26.2224 51.4186 25.7205 50.5232C25.2186 49.5 23.964 49.2442 23.0857 49.7558C22.9603 49.7558 22.8348 49.8837 22.7093 50.0116L16.8124 44.7355C17.0634 44.3517 17.0634 43.8401 16.8124 43.4564C16.436 42.9448 15.8087 42.6889 15.1814 43.0727C14.5541 43.4564 14.3031 44.0959 14.6795 44.7355L15.0559 45.1192L13.9267 47.9331C13.4249 47.6773 12.923 47.8052 12.4211 48.061C11.4174 48.5727 11.1665 49.8517 11.6683 50.7471C12.1702 51.7703 13.4249 52.0261 14.3031 51.5145C15.3068 51.0029 15.5578 49.7238 15.0559 48.8285C14.9304 48.4448 14.554 48.1889 14.3031 48.061L15.4323 45.2471C15.6832 45.375 16.0596 45.2471 16.3106 45.1192L16.436 44.9913L22.4584 50.2674C22.2075 50.4913 22.082 50.875 22.082 51.1628ZM19.3218 13.4302L21.3292 9.72091C21.5801 9.84882 21.9565 9.84882 22.082 9.59301C22.7093 9.20929 22.9603 8.56976 22.5839 7.93022C22.2075 7.41859 21.5801 7.16278 20.9528 7.5465C20.4509 7.93022 20.2 8.56976 20.5764 9.20929C20.5764 9.3372 20.7019 9.4651 20.8273 9.59301L18.8199 13.3023C18.569 13.1744 18.1926 13.0465 17.9416 13.1744L15.6832 6.87499C16.436 6.36336 16.687 5.46801 16.3106 4.70057C15.8087 4.06103 14.9304 3.80522 14.1777 4.18894C13.4249 4.70057 13.1739 5.59591 13.5503 6.36336C13.9267 7.00289 14.6795 7.25871 15.3068 7.1308L17.5652 13.4302C16.8124 13.9418 16.5615 14.8372 16.9379 15.6046C17.4398 16.2442 18.318 16.5 19.0708 16.1163C19.8236 15.6046 20.0745 14.7093 19.6982 13.9418C19.6982 13.75 19.5413 13.6221 19.4158 13.5261C19.3845 13.4942 19.3531 13.4622 19.3218 13.4302ZM16.3106 39.4593H17.4398C16.8124 38.6918 16.3106 37.9244 16.0596 37.157C15.9969 37.0291 15.9655 36.8692 15.9028 36.7413C15.5891 35.8779 15.2755 35.0785 15.1814 34.2151C12.923 35.75 11.7938 37.2849 12.0447 38.1802C12.2643 38.9477 13.8954 39.3314 16.3106 39.4593ZM27.3516 39.7151C25.3441 40.2267 23.4621 40.6104 21.7056 40.8663C23.2112 41.7616 24.9677 42.4011 27.1006 42.5291C27.2261 42.0174 27.6025 41.5058 28.1044 41.25C29.2336 40.4825 30.8646 40.9942 31.4919 42.1453C31.6174 42.1453 31.6174 42.2732 31.6174 42.2732C33.7503 42.0174 35.6323 41.3779 37.2634 40.3546C36.887 39.4593 37.3888 38.3081 38.2671 37.7965C38.8944 37.4128 39.6472 37.4128 40.2745 37.6686C40.9019 36.7732 41.5292 35.75 41.9056 34.5988C38.2671 36.2616 34.7541 37.5407 33.2485 38.0523C31.6488 38.5639 30.0491 38.9796 28.5435 39.3953C28.1357 39.5232 27.7593 39.6192 27.3516 39.7151ZM37.7966 19.6977C37.5457 19.186 37.4202 18.5465 37.5457 18.0349C35.2873 17.1395 32.9034 16.7558 30.7705 16.6279C30.5823 16.6918 30.3627 16.7238 30.1432 16.7558C29.9236 16.7878 29.7041 16.8198 29.5159 16.8837C29.3904 17.6511 29.014 18.4186 28.2612 18.8023C27.2575 19.3139 26.1283 19.186 25.3755 18.5465C24.2463 19.186 23.1171 20.0814 22.1134 20.9767C21.1096 21.8721 20.3568 22.7674 19.604 23.7907C19.604 23.8546 19.6354 23.8866 19.6668 23.9186C19.6981 23.9506 19.7295 23.9825 19.7295 24.0465C20.3568 25.1977 19.9804 26.7325 18.8513 27.3721C18.4749 27.7558 17.973 27.7558 17.4711 27.7558C17.2202 28.5232 16.9693 29.2907 16.8438 29.9302C16.7183 30.186 16.7183 30.3139 16.7183 30.5698C21.737 27.3721 27.2888 25.0378 33.0603 23.5029C33.0603 22.9913 33.4367 22.4796 33.9385 22.0959C34.8168 21.4564 36.0714 21.7122 36.6988 22.6075C37.0752 23.1192 37.2006 23.6308 37.0752 24.2703C36.9497 24.782 36.8242 25.1657 36.1969 25.5494C35.5696 25.9331 34.1895 25.9331 33.5621 25.1657C27.5398 26.8285 21.737 29.2587 16.5929 32.7442C16.7183 33.8953 16.9693 35.0465 17.4711 36.0697C17.973 37.2209 18.7258 38.2442 19.604 39.1395C21.737 38.8837 24.2463 38.5 26.8811 37.8605C28.6376 37.4767 30.645 36.8372 32.6525 36.1977C33.9072 35.8139 38.4239 34.0232 42.5957 31.9767C42.7211 31.8488 42.7211 31.593 42.7211 31.4651C42.7211 30.6977 42.7211 30.186 42.4702 29.8023C41.4665 30.4419 40.0863 30.0581 39.459 29.0349C39.459 29.0349 39.3336 28.907 39.3336 28.7791C38.4553 28.7791 37.4516 29.0349 36.4478 29.2907C33.3112 30.0581 29.7981 31.7209 27.5084 32.8721C27.5084 33.7674 27.132 34.5349 26.3792 35.0465C25.3755 35.686 23.9954 35.3023 23.368 34.2791C22.7407 33.2558 23.1171 31.8488 24.1208 31.2093C24.9991 30.6977 26.0028 30.8256 26.7556 31.4651C29.1395 30.3139 32.778 28.6511 36.0714 27.7558C36.3224 27.6918 36.5733 27.6599 36.8242 27.5959C37.7966 27.4041 38.6749 27.2122 39.459 27.1163C39.5845 26.7325 39.9609 26.3488 40.3373 26.093C41.341 25.4535 42.7211 25.8372 43.3485 26.8605C43.5994 27.2442 43.5994 27.7558 43.5994 28.1395C44.1013 28.7791 44.3522 29.8023 44.3522 31.0814C47.9907 29.0349 50.8764 26.8604 50.3746 24.9099C50.1236 24.3982 49.2454 24.0145 47.8652 23.7587C47.8339 23.8546 47.8339 23.9186 47.8025 23.9825C47.7398 24.2064 47.7398 24.3343 47.2379 24.5262C44.2267 25.8052 42.9721 22.2238 44.9795 20.9448C45.6068 20.561 47.2379 20.561 47.8652 21.2006C47.9907 21.3285 48.1162 21.4564 48.1162 21.5843C50.2491 21.968 51.6292 22.7355 52.1311 24.0145V24.2703C52.8839 27.5959 48.7435 30.8256 43.9758 33.2558C43.4739 35.3023 42.5957 36.9651 41.4665 38.532C41.4665 38.5959 41.4978 38.6279 41.4978 38.6918C41.6233 39.1395 41.686 39.4913 41.5919 39.9389L46.2342 41.3459C46.3596 40.9622 46.6106 40.7064 46.8615 40.5785C47.1124 40.4506 47.4888 40.4506 47.8652 40.4506L49.1199 35.8459C48.869 35.718 48.618 35.5901 48.4926 35.3343C48.1162 34.6948 48.3671 33.9273 48.9944 33.5436C49.6218 33.2878 50.3746 33.4157 50.7509 34.0552C50.8764 34.311 50.8764 34.5668 50.8764 34.8227L53.8876 35.4622C54.0131 35.0785 54.3895 34.6948 54.7659 34.4389C55.6441 33.9273 56.7733 34.1831 57.2752 35.0785C57.777 35.9738 57.5261 37.125 56.6478 37.6366C55.7696 38.1482 54.6404 37.8924 54.1385 36.9971C53.8876 36.6134 53.8876 36.2296 53.8876 35.8459L50.8764 35.2064C50.8764 35.4622 50.6255 35.718 50.3746 35.8459C50.1236 35.9738 49.8727 35.9738 49.6218 35.9738L48.3671 40.5785C48.7435 40.7064 48.9944 40.9622 49.1199 41.218C49.4963 41.8575 49.3708 42.625 48.869 43.1366L51.5037 46.5901C52.0056 46.3343 52.6329 46.4622 52.8839 46.9738C53.1348 47.4855 53.0093 48.125 52.5075 48.3808C52.0056 48.6366 51.3783 48.5087 51.1273 47.9971C51.0019 47.8692 51.0019 47.7413 51.0019 47.6134L42.9721 46.5901C42.8466 46.9738 42.5957 47.3575 42.2193 47.6134C41.7174 47.8692 41.2155 47.8692 40.8391 47.7413L38.8317 51.4506C38.8944 51.5145 38.9258 51.5785 38.9572 51.6424C38.9885 51.7064 39.0199 51.7703 39.0826 51.8343C39.3336 52.4738 39.2081 53.1134 38.5808 53.4971C37.9534 53.8808 37.3261 53.7529 36.9497 53.1134C36.6988 52.4738 36.8242 51.8343 37.4516 51.4506C37.828 51.1948 38.0789 51.1948 38.4553 51.3227L40.0863 47.3575L39.71 46.9738L32.5584 51.1948C32.8093 51.8343 32.5584 52.4738 32.0565 52.7296C31.4292 53.1134 30.8019 52.9855 30.4255 52.3459C30.1745 51.7064 30.3 51.0668 30.9273 50.6831C31.4292 50.2994 32.0565 50.4273 32.4329 50.9389L39.5845 46.718C39.2081 46.0785 39.5845 45.1831 40.2118 44.7994C40.9646 44.2878 41.9683 44.5436 42.3447 45.311C42.4702 45.5668 42.5957 45.8227 42.5957 46.0785L50.6255 47.1017C50.6882 47.0378 50.7196 46.9738 50.7509 46.9099C50.7823 46.8459 50.8137 46.782 50.8764 46.718L48.2416 43.2645C47.4888 43.7761 46.4851 43.5203 46.1087 42.7529C45.9832 42.4971 45.9832 42.1134 45.9832 41.7296L41.341 40.3227C41.0901 40.8343 40.8391 41.218 40.3373 41.4738C39.5845 41.8575 38.7062 41.8575 38.0789 41.4738C36.1969 42.625 34.064 43.3924 31.5547 43.7761C31.4292 44.5436 31.0528 45.0552 30.4255 45.4389C29.2963 46.2064 27.6652 45.6947 27.0379 44.5436C26.9124 44.4157 26.787 44.1599 26.787 44.032C24.4031 43.9041 22.2702 43.1366 20.5137 42.1134C20.0118 41.8575 19.51 41.4738 19.0081 41.0901C18.0044 41.218 17.0006 41.218 16.1224 41.218C12.8603 41.218 10.7273 40.3227 10.1 38.6599V38.4041C9.59815 36.4855 11.3547 34.0552 14.7422 31.7209C14.7422 31.1773 14.8363 30.6337 14.9304 29.9942C14.9618 29.8982 14.9618 29.7703 14.9932 29.6744C15.1186 29.2267 15.2441 28.811 15.3696 28.3953C15.495 27.9796 15.6205 27.5639 15.746 27.1163C15.6832 27.0523 15.6205 26.9564 15.5578 26.8605C15.495 26.7645 15.4323 26.6686 15.3696 26.6046C15.2441 26.4767 15.1186 26.2209 15.1186 26.093L11.7311 27.1163C11.8565 27.6279 11.6056 28.1395 11.1037 28.3953C10.4764 28.6511 9.72362 28.5232 9.34722 27.8837C9.22175 27.6279 9.22175 27.2442 9.22175 26.9884L5.45778 25.5814C5.33231 25.8372 5.08138 26.093 4.70498 26.3488C3.82672 26.8604 2.69753 26.6046 2.19566 25.7093C1.6938 24.8139 1.94473 23.6628 2.82299 23.1511C3.70125 22.6395 4.83045 22.8953 5.33231 23.7907C5.58324 24.3023 5.70871 24.686 5.58324 25.1977L9.34722 26.6046C9.47268 26.3488 9.59815 26.2209 9.84908 26.093C9.97455 25.9651 10.2255 25.9651 10.4764 25.9651L11.4801 20.3052C11.1037 20.1773 10.8528 19.9215 10.6019 19.5378C10.2255 18.7703 10.4764 17.7471 11.2292 17.3634C11.982 16.8517 12.9857 17.1075 13.3621 17.875C13.7385 18.6424 13.4876 19.6657 12.7348 20.0494C12.4839 20.3052 12.1075 20.3052 11.8565 20.3052L10.8528 25.9651C11.2292 26.093 11.4801 26.3488 11.6056 26.6046V26.7325L15.1186 25.7093C14.9932 24.686 15.3696 23.7907 16.2478 23.2791C16.8752 23.0232 17.377 22.8953 18.0044 23.0232C18.8826 21.8721 19.7609 20.8488 20.8901 19.8256C22.0193 18.8023 23.1485 17.907 24.4031 17.2674C24.2777 16.2442 24.6541 15.093 25.6578 14.5814C26.787 13.9418 28.2926 14.3256 29.0454 15.4767C29.5472 15.3488 30.0491 15.2209 30.5509 15.2209C33.1857 14.9651 35.8205 15.3488 38.3298 16.5C38.4553 16.5 38.5808 16.3721 38.7062 16.2442C39.8354 15.4767 41.4665 15.9884 42.0938 17.1395C42.8466 18.4186 42.4702 19.9535 41.2155 20.593C40.055 21.3924 38.4239 20.8808 37.7966 19.6977ZM43.6935 10.7442L45.1991 14.7093C44.4463 15.2209 44.1954 16.1163 44.6972 16.7558C45.0736 17.5232 45.9519 17.7791 47.0811 17.2674C47.5829 16.8837 47.9593 16.3721 47.8339 15.7325L55.7382 13.686V13.8139C55.9891 14.1977 56.3655 14.4535 56.7419 14.4535L57.8711 23.1831C57.7457 23.1831 57.6202 23.1831 57.4947 23.311L53.6367 18.2907C54.1385 17.7791 54.264 17.0116 53.8876 16.3721C53.3857 15.7325 52.5075 15.4767 51.7547 15.8605C51.0019 16.3721 50.7509 17.2674 51.1273 18.0349C51.6292 18.6744 52.5075 18.9302 53.2603 18.5465L57.1497 23.5349C56.6478 24.0465 56.5224 24.8139 56.8988 25.4535C57.4006 26.093 58.2789 26.3488 59.0317 25.9651C59.7845 25.4535 60.0354 24.5581 59.659 23.7907C59.4081 23.2791 58.7808 23.0232 58.2789 23.0232L57.1497 14.2936C57.2124 14.2936 57.2438 14.2616 57.2752 14.2296C57.3065 14.1977 57.3379 14.1657 57.4006 14.1657C58.028 13.782 58.2789 13.1424 57.9025 12.5029C57.5261 11.9913 56.8988 11.7355 56.2714 12.1192C55.7696 12.375 55.6441 12.7587 55.6441 13.2703L47.7398 15.3168L47.6143 15.1889C47.4888 14.9331 47.3634 14.8052 47.1124 14.6773L49.2454 10.2006C49.4963 10.3285 49.8727 10.2006 50.1236 10.0727C50.6255 9.68894 50.8764 9.04941 50.5 8.40987C50.1236 7.89824 49.4963 7.64243 48.869 8.02615C48.2416 8.40987 47.9907 9.04941 48.3671 9.68894L48.7435 10.0727L46.6106 14.5494C46.4851 14.5494 46.3596 14.5174 46.2342 14.5174C46.046 14.4855 45.8891 14.4535 45.7323 14.5494L44.1013 10.5843C44.6031 10.2006 44.8541 9.43312 44.4777 8.9215C44.1013 8.40987 43.4739 8.15406 42.8466 8.53778C42.4702 8.79359 42.2193 9.04941 42.2193 9.43313L37.7025 9.56103C37.7025 9.30522 37.577 9.04941 37.4516 8.79359C37.3261 8.53778 37.2006 8.40987 37.0752 8.28196L40.0863 4.31685C40.4627 4.57266 40.8391 4.57266 41.2155 4.31685C41.8429 3.93313 42.0938 3.29359 41.7174 2.65406C41.341 2.14243 40.7137 1.88662 40.0863 2.27034C39.459 2.65406 39.2081 3.29359 39.5845 3.93313C39.5845 3.99708 39.6158 4.02906 39.6472 4.06103C39.6786 4.09301 39.71 4.12499 39.71 4.18894L36.8242 8.15406C36.1969 7.77034 35.4441 7.77034 34.8168 8.15406C34.1895 8.53778 33.9385 9.0494 33.8131 9.56103L29.1708 9.17731C29.1708 9.0494 29.1708 8.79359 29.0454 8.66569L28.669 8.28196L30.4255 4.44475C30.8019 4.57266 31.3037 4.57266 31.6801 4.31685C32.4329 3.80522 32.6839 2.90987 32.3075 2.14243C31.8056 1.37499 30.9273 1.11917 30.1745 1.50289C29.4218 2.01452 29.1708 2.90987 29.5472 3.67731C29.6727 3.93313 29.9236 4.18894 30.1745 4.06103L28.418 7.89824C28.1671 7.77033 27.7907 7.89824 27.5398 8.02615C26.9124 8.40987 26.6615 9.04941 27.0379 9.68894C27.4143 10.2006 28.0416 10.4564 28.669 10.0727C28.9826 9.97673 29.1395 9.65696 29.2336 9.40115C29.2649 9.36917 29.2649 9.3372 29.2963 9.27324L33.9385 9.65696C33.9385 9.91278 34.064 10.2965 34.1895 10.5523C34.6913 11.5756 35.946 11.8314 36.8242 11.3198C37.4516 11.0639 37.828 10.4244 37.828 9.78487L42.3447 9.65696C42.3447 9.78487 42.3447 9.91278 42.4702 10.0407C42.6898 10.5843 43.1916 10.8721 43.6935 10.7442ZM200.432 10.5843L192.778 22.3837V30.218H189.391V22.5116L181.737 10.7122H185.752L191.147 19.3139L196.542 10.5843H200.432ZM172.014 20.2093L178.914 30.218H174.774L169.755 22.7674L164.737 30.218H160.847L167.873 20.3372L161.224 10.7442H165.239L170.006 17.811L174.774 10.7442H178.663L172.014 20.2093ZM144.756 22.4157H151.406L148.018 14.5814L144.756 22.4157ZM146.638 10.5843H149.775L158.056 30.218H154.543L152.661 25.4855H143.627L141.62 30.218H138.232L146.638 10.5843ZM134.939 30.218H121.482V10.7122H124.87V27.1482H134.939V30.218ZM103.541 22.4157H110.19L106.803 14.5814L103.541 22.4157ZM105.297 10.5843H108.434L116.715 30.218H113.202L111.32 25.4855H102.255L100.247 30.218H96.8596L105.297 10.5843ZM199.428 47.1657H193.531V38.5639H195.037V45.7587H199.428V47.1657ZM173.927 43.8401H176.813L175.307 40.3866L173.927 43.8401ZM174.68 38.5639H176.06L179.698 47.1657H178.193L177.315 45.1192H173.3L172.421 47.1657H170.916L174.68 38.5639ZM158.84 39.9709H156.205V47.1657H154.699V39.9709H152.065V38.5639H158.84V39.9709ZM138.075 47.1657H136.57V38.5639H138.075V47.1657ZM122.266 42.4331V46.0145C122.141 46.1424 121.89 46.3982 121.514 46.5261C121.388 46.5901 121.231 46.6541 121.075 46.718C120.918 46.782 120.761 46.8459 120.635 46.9099C120.447 46.9738 120.29 47.0058 120.134 47.0378C119.977 47.0698 119.82 47.1017 119.632 47.1657C119.381 47.2936 119.004 47.2936 118.628 47.2936C118.001 47.2936 117.373 47.1657 116.871 46.9099C116.37 46.782 115.868 46.3982 115.491 46.0145C115.115 45.6308 114.864 45.1192 114.613 44.6075C114.582 44.5116 114.582 44.4157 114.55 44.3198C114.456 43.8081 114.362 43.3604 114.362 42.7849C114.362 42.2732 114.488 41.6337 114.739 41.1221C114.989 40.6105 115.24 40.0988 115.617 39.7151C115.993 39.3314 116.495 39.0756 116.997 38.8198C117.499 38.5639 118.126 38.436 118.753 38.436C118.973 38.436 119.161 38.468 119.349 38.5C119.506 38.532 119.632 38.5639 119.757 38.5639C119.883 38.5639 120.008 38.5959 120.134 38.5959C120.322 38.6279 120.479 38.6599 120.635 38.5639L121.388 38.9477C121.514 39.0756 121.765 39.3314 122.016 39.4593L121.137 40.6105C121.075 40.5465 120.98 40.4825 120.886 40.4186C120.792 40.3546 120.698 40.2907 120.635 40.2267C120.573 40.1628 120.479 40.1308 120.384 40.0988C120.29 40.0668 120.196 40.0349 120.134 39.9709C120.008 39.9709 119.914 39.9389 119.82 39.907C119.726 39.875 119.632 39.843 119.506 39.843C119.255 39.7151 119.004 39.7151 118.753 39.7151C118.377 39.7151 118.001 39.843 117.624 39.9709C117.248 40.0988 116.997 40.3546 116.746 40.6105C116.683 40.7384 116.589 40.8343 116.526 40.9302C116.37 41.1541 116.213 41.3779 116.119 41.6337C115.993 42.0174 115.868 42.4011 115.868 42.7849C115.868 43.2965 115.993 43.6802 116.119 44.0639C116.244 44.4477 116.495 44.8314 116.746 45.0872C116.997 45.343 117.248 45.5988 117.624 45.7267C117.875 45.8546 118.377 45.9825 118.753 45.9825C119.13 45.9825 119.506 45.9825 119.883 45.8546C120.259 45.7267 120.51 45.5988 120.761 45.343V43.6802H118.628V42.4011H122.266V42.4331ZM100.247 47.1657H98.7416V38.5639H100.247V47.1657ZM82.7761 44.0959C82.9016 43.7122 83.027 43.3285 83.027 42.9447C83.027 42.4331 82.9016 42.0494 82.7761 41.7936C82.6506 41.4099 82.3997 41.1541 82.1488 40.8982C81.8978 40.6424 81.6469 40.3866 81.2705 40.2587C80.8941 40.1308 80.5177 40.0029 80.0159 40.0029H78.3848V45.9186H80.0159C80.5177 45.9186 80.8941 45.7907 81.2705 45.6628C81.6469 45.5349 81.8978 45.2791 82.1488 45.0232C82.3997 44.7354 82.6506 44.4796 82.7761 44.0959ZM84.1562 41.282C84.4072 41.7936 84.5326 42.3052 84.5326 42.9447C84.5326 43.4564 84.4072 44.0959 84.1562 44.4796C84.0308 44.9913 83.6544 45.5029 83.278 45.8866C82.9016 46.2703 82.3997 46.6541 81.7724 46.782C81.2705 47.0378 80.6432 47.1657 80.0159 47.1657H76.8792V38.5639H80.0159C80.6432 38.5639 81.2705 38.6918 81.8979 38.9477C82.3997 39.2035 82.9016 39.4593 83.278 39.843C83.6544 40.2267 84.0308 40.6105 84.1562 41.282ZM92.8447 19.3139V27.532C92.3429 27.9157 91.841 28.2994 91.2137 28.6831C90.5863 29.0669 89.959 29.4506 89.3317 29.7064C88.7044 29.9622 87.9516 30.218 87.1988 30.3459C86.446 30.4738 85.6932 30.6017 84.8149 30.6017C83.4348 30.6017 82.0547 30.3459 80.8 29.8343C79.5454 29.3227 78.5416 28.5552 77.6634 27.6599C76.7851 26.7645 76.1578 25.7413 75.6559 24.4622C75.1541 23.311 74.9031 21.9041 74.9031 20.4971C74.9031 19.218 75.1541 17.9389 75.6559 16.6599C76.1578 15.3808 76.7851 14.2296 77.6634 13.3343C78.5416 12.4389 79.5454 11.6715 80.8 11.1599C82.0547 10.6482 83.3093 10.3924 84.8149 10.3924C85.5677 10.3924 86.446 10.3924 87.3242 10.6482C87.9516 10.7762 88.5789 10.9041 89.2062 11.1599C89.7081 11.2878 90.3354 11.5436 90.8373 11.9273L92.3429 13.0785L90.21 15.6366C89.8336 15.2529 89.4572 14.9971 89.0808 14.7413C88.7044 14.4855 88.2025 14.2296 87.8261 14.1017C87.4497 13.9738 86.9478 13.8459 86.446 13.718C85.9441 13.5901 85.4422 13.5901 84.8149 13.5901C83.9367 13.5901 83.0584 13.718 82.3056 14.1017C81.5528 14.4855 80.8 14.9971 80.2982 15.6366C79.7963 16.2761 79.4199 16.9157 79.0435 17.811C78.6671 18.7064 78.5416 19.6017 78.5416 20.4971C78.5416 21.5203 78.7926 22.4157 79.0435 23.311C79.4199 24.0785 79.7963 24.8459 80.4236 25.4855C80.9255 25.9971 81.6783 26.5087 82.4311 26.8924C83.1839 27.2762 84.0621 27.4041 85.0659 27.4041C85.9441 27.4041 86.8224 27.2761 87.5752 27.0203C88.328 26.7645 88.9553 26.3808 89.5826 25.9971V22.2878H84.6895V19.3459H92.8447V19.3139Z" fill="#DBE6FF"/>
</svg>
