<svg width="125" height="42" viewBox="0 0 125 42" fill="none" xmlns="http://www.w3.org/2000/svg">
<path d="M51.0077 4.85352H19.8827V36.3976H51.0077V4.85352Z" fill="white"/>
<path d="M66.8096 20.6441L51.0077 4.85352V36.3976L66.8096 20.6441Z" fill="#6B82B0"/>
<path d="M35.4452 20.8682L51.0077 4.85352H19.8827L35.4452 20.8682Z" fill="#6B82B0"/>
<path d="M4.08078 20.6441L19.8827 36.3976V4.85352L4.08078 20.6441Z" fill="#6B82B0"/>
<path d="M35.4452 20.8672L19.8827 36.3966H51.0077L35.4452 20.8672Z" fill="#6B82B0"/>
<path d="M80.6961 21.5817H74.95V27.1762H72.0769V14.0732H74.95V19.4469H80.6961V14.0732H83.5692V27.1762H80.6961V21.5817Z" fill="#6B82B0"/>
<path d="M90.6066 27.6614C87.8095 27.6614 85.5209 26.4791 85.4846 23.2372H88.2817C88.3181 24.6865 89.1172 25.5637 90.6429 25.5637C91.7691 25.5637 93.0768 24.9535 93.0768 23.6186C93.0768 22.5507 92.205 22.2456 90.7519 21.7879L89.8074 21.5209C87.7732 20.9107 85.7389 20.0716 85.7389 17.6307C85.7389 14.6177 88.427 13.5879 90.8609 13.5879C93.3674 13.5879 95.547 14.5032 95.5833 17.5163H92.7862C92.6772 16.2958 91.987 15.5712 90.6793 15.5712C89.6258 15.5712 88.6087 16.1432 88.6087 17.3637C88.6087 18.3553 89.4805 18.6605 91.2968 19.2707L92.3866 19.614C94.6025 20.3386 96.0192 21.1395 96.0192 23.4279C95.9829 26.4791 93.1495 27.6614 90.6066 27.6614Z" fill="#6B82B0"/>
<path d="M97.4558 14.0865H102.072C102.928 14.0497 103.821 14.0865 104.677 14.234C106.278 14.6028 107.506 15.6352 107.506 17.405C107.506 19.1012 106.427 19.9492 104.864 20.3548C106.65 20.6867 107.99 21.5716 107.99 23.5258C107.99 26.5125 105.012 27.1762 102.704 27.1762H97.493L97.4558 14.0865ZM102.072 19.5436C103.337 19.5436 104.64 19.2855 104.64 17.7738C104.64 16.4095 103.449 16.0408 102.258 16.0408H100.248V19.5436H102.072ZM102.332 25.222C103.672 25.222 104.975 24.927 104.975 23.3046C104.975 21.6822 103.858 21.3872 102.481 21.3872H100.21V25.222H102.332Z" fill="#6B82B0"/>
<path d="M115.522 27.6614C111.299 27.6614 109.427 24.8848 109.427 20.7388C109.427 16.5928 111.52 13.5879 115.669 13.5879C118.276 13.5879 120.809 14.8051 120.883 17.848H117.945C117.798 16.4787 116.917 15.794 115.669 15.794C113.099 15.794 112.328 18.6468 112.328 20.8148C112.328 22.9829 113.099 25.4933 115.559 25.4933C116.844 25.4933 117.798 24.7706 117.982 23.4013H120.919C120.625 26.5203 118.239 27.6614 115.522 27.6614Z" fill="#6B82B0"/>
</svg>
