<svg width="68" height="68" viewBox="0 0 68 68" fill="none" xmlns="http://www.w3.org/2000/svg">
<g filter="url(#filter0_d_722_3393)">
<path d="M51.4165 30.8354C53.0504 29.8325 55.0062 30.6642 55.4422 32.513C55.6316 33.3142 55.3744 33.9906 54.7803 34.5264C54.456 34.8199 54.3667 35.0679 54.6149 35.4673C54.8149 35.8134 54.9652 36.1858 55.0616 36.5736C55.1444 36.868 55.2867 36.9358 55.558 36.9225C55.8193 36.9038 56.0818 36.9171 56.3398 36.9622C56.8042 37.0538 57.2225 37.3034 57.5234 37.6685C57.8243 38.0337 57.9893 38.4918 57.9903 38.9648C57.9964 39.2542 57.9964 39.5436 57.9903 39.833C57.9647 40.9847 57.0861 41.8554 55.9287 41.8802C55.1841 41.8959 55.1899 41.8976 54.9119 42.5954C54.7997 42.9063 54.6633 43.2079 54.504 43.4975C54.351 43.7546 54.4296 43.8927 54.6049 44.0994C54.9036 44.45 55.2263 44.8196 55.3818 45.2396C55.5092 45.5861 55.491 46.0367 55.3975 46.4063C55.06 47.7383 53.4186 48.7784 52.2537 48.3783C51.8326 48.2344 51.4653 47.8962 51.1145 47.5986C50.8986 47.4142 50.7563 47.3389 50.4766 47.4853C50.0514 47.7077 49.584 47.8466 49.1488 48.0517C49.0355 48.1054 48.9742 48.2708 48.8899 48.3824C48.8832 48.3915 48.8899 48.4097 48.8899 48.4229C49.0553 50.8422 47.1037 51.292 45.3183 50.8505C44.4629 50.6388 43.9351 49.8029 43.9235 48.8661C43.9144 48.1476 43.9119 48.1534 43.2616 47.8987C42.926 47.7739 42.5985 47.6281 42.2813 47.4621C42.0529 47.3365 41.9296 47.4026 41.7452 47.5514C41.3654 47.859 40.9799 48.1972 40.5373 48.3783C40.2064 48.5097 39.7679 48.4833 39.4113 48.394C38.0768 48.0632 37.0162 46.4253 37.4133 45.2677C37.5664 44.8229 37.9312 44.4409 38.2407 44.0647C38.3954 43.8753 38.4342 43.7546 38.3234 43.5289C38.1066 43.1141 37.9251 42.6818 37.7807 42.2366C37.6864 41.9298 37.5259 41.886 37.247 41.8728C36.8532 41.8546 36.4454 41.8215 36.0764 41.6975C35.5113 41.5081 35.1407 41.0666 34.9471 40.5093C34.8644 40.277 34.751 40.2232 34.5335 40.2257C33.568 40.234 32.6033 40.2257 31.6379 40.2257H14.4355C12.6617 40.2257 11.6615 39.2335 11.6615 37.4674C11.6615 32.9755 11.6637 28.4831 11.6681 23.9901C11.6681 23.6924 11.5854 23.532 11.3149 23.3848C10.4875 22.9375 10.0218 22.2165 10.016 21.2748C9.99777 18.1879 9.99777 15.1011 10.016 12.0143C10.0251 10.6773 11.1486 9.63216 12.531 9.62885C15.6605 9.62058 18.7902 9.62196 21.9202 9.63299C22.3082 9.63299 22.4737 9.56932 22.549 9.12614C23.1281 5.68156 26.2264 3.04645 29.7218 3.01917C31.2358 3.00677 32.7638 2.95468 34.2638 3.11922C37.3769 3.46152 40.0119 6.06935 40.5009 9.16665C40.5646 9.57345 40.7185 9.63464 41.08 9.63299C44.1684 9.62058 47.2567 9.62472 50.3459 9.62637C52.0006 9.62637 53.0347 10.6533 53.0355 12.3028C53.0355 15.2243 53.0355 18.1458 53.0355 21.0672C53.0355 22.1421 52.5789 22.94 51.6291 23.4592C51.5655 23.499 51.5113 23.5523 51.4706 23.6153C51.4299 23.6783 51.4035 23.7495 51.3933 23.8239C51.3792 26.1117 51.3834 28.3987 51.3859 30.6866C51.3908 30.7371 51.401 30.787 51.4165 30.8354ZM35.6975 25.1162C35.7968 25.1063 35.8629 25.1063 35.9308 25.0931C40.7728 24.092 45.6151 23.0894 50.4576 22.0851C51.1948 21.9321 51.3735 21.6989 51.3735 20.9539C51.3735 18.1019 51.3735 15.2499 51.3735 12.3979C51.3735 11.5479 51.1087 11.2809 50.2682 11.28H12.7577C11.937 11.28 11.6632 11.5504 11.6632 12.3648C11.6632 15.1893 11.6632 18.014 11.6632 20.839C11.6632 21.7485 11.8237 21.9329 12.7089 22.1148C17.0258 23.0039 21.3425 23.8944 25.6588 24.7863C26.2173 24.9021 26.779 25.0062 27.3821 25.1237C27.3821 24.8979 27.3821 24.7342 27.3821 24.5713C27.397 23.1078 28.4577 22.0396 29.9146 22.0297C31.0174 22.0214 32.121 22.0173 33.2238 22.0297C33.7733 22.034 34.3051 22.2244 34.7323 22.5699C35.1595 22.9153 35.4569 23.3952 35.5759 23.9314C35.6594 24.3034 35.6586 24.697 35.6975 25.1162ZM13.3426 23.9438C13.3294 24.0719 13.3186 24.1257 13.3186 24.1794C13.3186 28.6724 13.3186 33.1649 13.3186 37.6568C13.3186 38.2587 13.6578 38.5663 14.2998 38.5663C21.0286 38.5663 27.7575 38.5679 34.4863 38.5712C34.7345 38.5712 34.8602 38.5167 34.9719 38.2587C35.1167 37.933 35.3251 37.6395 35.585 37.3955C36.0557 36.9539 36.6605 36.8688 37.2851 36.9159C37.5441 36.9358 37.6756 36.8564 37.7517 36.5852C37.8483 36.1974 37.9981 35.8248 38.1968 35.4781C38.4533 35.0646 38.3623 34.8108 38.0206 34.504C37.372 33.9178 37.1155 33.1588 37.4365 32.3328C37.602 31.9037 37.9329 31.5134 38.2638 31.1752C39.3981 30.0053 40.51 30.002 41.6558 31.1471C41.8842 31.3753 42.0546 31.3952 42.3292 31.2422C42.6348 31.0537 42.9669 30.9121 43.3146 30.8222C43.8333 30.7097 43.9591 30.4443 43.9409 29.9342C43.9053 28.8849 44.5878 28.0465 45.5955 27.8671C46.0091 27.7927 46.4476 27.8175 46.8737 27.8249C47.3543 27.8311 47.8173 28.0063 48.1815 28.3197C48.5456 28.6332 48.7877 29.0649 48.865 29.5389C48.9089 29.8085 48.8741 30.0904 48.9023 30.3658C48.913 30.4683 48.9759 30.6138 49.057 30.6527C49.2618 30.7393 49.4728 30.8106 49.6882 30.866V23.9405L46.4559 24.6094C42.9886 25.3271 39.523 26.0505 36.0532 26.7542C35.7182 26.822 35.6396 26.9609 35.6503 27.2751C35.6727 27.7836 35.6652 28.2946 35.6503 28.8039C35.5891 30.8652 33.913 32.6164 31.8596 32.7727C29.7474 32.9298 27.8198 31.4944 27.4748 29.4405C27.3557 28.7278 27.3838 27.9861 27.3863 27.2585C27.3863 26.9328 27.292 26.8137 26.9726 26.7484C23.2207 25.9836 19.4714 25.2014 15.7211 24.4258C14.9426 24.2604 14.16 24.1075 13.3426 23.9438ZM46.4162 49.3167C47.1947 49.3167 47.2385 49.2729 47.2435 48.5031C47.2435 48.2137 47.2435 47.9243 47.2435 47.6349C47.2485 47.0181 47.4512 46.8023 48.0485 46.6138C48.6888 46.4104 49.3374 46.2004 49.9348 45.9011C51.1451 45.2934 51.1319 45.2669 52.0717 46.2128C52.8792 47.0264 52.8841 47.0214 53.6651 46.1847C53.8992 45.9366 53.9208 45.7167 53.6709 45.4744C53.4211 45.2322 53.1836 44.9874 52.9396 44.7443C52.3844 44.1912 52.3762 43.9332 52.7435 43.256C53.0455 42.7029 53.3615 42.1332 53.5187 41.5313C53.8901 40.1116 54.092 40.2133 55.2759 40.2183C56.3704 40.2183 56.3795 40.2092 56.3448 39.1136C56.3448 39.0863 56.3448 39.0582 56.3448 39.0309C56.3316 38.7333 56.1793 38.5737 55.8774 38.5696C55.5059 38.5646 55.1328 38.5696 54.7613 38.5696C54.0639 38.5663 53.8753 38.3678 53.6502 37.6981C53.4018 36.9428 53.1005 36.2059 52.7485 35.4929C52.4101 34.8166 52.3993 34.5743 52.9371 34.0369C53.0347 33.9393 53.1315 33.8409 53.2291 33.7442C54.0564 32.9174 54.0506 32.8884 53.1836 32.1294C52.9396 31.9161 52.7245 31.9119 52.4978 32.1393C52.2358 32.4022 51.9722 32.6646 51.7069 32.9265C51.2485 33.3779 50.9557 33.3804 50.3832 33.0811C49.7559 32.7399 49.1028 32.4485 48.4299 32.2096C47.2501 31.8185 47.2394 31.8507 47.2394 30.6163C47.2394 30.6022 47.2394 30.589 47.2394 30.5749C47.2799 29.3397 47.1715 29.4695 46.048 29.4728C45.7485 29.4728 45.5922 29.6423 45.5889 29.9399C45.5839 30.3261 45.5889 30.7114 45.5889 31.0975C45.5839 31.6912 45.3829 31.9078 44.812 32.0971C44.1344 32.322 43.4469 32.5428 42.8141 32.8644C41.6558 33.454 41.6699 33.4846 40.7458 32.5577C39.9549 31.7623 39.9044 31.7681 39.1532 32.6164C38.9406 32.8578 38.9257 33.0728 39.1532 33.3018C39.3972 33.5449 39.6405 33.7897 39.8829 34.0336C40.4239 34.5768 40.4264 34.8249 40.0732 35.4888C39.7646 36.0676 39.4609 36.6687 39.2839 37.2963C38.9356 38.5365 38.8496 38.5993 37.578 38.5638C36.3651 38.5307 36.4867 38.6332 36.4867 39.7288C36.4867 40.0471 36.6522 40.2125 36.9716 40.2158C37.3438 40.2158 37.7161 40.2158 38.0876 40.2158C38.7643 40.2158 38.9745 40.4142 39.1747 41.0484C39.3749 41.6826 39.5941 42.3333 39.8986 42.9286C40.5067 44.1193 40.5331 44.106 39.5726 45.0602C38.7825 45.8449 38.7892 45.9077 39.6405 46.6518C39.8887 46.8652 40.1005 46.866 40.3263 46.6403C40.6283 46.3385 40.9261 46.0325 41.2364 45.7374C41.5938 45.3959 41.9429 45.3405 42.3615 45.6001C43.1467 46.0879 44.0071 46.4427 44.908 46.6502C45.3663 46.7568 45.5748 47.0471 45.5864 47.5142C45.5947 47.8309 45.5864 48.1476 45.5864 48.4643C45.5864 49.2828 45.6203 49.3167 46.4162 49.3167ZM33.9998 26.6905C33.9998 26.0026 34.0056 25.3138 33.9998 24.6234C33.9932 24.0016 33.6764 23.6875 33.0501 23.6841C32.0297 23.6786 31.0094 23.6786 29.989 23.6841C29.3603 23.6841 29.0417 23.9992 29.0393 24.6226C29.0335 25.9579 29.0293 27.2941 29.0393 28.6302C29.0366 29.2854 29.2934 29.915 29.7536 30.3816C30.2138 30.8482 30.84 31.1139 31.4956 31.1207C32.8747 31.1298 33.9775 30.0367 33.9957 28.6311C34.0073 27.9853 33.9998 27.3379 33.9998 26.6905ZM25.7871 9.60736C25.821 9.50814 25.8541 9.41884 25.883 9.32789C26.4944 7.42618 28.0043 6.32236 30.0047 6.3174C31.0662 6.3174 32.1276 6.3083 33.1891 6.3174C34.0642 6.32083 34.9156 6.60155 35.621 7.11917C36.3264 7.63679 36.8494 8.36465 37.1147 9.19807C37.161 9.33781 37.2106 9.47589 37.2537 9.59826H38.8537C38.8604 9.50909 38.8604 9.41954 38.8537 9.33037C38.4963 7.11033 36.4297 5.01183 34.1852 4.7828C32.6836 4.62818 31.158 4.65629 29.6448 4.6811C27.0438 4.72492 24.7248 6.69774 24.2053 9.24107C24.1887 9.36275 24.1798 9.48537 24.1788 9.60818L25.7871 9.60736ZM35.4774 9.60074C35.4159 9.45248 35.3466 9.30759 35.2698 9.16665C34.7957 8.41176 34.1066 8 33.2197 7.98098C32.092 7.957 30.9636 7.96775 29.8351 7.98098C29.5877 7.98168 29.342 8.02302 29.1079 8.10335C28.3824 8.36215 27.843 8.82104 27.5807 9.60157L35.4774 9.60074Z" fill="white"/>
<path d="M46.4441 34.4336C47.0998 34.4392 47.748 34.5744 48.3513 34.8312C48.9546 35.0881 49.5011 35.4616 49.9595 35.9304C50.4178 36.3991 50.7789 36.9538 51.0219 37.5625C51.265 38.1712 51.3852 38.822 51.3757 39.4773C51.3517 42.1769 49.089 44.3738 46.358 44.3556C43.6271 44.3374 41.4264 42.0802 41.4479 39.3301C41.4694 36.6231 43.7222 34.4113 46.4441 34.4336ZM46.3903 42.7019C47.0445 42.7067 47.6855 42.5175 48.2322 42.1582C48.7788 41.799 49.2067 41.2859 49.4617 40.6837C49.7167 40.0816 49.7874 39.4174 49.6648 38.7751C49.5422 38.1328 49.2319 37.5412 48.7731 37.0751C48.3142 36.609 47.7274 36.2893 47.0868 36.1564C46.4462 36.0235 45.7806 36.0834 45.174 36.3284C44.5674 36.5734 44.0471 36.9927 43.6789 37.5331C43.3106 38.0736 43.1109 38.711 43.105 39.3649C43.1006 40.2417 43.4437 41.0847 44.0593 41.7096C44.6749 42.3344 45.5129 42.6903 46.3903 42.6995V42.7019Z" fill="white"/>
<path d="M30.2808 27.3427C30.2927 27.0971 30.3774 26.8606 30.524 26.6633C30.6707 26.4659 30.8727 26.3165 31.1045 26.2342C31.3363 26.1518 31.5873 26.1401 31.8258 26.2006C32.0642 26.2611 32.2792 26.3911 32.4436 26.574C32.608 26.7569 32.7142 26.9845 32.7489 27.2279C32.7836 27.4713 32.7451 27.7195 32.6383 27.941C32.5315 28.1625 32.3613 28.3473 32.1493 28.4719C31.9372 28.5965 31.6929 28.6553 31.4473 28.6408C31.1217 28.6197 30.8173 28.472 30.5993 28.2294C30.3812 27.9868 30.2669 27.6685 30.2808 27.3427V27.3427Z" fill="white"/>
</g>
<defs>
<filter id="filter0_d_722_3393" x="0" y="0" width="68" height="68.001" filterUnits="userSpaceOnUse" color-interpolation-filters="sRGB">
<feFlood flood-opacity="0" result="BackgroundImageFix"/>
<feColorMatrix in="SourceAlpha" type="matrix" values="0 0 0 0 0 0 0 0 0 0 0 0 0 0 0 0 0 0 127 0" result="hardAlpha"/>
<feOffset dy="7"/>
<feGaussianBlur stdDeviation="5"/>
<feComposite in2="hardAlpha" operator="out"/>
<feColorMatrix type="matrix" values="0 0 0 0 0.278431 0 0 0 0 0.509804 0 0 0 0 1 0 0 0 0.25 0"/>
<feBlend mode="normal" in2="BackgroundImageFix" result="effect1_dropShadow_722_3393"/>
<feBlend mode="normal" in="SourceGraphic" in2="effect1_dropShadow_722_3393" result="shape"/>
</filter>
</defs>
</svg>
