<svg width="39" height="39" viewBox="0 0 39 39" fill="none" xmlns="http://www.w3.org/2000/svg">
<g filter="url(#filter0_d_1139_1557)">
<path d="M29.2967 17.6575C30.2158 17.0934 31.316 17.5613 31.5612 18.6012C31.6678 19.0519 31.523 19.4323 31.1889 19.7337C31.0065 19.8988 30.9562 20.0383 31.0958 20.263C31.2083 20.4576 31.2929 20.6671 31.3471 20.8853C31.3937 21.0508 31.4737 21.089 31.6264 21.0815C31.7733 21.071 31.921 21.0785 32.0661 21.1039C32.3273 21.1554 32.5626 21.2958 32.7319 21.5012C32.9012 21.7066 32.994 21.9642 32.9945 22.2303C32.9979 22.3931 32.9979 22.5559 32.9945 22.7187C32.9801 23.3665 32.4859 23.8563 31.8348 23.8702C31.416 23.8791 31.4193 23.88 31.2629 24.2725C31.1998 24.4474 31.1231 24.6171 31.0335 24.78C30.9474 24.9246 30.9916 25.0023 31.0903 25.1185C31.2583 25.3157 31.4397 25.5236 31.5272 25.7599C31.5989 25.9548 31.5887 26.2082 31.5361 26.4161C31.3462 27.1654 30.4229 27.7505 29.7677 27.5254C29.5308 27.4445 29.3242 27.2542 29.1269 27.0868C29.0054 26.9831 28.9254 26.9408 28.7681 27.0231C28.5289 27.1482 28.266 27.2263 28.0212 27.3417C27.9574 27.3719 27.923 27.4649 27.8755 27.5277C27.8718 27.5328 27.8755 27.5431 27.8755 27.5505C27.9686 28.9114 26.8708 29.1644 25.8665 28.916C25.3854 28.797 25.0884 28.3267 25.0819 27.7998C25.0768 27.3956 25.0754 27.3989 24.7096 27.2556C24.5208 27.1854 24.3367 27.1034 24.1582 27.0101C24.0297 26.9394 23.9604 26.9766 23.8566 27.0603C23.643 27.2333 23.4262 27.4235 23.1772 27.5254C22.9911 27.5993 22.7444 27.5845 22.5438 27.5342C21.7932 27.3482 21.1966 26.4268 21.42 25.7757C21.5061 25.5255 21.7113 25.3106 21.8853 25.099C21.9724 24.9925 21.9942 24.9246 21.9319 24.7976C21.81 24.5643 21.7078 24.3211 21.6266 24.0707C21.5735 23.8981 21.4833 23.8735 21.3264 23.866C21.1049 23.8558 20.8755 23.8372 20.6679 23.7674C20.3501 23.6609 20.1416 23.4126 20.0327 23.0991C19.9862 22.9684 19.9224 22.9382 19.8 22.9396C19.257 22.9442 18.7143 22.9396 18.1713 22.9396H8.49494C7.4972 22.9396 6.93457 22.3815 6.93457 21.388C6.93457 18.8613 6.93581 16.3343 6.93829 13.807C6.93829 13.6396 6.89176 13.5494 6.73958 13.4666C6.27422 13.215 6.01222 12.8094 6.00896 12.2797C5.99872 10.5433 5.99872 8.80698 6.00896 7.07064C6.01408 6.31858 6.64604 5.73071 7.42367 5.72885C9.18399 5.7242 10.9445 5.72497 12.7051 5.73117C12.9233 5.73117 13.0164 5.69536 13.0588 5.44607C13.3845 3.5085 15.1273 2.02625 17.0935 2.0109C17.9451 2.00392 18.8046 1.97462 19.6483 2.06718C21.3995 2.25973 22.8817 3.72663 23.1567 5.46886C23.1926 5.69769 23.2791 5.7321 23.4825 5.73117C25.2197 5.7242 26.9569 5.72652 28.6946 5.72745C29.6253 5.72745 30.207 6.3051 30.2075 7.23295C30.2075 8.87628 30.2075 10.5196 30.2075 12.1629C30.2075 12.7676 29.9506 13.2164 29.4163 13.5084C29.3805 13.5308 29.3501 13.5608 29.3272 13.5962C29.3043 13.6317 29.2894 13.6717 29.2837 13.7136C29.2758 15.0005 29.2781 16.2869 29.2795 17.5738C29.2823 17.6022 29.2881 17.6303 29.2967 17.6575ZM20.4548 14.4405C20.5107 14.4349 20.5479 14.4349 20.586 14.4275C23.3097 13.8644 26.0334 13.3004 28.7574 12.7355C29.172 12.6494 29.2725 12.5183 29.2725 12.0992C29.2725 10.495 29.2725 8.8907 29.2725 7.28644C29.2725 6.80833 29.1236 6.6581 28.6508 6.65764H7.55118C7.08954 6.65764 6.9355 6.80972 6.9355 7.26784C6.9355 8.85659 6.9355 10.4455 6.9355 12.0346C6.9355 12.5462 7.02578 12.6499 7.52372 12.7522C9.952 13.2523 12.3801 13.7532 14.8081 14.2549C15.1222 14.32 15.4382 14.3786 15.7774 14.4447C15.7774 14.3177 15.7774 14.2256 15.7774 14.134C15.7858 13.3108 16.3824 12.7099 17.2019 12.7043C17.8222 12.6996 18.443 12.6973 19.0634 12.7043C19.3725 12.7068 19.6716 12.8139 19.9119 13.0082C20.1522 13.2025 20.3195 13.4724 20.3864 13.774C20.4334 13.9833 20.4329 14.2047 20.4548 14.4405ZM7.88019 13.781C7.87275 13.8531 7.8667 13.8833 7.8667 13.9135C7.8667 16.4409 7.8667 18.9678 7.8667 21.4945C7.8667 21.8331 8.0575 22.0061 8.41862 22.0061C12.2036 22.0061 15.9886 22.0071 19.7735 22.0089C19.9131 22.0089 19.9839 21.9782 20.0467 21.8331C20.1281 21.6499 20.2454 21.4849 20.3915 21.3476C20.6563 21.0992 20.9965 21.0513 21.3478 21.0778C21.4935 21.089 21.5675 21.0443 21.6103 20.8918C21.6647 20.6737 21.7489 20.4641 21.8607 20.269C22.0049 20.0365 21.9538 19.8937 21.7616 19.7211C21.3967 19.3914 21.2524 18.9644 21.433 18.4998C21.5261 18.2584 21.7122 18.0389 21.8984 17.8487C22.5364 17.1906 23.1618 17.1887 23.8064 17.8329C23.9348 17.9612 24.0307 17.9724 24.1852 17.8864C24.3571 17.7803 24.5439 17.7007 24.7394 17.6501C25.0312 17.5868 25.1019 17.4375 25.0917 17.1506C25.0717 16.5604 25.4556 16.0888 26.0224 15.9878C26.2551 15.946 26.5018 15.9599 26.7414 15.9641C27.0117 15.9676 27.2722 16.0662 27.4771 16.2425C27.6819 16.4188 27.818 16.6616 27.8616 16.9283C27.8862 17.0799 27.8667 17.2385 27.8825 17.3934C27.8885 17.451 27.9239 17.5329 27.9695 17.5547C28.0847 17.6035 28.2034 17.6436 28.3246 17.6747V13.7791L26.5064 14.1554C24.5561 14.5591 22.6067 14.966 20.6549 15.3618C20.4664 15.4 20.4222 15.4781 20.4283 15.6548C20.4409 15.9409 20.4367 16.2283 20.4283 16.5148C20.3938 17.6743 19.451 18.6593 18.296 18.7472C17.1079 18.8356 16.0236 18.0282 15.8296 16.8729C15.7625 16.472 15.7784 16.0548 15.7798 15.6455C15.7798 15.4623 15.7267 15.3953 15.5471 15.3586C13.4366 14.9284 11.3276 14.4884 9.21812 14.0521C8.78021 13.9591 8.33997 13.8731 7.88019 13.781ZM26.4841 28.0533C26.922 28.0533 26.9467 28.0286 26.9494 27.5956C26.9494 27.4328 26.9494 27.2701 26.9494 27.1073C26.9522 26.7603 27.0662 26.6389 27.4022 26.5329C27.7624 26.4185 28.1273 26.3003 28.4633 26.132C29.1441 25.7901 29.1367 25.7752 29.6653 26.3073C30.1195 26.765 30.1223 26.7622 30.5616 26.2915C30.6933 26.152 30.7054 26.0283 30.5649 25.892C30.4243 25.7557 30.2908 25.618 30.1535 25.4813C29.8412 25.1702 29.8366 25.0251 30.0432 24.6441C30.213 24.333 30.3908 24.0125 30.4792 23.674C30.6882 22.8754 30.8017 22.9326 31.4677 22.9354C32.0833 22.9354 32.0885 22.9303 32.0689 22.314C32.0689 22.2987 32.0689 22.2829 32.0689 22.2675C32.0615 22.1001 31.9758 22.0103 31.806 22.008C31.597 22.0052 31.3872 22.008 31.1782 22.008C30.7859 22.0061 30.6798 21.8945 30.5532 21.5178C30.4135 21.0929 30.244 20.6784 30.046 20.2774C29.8556 19.8969 29.8496 19.7607 30.1521 19.4584C30.207 19.4035 30.2614 19.3481 30.3164 19.2937C30.7817 18.8286 30.7785 18.8124 30.2908 18.3854C30.1535 18.2654 30.0325 18.2631 29.905 18.391C29.7576 18.5389 29.6093 18.6865 29.4601 18.8337C29.2023 19.0877 29.0375 19.0891 28.7155 18.9207C28.3627 18.7288 27.9953 18.5649 27.6168 18.4305C26.9532 18.2105 26.9471 18.2287 26.9471 17.5343C26.9471 17.5264 26.9471 17.5189 26.9471 17.511C26.9699 16.8162 26.909 16.8892 26.277 16.8911C26.1085 16.8911 26.0206 16.9864 26.0187 17.1538C26.0159 17.371 26.0187 17.5878 26.0187 17.805C26.0159 18.1389 25.9028 18.2608 25.5817 18.3673C25.2006 18.4938 24.8139 18.6179 24.4579 18.7989C23.8064 19.1305 23.8143 19.1477 23.2945 18.6263C22.8496 18.1789 22.8212 18.1822 22.3986 18.6593C22.279 18.7951 22.2707 18.9161 22.3986 19.0449C22.5359 19.1816 22.6727 19.3193 22.8091 19.4565C23.1134 19.7621 23.1148 19.9016 22.9161 20.2751C22.7425 20.6006 22.5718 20.9388 22.4722 21.2918C22.2763 21.9894 22.2279 22.0247 21.5126 22.0047C20.8304 21.9861 20.8988 22.0438 20.8988 22.6601C20.8988 22.8391 20.9918 22.9321 21.1715 22.934C21.3809 22.934 21.5903 22.934 21.7993 22.934C22.1799 22.934 22.2981 23.0456 22.4107 23.4023C22.5234 23.7591 22.6467 24.1251 22.8179 24.46C23.16 25.1297 23.1749 25.1223 22.6346 25.659C22.1902 26.1003 22.1939 26.1357 22.6727 26.5543C22.8124 26.6743 22.9315 26.6747 23.0585 26.5478C23.2284 26.378 23.3959 26.2059 23.5704 26.0399C23.7715 25.8478 23.9678 25.8166 24.2033 25.9627C24.645 26.2371 25.129 26.4366 25.6357 26.5533C25.8935 26.6133 26.0108 26.7766 26.0173 27.0394C26.022 27.2175 26.0173 27.3956 26.0173 27.5738C26.0173 28.0342 26.0364 28.0533 26.4841 28.0533ZM19.4999 15.326C19.4999 14.9391 19.5031 14.5516 19.4999 14.1633C19.4962 13.8135 19.3179 13.6368 18.9656 13.6349C18.3917 13.6318 17.8177 13.6318 17.2438 13.6349C16.8901 13.6349 16.711 13.8121 16.7096 14.1628C16.7063 14.914 16.704 15.6655 16.7096 16.4171C16.7081 16.7857 16.8525 17.1398 17.1114 17.4023C17.3702 17.6647 17.7225 17.8142 18.0912 17.818C18.867 17.8231 19.4873 17.2083 19.4976 16.4176C19.5041 16.0544 19.4999 15.6902 19.4999 15.326ZM14.8802 5.71676C14.8993 5.66094 14.9179 5.61071 14.9342 5.55955C15.2781 4.48984 16.1274 3.86894 17.2526 3.86615C17.8497 3.86615 18.4468 3.86104 19.0438 3.86615C19.5361 3.86809 20.015 4.02599 20.4118 4.31715C20.8086 4.60831 21.1027 5.01773 21.252 5.48653C21.278 5.56514 21.306 5.64281 21.3302 5.71164H22.2302C22.234 5.66148 22.234 5.61111 22.2302 5.56095C22.0291 4.31218 20.8667 3.13177 19.6041 3.00294C18.7595 2.91597 17.9014 2.93178 17.0502 2.94574C15.5871 2.97039 14.2827 4.0801 13.9904 5.51072C13.9811 5.57917 13.9761 5.64814 13.9755 5.71722L14.8802 5.71676ZM20.331 5.71303C20.2964 5.62964 20.2574 5.54813 20.2142 5.46886C19.9476 5.04423 19.5599 4.81262 19.061 4.80192C18.4268 4.78843 17.792 4.79448 17.1572 4.80192C17.018 4.80231 16.8798 4.82557 16.7482 4.87075C16.3401 5.01633 16.0366 5.27445 15.8891 5.7135L20.331 5.71303Z" fill="#0A0B0D"/>
<path d="M26.4998 19.6817C26.8686 19.6849 27.2332 19.7609 27.5726 19.9054C27.9119 20.0499 28.2194 20.26 28.4772 20.5237C28.735 20.7873 28.9381 21.0993 29.0748 21.4417C29.2115 21.7841 29.2791 22.1502 29.2738 22.5188C29.2603 24.0373 27.9875 25.2731 26.4514 25.2628C24.9152 25.2526 23.6773 23.9829 23.6894 22.436C23.7015 20.9133 24.9687 19.6692 26.4998 19.6817ZM26.4695 24.3327C26.8375 24.3353 27.1981 24.2289 27.5056 24.0268C27.8131 23.8248 28.0537 23.5361 28.1972 23.1974C28.3406 22.8587 28.3804 22.4851 28.3114 22.1238C28.2425 21.7625 28.0679 21.4298 27.8098 21.1676C27.5517 20.9054 27.2216 20.7256 26.8613 20.6508C26.501 20.576 26.1265 20.6097 25.7853 20.7475C25.4441 20.8854 25.1515 21.1212 24.9443 21.4252C24.7372 21.7292 24.6249 22.0878 24.6215 22.4555C24.6191 22.9488 24.812 23.423 25.1583 23.7744C25.5046 24.1259 25.976 24.3261 26.4695 24.3313V24.3327Z" fill="#0A0B0D"/>
<path d="M17.4079 15.6932C17.4146 15.555 17.4622 15.422 17.5447 15.311C17.6272 15.2 17.7409 15.116 17.8713 15.0696C18.0016 15.0233 18.1428 15.0167 18.277 15.0508C18.4111 15.0848 18.532 15.1579 18.6245 15.2608C18.717 15.3637 18.7767 15.4917 18.7962 15.6286C18.8157 15.7655 18.7941 15.9051 18.734 16.0297C18.674 16.1543 18.5782 16.2582 18.4589 16.3283C18.3397 16.3984 18.2022 16.4315 18.0641 16.4234C17.8809 16.4115 17.7097 16.3284 17.5871 16.192C17.4644 16.0555 17.4001 15.8764 17.4079 15.6932Z" fill="#0A0B0D"/>
</g>
<defs>
<filter id="filter0_d_1139_1557" x="0.375" y="0.3125" width="38.25" height="38.251" filterUnits="userSpaceOnUse" color-interpolation-filters="sRGB">
<feFlood flood-opacity="0" result="BackgroundImageFix"/>
<feColorMatrix in="SourceAlpha" type="matrix" values="0 0 0 0 0 0 0 0 0 0 0 0 0 0 0 0 0 0 127 0" result="hardAlpha"/>
<feOffset dy="3.9375"/>
<feGaussianBlur stdDeviation="2.8125"/>
<feComposite in2="hardAlpha" operator="out"/>
<feColorMatrix type="matrix" values="0 0 0 0 0.278431 0 0 0 0 0.509804 0 0 0 0 1 0 0 0 0.25 0"/>
<feBlend mode="normal" in2="BackgroundImageFix" result="effect1_dropShadow_1139_1557"/>
<feBlend mode="normal" in="SourceGraphic" in2="effect1_dropShadow_1139_1557" result="shape"/>
</filter>
</defs>
</svg>
