<svg width="68" height="69" viewBox="0 0 68 69" fill="none" xmlns="http://www.w3.org/2000/svg">
<g filter="url(#filter0_d_722_3409)">
<path d="M44.3592 49.3136C43.2525 50.8544 41.5902 51.3995 39.8327 51.7279C37.2527 52.2093 34.7086 52.0758 32.2381 51.1281C31.4733 50.8349 30.7752 50.4233 30.2136 49.8077C29.738 49.3007 29.4787 48.6283 29.4908 47.9332C29.4998 45.2715 29.5058 42.6097 29.4908 39.9495C29.4848 39.0445 29.8275 38.3262 30.4828 37.7361C31.3323 36.9721 32.3693 36.5829 33.4445 36.2718C33.6267 36.2193 33.8816 36.2425 33.8411 35.9396C33.7969 35.6112 33.5277 35.7529 33.3627 35.7529C26.0293 35.7449 18.6951 35.7424 11.3602 35.7454C11.1851 35.7515 11.0098 35.7463 10.8353 35.7297C10.6094 35.7053 10.4002 35.5994 10.2467 35.4319C10.0932 35.2643 10.0061 35.0466 10.0016 34.8194C9.99557 34.707 10.0016 34.5945 10.0016 34.482V7.60657C10.0016 6.63635 10.3015 6.33793 11.2762 6.33793H16.0749C16.0749 5.88206 16.0554 5.45018 16.0794 5.02055C16.0853 4.86372 16.1313 4.71104 16.213 4.57701C16.2947 4.44298 16.4092 4.33206 16.5458 4.25481C16.6825 4.17756 16.8366 4.13655 16.9935 4.13567C17.1504 4.13478 17.305 4.17406 17.4425 4.24977C17.8016 4.44172 17.9366 4.76338 17.9433 5.14952C17.9501 5.52441 17.9433 5.8993 17.9433 6.31094C18.0873 6.32069 18.2058 6.33643 18.325 6.33643C20.2489 6.33643 22.1736 6.32818 24.0984 6.34543C24.4425 6.34543 24.5302 6.23296 24.5077 5.91655C24.4886 5.59192 24.4886 5.26645 24.5077 4.94182C24.5347 4.38248 24.9096 4.00384 25.4217 3.99859C25.9338 3.99334 26.3215 4.36749 26.3687 4.91633C26.3882 5.15252 26.3777 5.39095 26.3785 5.62863C26.3785 5.85357 26.3785 6.07251 26.3785 6.31394H32.9354C32.9354 5.88431 32.9316 5.47642 32.9354 5.06779C32.9436 4.40722 33.3103 3.99334 33.8778 3.99859C34.4214 4.00384 34.7948 4.42072 34.8098 5.04829C34.8188 5.43519 34.8173 5.82208 34.8226 6.20897C34.8315 6.24603 34.8451 6.28181 34.8631 6.31544C34.9785 6.32144 35.1113 6.33343 35.244 6.33343C36.7181 6.33343 38.1926 6.33343 39.6677 6.33343C40.5442 6.33343 40.8614 6.6491 40.8614 7.5331C40.8614 12.4937 40.8614 17.4541 40.8614 22.4142C40.8614 22.987 40.8614 22.9833 41.423 22.9877C43.3529 23.0035 45.2387 23.2524 46.9714 24.1627C47.3991 24.3945 47.7965 24.6784 48.1546 25.0077C48.7477 25.5415 49.0416 26.2261 49.0303 27.0411C49.0161 28.0398 49.0386 29.04 49.0206 30.0403C49.0153 30.3589 49.1166 30.4414 49.4285 30.4227C51.2655 30.3102 53.0732 30.4699 54.8232 31.0765C55.6787 31.3764 56.4832 31.7708 57.1348 32.4216C57.6979 32.9854 57.9911 33.6497 57.9888 34.467C57.9753 38.4776 57.9656 42.4898 57.9941 46.4989C58.0016 47.6086 57.5442 48.4176 56.6962 49.0557C55.6742 49.8272 54.4873 50.2163 53.2524 50.4443C50.7781 50.9009 48.327 50.8252 45.93 50.0064C45.3976 49.8272 44.8915 49.5513 44.3592 49.3136ZM38.9607 14.219H11.876V14.6246C11.876 20.8828 11.8728 27.1416 11.8663 33.4008C11.8663 33.79 11.9758 33.8762 12.3469 33.8762C19.3554 33.8657 26.3637 33.8657 33.3717 33.8762C33.7541 33.8762 33.8584 33.769 33.8554 33.3903C33.8381 31.2909 33.8554 29.1915 33.8434 27.0921C33.8434 26.2988 34.0825 25.6045 34.6681 25.0737C35.052 24.7243 35.4712 24.3689 35.9428 24.1672C36.91 23.7495 37.9215 23.4324 38.9652 23.056L38.9607 14.219ZM26.3695 8.21465C26.3695 8.69827 26.3942 9.12265 26.3627 9.54328C26.3533 9.78449 26.2486 10.0121 26.0714 10.176C25.8942 10.34 25.6592 10.4269 25.418 10.4175C24.9171 10.4078 24.543 10.0426 24.5115 9.50654C24.4917 9.19449 24.49 8.88156 24.5062 8.5693C24.5235 8.28663 24.4155 8.20791 24.1388 8.20941C22.1894 8.2189 20.2399 8.2189 18.2905 8.20941C17.9966 8.20941 17.9283 8.31288 17.9396 8.58055C17.9609 8.95533 17.9559 9.33115 17.9246 9.70523C17.9071 9.94533 17.7961 10.169 17.6156 10.3282C17.435 10.4875 17.1993 10.5696 16.9589 10.557C16.4595 10.5345 16.0936 10.1574 16.0726 9.62351C16.0591 9.2741 16.0516 8.9232 16.0726 8.5738C16.0891 8.29413 15.9976 8.20716 15.7135 8.2109C14.5393 8.22515 13.3644 8.21615 12.1895 8.2184C12.094 8.22296 11.9989 8.23247 11.9045 8.2469V12.2838C12.0395 12.2928 12.1497 12.3063 12.2592 12.3063C21.0437 12.3063 29.8282 12.3085 38.6128 12.313C38.9127 12.313 38.9952 12.2178 38.9914 11.9284C38.9779 10.8037 38.9869 9.67899 38.9847 8.55431C38.9799 8.45162 38.9696 8.34925 38.9539 8.24765H34.8046C34.8046 8.70127 34.8308 9.1264 34.7978 9.54703C34.793 9.66637 34.7647 9.78358 34.7145 9.89196C34.6643 10.0003 34.5932 10.0977 34.5053 10.1786C34.4174 10.2595 34.3145 10.3222 34.2023 10.3632C34.0901 10.4042 33.9709 10.4227 33.8516 10.4175C33.3485 10.407 32.9699 10.0344 32.9436 9.50804C32.9248 9.20842 32.9248 8.90792 32.9436 8.60829C32.9691 8.29413 32.8551 8.20716 32.5447 8.20941C30.833 8.22365 29.1204 8.21615 27.4087 8.21615L26.3695 8.21465ZM50.6116 32.2656C49.1668 32.2656 47.9476 32.3826 46.7877 32.7905C46.2241 32.9867 45.6869 33.2519 45.1884 33.58C44.5136 34.0299 44.5301 34.5113 45.1884 35.0046C45.4453 35.2021 45.7268 35.3652 46.0259 35.4897C48.6502 36.5514 51.3247 36.5514 54.0187 35.7844C54.6935 35.5917 55.3383 35.3143 55.8444 34.8007C56.2081 34.4318 56.2231 34.1176 55.8384 33.7697C55.5523 33.511 55.2303 33.2948 54.8824 33.1279C53.4623 32.4606 51.9425 32.2859 50.6116 32.2656ZM37.6628 41.7805C38.2094 41.6965 39.2006 41.584 40.1738 41.3831C40.9941 41.2136 41.7821 40.9137 42.4307 40.3491C42.9136 39.9285 42.9286 39.5288 42.4359 39.13C42.12 38.8662 41.7661 38.6516 41.3862 38.4934C38.8445 37.4909 36.2509 37.4797 33.6394 38.1815C32.9144 38.3757 32.2148 38.6576 31.663 39.1974C31.2776 39.5723 31.2611 39.8992 31.663 40.2546C31.96 40.5196 32.2936 40.7406 32.6534 40.9107C34.0953 41.5878 35.6444 41.746 37.6628 41.7805ZM41.4342 24.875C40.2151 24.8675 39.0147 25.0047 37.851 25.3796C37.1837 25.594 36.5284 25.8497 36.0162 26.3543C35.6414 26.7239 35.6286 27.0741 36.0162 27.4205C36.3019 27.6732 36.6251 27.9304 36.9782 28.0518C37.8112 28.3382 38.6593 28.6292 39.5275 28.7664C41.5287 29.0835 43.5194 28.9711 45.4336 28.2535C45.9425 28.0505 46.4181 27.7725 46.8447 27.4287C47.2728 27.0943 47.2616 26.7007 46.8492 26.3491C46.5281 26.0729 46.1697 25.8434 45.7845 25.6675C44.4049 25.0519 42.9331 24.8765 41.4342 24.875V24.875ZM56.1136 45.357C52.2852 46.966 48.513 46.9615 44.6816 45.3495C44.6816 45.7558 44.6951 46.163 44.6816 46.5694C44.6651 46.9548 44.8038 47.2689 45.1142 47.4691C45.4988 47.7195 45.8917 47.9797 46.3139 48.1394C48.5287 48.9702 50.8036 49.0114 53.0987 48.5593C53.985 48.3846 54.8525 48.1207 55.573 47.5523C55.8084 47.3664 56.0379 47.065 56.0911 46.7823C56.1728 46.3272 56.1136 45.8428 56.1136 45.357ZM31.3706 46.6174C31.3706 47.038 31.3863 47.4489 31.3661 47.8575C31.3481 48.2174 31.4733 48.5136 31.7575 48.7003C32.1721 48.9724 32.5957 49.2536 33.0546 49.4298C34.7041 50.0641 36.4286 50.2013 38.1794 50.0634C39.4195 49.9652 40.632 49.735 41.7484 49.1539C42.8093 48.602 43.1115 47.799 42.7336 46.6481C38.9637 48.2204 35.1997 48.2249 31.3706 46.6174ZM44.6801 37.0021C44.6801 37.4024 44.7018 37.7878 44.6748 38.1695C44.6411 38.6358 44.8248 38.9942 45.2079 39.2079C45.7148 39.4959 46.2336 39.7853 46.7825 39.969C48.4058 40.5133 50.0883 40.5808 51.7791 40.4233C52.9277 40.3161 54.0479 40.0709 55.0781 39.5281C56.1083 38.9852 56.4278 38.1297 56.0469 37.0336C52.2829 38.6081 48.5235 38.6134 44.6816 37.0021H44.6801ZM56.1061 41.1814C52.2724 42.7859 48.4995 42.7814 44.6801 41.1814C44.6801 41.59 44.6988 41.9874 44.6756 42.381C44.6508 42.8002 44.809 43.1353 45.1494 43.3363C45.6398 43.6257 46.1414 43.9264 46.6783 44.1048C48.8279 44.8179 51.0218 44.8329 53.2217 44.3672C54.0539 44.191 54.8712 43.9324 55.5528 43.3925C55.7829 43.2103 56.0341 42.9344 56.0821 42.6667C56.1691 42.1868 56.1076 41.68 56.1076 41.1814H56.1061ZM31.3706 42.4433C31.3706 42.7199 31.4073 42.9869 31.3638 43.2403C31.2094 44.1513 31.7072 44.6402 32.4443 44.9888C32.6362 45.0795 32.8267 45.1748 33.0238 45.2505C34.8166 45.9328 36.6761 46.0363 38.5603 45.8503C39.6977 45.7386 40.8059 45.4889 41.8234 44.9401C42.7981 44.4152 43.1138 43.5267 42.7321 42.4725C38.9614 44.0523 35.1945 44.0546 31.3706 42.4433ZM47.1529 29.6091C43.3289 31.2099 39.5575 31.2174 35.7268 29.6009C35.7268 30.0238 35.7396 30.4302 35.7268 30.8365C35.7118 31.2219 35.8513 31.5398 36.1677 31.7325C36.6228 32.01 37.0862 32.2986 37.5833 32.4823C39.3078 33.1084 41.0946 33.1946 42.9023 33.0132C43.0635 32.9967 43.2307 32.8707 43.3627 32.7575C43.6266 32.5326 43.8478 32.2514 44.1215 32.04C44.926 31.4184 45.867 31.0877 46.832 30.8133C46.9534 30.7788 47.1319 30.6633 47.1416 30.5734C47.1784 30.2555 47.1544 29.933 47.1544 29.6091H47.1529ZM42.7831 34.9236C40.344 35.0736 37.9949 34.8592 35.7628 33.745V35.8766C38.2034 35.7364 40.5555 35.9359 42.7831 37.0643V34.9236Z" fill="white"/>
<path d="M30.9378 19.052C30.985 18.8915 31.0128 18.7985 31.0398 18.7071C31.2122 18.1822 31.6748 17.9093 32.1712 18.0323C32.6676 18.1552 32.9585 18.6171 32.8535 19.1607C32.7335 19.786 32.5843 20.4053 32.4471 21.0269C32.3961 21.2586 32.3557 21.4933 32.2897 21.7212C32.1397 22.2573 31.6831 22.5325 31.1357 22.4178C30.341 22.2521 29.5499 22.0736 28.7567 21.9012C28.1733 21.7745 27.8524 21.3763 27.9064 20.8515C27.9596 20.3379 28.3608 20.0267 28.9711 20.0319C29.0183 20.0319 29.0656 20.0267 29.1638 20.0207C29.1091 19.9454 29.049 19.8742 28.9839 19.8078C27.2758 18.3554 24.8068 18.0772 22.8416 19.1142C20.8539 20.1639 19.6415 22.3698 19.8807 24.5059C20.1468 26.8858 21.7154 28.7842 23.943 29.3683C25.6675 29.8182 27.2601 29.5115 28.7087 28.4686C28.8099 28.3936 28.9066 28.3186 29.0086 28.2481C29.4405 27.9737 29.9481 28.0517 30.2532 28.4363C30.5584 28.821 30.5532 29.4231 30.134 29.711C29.4592 30.1728 28.7657 30.6565 28.0106 30.9481C23.158 32.8226 17.905 29.1261 17.9724 23.9226C18.0107 20.9827 19.8634 18.2579 22.5709 17.1573C23.9207 16.6024 25.4041 16.4576 26.8357 16.7408C28.2673 17.0241 29.5838 17.7228 30.6206 18.7498C30.7099 18.8368 30.8006 18.9193 30.9378 19.052Z" fill="white"/>
</g>
<defs>
<filter id="filter0_d_722_3409" x="-0.00109863" y="0.998535" width="68.0011" height="68.0015" filterUnits="userSpaceOnUse" color-interpolation-filters="sRGB">
<feFlood flood-opacity="0" result="BackgroundImageFix"/>
<feColorMatrix in="SourceAlpha" type="matrix" values="0 0 0 0 0 0 0 0 0 0 0 0 0 0 0 0 0 0 127 0" result="hardAlpha"/>
<feOffset dy="7"/>
<feGaussianBlur stdDeviation="5"/>
<feComposite in2="hardAlpha" operator="out"/>
<feColorMatrix type="matrix" values="0 0 0 0 0.278431 0 0 0 0 0.509804 0 0 0 0 1 0 0 0 0.25 0"/>
<feBlend mode="normal" in2="BackgroundImageFix" result="effect1_dropShadow_722_3409"/>
<feBlend mode="normal" in="SourceGraphic" in2="effect1_dropShadow_722_3409" result="shape"/>
</filter>
</defs>
</svg>
