<svg width="43" height="43" viewBox="0 0 43 43" fill="none" xmlns="http://www.w3.org/2000/svg">
<g filter="url(#filter0_d_1139_1758)">
<path d="M27.327 27.9887C26.7045 28.8555 25.7695 29.1621 24.7809 29.3468C23.3296 29.6176 21.8986 29.5425 20.5089 29.0094C20.0787 28.8445 19.6861 28.6129 19.3702 28.2667C19.1026 27.9815 18.9568 27.6033 18.9636 27.2123C18.9687 25.7151 18.972 24.2178 18.9636 22.7214C18.9602 22.2124 19.153 21.8083 19.5216 21.4764C19.9994 21.0466 20.5827 20.8277 21.1875 20.6527C21.29 20.6232 21.4334 20.6363 21.4106 20.4659C21.3857 20.2811 21.2343 20.3609 21.1416 20.3609C17.0165 20.3564 12.891 20.355 8.76511 20.3566C8.66661 20.3601 8.568 20.3571 8.46988 20.3478C8.34282 20.3341 8.22511 20.2745 8.13878 20.1803C8.05246 20.086 8.00343 19.9636 8.00089 19.8358C7.99752 19.7725 8.00089 19.7092 8.00089 19.646V4.52855C8.00089 3.98279 8.16959 3.81493 8.71788 3.81493H11.4171C11.4171 3.55851 11.4061 3.31557 11.4196 3.07391C11.423 2.98569 11.4489 2.8998 11.4948 2.82441C11.5407 2.74902 11.6052 2.68663 11.682 2.64318C11.7589 2.59973 11.8456 2.57666 11.9339 2.57616C12.0221 2.57566 12.1091 2.59776 12.1864 2.64034C12.3884 2.74831 12.4643 2.92925 12.4681 3.14645C12.4719 3.35733 12.4681 3.56821 12.4681 3.79975C12.5491 3.80523 12.6157 3.81409 12.6828 3.81409C13.765 3.81409 14.8477 3.80945 15.9303 3.81915C16.1239 3.81915 16.1733 3.75589 16.1606 3.57791C16.1498 3.3953 16.1498 3.21223 16.1606 3.02962C16.1758 2.71499 16.3867 2.50201 16.6747 2.49905C16.9628 2.4961 17.1808 2.70656 17.2074 3.01528C17.2184 3.14814 17.2125 3.28226 17.2129 3.41595C17.2129 3.54248 17.2129 3.66563 17.2129 3.80144H20.9012C20.9012 3.55977 20.899 3.33034 20.9012 3.10048C20.9058 2.72891 21.112 2.4961 21.4313 2.49905C21.7371 2.50201 21.9471 2.7365 21.9555 3.08951C21.9606 3.30714 21.9598 3.52477 21.9627 3.74239C21.9677 3.76324 21.9754 3.78336 21.9855 3.80228C22.0504 3.80566 22.1251 3.8124 22.1997 3.8124C23.0289 3.8124 23.8584 3.8124 24.6881 3.8124C25.1811 3.8124 25.3595 3.98996 25.3595 4.48721C25.3595 7.27755 25.3595 10.0678 25.3595 12.8578C25.3595 13.18 25.3595 13.1779 25.6754 13.1805C26.761 13.1893 27.8217 13.3293 28.7964 13.8413C29.037 13.9718 29.2605 14.1314 29.462 14.3167C29.7956 14.617 29.9609 15.002 29.9546 15.4605C29.9466 16.0223 29.9592 16.5849 29.9491 17.1475C29.9461 17.3267 30.0031 17.3731 30.1785 17.3626C31.2118 17.2993 32.2287 17.3892 33.2131 17.7304C33.6943 17.8991 34.1468 18.1209 34.5133 18.487C34.8301 18.8042 34.995 19.1778 34.9937 19.6375C34.9861 21.8935 34.9806 24.1503 34.9967 26.4055C35.0009 27.0297 34.7436 27.4847 34.2666 27.8437C33.6918 28.2776 33.0241 28.4965 32.3295 28.6248C30.9377 28.8816 29.559 28.839 28.2106 28.3784C27.9112 28.2776 27.6265 28.1224 27.327 27.9887ZM24.2904 8.24802H9.05528V8.47619C9.05528 11.9964 9.05345 15.517 9.0498 19.0378C9.0498 19.2567 9.11137 19.3052 9.32014 19.3052C13.2624 19.2993 17.2046 19.2993 21.1466 19.3052C21.3617 19.3052 21.4203 19.2449 21.4186 19.0319C21.4089 17.851 21.4186 16.6701 21.4119 15.4892C21.4119 15.0429 21.5464 14.6524 21.8758 14.3538C22.0918 14.1572 22.3275 13.9573 22.5928 13.8439C23.1369 13.609 23.7058 13.4306 24.2929 13.2188L24.2904 8.24802ZM17.2078 4.87059C17.2078 5.14262 17.2217 5.38134 17.204 5.61794C17.1988 5.75362 17.1398 5.88165 17.0402 5.97387C16.9405 6.0661 16.8083 6.11496 16.6726 6.10971C16.3909 6.10423 16.1804 5.89883 16.1627 5.59728C16.1516 5.42175 16.1506 5.24572 16.1598 5.07008C16.1695 4.91108 16.1087 4.86679 15.9531 4.86764C14.8565 4.87298 13.76 4.87298 12.6634 4.86764C12.4981 4.86764 12.4597 4.92584 12.466 5.07641C12.478 5.28722 12.4752 5.49862 12.4576 5.70904C12.4477 5.8441 12.3853 5.96991 12.2838 6.05948C12.1822 6.14905 12.0496 6.19525 11.9144 6.18816C11.6335 6.1755 11.4277 5.96336 11.4158 5.66307C11.4083 5.46653 11.404 5.26915 11.4158 5.07261C11.4251 4.9153 11.3737 4.86637 11.2138 4.86848C10.5534 4.87649 9.89247 4.87143 9.23157 4.8727C9.17791 4.87526 9.12442 4.88061 9.07131 4.88873V7.15946C9.14722 7.16452 9.20922 7.17211 9.2708 7.17211C14.2121 7.17211 19.1534 7.17338 24.0947 7.17591C24.2634 7.17591 24.3098 7.12235 24.3077 6.95955C24.3001 6.32692 24.3051 5.69428 24.3039 5.06165C24.3012 5.00388 24.2954 4.9463 24.2866 4.88915H21.9526C21.9526 5.14431 21.9673 5.38345 21.9488 5.62005C21.9461 5.68718 21.9302 5.75311 21.9019 5.81407C21.8737 5.87504 21.8337 5.92983 21.7843 5.97531C21.7348 6.0208 21.6769 6.05608 21.6138 6.07915C21.5507 6.10221 21.4837 6.11259 21.4165 6.10971C21.1335 6.10381 20.9206 5.89419 20.9058 5.59812C20.8952 5.42958 20.8952 5.26055 20.9058 5.09201C20.9201 4.9153 20.856 4.86637 20.6814 4.86764C19.7185 4.87565 18.7553 4.87143 17.7924 4.87143L17.2078 4.87059ZM30.8441 18.3993C30.0313 18.3993 29.3456 18.4651 28.6931 18.6945C28.3761 18.8048 28.0739 18.954 27.7935 19.1386C27.4139 19.3917 27.4232 19.6624 27.7935 19.9399C27.938 20.051 28.0964 20.1428 28.2646 20.2128C29.7407 20.81 31.2452 20.81 32.7605 20.3786C33.1401 20.2702 33.5028 20.1141 33.7875 19.8252C33.992 19.6177 34.0005 19.441 33.7841 19.2453C33.6231 19.0998 33.442 18.9782 33.2464 18.8843C32.4476 18.5089 31.5927 18.4107 30.8441 18.3993ZM23.5603 23.7514C23.8678 23.7041 24.4253 23.6409 24.9728 23.5278C25.4342 23.4325 25.8775 23.2638 26.2423 22.9462C26.5139 22.7096 26.5223 22.4848 26.2452 22.2605C26.0675 22.1121 25.8685 21.9914 25.6548 21.9024C24.225 21.3385 22.7662 21.3322 21.2972 21.7269C20.8893 21.8362 20.4958 21.9947 20.1854 22.2984C19.9686 22.5093 19.9594 22.6932 20.1854 22.8931C20.3525 23.0421 20.5401 23.1664 20.7426 23.2621C21.5536 23.643 22.425 23.732 23.5603 23.7514ZM25.6818 14.242C24.996 14.2378 24.3208 14.315 23.6662 14.5259C23.2908 14.6465 22.9222 14.7903 22.6341 15.0741C22.4233 15.2821 22.4161 15.479 22.6341 15.6739C22.7948 15.816 22.9766 15.9607 23.1753 16.029C23.6438 16.1901 24.1208 16.3538 24.6092 16.4309C25.7349 16.6093 26.8547 16.5461 27.9314 16.1425C28.2176 16.0282 28.4852 15.8719 28.7252 15.6785C28.966 15.4904 28.9596 15.269 28.7277 15.0712C28.5471 14.9158 28.3455 14.7868 28.1288 14.6878C27.3528 14.3416 26.5248 14.2429 25.6818 14.242ZM33.9389 25.7631C31.7854 26.6682 29.6636 26.6657 27.5084 25.7589C27.5084 25.9875 27.516 26.2165 27.5084 26.4451C27.4991 26.6619 27.5771 26.8386 27.7517 26.9512C27.9681 27.0921 28.1891 27.2384 28.4266 27.3283C29.6724 27.7956 30.952 27.8188 32.243 27.5645C32.7415 27.4662 33.2295 27.3177 33.6348 26.998C33.7673 26.8934 33.8963 26.7239 33.9263 26.5649C33.9722 26.3089 33.9389 26.0364 33.9389 25.7631ZM20.0209 26.4721C20.0209 26.7087 20.0298 26.9398 20.0184 27.1697C20.0083 27.3721 20.0787 27.5387 20.2386 27.6437C20.4718 27.7968 20.7101 27.955 20.9682 28.0541C21.8961 28.4109 22.8661 28.4881 23.8509 28.4105C24.5485 28.3553 25.2305 28.2258 25.8585 27.8989C26.4553 27.5885 26.6252 27.1368 26.4127 26.4894C24.2921 27.3738 22.1749 27.3764 20.0209 26.4721ZM27.5075 21.0635C27.5075 21.2887 27.5198 21.5055 27.5046 21.7202C27.4856 21.9825 27.5889 22.1841 27.8045 22.3043C28.0896 22.4663 28.3814 22.6291 28.6901 22.7324C29.6033 23.0386 30.5497 23.0765 31.5007 22.988C32.1469 22.9277 32.777 22.7898 33.3565 22.4844C33.936 22.1791 34.1156 21.6978 33.9014 21.0812C31.7842 21.9669 29.6695 21.9699 27.5084 21.0635H27.5075ZM33.9347 23.4144C31.7782 24.3169 29.656 24.3144 27.5075 23.4144C27.5075 23.6442 27.5181 23.8678 27.505 24.0892C27.4911 24.3249 27.5801 24.5135 27.7716 24.6265C28.0474 24.7893 28.3295 24.9584 28.6315 25.0588C29.8407 25.4599 31.0748 25.4683 32.3122 25.2064C32.7803 25.1073 33.2401 24.9618 33.6234 24.6581C33.7529 24.5556 33.8942 24.4004 33.9212 24.2499C33.9701 23.9799 33.9355 23.6948 33.9355 23.4144H33.9347ZM20.0209 24.1242C20.0209 24.2798 20.0416 24.43 20.0172 24.5725C19.9303 25.085 20.2103 25.3599 20.6249 25.5561C20.7329 25.6071 20.84 25.6607 20.9509 25.7032C21.9593 26.087 23.0053 26.1452 24.0652 26.0407C24.705 25.9778 25.3283 25.8374 25.9007 25.5286C26.4489 25.2334 26.6265 24.7336 26.4118 24.1406C24.2908 25.0293 22.1719 25.0305 20.0209 24.1242ZM28.8985 16.905C26.7475 17.8054 24.6261 17.8097 22.4713 16.9003C22.4713 17.1382 22.4785 17.3668 22.4713 17.5954C22.4629 17.8122 22.5414 17.991 22.7193 18.0994C22.9753 18.2555 23.236 18.4178 23.5156 18.5212C24.4857 18.8733 25.4907 18.9218 26.5076 18.8198C26.5982 18.8105 26.6923 18.7396 26.7665 18.6759C26.915 18.5494 27.0394 18.3913 27.1933 18.2723C27.6459 17.9227 28.1752 17.7367 28.718 17.5823C28.7863 17.5629 28.8867 17.498 28.8922 17.4474C28.9128 17.2685 28.8993 17.0872 28.8993 16.905H28.8985ZM26.4405 19.8944C25.0685 19.9787 23.7472 19.8581 22.4916 19.2314V20.4304C23.8644 20.3516 25.1875 20.4638 26.4405 21.0985V19.8944Z" fill="#0A0B0D"/>
<path d="M19.7775 10.9673C19.8041 10.8771 19.8197 10.8248 19.8349 10.7733C19.9319 10.4781 20.1921 10.3246 20.4713 10.3938C20.7505 10.4629 20.9141 10.7227 20.8551 11.0285C20.7876 11.3802 20.7037 11.7286 20.6265 12.0782C20.5978 12.2086 20.575 12.3406 20.5379 12.4688C20.4536 12.7704 20.1967 12.9251 19.8888 12.8606C19.4418 12.7674 18.9968 12.667 18.5506 12.57C18.2225 12.4987 18.042 12.2748 18.0723 11.9796C18.1023 11.6907 18.3279 11.5156 18.6712 11.5186C18.6978 11.5186 18.7244 11.5156 18.7796 11.5123C18.7489 11.4699 18.715 11.4299 18.6784 11.3925C17.7176 10.5755 16.3288 10.4191 15.2234 11.0023C14.1053 11.5928 13.4233 12.8336 13.5579 14.0352C13.7076 15.3739 14.5899 16.4417 15.8429 16.7703C16.813 17.0233 17.7088 16.8508 18.5236 16.2642C18.5806 16.222 18.635 16.1798 18.6923 16.1402C18.9353 15.9858 19.2208 16.0297 19.3924 16.246C19.5641 16.4624 19.5611 16.8011 19.3254 16.963C18.9458 17.2228 18.5557 17.4949 18.131 17.6589C15.4014 18.7133 12.4465 16.6341 12.4845 13.7071C12.506 12.0534 13.5482 10.5207 15.0711 9.90156C15.8304 9.58948 16.6648 9.508 17.4701 9.66732C18.2754 9.82664 19.0159 10.2197 19.5991 10.7974C19.6493 10.8463 19.7003 10.8927 19.7775 10.9673Z" fill="#0A0B0D"/>
</g>
<defs>
<filter id="filter0_d_1139_1758" x="0.49939" y="0.249023" width="42.0006" height="42.001" filterUnits="userSpaceOnUse" color-interpolation-filters="sRGB">
<feFlood flood-opacity="0" result="BackgroundImageFix"/>
<feColorMatrix in="SourceAlpha" type="matrix" values="0 0 0 0 0 0 0 0 0 0 0 0 0 0 0 0 0 0 127 0" result="hardAlpha"/>
<feOffset dy="5.25"/>
<feGaussianBlur stdDeviation="3.75"/>
<feComposite in2="hardAlpha" operator="out"/>
<feColorMatrix type="matrix" values="0 0 0 0 0.278431 0 0 0 0 0.509804 0 0 0 0 1 0 0 0 0.25 0"/>
<feBlend mode="normal" in2="BackgroundImageFix" result="effect1_dropShadow_1139_1758"/>
<feBlend mode="normal" in="SourceGraphic" in2="effect1_dropShadow_1139_1758" result="shape"/>
</filter>
</defs>
</svg>
