<svg width="136" height="42" viewBox="0 0 136 42" fill="none" xmlns="http://www.w3.org/2000/svg">
<path d="M80.8494 10.0494L80.8092 9.6175C80.7258 7.44883 79.8039 6.97526 75.8229 6.97526C70.6305 6.97526 69.5006 7.44578 69.5006 9.67543C69.5006 11.5047 70.132 12.1917 72.0602 12.3756C72.5165 12.4061 73.0243 12.4671 73.6052 12.4671C74.1542 12.4986 75.1595 12.5595 76.6623 12.6205C82.1874 12.836 83.8251 13.153 85.1312 14.2679C86.1787 15.1672 86.5928 16.2211 86.5928 18.2048C86.5928 21.0279 86.1262 22.3572 84.8726 23.2261C83.1103 24.4334 81.0997 24.7505 75.5334 24.7505C70.0393 24.7505 68.2358 24.5665 66.6083 23.7586C64.9294 22.9192 64.0477 21.3755 64.0477 19.0747C64.0477 18.8898 64.0889 18.5422 64.0889 18.0818H69.1998V18.5422C69.1998 20.7718 70.0393 21.5493 72.5896 21.5798H75.0617L75.8177 21.6103C80.5136 21.6103 81.3118 21.1397 81.3118 18.5422C81.3118 16.4975 80.6382 16.027 77.3731 15.9L74.4396 15.7465C68.7384 15.5006 67.6919 15.3471 66.2715 14.4477C64.7996 13.5473 64.1775 12.1876 64.1775 9.98843C64.1775 7.41123 64.8511 5.89803 66.3539 5.1206C68.2409 4.15923 70.2103 3.88281 75.4037 3.88281C80.0573 3.88281 82.0267 4.12875 83.5305 4.90618C85.1579 5.74458 85.914 7.13481 85.914 9.30348V10.0504H80.8494V10.0494Z" fill="#6B82B0"/>
<path d="M99.5442 3.88281H94.2677V24.7505H99.5442V3.88281Z" fill="#6B82B0"/>
<path d="M131.602 13.8921L131.642 14.4971L131.683 17.8125V18.0943C131.683 21.6075 131.062 22.9937 129.048 24.0681C127.318 25.0171 125.384 25.2358 119.879 25.2358C114.283 25.2358 112.39 24.954 110.537 23.7552C108.441 22.369 107.699 20.6274 107.699 16.8324V16.3941C107.739 15.3208 107.739 14.5292 107.739 14.09C107.78 10.326 107.862 9.70125 108.31 8.33471C108.769 7.04491 109.654 5.9606 110.812 5.27008C112.868 4.10142 114.395 3.88281 119.828 3.88281C126.035 3.88281 127.237 4.00817 128.997 4.89399C130.065 5.43688 130.849 6.3227 131.174 7.32353C131.5 8.30363 131.541 8.55435 131.579 10.3892H126.358L126.318 9.97477C126.115 7.57736 125.371 7.25411 119.774 7.25411C116.772 7.25411 115.325 7.44163 114.503 7.97934C113.435 8.67764 113.11 9.59558 113.11 12.1816L113.068 14.2982L113.11 17.0189C113.15 19.5106 113.394 20.3974 114.382 21.0335C115.287 21.6272 116.762 21.8251 120.059 21.8251C125.621 21.8251 126.44 21.3143 126.44 17.6239V16.8987H119.489V13.8921H131.602Z" fill="#6B82B0"/>
<path fill-rule="evenodd" clip-rule="evenodd" d="M4.08746 16.9854C5.78197 17.9753 6.68416 19.3196 10.2244 19.3196C13.7646 19.3196 15.9863 16.9854 20.1868 16.9854C24.4266 16.9854 26.7502 19.3196 31 19.3196C35.2005 19.3196 36.8537 16.9854 40.9111 16.9854C45.0198 16.9854 47.2315 19.3196 50.8735 19.3196C54.5155 19.3196 55.7323 17.8548 57.8118 16.9854V22.462C55.7323 23.3445 54.5055 24.7501 50.8735 24.7501C47.2416 24.7501 45.0198 22.4008 40.9111 22.4008C36.8537 22.4008 35.2005 24.7501 31.0021 24.7501C26.7522 24.7501 24.4387 22.4058 20.1888 22.4058C15.9823 22.4008 13.7646 24.7501 10.2244 24.7501C6.68416 24.7501 5.78902 23.4569 4.08746 22.467V16.9854Z" fill="#6B82B0"/>
<path fill-rule="evenodd" clip-rule="evenodd" d="M4.08746 12.6172V15.6663C5.78197 16.6721 6.68416 17.9554 10.2244 17.9554C13.7646 17.9554 15.9863 15.6041 20.1868 15.6041C24.4266 15.6041 26.7502 17.9554 31 17.9554C35.2005 17.9554 36.8537 15.6041 40.9111 15.6041C45.0198 15.6041 47.2315 17.9554 50.8735 17.9554C54.5155 17.9554 55.7323 16.5589 57.8118 15.6663V12.6172C55.7323 13.5098 54.5055 14.9634 50.8735 14.9634C47.2416 14.9634 45.0198 12.6172 40.9111 12.6172C36.8537 12.6172 35.2005 14.9634 31 14.9634C26.7502 14.9634 24.4367 12.6172 20.1868 12.6172C15.9863 12.6172 13.7656 14.9634 10.2244 14.9634C6.68315 14.9634 5.78902 13.6189 4.08746 12.6172Z" fill="#6B82B0"/>
<path fill-rule="evenodd" clip-rule="evenodd" d="M4.08746 9.2207V11.135C5.78197 12.1802 6.68416 13.5884 10.2244 13.5884C13.7646 13.5884 15.9863 11.0683 20.1868 11.0683C24.4266 11.0683 26.7502 13.5884 31 13.5884C35.2005 13.5884 36.8537 11.0683 40.9111 11.0683C45.0198 11.0683 47.2315 13.5884 50.8735 13.5884C54.5155 13.5884 55.7323 12.0917 57.8118 11.135V9.2207C55.7323 10.1773 54.5055 11.7352 50.8735 11.7352C47.2416 11.7352 45.0198 9.2207 40.9111 9.2207C36.8537 9.2207 35.2005 11.7352 31 11.7352C26.7502 11.7352 24.4367 9.2207 20.1868 9.2207C15.9863 9.2207 13.7656 11.7352 10.2244 11.7352C6.68315 11.7352 5.78902 10.2943 4.08746 9.2207Z" fill="#6B82B0"/>
<path d="M59.0227 23.0908C59.2083 23.0863 59.3929 23.1221 59.5653 23.1961C59.7377 23.2701 59.8944 23.3808 60.0261 23.5215C60.1533 23.6493 60.2545 23.804 60.3235 23.9759C60.3924 24.1478 60.4276 24.3331 60.4267 24.5203C60.4258 24.7075 60.3889 24.8925 60.3183 25.0636C60.2477 25.2347 60.145 25.3883 60.0166 25.5147C59.7444 25.7811 59.3908 25.9307 59.0227 25.9352C58.652 25.9357 58.2957 25.7813 58.0289 25.5045C57.9008 25.3778 57.799 25.2235 57.73 25.0518C57.661 24.88 57.6263 24.6945 57.6283 24.5074C57.6299 24.3145 57.6689 24.1242 57.7428 23.9484C57.8167 23.7727 57.9238 23.6155 58.0574 23.4868C58.1852 23.3541 58.3366 23.2503 58.5024 23.1816C58.6682 23.1129 58.8451 23.0806 59.0227 23.0867M59.0132 22.8091C58.7291 22.8039 58.4484 22.8766 58.1977 23.0204C57.9469 23.1641 57.7343 23.3741 57.5799 23.6307C57.4219 23.8945 57.3361 24.2008 57.3322 24.5145C57.3312 24.7359 57.3729 24.9551 57.4546 25.1583C57.5363 25.3615 57.6562 25.5444 57.8068 25.6953C58.1293 26.0238 58.5567 26.2064 59.0009 26.2057C59.4417 26.2045 59.8667 26.029 60.195 25.7127C60.3493 25.5613 60.4729 25.3772 60.5581 25.1721C60.6432 24.9669 60.6881 24.7451 60.6899 24.5205C60.6917 24.2959 60.6503 24.0733 60.5684 23.8666C60.4866 23.6599 60.3659 23.4736 60.214 23.3194C60.0552 23.1523 59.8669 23.021 59.6602 22.9334C59.4535 22.8457 59.2325 22.8035 59.0104 22.8091M58.3222 23.5235V25.4137H58.7712V24.6431H58.9914L59.354 25.4137H59.8599L59.447 24.5798C59.5603 24.5631 59.6641 24.503 59.7395 24.4106C59.8148 24.3181 59.8566 24.1996 59.8571 24.0767C59.8571 23.7174 59.5904 23.5317 59.055 23.5317L58.3222 23.5235ZM58.7712 23.8215H58.9724C59.2487 23.8215 59.3825 23.9042 59.3825 24.0991C59.3825 24.2941 59.2581 24.3665 59.0028 24.3665H58.7826V23.8215H58.7712Z" fill="#6B82B0"/>
<path d="M4.56905 34.5352H5.45184C5.47112 35.0413 5.62628 35.4205 5.93371 35.6636C6.24115 35.9066 6.69989 36.0324 7.3109 36.0324C7.83518 36.0324 8.24252 35.9374 8.53293 35.7474C8.66628 35.6683 8.77682 35.5505 8.8522 35.4072C8.92758 35.2638 8.96486 35.1005 8.95987 34.9354C8.96576 34.8243 8.94785 34.7132 8.90755 34.6108C8.86724 34.5085 8.80565 34.4177 8.72761 34.3456C8.57245 34.2084 8.31031 34.0921 7.94216 34.0313L6.46763 33.7463C5.87589 33.6301 5.43931 33.4404 5.16754 33.1659C4.89576 32.8914 4.76084 32.5132 4.76084 32.0387C4.76084 31.4163 4.97382 30.9313 5.4104 30.5939C5.84698 30.2566 6.45799 30.0879 7.26272 30.0879C8.01926 30.0879 8.60136 30.267 9.00902 30.6117C9.41669 30.9564 9.62004 31.4656 9.62967 32.1298H8.78833C8.75941 31.7191 8.61389 31.4132 8.36139 31.2236C8.10888 31.0339 7.71182 30.9281 7.19815 30.9281C6.68447 30.9281 6.30572 31.013 6.04165 31.1921C5.91858 31.2678 5.81662 31.3783 5.74656 31.5118C5.67649 31.6453 5.64093 31.797 5.64363 31.9506C5.6384 32.0564 5.65587 32.162 5.69468 32.2591C5.73349 32.3562 5.79256 32.4421 5.86722 32.5101C6.02238 32.6358 6.29415 32.7521 6.69122 32.837L8.00095 33.1209C8.68906 33.2686 9.16515 33.4687 9.43596 33.7327C9.70678 33.9967 9.84363 34.376 9.84363 34.8715C9.84363 35.5148 9.62068 36.0104 9.17479 36.3582C8.72857 36.7165 8.09828 36.882 7.27332 36.882C6.39053 36.882 5.72169 36.6819 5.26584 36.2911C4.80999 35.9003 4.57772 35.3105 4.56712 34.531" fill="#6B82B0"/>
<path d="M21.8318 30.5732V34.4304C21.8318 35.235 21.6079 35.8369 21.1593 36.2592C20.7106 36.6814 20.0575 36.8821 19.1892 36.8821C18.3209 36.8821 17.6678 36.6714 17.2288 36.2592C16.7898 35.8469 16.5592 35.235 16.5592 34.4304V30.5732H17.3974V34.0591C17.3974 34.7319 17.5437 35.235 17.8364 35.5564C18.129 35.8778 18.5777 36.0386 19.1931 36.0386C19.8084 36.0386 20.2658 35.8778 20.5585 35.5564C20.8511 35.235 20.9974 34.7319 20.9974 34.0591V30.5732H21.8357" fill="#6B82B0"/>
<path d="M28.0757 34.5345H29.0362C29.0582 35.0405 29.2272 35.4197 29.561 35.6627C29.8948 35.9057 30.3954 36.0314 31.0609 36.0314C31.6312 36.0314 32.0748 35.9365 32.3918 35.7465C32.537 35.6674 32.6572 35.5496 32.7391 35.4062C32.821 35.2629 32.8614 35.0996 32.8558 34.9347C32.8622 34.8236 32.8427 34.7125 32.7988 34.6101C32.7549 34.5078 32.6878 34.417 32.6028 34.3449C32.4338 34.2077 32.1483 34.0915 31.7474 34.0307L30.1519 33.7458C29.5074 33.6295 29.032 33.4399 28.737 33.1655C28.4421 32.891 28.293 32.5129 28.293 32.0383C28.293 31.4161 28.525 30.9311 29.0005 30.5938C29.476 30.2565 30.1414 30.0879 31.0179 30.0879C31.8418 30.0879 32.4758 30.267 32.9198 30.6116C33.3638 30.9563 33.5853 31.4654 33.5958 32.1295H32.6868C32.6553 31.7189 32.4968 31.413 32.2228 31.2234C31.9489 31.0338 31.5143 30.928 30.9549 30.928C30.3954 30.928 29.9829 31.0128 29.6953 31.192C29.5604 31.2665 29.4487 31.3768 29.3724 31.5106C29.2961 31.6443 29.2582 31.7965 29.2629 31.9504C29.2582 32.056 29.2783 32.1612 29.3215 32.2578C29.3646 32.3543 29.4298 32.4395 29.5116 32.5066C29.6806 32.6323 29.9766 32.7486 30.4101 32.8334L31.8208 33.1215C32.5713 33.2692 33.0888 33.4692 33.3848 33.7332C33.6808 33.9972 33.8277 34.3764 33.8277 34.8718C33.8277 35.515 33.5849 36.0105 33.0993 36.3583C32.6133 36.7165 31.9164 36.882 31.0284 36.882C30.068 36.882 29.3385 36.6819 28.842 36.2912C28.3455 35.9005 28.082 35.3108 28.0715 34.5314" fill="#6B82B0"/>
<path d="M45.1024 36.4948C44.877 36.6258 44.6328 36.7178 44.3793 36.7672C44.0614 36.8273 43.7388 36.8556 43.4158 36.8517C42.3825 36.8517 41.5697 36.547 40.9672 35.9375C40.3648 35.328 40.0636 34.5098 40.0636 33.4693C40.0636 32.4288 40.3628 31.6106 40.9672 31.0011C41.5717 30.3916 42.3925 30.0879 43.4258 30.0879C44.4591 30.0879 45.273 30.3926 45.8754 31.0011C46.4778 31.6095 46.779 32.4403 46.779 33.4693C46.7827 33.9694 46.694 34.4655 46.5177 34.9304C46.3593 35.3555 46.1002 35.7316 45.7647 36.0231L46.5975 36.7161L46.1058 37.3673L45.1024 36.4948ZM44.3793 35.8686L43.737 35.3176L44.2088 34.6914L45.1124 35.4574C45.3679 35.2409 45.5652 34.9586 45.6849 34.6382C45.8212 34.2699 45.8889 33.8778 45.8844 33.4829C45.8844 32.6855 45.664 32.0656 45.2321 31.6241C44.8002 31.1827 44.1978 30.952 43.4248 30.952C42.6518 30.952 42.0504 31.1722 41.6185 31.6241C41.1867 32.076 40.9662 32.696 40.9662 33.4829C40.9662 34.2698 41.1867 34.9116 41.6185 35.3531C42.0504 35.7945 42.6728 36.0147 43.4757 36.0147C43.6467 36.016 43.8176 36.0055 43.9873 35.9834C44.1207 35.957 44.2515 35.9182 44.3783 35.8676" fill="#6B82B0"/>
<path d="M58.7712 30.5732V34.4304C58.7712 35.235 58.5264 35.8369 58.0325 36.2592C57.5387 36.6814 56.8328 36.8821 55.8873 36.8821C54.9418 36.8821 54.2317 36.6714 53.7537 36.2592C53.2757 35.8469 53.015 35.235 53.015 34.4304V30.5732H53.9288V34.0591C53.9288 34.7319 54.0882 35.235 54.4068 35.5564C54.7255 35.8778 55.2141 36.0386 55.8841 36.0386C56.5542 36.0386 57.0523 35.8778 57.3709 35.5564C57.6896 35.235 57.8489 34.7419 57.8489 34.0691V30.5832H58.7712V30.5732Z" fill="#6B82B0"/>
<path d="M65.4868 36.3968V30.5732H70.2254V31.3262H66.3248V33.0413H69.9813V33.8037H66.3248V35.6145H70.2836V36.3968H65.4868Z" fill="#6B82B0"/>
<path d="M76.5194 36.3968V30.5732H77.4272V32.9277H81.3668V30.5732H82.2756V36.3968H81.3668V33.69H77.4272V36.3968H76.5194Z" fill="#6B82B0"/>
<path d="M88.0318 36.3968L91.014 30.5732H91.9501L94.7473 36.3968H93.8224L93.0202 34.7385H89.8111L88.968 36.3968H88.0318ZM90.178 33.9761H92.6461L91.4432 31.4881L90.178 33.9761Z" fill="#6B82B0"/>
<path d="M100.983 36.3968V30.5732H102.132L105.915 35.5482V30.5732H106.739V36.3968H105.591L101.808 31.4218V36.3968H100.983Z" fill="#6B82B0"/>
<path d="M113.455 36.3968V30.5732H114.701L118.797 35.5482V30.5732H119.691V36.3968H118.446L114.349 31.4218V36.3968H113.455Z" fill="#6B82B0"/>
<path d="M125.447 36.3968L128.429 30.5732H129.365L132.163 36.3968H131.237L130.434 34.7385H127.226L126.392 36.3968H125.447ZM127.593 33.9761H130.061L128.869 31.4881L127.593 33.9761Z" fill="#6B82B0"/>
</svg>
