<svg width="181" height="55" viewBox="0 0 181 55" fill="none" xmlns="http://www.w3.org/2000/svg">
<path d="M107.466 13.3986L107.412 12.8227C107.301 9.93114 106.072 9.29971 100.764 9.29971C93.8407 9.29971 92.3342 9.92708 92.3342 12.8999C92.3342 15.3389 93.176 16.2549 95.747 16.5002C96.3553 16.5408 97.0324 16.6221 97.807 16.6221C98.539 16.6641 99.8794 16.7454 101.883 16.8267C109.25 17.114 111.433 17.5367 113.175 19.0232C114.572 20.2224 115.124 21.6275 115.124 24.2724C115.124 28.0366 114.502 29.809 112.83 30.9675C110.48 32.5772 107.8 33 100.378 33C93.0524 33 90.6477 32.7547 88.4778 31.6775C86.2392 30.5583 85.0636 28.5 85.0636 25.4323C85.0636 25.1857 85.1185 24.7223 85.1185 24.1085H91.9331V24.7223C91.9331 27.6952 93.0524 28.7317 96.4529 28.7724H99.7489L100.757 28.813C107.018 28.813 108.082 28.1857 108.082 24.7223C108.082 21.996 107.184 21.3687 102.831 21.1993L98.9194 20.9947C91.3179 20.6668 89.9225 20.4622 88.0287 19.263C86.0661 18.0625 85.2366 16.2495 85.2366 13.3173C85.2366 9.881 86.1348 7.86341 88.1385 6.82684C90.6545 5.54501 93.2804 5.17645 100.205 5.17645C106.41 5.17645 109.036 5.50436 111.041 6.54094C113.211 7.65881 114.219 9.51245 114.219 12.404V13.3999H107.466V13.3986Z" fill="#DBE6FF"/>
<path d="M132.392 5.17645H125.357V33H132.392V5.17645Z" fill="#DBE6FF"/>
<path d="M175.136 18.5221L175.19 19.3289L175.244 23.7493V24.1251C175.244 28.8094 174.416 30.6577 171.73 32.0902C169.423 33.3556 166.846 33.647 159.506 33.647C152.043 33.647 149.519 33.2713 147.05 31.673C144.255 29.8247 143.265 27.5026 143.265 22.4425V21.8582C143.319 20.4271 143.319 19.3717 143.319 18.786C143.373 13.7674 143.482 12.9344 144.079 11.1123C144.691 9.39258 145.872 7.94683 147.416 7.02614C150.157 5.46793 152.193 5.17645 159.437 5.17645C167.714 5.17645 169.316 5.3436 171.663 6.52469C173.087 7.24855 174.132 8.42964 174.566 9.76407C175 11.0709 175.055 11.4052 175.105 13.8516H168.144L168.09 13.2991C167.82 10.1025 166.828 9.67152 159.366 9.67152C155.363 9.67152 153.433 9.92155 152.337 10.6385C150.914 11.5696 150.479 12.7935 150.479 16.2414L150.424 19.0636L150.479 22.6912C150.533 26.0134 150.858 27.1959 152.176 28.0441C153.382 28.8356 155.349 29.0995 159.746 29.0995C167.161 29.0995 168.253 28.4185 168.253 23.4979V22.5309H158.985V18.5221H175.136Z" fill="#DBE6FF"/>
<path fill-rule="evenodd" clip-rule="evenodd" d="M5.11661 22.647C7.37596 23.9669 8.57888 25.7593 13.2992 25.7593C18.0195 25.7593 20.9818 22.647 26.5824 22.647C32.2355 22.647 35.3335 25.7593 41.0001 25.7593C46.6007 25.7593 48.805 22.647 54.2148 22.647C59.6931 22.647 62.642 25.7593 67.498 25.7593C72.3541 25.7593 73.9763 23.8063 76.7491 22.647V29.9492C73.9763 31.1259 72.3406 33 67.498 33C62.6554 33 59.6931 29.8676 54.2148 29.8676C48.805 29.8676 46.6007 33 41.0028 33C35.3362 33 32.2516 29.8743 26.5851 29.8743C20.9764 29.8676 18.0195 33 13.2992 33C8.57888 33 7.38536 31.2758 5.11661 29.9559V22.647Z" fill="#DBE6FF"/>
<path fill-rule="evenodd" clip-rule="evenodd" d="M5.11661 16.8235V20.889C7.37596 22.2301 8.57888 23.9412 13.2992 23.9412C18.0195 23.9412 20.9818 20.8061 26.5824 20.8061C32.2355 20.8061 35.3335 23.9412 41.0001 23.9412C46.6007 23.9412 48.805 20.8061 54.2148 20.8061C59.6931 20.8061 62.642 23.9412 67.498 23.9412C72.3541 23.9412 73.9763 22.0792 76.7491 20.889V16.8235C73.9763 18.0137 72.3406 19.9519 67.498 19.9519C62.6554 19.9519 59.6931 16.8235 54.2148 16.8235C48.805 16.8235 46.6007 19.9519 41.0001 19.9519C35.3335 19.9519 32.249 16.8235 26.5824 16.8235C20.9818 16.8235 18.0208 19.9519 13.2992 19.9519C8.57754 19.9519 7.38536 18.1592 5.11661 16.8235Z" fill="#DBE6FF"/>
<path fill-rule="evenodd" clip-rule="evenodd" d="M5.11661 12.2941V14.8466C7.37596 16.2401 8.57888 18.1177 13.2992 18.1177C18.0195 18.1177 20.9818 14.7576 26.5824 14.7576C32.2355 14.7576 35.3335 18.1177 41.0001 18.1177C46.6007 18.1177 48.805 14.7576 54.2148 14.7576C59.6931 14.7576 62.642 18.1177 67.498 18.1177C72.3541 18.1177 73.9763 16.1221 76.7491 14.8466V12.2941C73.9763 13.5696 72.3406 15.6468 67.498 15.6468C62.6554 15.6468 59.6931 12.2941 54.2148 12.2941C48.805 12.2941 46.6007 15.6468 41.0001 15.6468C35.3335 15.6468 32.249 12.2941 26.5824 12.2941C20.9818 12.2941 18.0208 15.6468 13.2992 15.6468C8.57754 15.6468 7.38536 13.7256 5.11661 12.2941Z" fill="#DBE6FF"/>
<path d="M78.3636 30.788C78.6111 30.782 78.8571 30.8297 79.087 30.9284C79.3169 31.0271 79.5258 31.1747 79.7014 31.3622C79.871 31.5326 80.0061 31.7389 80.098 31.9681C80.1899 32.1973 80.2367 32.4445 80.2356 32.694C80.2344 32.9436 80.1852 33.1903 80.0911 33.4184C79.997 33.6466 79.86 33.8514 79.6887 34.0199C79.3259 34.375 78.8543 34.5746 78.3636 34.5805C77.8694 34.5812 77.3942 34.3753 77.0385 34.0063C76.8678 33.8374 76.732 33.6317 76.6399 33.4026C76.5479 33.1736 76.5018 32.9263 76.5044 32.6768C76.5066 32.4197 76.5585 32.1658 76.657 31.9315C76.7555 31.6972 76.8984 31.4876 77.0765 31.316C77.247 31.139 77.4487 31.0007 77.6698 30.909C77.8909 30.8174 78.1268 30.7744 78.3636 30.7825M78.351 30.4124C77.9721 30.4055 77.5979 30.5025 77.2635 30.6941C76.9292 30.8858 76.6457 31.1658 76.4399 31.5078C76.2292 31.8596 76.1148 32.268 76.1096 32.6863C76.1083 32.9815 76.1639 33.2737 76.2728 33.5447C76.3817 33.8157 76.5416 34.0595 76.7424 34.2608C77.1723 34.6986 77.7423 34.9422 78.3345 34.9412C78.9223 34.9396 79.489 34.7056 79.9267 34.2839C80.1324 34.082 80.2972 33.8366 80.4108 33.5631C80.5243 33.2895 80.5841 32.9938 80.5865 32.6943C80.5889 32.3948 80.5338 32.098 80.4246 31.8224C80.3154 31.5468 80.1545 31.2985 79.952 31.0928C79.7403 30.87 79.4892 30.695 79.2136 30.5781C78.938 30.4613 78.6434 30.4049 78.3472 30.4124M77.4296 31.365V33.8852H78.0283V32.8578H78.3219L78.8053 33.8852H79.4799L78.9294 32.7734C79.0804 32.7511 79.2188 32.671 79.3193 32.5477C79.4197 32.4245 79.4754 32.2664 79.4761 32.1025C79.4761 31.6235 79.1205 31.3758 78.4067 31.3758L77.4296 31.365ZM78.0283 31.7623H78.2966C78.6649 31.7623 78.8433 31.8725 78.8433 32.1325C78.8433 32.3924 78.6775 32.489 78.3371 32.489H78.0434V31.7623H78.0283Z" fill="#DBE6FF"/>
<path d="M5.75875 46.0475H6.9358C6.9615 46.7222 7.16839 47.2278 7.5783 47.5519C7.98821 47.876 8.59987 48.0436 9.41455 48.0436C10.1136 48.0436 10.6567 47.917 11.0439 47.6637C11.2217 47.5582 11.3691 47.4012 11.4696 47.21C11.5701 47.0189 11.6198 46.8011 11.6132 46.5811C11.621 46.4329 11.5971 46.2847 11.5434 46.1483C11.4897 46.0118 11.4075 45.8908 11.3035 45.7946C11.0966 45.6116 10.7471 45.4566 10.2562 45.3756L8.29019 44.9956C7.5012 44.8406 6.9191 44.5877 6.55673 44.2217C6.19436 43.8557 6.01446 43.3515 6.01446 42.7187C6.01446 41.8889 6.29845 41.2422 6.88055 40.7924C7.46265 40.3426 8.27734 40.1177 9.3503 40.1177C10.359 40.1177 11.1352 40.3565 11.6787 40.8161C12.2223 41.2757 12.4934 41.9546 12.5062 42.8402H11.3845C11.3459 42.2926 11.1519 41.8847 10.8152 41.6319C10.4785 41.3791 9.94911 41.238 9.26421 41.238C8.57931 41.238 8.07431 41.3511 7.72222 41.59C7.55812 41.6909 7.42218 41.8382 7.32876 42.0162C7.23534 42.1943 7.18792 42.3964 7.19152 42.6013C7.18454 42.7423 7.20785 42.8831 7.25959 43.0126C7.31134 43.142 7.3901 43.2566 7.48964 43.3473C7.69652 43.5149 8.05889 43.67 8.58831 43.7831L10.3346 44.1617C11.2521 44.3586 11.8869 44.6254 12.248 44.9775C12.609 45.3295 12.7915 45.8351 12.7915 46.4959C12.7915 47.3536 12.4943 48.0143 11.8997 48.4781C11.3048 48.9558 10.4644 49.1765 9.36444 49.1765C8.18739 49.1765 7.2956 48.9097 6.6878 48.3887C6.08 47.8676 5.77031 47.0812 5.75618 46.0419" fill="#DBE6FF"/>
<path d="M28.7757 40.7647V45.9076C28.7757 46.9804 28.4773 47.7829 27.879 48.3459C27.2808 48.9089 26.41 49.1765 25.2523 49.1765C24.0946 49.1765 23.2237 48.8956 22.6384 48.3459C22.0531 47.7963 21.7456 46.9804 21.7456 45.9076V40.7647H22.8632V45.4125C22.8632 46.3096 23.0583 46.9804 23.4485 47.4089C23.8387 47.8375 24.437 48.0518 25.2574 48.0518C26.0779 48.0518 26.6878 47.8375 27.078 47.4089C27.4682 46.9804 27.6633 46.3096 27.6633 45.4125V40.7647H28.7809" fill="#DBE6FF"/>
<path d="M37.101 46.0466H38.3815C38.4109 46.7211 38.6363 47.2267 39.0813 47.5508C39.5263 47.8748 40.1939 48.0424 41.0812 48.0424C41.8416 48.0424 42.4331 47.9158 42.8558 47.6625C43.0493 47.557 43.2096 47.3999 43.3188 47.2088C43.428 47.0177 43.4819 46.8 43.4744 46.5801C43.4829 46.4319 43.4569 46.2838 43.3984 46.1473C43.3399 46.0109 43.2504 45.8899 43.1371 45.7938C42.9118 45.6108 42.5311 45.4558 41.9965 45.3748L39.8692 44.9949C39.0099 44.8398 38.3759 44.587 37.9827 44.2211C37.5894 43.8552 37.3907 43.351 37.3907 42.7183C37.3907 41.8887 37.7 41.242 38.334 40.7923C38.9679 40.3425 39.8552 40.1177 41.0238 40.1177C42.1224 40.1177 42.9677 40.3565 43.5597 40.816C44.1517 41.2755 44.447 41.9543 44.461 42.8398H43.249C43.2071 42.2923 42.9957 41.8845 42.6305 41.6317C42.2652 41.3789 41.6858 41.2378 40.9399 41.2378C40.1939 41.2378 39.6439 41.3509 39.2604 41.5898C39.0805 41.6892 38.9316 41.8362 38.8299 42.0146C38.7281 42.1929 38.6776 42.3958 38.6838 42.601C38.6776 42.7418 38.7044 42.8821 38.762 43.0109C38.8195 43.1396 38.9063 43.2532 39.0155 43.3426C39.2408 43.5102 39.6355 43.6652 40.2135 43.7784L42.0944 44.1624C43.0951 44.3594 43.7851 44.6261 44.1797 44.9781C44.5744 45.3301 44.7703 45.8357 44.7703 46.4963C44.7703 47.3538 44.4466 48.0145 43.799 48.4782C43.1511 48.9558 42.2218 49.1765 41.0378 49.1765C39.7573 49.1765 38.7846 48.9097 38.1226 48.3888C37.4607 47.8678 37.1094 47.0815 37.0954 46.0424" fill="#DBE6FF"/>
<path d="M59.8032 48.6602C59.5026 48.8349 59.1771 48.9575 58.8391 49.0234C58.4153 49.1036 57.9851 49.1413 57.5544 49.1361C56.1767 49.1361 55.0929 48.7298 54.2897 47.9172C53.4864 47.1045 53.0848 46.0136 53.0848 44.6262C53.0848 43.2389 53.4838 42.1479 54.2897 41.3353C55.0955 40.5226 56.19 40.1177 57.5678 40.1177C58.9455 40.1177 60.0306 40.524 60.8339 41.3353C61.6371 42.1465 62.0387 43.2542 62.0387 44.6262C62.0436 45.293 61.9253 45.9545 61.6903 46.5743C61.4791 47.1412 61.1336 47.6426 60.6863 48.0313L61.7967 48.9552L61.1411 49.8236L59.8032 48.6602ZM58.8391 47.8253L57.9827 47.0906L58.6117 46.2557L59.8165 47.2771C60.1572 46.9884 60.4203 46.612 60.5799 46.1847C60.7616 45.6937 60.8519 45.1708 60.8458 44.6443C60.8458 43.5812 60.5519 42.7546 59.9761 42.166C59.4003 41.5774 58.5971 41.2699 57.5664 41.2699C56.5358 41.2699 55.7339 41.5635 55.1581 42.166C54.5822 42.7685 54.2883 43.5951 54.2883 44.6443C54.2883 45.6935 54.5822 46.5493 55.1581 47.1379C55.7339 47.7265 56.5637 48.0201 57.6342 48.0201C57.8623 48.0218 58.0902 48.0078 58.3165 47.9784C58.4942 47.9431 58.6687 47.8914 58.8378 47.8239" fill="#DBE6FF"/>
<path d="M78.0283 40.7647V45.9076C78.0283 46.9804 77.7019 47.7829 77.0434 48.3459C76.385 48.9089 75.4437 49.1765 74.1831 49.1765C72.9225 49.1765 71.9756 48.8956 71.3382 48.3459C70.7009 47.7963 70.3534 46.9804 70.3534 45.9076V40.7647H71.5718V45.4125C71.5718 46.3096 71.7842 46.9804 72.2091 47.4089C72.634 47.8375 73.2854 48.0518 74.1789 48.0518C75.0723 48.0518 75.7364 47.8375 76.1612 47.4089C76.5861 46.9804 76.7986 46.3229 76.7986 45.4258V40.778H78.0283V40.7647Z" fill="#DBE6FF"/>
<path d="M86.9823 48.5294V40.7647H93.3006V41.7686H88.0998V44.0555H92.975V45.072H88.0998V47.4864H93.3781V48.5294H86.9823Z" fill="#DBE6FF"/>
<path d="M101.693 48.5294V40.7647H102.903V43.9039H108.156V40.7647H109.367V48.5294H108.156V44.9204H102.903V48.5294H101.693Z" fill="#DBE6FF"/>
<path d="M117.042 48.5294L121.019 40.7647H122.267L125.996 48.5294H124.763L123.694 46.3183H119.415L118.291 48.5294H117.042ZM119.904 45.3018H123.195L121.591 41.9845L119.904 45.3018Z" fill="#DBE6FF"/>
<path d="M134.311 48.5294V40.7647H135.843L140.886 47.398V40.7647H141.986V48.5294H140.454L135.411 41.8961V48.5294H134.311Z" fill="#DBE6FF"/>
<path d="M150.94 48.5294V40.7647H152.601L158.063 47.398V40.7647H159.254V48.5294H157.595L152.131 41.8961V48.5294H150.94Z" fill="#DBE6FF"/>
<path d="M166.929 48.5294L170.906 40.7647H172.154L175.883 48.5294H174.649L173.579 46.3183H169.302L168.19 48.5294H166.929ZM169.791 45.3018H173.082L171.492 41.9845L169.791 45.3018Z" fill="#DBE6FF"/>
</svg>
