<svg width="198" height="55" viewBox="0 0 198 55" fill="none" xmlns="http://www.w3.org/2000/svg">
<path d="M13.4563 40.9499C14.0614 40.9095 14.6665 40.8435 15.2716 40.8371C17.4694 40.8201 18.4872 40.1346 19.1615 38.0571C20.3955 34.2638 21.5927 30.4556 22.8029 26.6538C24.1838 22.3113 25.5344 17.9603 26.9456 13.6284C28.8646 7.72351 34.4639 4.35811 40.9795 5.34794V14.1414L41.0097 14.1138C40.3981 14.1138 39.7887 14.1308 39.1771 14.1329C36.934 14.1329 35.9161 14.8354 35.2246 16.9683C33.8761 21.1363 32.56 25.3127 31.231 29.487C30.0013 33.3591 28.7803 37.2333 27.5421 41.1011C25.6619 46.9719 20.51 50.3054 14.2386 49.7669C13.5298 49.7051 13.5471 49.3305 13.5471 48.8494C13.5471 46.4866 13.5471 44.1223 13.5471 41.7567C13.5471 41.4778 13.506 41.1968 13.4844 40.9052L13.4563 40.9499Z" fill="#DBE6FF"/>
<path d="M14.0322 41.3901C11.555 41.3627 9.07771 41.3346 6.60045 41.3058C6.13786 41.3058 5.67527 41.3058 5.12621 41.3058V14.2353H14.0041C14.0504 14.5109 14.0814 14.7889 14.0971 15.0679C14.0971 23.5666 14.0971 32.0639 14.0971 40.5597C14.0813 40.8453 14.0495 41.1297 14.002 41.4118L14.0322 41.3901Z" fill="#DBE6FF"/>
<path d="M41.1097 14.2543C43.7384 14.2543 46.3664 14.2543 48.9937 14.2543C49.1117 14.2723 49.2276 14.3029 49.3398 14.3455V40.7647H41.0677C41.0457 40.377 41.0097 40.0359 41.0097 39.7054C41.0097 31.5586 41.0097 23.4117 41.0097 15.2649C41.0294 14.9192 41.0708 14.5752 41.1337 14.2353C41.126 14.242 41.118 14.2484 41.1097 14.2543Z" fill="#DBE6FF"/>
<path d="M148.287 23.7597C148.338 23.4386 148.409 22.9864 148.489 22.4709H151.116C151.163 22.5605 151.225 22.6216 151.223 22.6894C151.202 27.7134 151.236 32.7593 151.124 37.7898C151.069 40.3193 150.328 42.6762 147.797 43.7793C145.005 45.0004 142.148 45.0069 139.482 43.3228C138.275 42.5583 137.691 41.3263 137.497 39.7251C138.458 39.7251 139.306 39.6902 140.148 39.7492C140.348 39.7645 140.578 40.0637 140.702 40.2843C141.602 41.8527 142.968 42.4687 144.998 42.1563C146.672 41.9073 147.743 40.9069 148.059 39.131C148.25 38.0716 148.274 36.9816 148.388 35.8327C148.173 35.8785 148.038 35.8654 147.99 35.9222C147.387 36.6378 146.629 37.2007 145.774 37.5662C144.92 37.9317 143.994 38.0898 143.069 38.0279C142.145 37.966 141.247 37.6858 140.447 37.2096C139.647 36.7334 138.968 36.0742 138.462 35.2844C136.582 32.4163 136.703 27.4491 138.72 24.6706C139.509 23.5547 140.629 22.7259 141.916 22.3063C143.203 21.8867 144.588 21.8985 145.868 22.3399C146.736 22.6413 147.49 23.2792 148.287 23.7597ZM148.45 29.9939C148.354 29.1835 148.315 28.3469 148.145 27.5387C147.776 25.7672 146.813 24.8169 145.28 24.6029C143.286 24.3233 141.826 24.9414 141.02 26.5688C140.492 27.582 140.203 28.7062 140.176 29.8525C140.148 30.9988 140.383 32.136 140.861 33.1743C141.607 34.8649 143.067 35.6404 144.861 35.4416C146.654 35.2429 147.716 34.2905 148.13 32.3835C148.298 31.6081 148.345 30.8086 148.45 29.9939Z" fill="#DBE6FF"/>
<path d="M80.8317 22.5029C79.9042 22.5029 79.0219 22.541 78.146 22.4754C77.9313 22.4606 77.6371 22.1562 77.532 21.9194C76.4177 19.4332 73.0471 18.4142 70.662 19.8645C68.9702 20.8919 68.9166 23.4965 70.662 24.4204C71.7354 24.9912 72.9999 25.2407 74.17 25.6614C75.6384 26.1879 77.1541 26.6318 78.5517 27.3062C82.4375 29.1814 82.1134 34.8114 78.8244 36.8537C75.9712 38.6232 70.881 38.6464 68.1072 36.748C66.4949 35.6444 65.6297 34.1116 65.3592 32.0504C66.3167 32.0504 67.1647 32.0038 67.9999 32.0799C68.2467 32.1032 68.5623 32.4309 68.6761 32.6931C69.9342 35.5493 74.0776 36.7564 76.7569 35.0186C78.5603 33.8495 78.6183 30.9784 76.7269 29.8432C75.5933 29.1645 74.2365 28.8432 72.972 28.3865C71.6023 27.8918 70.1617 27.5409 68.8565 26.9236C64.9685 25.0737 65.6555 20.0463 68.2403 18.2133C70.8938 16.3317 76.0055 16.3465 78.5603 18.3444C79.2176 18.8384 79.7603 19.465 80.152 20.1821C80.5437 20.8993 80.7754 21.6905 80.8317 22.5029Z" fill="#DBE6FF"/>
<path d="M163.544 28.6536C163.899 25.5153 162.373 24.1101 159.433 24.8283C158.71 25.044 158.099 25.519 157.723 26.1566C157.366 26.8354 157.026 27.0741 156.298 27.0118C155.742 26.9641 155.178 27.0118 154.616 27.0118C154.701 24.9777 155.842 23.3379 157.862 22.9373C159.521 22.6084 161.225 22.5586 162.901 22.79C165.337 23.149 166.534 24.7639 166.577 27.2754C166.624 29.4756 166.59 31.6778 166.592 33.8801V37.7865C165.921 37.7865 165.128 37.9484 164.47 37.7304C164.042 37.5893 163.816 36.9002 163.468 36.402C161.92 38.1809 159.728 38.4507 157.364 37.9588C156.432 37.7821 155.584 37.3173 154.947 36.6337C154.31 35.9502 153.918 35.0846 153.829 34.1666C153.579 32.0473 154.419 30.2768 156.409 29.5483C157.836 29.0252 159.428 28.8902 160.963 28.6806C161.777 28.5561 162.632 28.6536 163.544 28.6536ZM163.679 30.4387C161.769 30.6629 160.046 30.7459 158.373 31.105C157.247 31.3478 156.757 32.3732 156.823 33.5293C156.831 34.051 157.016 34.5557 157.348 34.9653C157.681 35.375 158.143 35.6669 158.663 35.7959C161.085 36.4746 163.151 35.2417 163.542 32.8547C163.649 32.1822 163.624 31.4931 163.679 30.4346V30.4387Z" fill="#DBE6FF"/>
<path d="M125.592 30.9813H114.696C114.432 34.4116 116.608 36.6482 119.621 36.0436C120.336 35.9019 121.221 35.4391 121.57 34.8456C122.128 33.8756 122.828 33.8136 123.713 33.8668C124.166 33.8934 124.622 33.8668 125.194 33.8668C124.698 35.5321 123.856 36.759 122.544 37.6315C118.615 40.2491 113.384 38.3689 112.007 33.8159C111.248 31.3777 111.335 28.7462 112.254 26.3661C113.382 23.3832 116.012 21.7843 119.286 22.0235C122.412 22.2449 124.549 24.1029 125.231 27.3051C125.458 28.4389 125.462 29.6215 125.592 30.9813ZM122.392 28.791C122.358 25.9432 120.877 24.3155 118.465 24.3908C116.222 24.4594 114.705 26.2576 114.798 28.791H122.392Z" fill="#DBE6FF"/>
<path d="M181.962 30.9744C181.903 34.573 183.936 36.6369 186.927 36.0479C187.731 35.882 188.452 35.4326 188.962 34.7789C189.482 34.0149 189.996 33.7846 190.821 33.8644C191.352 33.9175 191.891 33.8644 192.538 33.8644C192.055 35.605 191.134 36.8673 189.708 37.7376C185.641 40.24 180.53 38.2336 179.233 33.6052C178.5 31.1144 178.654 28.4402 179.668 26.0537C180.835 23.27 183.449 21.7841 186.633 22.0254C189.654 22.2469 191.685 23.9122 192.468 26.9107C192.714 27.8585 192.734 28.8661 192.853 29.8472C192.956 30.671 192.684 31.0054 191.78 30.9855C188.921 30.9234 186.058 30.9633 183.196 30.9633L181.962 30.9744ZM182.051 28.7709H189.758C189.661 26.0249 188.32 24.4437 186.106 24.3928C183.706 24.3374 182.232 25.8964 182.051 28.7709Z" fill="#DBE6FF"/>
<path d="M110.854 22.6909C109.894 25.3683 108.996 27.8777 108.087 30.385C107.264 32.6642 106.397 34.9283 105.62 37.2225C105.369 37.9672 104.995 38.1888 104.239 38.1759C102.025 38.1415 102.023 38.1759 101.287 36.0237C99.8975 31.9776 98.509 27.9322 97.1213 23.8875C96.9978 23.5259 96.8935 23.1579 96.7573 22.7253H99.9245C101.178 26.7908 102.432 30.8628 103.756 35.1564C104.26 33.5379 104.68 32.1283 105.141 30.7336C105.927 28.3662 106.77 26.016 107.525 23.6314C107.757 22.8975 108.081 22.5682 108.864 22.6629C109.527 22.7088 110.191 22.7182 110.854 22.6909Z" fill="#DBE6FF"/>
<path d="M170.964 24.9711H168.524V22.615H170.924V18.1177H173.792V22.5651H176.952V24.9234H173.819C173.819 25.7521 173.819 26.4572 173.819 27.1601C173.819 29.4966 173.838 31.8332 173.798 34.1697C173.781 35.1699 174.122 35.645 175.133 35.5756C175.889 35.5235 176.651 35.5756 177.495 35.5756V38.1399C176.033 38.1399 174.615 38.2375 173.213 38.1139C171.858 37.9924 170.978 36.771 170.966 35.1937C170.941 32.2454 170.966 29.2992 170.966 26.3509L170.964 24.9711Z" fill="#DBE6FF"/>
<path d="M94.1942 38.1765H91.6311V16.8235H94.1942V38.1765Z" fill="#DBE6FF"/>
<path d="M128.155 23.0184H130.765V25.4846C131.621 24.7097 132.306 23.7911 133.223 23.3382C134.139 22.8853 135.312 22.8724 136.485 22.647V25.5941C136.13 25.5941 135.758 25.5941 135.385 25.5941C132.681 25.637 131.054 27.1867 130.988 29.902C130.928 32.3918 130.971 34.8838 130.964 37.3758C130.964 37.6183 130.926 37.8609 130.898 38.1764H128.155V23.0184Z" fill="#DBE6FF"/>
<path d="M84.5825 22.647H87.7864V38.1764H84.5825V22.647Z" fill="#DBE6FF"/>
<path d="M84.5825 20.0588V16.8235H87.7864V20.0588H84.5825Z" fill="#DBE6FF"/>
</svg>
