<svg width="1920" height="532" viewBox="0 0 1920 532" fill="none" xmlns="http://www.w3.org/2000/svg">
<g clip-path="url(#clip0_568_2347)">
<rect width="1920" height="532" fill="#0052FF"/>
<g clip-path="url(#clip1_568_2347)">
<path d="M333.093 408.088L333.092 408.086C330.05 405.063 328.24 401.024 328.01 396.748C327.782 392.506 329.125 388.328 331.784 385.01C332.257 384.618 332.716 384.215 333.179 383.754L332.473 383.046L333.179 383.754L491.242 226.11L490.535 225.402L491.242 226.11C492.857 224.498 494.775 223.22 496.886 222.348C498.997 221.476 501.26 221.027 503.545 221.027C505.83 221.027 508.093 221.476 510.204 222.348C512.315 223.22 514.233 224.498 515.848 226.11L516.555 225.402L515.848 226.11L673.911 383.754L857.82 567.176L857.821 567.177C861.083 570.422 862.92 574.825 862.93 579.419C862.94 584.013 861.123 588.423 857.876 591.683C857.876 591.683 857.876 591.683 857.876 591.684L515.763 932.918C512.497 936.166 508.072 937.991 503.459 937.991C498.845 937.991 494.421 936.166 491.155 932.918L333.093 775.275C331.477 773.664 330.196 771.752 329.322 769.647C328.448 767.542 327.998 765.286 327.998 763.008C327.998 760.73 328.448 758.475 329.322 756.37C330.196 754.265 331.477 752.353 333.093 750.742L332.387 750.034L333.093 750.742L491.156 593.098C492.957 591.301 494.386 589.168 495.362 586.82C496.337 584.473 496.839 581.956 496.839 579.414C496.839 576.873 496.337 574.356 495.362 572.009C494.386 569.661 492.957 567.528 491.156 565.731L333.093 408.088Z" stroke="url(#paint0_linear_568_2347)" stroke-width="2"/>
</g>
<g clip-path="url(#clip2_568_2347)">
<path d="M332.088 384.907L332.086 384.908C329.063 387.95 325.024 389.76 320.748 389.99C316.506 390.218 312.328 388.875 309.01 386.216C308.618 385.743 308.215 385.284 307.754 384.821L307.046 385.527L307.754 384.821L150.11 226.759L149.402 227.465L150.11 226.758C148.498 225.143 147.22 223.225 146.348 221.114C145.475 219.003 145.027 216.74 145.027 214.455C145.027 212.17 145.475 209.907 146.348 207.796C147.22 205.685 148.498 203.767 150.11 202.152L149.402 201.445L150.11 202.152L307.754 44.0894L491.176 -139.82L491.177 -139.821C494.422 -143.083 498.825 -144.92 503.419 -144.93C508.013 -144.94 512.423 -143.123 515.683 -139.876C515.683 -139.876 515.683 -139.876 515.684 -139.876L856.918 202.237C860.166 205.503 861.991 209.928 861.991 214.541C861.991 219.155 860.166 223.579 856.918 226.845L699.275 384.907C697.664 386.523 695.752 387.804 693.647 388.678C691.542 389.552 689.286 390.002 687.008 390.002C684.73 390.002 682.475 389.552 680.37 388.678C678.265 387.804 676.353 386.523 674.742 384.907L674.034 385.613L674.742 384.907L517.098 226.844C515.301 225.043 513.168 223.614 510.82 222.639C508.473 221.663 505.956 221.161 503.414 221.161C500.873 221.161 498.356 221.663 496.009 222.639C493.661 223.614 491.528 225.043 489.731 226.844L332.088 384.907Z" stroke="url(#paint1_linear_568_2347)" stroke-width="2"/>
</g>
<g clip-path="url(#clip3_568_2347)">
<path d="M-399.912 383.907L-399.914 383.908C-402.937 386.95 -406.976 388.76 -411.252 388.99C-415.494 389.218 -419.672 387.875 -422.99 385.216C-423.382 384.743 -423.785 384.284 -424.246 383.821L-424.954 384.527L-424.246 383.821L-581.89 225.759L-582.598 226.465L-581.89 225.758C-583.502 224.143 -584.78 222.225 -585.652 220.114C-586.525 218.003 -586.973 215.74 -586.973 213.455C-586.973 211.17 -586.525 208.907 -585.652 206.796C-584.78 204.685 -583.502 202.767 -581.89 201.152L-582.598 200.445L-581.89 201.152L-424.246 43.0894L-240.824 -140.82L-240.823 -140.821C-237.578 -144.083 -233.175 -145.92 -228.581 -145.93C-223.987 -145.94 -219.577 -144.123 -216.317 -140.876C-216.317 -140.876 -216.317 -140.876 -216.316 -140.876L124.918 201.237C128.166 204.503 129.991 208.928 129.991 213.541C129.991 218.155 128.166 222.579 124.918 225.845L-32.7246 383.907C-34.3358 385.523 -36.2482 386.804 -38.3529 387.678C-40.4576 388.552 -42.7136 389.002 -44.9917 389.002C-47.2698 389.002 -49.5255 388.552 -51.6301 387.678C-53.7349 386.804 -55.6473 385.523 -57.2584 383.907L-57.9665 384.613L-57.2584 383.907L-214.902 225.844C-216.699 224.043 -218.832 222.614 -221.18 221.639C-223.527 220.663 -226.044 220.161 -228.586 220.161C-231.127 220.161 -233.644 220.663 -235.991 221.639C-238.339 222.614 -240.472 224.043 -242.269 225.844L-399.912 383.907Z" stroke="url(#paint2_linear_568_2347)" stroke-width="2"/>
</g>
<g clip-path="url(#clip4_568_2347)">
<path d="M-398.907 407.088L-398.908 407.086C-401.95 404.063 -403.76 400.024 -403.99 395.748C-404.218 391.506 -402.875 387.328 -400.216 384.01C-399.743 383.618 -399.283 383.215 -398.821 382.754L-399.527 382.046L-398.821 382.754L-240.758 225.11L-241.465 224.402L-240.758 225.11C-239.143 223.498 -237.225 222.22 -235.114 221.348C-233.003 220.476 -230.74 220.027 -228.455 220.027C-226.17 220.027 -223.907 220.476 -221.796 221.348C-219.685 222.22 -217.767 223.498 -216.152 225.11L-215.445 224.402L-216.152 225.11L-58.0893 382.754L125.82 566.176L125.821 566.177C129.083 569.422 130.92 573.825 130.93 578.419C130.94 583.013 129.123 587.423 125.877 590.683C125.876 590.683 125.876 590.683 125.876 590.684L-216.237 931.918C-219.503 935.166 -223.928 936.991 -228.541 936.991C-233.154 936.991 -237.579 935.166 -240.845 931.918L-398.907 774.275C-400.522 772.664 -401.804 770.752 -402.678 768.647C-403.552 766.542 -404.002 764.286 -404.002 762.008C-404.002 759.73 -403.552 757.475 -402.678 755.37C-401.804 753.265 -400.522 751.353 -398.907 749.742L-399.613 749.034L-398.907 749.742L-240.844 592.098C-239.043 590.301 -237.614 588.168 -236.638 585.82C-235.663 583.473 -235.161 580.956 -235.161 578.414C-235.161 575.873 -235.663 573.356 -236.638 571.009C-237.614 568.661 -239.043 566.528 -240.844 564.731L-398.907 407.088Z" stroke="url(#paint3_linear_568_2347)" stroke-width="2"/>
</g>
<g clip-path="url(#clip5_568_2347)">
<path d="M-33.9068 407.088L-33.908 407.086C-36.9496 404.063 -38.7599 400.024 -38.99 395.748C-39.2184 391.506 -37.8746 387.328 -35.2163 384.01C-34.7425 383.618 -34.2835 383.215 -33.8207 382.754L-34.5269 382.046L-33.8207 382.754L124.242 225.11L123.535 224.402L124.242 225.11C125.857 223.498 127.775 222.22 129.886 221.348C131.997 220.476 134.26 220.027 136.545 220.027C138.83 220.027 141.093 220.476 143.204 221.348C145.315 222.22 147.233 223.498 148.848 225.11L149.555 224.402L148.848 225.11L306.911 382.754L490.82 566.176L490.821 566.177C494.083 569.422 495.92 573.825 495.93 578.419C495.94 583.013 494.123 587.423 490.877 590.683C490.876 590.683 490.876 590.683 490.876 590.684L148.763 931.918C145.497 935.166 141.072 936.991 136.459 936.991C131.846 936.991 127.421 935.166 124.155 931.918L-33.9068 774.275C-35.5225 772.664 -36.8039 770.752 -37.6782 768.647C-38.5524 766.542 -39.0022 764.286 -39.0022 762.008C-39.0022 759.73 -38.5524 757.475 -37.6782 755.37C-36.8039 753.265 -35.5225 751.353 -33.9068 749.742L-34.6129 749.034L-33.9068 749.742L124.156 592.098C125.957 590.301 127.386 588.168 128.362 585.82C129.337 583.473 129.839 580.956 129.839 578.414C129.839 575.873 129.337 573.356 128.362 571.009C127.386 568.661 125.957 566.528 124.156 564.731L-33.9068 407.088Z" stroke="white" stroke-width="2"/>
</g>
</g>
<defs>
<linearGradient id="paint0_linear_568_2347" x1="864" y1="580" x2="327" y2="580" gradientUnits="userSpaceOnUse">
<stop stop-color="white" stop-opacity="0"/>
<stop offset="1" stop-color="white"/>
</linearGradient>
<linearGradient id="paint1_linear_568_2347" x1="589.5" y1="132" x2="472.5" y2="565" gradientUnits="userSpaceOnUse">
<stop stop-color="white" stop-opacity="0"/>
<stop offset="1" stop-color="white"/>
</linearGradient>
<linearGradient id="paint2_linear_568_2347" x1="-253.5" y1="55.5001" x2="-25.5001" y2="539" gradientUnits="userSpaceOnUse">
<stop stop-color="white" stop-opacity="0"/>
<stop offset="1" stop-color="white"/>
</linearGradient>
<linearGradient id="paint3_linear_568_2347" x1="132" y1="579" x2="-405" y2="579" gradientUnits="userSpaceOnUse">
<stop stop-color="white"/>
<stop offset="1" stop-color="white" stop-opacity="0"/>
</linearGradient>
<clipPath id="clip0_568_2347">
<rect width="1920" height="532" fill="white"/>
</clipPath>
<clipPath id="clip1_568_2347">
<rect width="537" height="719" fill="white" transform="translate(326 219)"/>
</clipPath>
<clipPath id="clip2_568_2347">
<rect width="537" height="719" fill="white" transform="translate(143 391) rotate(-90)"/>
</clipPath>
<clipPath id="clip3_568_2347">
<rect width="537" height="719" fill="white" transform="translate(-588 390) rotate(-90)"/>
</clipPath>
<clipPath id="clip4_568_2347">
<rect width="537" height="719" fill="white" transform="translate(-405 219)"/>
</clipPath>
<clipPath id="clip5_568_2347">
<rect width="537" height="719" fill="white" transform="translate(-40 219)"/>
</clipPath>
</defs>
</svg>
