<svg width="43" height="43" viewBox="0 0 43 43" fill="none" xmlns="http://www.w3.org/2000/svg">
<g filter="url(#filter0_d_1139_1591)">
<path d="M28.4328 23.2883C28.4328 23.8643 28.4328 24.399 28.4328 24.9342C28.4328 25.3354 28.2747 25.4923 27.8748 25.4928C27.205 25.4928 26.5342 25.4882 25.8644 25.4956C25.5871 25.4988 25.4179 25.3845 25.319 25.1284C25.1003 24.5647 24.8664 24.0066 24.6477 23.443C24.6015 23.3232 24.54 23.2841 24.412 23.2846C21.022 23.288 17.6321 23.288 14.2421 23.2846C14.1132 23.2846 14.0526 23.3255 14.0069 23.4443C13.791 24.0006 13.5668 24.5542 13.3426 25.1077C13.2168 25.418 13.1041 25.4919 12.7661 25.4923C12.1036 25.4923 11.441 25.4923 10.7784 25.4923C10.3785 25.4923 10.2237 25.3354 10.2237 24.9328C10.2237 24.3976 10.2237 23.8629 10.2237 23.2878C10.085 23.2878 9.95741 23.2878 9.83029 23.2878C8.77124 23.2759 8.00434 22.5208 8.00388 21.4739C8.00172 15.9201 8.00172 10.3663 8.00388 4.81255C8.00388 3.76559 8.7754 3.00184 9.83075 3.00138C16.1635 2.99954 22.4965 2.99954 28.8299 3.00138C29.8847 3.00138 30.6549 3.76605 30.6549 4.81393C30.6577 10.3677 30.6577 15.9215 30.6549 21.4753C30.6549 22.5135 29.8931 23.2713 28.852 23.2874C28.7175 23.2883 28.5886 23.2883 28.4328 23.2883ZM11.5541 18.4326C11.5541 18.8039 11.5541 19.1321 11.5541 19.4603C11.5541 19.76 11.5541 19.7609 11.8527 19.7609H26.8051C27.1005 19.7609 27.101 19.7609 27.101 19.4575V6.83532C27.101 6.52872 27.101 6.52825 26.7866 6.52825H11.879C11.8406 6.53055 11.802 6.53055 11.7635 6.52825C11.6063 6.50898 11.5421 6.56773 11.5499 6.73251C11.5615 6.97669 11.5527 7.22179 11.5527 7.46689C11.5527 7.84464 11.5527 7.84464 11.9257 7.85336C12.2761 7.86162 12.4375 8.01538 12.4389 8.35825C12.4422 9.19942 12.4422 10.0409 12.4389 10.8827C12.4389 11.21 12.2706 11.3697 11.9373 11.3802C11.8176 11.3839 11.6974 11.3802 11.5726 11.3802V14.9057C11.7219 14.9057 11.8499 14.8998 11.9826 14.9057C12.26 14.9209 12.4347 15.082 12.4365 15.3542C12.443 16.2336 12.443 17.1132 12.4365 17.9929C12.4342 18.2573 12.2632 18.4147 11.9969 18.4276C11.8596 18.4367 11.7228 18.4312 11.5527 18.4312L11.5541 18.4326ZM8.88403 18.4482V21.3706C8.88403 22.0674 9.23165 22.4111 9.93661 22.4111H17.0781C20.9689 22.4111 24.8596 22.4111 28.7503 22.4111C29.3906 22.4111 29.7701 22.0577 29.7701 21.4537C29.7701 15.9152 29.7701 10.3767 29.7701 4.83826C29.7701 4.24983 29.3943 3.87851 28.7993 3.87851C22.4817 3.87851 16.1641 3.87851 9.84647 3.87851C9.25477 3.87851 8.88449 4.25166 8.88311 4.84238C8.88064 5.76771 8.88064 6.69319 8.88311 7.61881C8.88311 7.68629 8.88911 7.75376 8.89281 7.83271C8.96261 7.83959 9.02225 7.85061 9.08188 7.85107C9.53629 7.85107 9.99116 7.84464 10.4451 7.8552C10.6194 7.85979 10.6707 7.80379 10.6674 7.63351C10.6573 7.13642 10.6596 6.63887 10.6674 6.14179C10.6716 5.81223 10.8371 5.65618 11.1709 5.64654C11.2092 5.64654 11.2476 5.64654 11.2864 5.64654H27.3733C27.4347 5.64654 27.4967 5.64424 27.5582 5.64929C27.8115 5.67132 27.9636 5.82233 27.9867 6.07661C27.9932 6.15234 27.9908 6.22945 27.9908 6.3061V19.984C27.9908 20.0607 27.9932 20.1373 27.9862 20.2135C27.9626 20.4673 27.8101 20.6183 27.5559 20.6371C27.4634 20.644 27.3709 20.6404 27.2785 20.6404H13.062C12.4301 20.6404 11.7986 20.6436 11.1667 20.6404C10.8329 20.6376 10.6707 20.477 10.6661 20.1451C10.6596 19.7017 10.6661 19.2579 10.6661 18.814V18.4468L8.88403 18.4482ZM10.6494 14.8943V11.3958H8.8979V14.8943H10.6494ZM8.89836 10.4701C8.9229 10.4815 8.94886 10.4897 8.97556 10.4944C9.78267 10.4944 10.5898 10.4944 11.3969 10.5004C11.5402 10.5004 11.5568 10.4242 11.5559 10.3113C11.5559 9.85226 11.549 9.39327 11.5559 8.93703C11.5592 8.77226 11.4972 8.73003 11.341 8.73141C10.6416 8.73783 9.94215 8.73416 9.24228 8.73416H8.89605L8.89836 10.4701ZM11.555 17.5426C11.555 17.0097 11.5476 16.5067 11.5587 16.0036C11.5629 15.8242 11.4926 15.7875 11.3276 15.7893C10.5815 15.7962 9.83537 15.7916 9.08927 15.793C9.02626 15.7961 8.96346 15.8025 8.90113 15.8122V17.5426H11.555ZM13.1087 23.3094H11.1209V24.6166C11.5832 24.6166 12.0279 24.6193 12.4726 24.6129C12.5006 24.6103 12.5277 24.6014 12.5517 24.5869C12.5758 24.5723 12.5961 24.5525 12.6113 24.5289C12.7809 24.1287 12.9395 23.7262 13.1073 23.308L13.1087 23.3094ZM27.5364 24.6166V23.3016H25.5427C25.7165 23.733 25.8788 24.1425 26.0512 24.5482C26.0655 24.5826 26.1358 24.6129 26.1806 24.6138C26.6225 24.6193 27.0672 24.6152 27.5351 24.6152L27.5364 24.6166Z" fill="#0A0B0D"/>
<path d="M27.5353 24.6158C27.0675 24.6158 26.6228 24.6158 26.1777 24.613C26.1314 24.613 26.0626 24.5818 26.0482 24.5474C25.8776 24.1417 25.7154 23.7322 25.5397 23.3008H27.5335L27.5353 24.6158Z" fill="white"/>
<path d="M19.3208 7.85255C22.2618 7.84796 24.6558 10.226 24.654 13.1493C24.6513 14.5498 24.0897 15.8922 23.0921 16.8825C22.0946 17.8727 20.7425 18.43 19.3319 18.4323C18.6315 18.4326 17.9379 18.2958 17.2907 18.0298C16.6435 17.7638 16.0554 17.3737 15.5601 16.882C15.0649 16.3902 14.672 15.8063 14.4041 15.1637C14.1362 14.5211 13.9985 13.8324 13.9988 13.1369C14.0018 11.7363 14.5635 10.394 15.5609 9.40365C16.5584 8.4133 17.9103 7.85558 19.3208 7.85255ZM19.3264 10.9416C18.7394 10.9415 18.1764 11.1725 17.7605 11.5837C17.3446 11.995 17.1098 12.5532 17.1075 13.136C17.1063 13.7192 17.3375 14.2792 17.7508 14.6936C18.164 15.108 18.7256 15.3432 19.313 15.3479C19.6058 15.3492 19.8961 15.293 20.167 15.1826C20.4379 15.0722 20.6842 14.9096 20.8917 14.7044C21.0991 14.4991 21.2636 14.2552 21.3758 13.9866C21.488 13.718 21.5456 13.43 21.5453 13.1392C21.5438 12.5558 21.3094 11.9969 20.8934 11.5849C20.4775 11.1729 19.9139 10.9415 19.3264 10.9416ZM17.4861 10.6455C18.7148 9.85329 19.9477 9.86063 21.1546 10.6382L22.0847 9.71605C20.5394 8.34918 17.9243 8.46346 16.5602 9.73395L17.4861 10.6455ZM15.8816 10.3986C14.5503 11.8609 14.5507 14.4303 15.9167 15.9312C16.1737 15.6678 16.4252 15.3993 16.6887 15.1464C16.8057 15.0348 16.8094 14.9628 16.7234 14.8214C16.0355 13.6982 16.0443 12.5723 16.7322 11.4469C16.7627 11.3964 16.7899 11.3441 16.8001 11.3257L15.8816 10.3986ZM22.773 15.8986C24.133 14.3211 24.0614 11.8467 22.7832 10.4022C22.4777 10.707 22.1712 11.0127 21.8536 11.3285C22.6436 12.5283 22.6339 13.7611 21.8434 14.9738L22.773 15.8986ZM21.1708 15.6421C19.9491 16.4292 18.7074 16.4283 17.5014 15.6535C17.1815 15.9689 16.8736 16.2732 16.5671 16.5761C18.2248 17.999 20.8038 17.7612 22.0903 16.5527L21.1708 15.6421Z" fill="black"/>
<path d="M21.1709 15.6436L22.0903 16.5542C20.8039 17.7627 18.2249 17.9986 16.5672 16.5776C16.8737 16.2747 17.1816 15.9704 17.5014 15.655C18.7075 16.4298 19.9491 16.4307 21.1709 15.6436Z" fill="white"/>
<path d="M33.1047 17.877H24.6189C23.8147 17.877 23.1628 18.5243 23.1628 19.3228V27.7485C23.1628 28.547 23.8147 29.1943 24.6189 29.1943H33.1047C33.9089 29.1943 34.5609 28.547 34.5609 27.7485V19.3228C34.5609 18.5243 33.9089 17.877 33.1047 17.877Z" fill="white"/>
<path d="M30.1596 22.4383C30.1596 22.0964 30.0228 21.7686 29.7794 21.5269C29.536 21.2852 29.2058 21.1494 28.8615 21.1494C28.5174 21.1495 28.1873 21.2854 27.944 21.5271C27.7007 21.7688 27.564 22.0965 27.564 22.4383C27.5639 22.6658 27.6246 22.8892 27.7398 23.0859C27.8551 23.2825 28.0207 23.4453 28.2199 23.5577V25.9211H29.5175V23.5499C29.7129 23.4364 29.875 23.274 29.9877 23.079C30.1003 22.884 30.1596 22.6631 30.1596 22.4383Z" fill="black"/>
<path d="M32.9808 16.5462V17.8346H31.4554V16.5462C31.4549 15.8633 31.1814 15.2086 30.6951 14.7257C30.2088 14.2428 29.5493 13.9713 28.8616 13.9708C28.1732 13.9708 27.513 14.2424 27.0262 14.7257C26.5394 15.209 26.266 15.8645 26.266 16.5481V17.8364H24.7428V16.5481C24.7428 15.4634 25.1767 14.4231 25.9491 13.6561C26.7215 12.8891 27.7692 12.4581 28.8616 12.458C29.9537 12.4581 31.0011 12.8888 31.7735 13.6554C32.546 14.4221 32.9802 15.4618 32.9808 16.5462Z" fill="white"/>
<path d="M33.42 17.4668V16.5456C33.4186 15.3456 32.938 14.1952 32.0834 13.3467C31.2288 12.4982 30.0701 12.0209 28.8616 12.0195C27.6531 12.021 26.4946 12.4983 25.6401 13.3468C24.7856 14.1953 24.305 15.3457 24.3037 16.5456V17.4668C23.8622 17.5412 23.4614 17.7683 23.1722 18.1078C22.8831 18.4473 22.7242 18.8774 22.7236 19.3221V27.7477C22.7236 28.2468 22.9233 28.7255 23.2788 29.0784C23.6342 29.4313 24.1163 29.6296 24.6189 29.6296H33.1047C33.6074 29.6296 34.0895 29.4313 34.4449 29.0784C34.8003 28.7255 35 28.2468 35 27.7477V19.3221C34.9995 18.8774 34.8406 18.4473 34.5514 18.1078C34.2622 17.7683 33.8615 17.5412 33.42 17.4668ZM31.0162 17.4402H26.7033V16.5456C26.7039 15.9779 26.9313 15.4337 27.3356 15.0323C27.7399 14.6308 28.288 14.405 28.8597 14.4044C29.4315 14.4049 29.9797 14.6307 30.3841 15.0321C30.7884 15.4336 31.0157 15.9779 31.0162 16.5456V17.4402ZM25.1801 16.5456C25.1811 15.5769 25.5691 14.6481 26.2589 13.9631C26.9487 13.278 27.8841 12.8927 28.8597 12.8916C29.8354 12.8927 30.7708 13.278 31.4607 13.9631C32.1507 14.6481 32.5387 15.5769 32.5398 16.5456V17.398H31.8927V16.5456C31.8918 15.7467 31.5718 14.9808 31.0029 14.4159C30.4339 13.851 29.6625 13.5332 28.8579 13.5324C28.0533 13.5332 27.2819 13.851 26.7129 14.4159C26.144 14.9808 25.824 15.7467 25.8231 16.5456V17.398H25.1783L25.1801 16.5456ZM34.1199 27.7477C34.1199 28.0156 34.0127 28.2724 33.822 28.4618C33.6313 28.6511 33.3726 28.7575 33.1029 28.7575H24.6189C24.3492 28.7575 24.0905 28.6511 23.8998 28.4618C23.7091 28.2724 23.6019 28.0156 23.6019 27.7477V19.3221C23.6019 19.0543 23.7091 18.7974 23.8998 18.608C24.0905 18.4187 24.3492 18.3123 24.6189 18.3123H33.1047C33.3744 18.3123 33.6331 18.4187 33.8238 18.608C34.0146 18.7974 34.1217 19.0543 34.1217 19.3221L34.1199 27.7477Z" fill="black"/>
</g>
<defs>
<filter id="filter0_d_1139_1591" x="0.5" y="0.75" width="42" height="42" filterUnits="userSpaceOnUse" color-interpolation-filters="sRGB">
<feFlood flood-opacity="0" result="BackgroundImageFix"/>
<feColorMatrix in="SourceAlpha" type="matrix" values="0 0 0 0 0 0 0 0 0 0 0 0 0 0 0 0 0 0 127 0" result="hardAlpha"/>
<feOffset dy="5.25"/>
<feGaussianBlur stdDeviation="3.75"/>
<feComposite in2="hardAlpha" operator="out"/>
<feColorMatrix type="matrix" values="0 0 0 0 0.278431 0 0 0 0 0.509804 0 0 0 0 1 0 0 0 0.25 0"/>
<feBlend mode="normal" in2="BackgroundImageFix" result="effect1_dropShadow_1139_1591"/>
<feBlend mode="normal" in="SourceGraphic" in2="effect1_dropShadow_1139_1591" result="shape"/>
</filter>
</defs>
</svg>
