<svg width="24" height="25" viewBox="0 0 24 25" fill="none" xmlns="http://www.w3.org/2000/svg">
<g clip-path="url(#clip0_1028_5208)">
<path d="M6.593 5.77854L6.23829 5.42237C5.88358 5.06621 5.3106 5.07534 4.96498 5.42237L4.95589 5.43151C4.60118 5.78767 4.60118 6.36301 4.95589 6.71004L5.3106 7.06621C5.6653 7.42237 6.2292 7.42237 6.5839 7.06621L6.593 7.05708C6.9477 6.71004 6.9477 6.12557 6.593 5.77854ZM3.8281 11.5868H2.90041C2.40018 11.5868 2 11.9886 2 12.4909V12.5C2 13.0023 2.40018 13.4041 2.90041 13.4041H3.81901C4.32833 13.4132 4.72851 13.0114 4.72851 12.5091V12.5C4.72851 11.9886 4.32833 11.5868 3.8281 11.5868ZM12.0136 2.5H12.0045C11.4952 2.5 11.095 2.90183 11.095 3.40411V4.28082C11.095 4.7831 11.4952 5.18493 11.9955 5.18493H12.0045C12.5139 5.19406 12.9141 4.79224 12.9141 4.28995V3.40411C12.9141 2.90183 12.5139 2.5 12.0136 2.5ZM19.0532 5.43151C18.6985 5.07534 18.1255 5.07534 17.7708 5.42237L17.4161 5.77854C17.0614 6.1347 17.0614 6.71004 17.4161 7.05708L17.4252 7.06621C17.7799 7.42237 18.3529 7.42237 18.6985 7.06621L19.0532 6.71004C19.4079 6.35388 19.4079 5.78767 19.0532 5.43151ZM17.407 19.2215L17.7617 19.5776C18.1164 19.9338 18.6894 19.9338 19.0441 19.5776C19.3988 19.2215 19.3988 18.6461 19.0441 18.29L18.6894 17.9338C18.3347 17.5776 17.7617 17.5868 17.4161 17.9338C17.0523 18.2991 17.0523 18.8653 17.407 19.2215ZM19.2806 12.4909V12.5C19.2806 13.0023 19.6808 13.4041 20.181 13.4041H21.0996C21.5998 13.4041 22 13.0023 22 12.5V12.4909C22 11.9886 21.5998 11.5868 21.0996 11.5868H20.181C19.6808 11.5868 19.2806 11.9886 19.2806 12.4909ZM12.0045 7.02055C8.99409 7.02055 6.54752 9.47717 6.54752 12.5C6.54752 15.5228 8.99409 17.9795 12.0045 17.9795C15.015 17.9795 17.4616 15.5228 17.4616 12.5C17.4616 9.47717 15.015 7.02055 12.0045 7.02055ZM11.9955 22.5H12.0045C12.5048 22.5 12.905 22.0982 12.905 21.5959V20.7192C12.905 20.2169 12.5048 19.8151 12.0045 19.8151H11.9955C11.4952 19.8151 11.095 20.2169 11.095 20.7192V21.5959C11.095 22.0982 11.4952 22.5 11.9955 22.5ZM4.95589 19.5685C5.3106 19.9247 5.88358 19.9247 6.23829 19.5685L6.593 19.2123C6.9477 18.8562 6.93861 18.2808 6.593 17.9338L6.5839 17.9247C6.2292 17.5685 5.65621 17.5685 5.3015 17.9247L4.94679 18.2808C4.60118 18.6461 4.60118 19.2123 4.95589 19.5685Z" fill="#1F1F21" fill-opacity="0.5"/>
</g>
<defs>
<clipPath id="clip0_1028_5208">
<rect width="24" height="24" fill="white" transform="translate(0 0.5)"/>
</clipPath>
</defs>
</svg>
