<?xml version="1.0" standalone="no"?>
<!DOCTYPE svg PUBLIC "-//W3C//DTD SVG 1.1//EN" "http://www.w3.org/Graphics/SVG/1.1/DTD/svg11.dtd" >
<!--
2013-9-30: Created.
-->
<svg>
<metadata>
Created by iconfont
</metadata>
<defs>

<font id="iconfont" horiz-adv-x="1024" >
  <font-face
    font-family="iconfont"
    font-weight="500"
    font-stretch="normal"
    units-per-em="1024"
    ascent="896"
    descent="-128"
  />
    <missing-glyph />
    
    <glyph glyph-name="chenggong" unicode="&#59111;" d="M957.81248 636.123429L533.730194 211.968a40.905143 40.905143 0 0 0-57.892571 0l-179.858286 179.785143a40.923429 40.923429 0 1 0 57.892572 57.892571l150.765714-150.893714 406.418286 406.363429A509.385143 509.385143 0 0 1 872.235337 748.306286C776.253623 843.611429 649.698194 896 515.298194 896h-3.474285C373.327909 894.994286 244.139337 841.398857 147.974766 745.014857 51.810194 648.722286-0.669806 520.429714 0.006766 383.853714 1.615909 101.668571 231.266194-128 511.915337-128c282.24 0 511.890286 229.668571 511.890286 511.945143 0 89.892571-22.985143 176.091429-65.974857 252.178286z"  horiz-adv-x="1024" />

    
    <glyph glyph-name="saoyisao" unicode="&#59110;" d="M250.4 810.4H49.6c-17.6 0-32 14.4-32 32s14.4 32 32 32h200.8c17.6 0 32-14.4 32-32s-14.4-32-32-32zM851.2 364H145.6a16.032 16.032 0 0 0-16 16c0 8.8 7.2 16 16 16H851.2c8.8 0 16-7.2 16-16s-7.2-16-16-16zM81.6 842.4V641.6c0-17.6-14.4-32-32-32s-32 14.4-32 32V842.4c0 17.6 14.4 32 32 32s32-14.4 32-32zM250.4-49.6H49.6c-17.6 0-32-14.4-32-32s14.4-32 32-32h200.8c17.6 0 32 14.4 32 32s-14.4 32-32 32zM81.6-81.6v200.8c0 17.6-14.4 32-32 32s-32-14.4-32-32v-200.8c0-17.6 14.4-32 32-32s32 14.4 32 32z m685.6 32h200.8c17.6 0 32-14.4 32-32s-14.4-32-32-32h-200.8c-17.6 0-32 14.4-32 32s14.4 32 32 32zM936-81.6v200.8c0 17.6 14.4 32 32 32s32-14.4 32-32v-200.8c0-17.6-14.4-32-32-32s-32 14.4-32 32zM767.2 810.4h200.8c17.6 0 32 14.4 32 32s-14.4 32-32 32h-200.8c-17.6 0-32-14.4-32-32s14.4-32 32-32zM936 842.4V641.6c0-17.6 14.4-32 32-32s32 14.4 32 32V842.4c0 17.6-14.4 32-32 32s-32-14.4-32-32z"  horiz-adv-x="1024" />

    
    <glyph glyph-name="jiazaigengduo" unicode="&#59109;" d="M711.616 469.312l-28.416 255.552 255.488-28.48-73.92-73.92A422.4 422.4 0 0 0 938.688 384 426.688 426.688 0 0 0 512-42.688a42.688 42.688 0 0 0 0 85.376A341.312 341.312 0 0 1 853.312 384a337.92 337.92 0 0 1-50.048 176.896l-91.648-91.52zM512 725.312A341.312 341.312 0 0 1 170.688 384c0-62.464 17.28-123.712 50.048-176.896l91.648 91.52 28.416-255.488-255.488 28.48 73.92 73.92A422.4 422.4 0 0 0 85.312 384 426.688 426.688 0 0 0 512 810.688a42.688 42.688 0 1 0 0-85.376z"  horiz-adv-x="1024" />

    
    <glyph glyph-name="shezhi" unicode="&#59108;" d="M697.762909 15.406545H318.277818a44.125091 44.125091 0 0 0-38.167273 22.062546L90.298182 366.173091a44.311273 44.311273 0 0 0 0 44.078545l189.812363 328.704a44.218182 44.218182 0 0 0 38.167273 22.016h379.485091c15.778909 0 30.347636-8.424727 38.167273-22.016l189.812363-328.704a44.311273 44.311273 0 0 0 0-44.078545l-189.812363-328.704a44.218182 44.218182 0 0 0-38.167273-22.062546z m-369.570909 61.44h359.610182l179.805091 311.435637-179.805091 311.389091H328.145455l-179.805091-311.389091L328.145455 76.8zM507.997091 252.276364a136.145455 136.145455 0 0 0-136.005818 136.005818 136.145455 136.145455 0 0 0 136.005818 136.005818 136.145455 136.145455 0 0 0 135.959273-136.005818 136.098909 136.098909 0 0 0-135.959273-135.959273z m0 210.618181c-41.146182 0-74.612364-33.512727-74.612364-74.612363s33.466182-74.612364 74.612364-74.612364a74.658909 74.658909 0 0 1 0 149.224727z"  horiz-adv-x="1024" />

    
    <glyph glyph-name="lazy-icon__open" unicode="&#59103;" d="M962.56 896H61.44C30.72 896 0 865.28 0 834.56v-896c0-35.84 30.72-66.56 61.44-66.56h896c35.84 0 61.44 30.72 61.44 61.44V834.56C1024 865.28 993.28 896 962.56 896z m35.84-962.56c0-20.48-15.36-40.96-40.96-40.96H61.44c-20.48 0-40.96 15.36-40.96 40.96V834.56c0 20.48 15.36 40.96 40.96 40.96h896c20.48 0 40.96-15.36 40.96-40.96v-901.12zM496.64 768c-158.72 0-296.96-87.04-368.64-225.28l-5.12-20.48 296.96-220.16-281.6-138.24 15.36-25.6c76.8-117.76 204.8-189.44 348.16-189.44 225.28 0 409.6 184.32 409.6 409.6s-189.44 409.6-414.72 409.6z m0-768c-112.64 0-220.16 51.2-286.72 143.36l302.08 148.48L184.32 537.6c61.44 112.64 179.2 179.2 312.32 179.2 199.68 0 358.4-158.72 358.4-358.4s-158.72-358.4-358.4-358.4zM512 537.6m-51.2 0a51.2 51.2 0 1 1 102.4 0 51.2 51.2 0 1 1-102.4 0Z"  horiz-adv-x="1024" />

    
    <glyph glyph-name="lazy-icon__taker-green-fill" unicode="&#59104;" d="M911.36 742.4C808.96 844.8 686.08 896 542.72 896c-102.4 0-204.8-30.72-286.72-92.16-71.68-51.2-133.12-112.64-174.08-194.56l-10.24-40.96L399.36 281.6 102.4 117.76l40.96-51.2c102.4-122.88 245.76-194.56 399.36-194.56 133.12 0 266.24 51.2 358.4 153.6s153.6 225.28 153.6 358.4-51.2 266.24-143.36 358.4zM614.4 486.4c-61.44 0-102.4 40.96-102.4 102.4s40.96 102.4 102.4 102.4 102.4-40.96 102.4-102.4-40.96-102.4-102.4-102.4z"  horiz-adv-x="1126" />

    
    <glyph glyph-name="lazy-icon__taker-green-unfill" unicode="&#59105;" d="M911.36 742.4C808.96 844.8 686.08 896 542.72 896c-102.4 0-204.8-30.72-286.72-92.16-71.68-51.2-133.12-112.64-174.08-194.56l-10.24-40.96L399.36 281.6 102.4 117.76l40.96-51.2c102.4-122.88 245.76-194.56 399.36-194.56 133.12 0 266.24 51.2 358.4 153.6s153.6 225.28 153.6 358.4-51.2 266.24-143.36 358.4z m-71.68-645.12C757.76 15.36 655.36-25.6 542.72-25.6c-102.4 0-204.8 40.96-276.48 112.64l317.44 174.08-389.12 337.92c30.72 51.2 71.68 92.16 122.88 122.88C471.04 834.56 706.56 803.84 839.68 670.72c71.68-71.68 112.64-174.08 112.64-286.72 0-112.64-40.96-215.04-112.64-286.72zM614.4 588.8m-102.4 0a102.4 102.4 0 1 1 204.8 0 102.4 102.4 0 1 1-204.8 0Z"  horiz-adv-x="1126" />

    
    <glyph glyph-name="lazy-icon__maker-green" unicode="&#59106;" d="M512 896C225.28 896 0 670.72 0 384s225.28-512 512-512 512 225.28 512 512-225.28 512-512 512z m256-563.2h-204.8v-204.8c0-30.72-20.48-51.2-51.2-51.2s-51.2 20.48-51.2 51.2v204.8h-204.8c-30.72 0-51.2 20.48-51.2 51.2s20.48 51.2 51.2 51.2h204.8v204.8c0 30.72 20.48 51.2 51.2 51.2s51.2-20.48 51.2-51.2v-204.8h204.8c30.72 0 51.2-20.48 51.2-51.2s-20.48-51.2-51.2-51.2z"  horiz-adv-x="1024" />

    
    <glyph glyph-name="lazy-icon__maker-default" unicode="&#59107;" d="M512 896C225.28 896 0 670.72 0 384s225.28-512 512-512 512 225.28 512 512-225.28 512-512 512z m0-921.6C286.72-25.6 102.4 158.72 102.4 384s184.32 409.6 409.6 409.6 409.6-184.32 409.6-409.6-184.32-409.6-409.6-409.6zM768 435.2h-204.8v204.8c0 30.72-20.48 51.2-51.2 51.2s-51.2-20.48-51.2-51.2v-204.8h-204.8c-30.72 0-51.2-20.48-51.2-51.2s20.48-51.2 51.2-51.2h204.8v-204.8c0-30.72 20.48-51.2 51.2-51.2s51.2 20.48 51.2 51.2v204.8h204.8c30.72 0 51.2 20.48 51.2 51.2s-20.48 51.2-51.2 51.2z"  horiz-adv-x="1024" />

    
    <glyph glyph-name="yiwancheng" unicode="&#59097;" d="M512 896a512 512 0 1 0 0-1024A512 512 0 0 0 512 896z m292.571429-219.428571C621.568 555.885714 462.409143 249.124571 462.409143 249.124571L315.977143 397.385143 219.428571 305.152A830.902857 830.902857 0 0 0 472.356571 91.428571C531.821714 203.337143 715.337143 432.274286 804.571429 452.754286c-14.409143 57.709714-22.528 166.034286 0 223.817143z"  horiz-adv-x="1024" />

    
    <glyph glyph-name="yiquxiao" unicode="&#59098;" d="M512 896a512 512 0 1 1 0-1024A512 512 0 0 1 512 896z m226.523429-647.68a64.292571 64.292571 0 1 0-90.843429-90.843429L512 293.741714l-135.68-136.265143a64.292571 64.292571 0 1 0-90.843429 90.843429L421.741714 384 285.476571 519.68a64.292571 64.292571 0 1 0 90.843429 90.843429L512 474.258286l135.68 136.265143a64.292571 64.292571 0 1 0 90.843429-90.843429L602.258286 384l136.265143-135.68z"  horiz-adv-x="1024" />

    
    <glyph glyph-name="daishoukuan" unicode="&#59099;" d="M1087.42656 292.942769l-438.744615-384.393846a154.939077 154.939077 0 0 0-194.56-0.472615L15.534868 291.918769a62.227692 62.227692 0 0 0 30.011077 100.982154s6.301538 2.363077 15.517538 2.363077H190.40256V795.884308C190.40256 853.385846 233.725637 896 291.227175 896h519.876923c57.422769 0 100.745846-42.535385 100.745847-100.194462v-400.462769h126.818461l1.181539 0.078769 1.181538-0.078769h1.496615v-0.157538a62.070154 62.070154 0 1 0 44.898462-102.242462zM691.374868 465.132308c22.921846 0 36.470154 17.880615 36.470154 40.96 0 23.000615-13.548308 39.227077-36.470154 39.227077H602.917022l91.372307 91.844923a42.062769 42.062769 0 0 1 0 59.392 41.747692 41.747692 0 0 1-59.234461 0L550.377945 611.643077 466.094868 696.241231a41.747692 41.747692 0 0 1-59.313231 0 42.062769 42.062769 0 0 1 0-59.392l91.293538-91.529846H410.798868c-22.921846 0-36.470154-16.226462-36.470154-39.305847 0-23.000615 13.548308-40.802462 36.470154-40.802461h90.190769v-50.097231H410.798868c-22.921846 0-36.470154-14.966154-36.470154-37.966769 0-23.079385 13.548308-42.220308 36.470154-42.220308h90.190769v-60.100923a48.836923 48.836923 0 0 1 50.097231-50.097231 48.836923 48.836923 0 0 1 50.09723 50.097231v60.100923h92.711385c23.000615 0 33.870769 15.36 33.870769 38.439385 0 29.932308-15.911385 41.747692-38.912 41.747692H601.184098V465.132308H691.374868z"  horiz-adv-x="1151" />

    
    <glyph glyph-name="daifangbi" unicode="&#59100;" d="M512 896a512 512 0 1 0 0-1024A512 512 0 0 0 512 896z m292.278857-680.228571H219.428571v-70.875429h584.850286v70.948571zM511.853714 676.571429a47.542857 47.542857 0 0 1-31.963428-12.068572L351.012571 543.524571a33.060571 33.060571 0 0 1-11.190857-24.137142c0-20.114286 19.309714-36.352 43.008-36.352l2.56 0.073142v-0.219428h57.636572v-196.242286h137.581714V482.889143h59.245714v0.146286h1.024c23.698286 0 43.008 16.237714 43.008 36.278857a33.865143 33.865143 0 0 1-11.044571 24.283428L543.670857 664.502857A46.518857 46.518857 0 0 1 511.853714 676.571429z"  horiz-adv-x="1024" />

    
    <glyph glyph-name="daishoubi" unicode="&#59101;" d="M512 896a512 512 0 1 0 0-1024A512 512 0 0 0 512 896z m292.571429-682.203429H219.428571v-71.168h585.142858v71.168zM576.950857 671.305143H447.049143v-191.780572h-63.122286v-0.146285h-1.024c-23.698286 0-43.008-16.310857-43.008-36.425143 0-9.362286 4.315429-17.846857 10.971429-24.356572l129.243428-121.417142c8.777143-7.972571 20.114286-12.288 31.890286-12.141715a47.396571 47.396571 0 0 1 31.963429 12.068572L672.914286 418.596571a33.426286 33.426286 0 0 1 11.190857 24.356572c0 20.114286-19.309714 36.425143-43.008 36.425143l-2.56-0.073143v0.219428h-61.586286V671.305143z"  horiz-adv-x="1024" />

    
    <glyph glyph-name="daifukuan" unicode="&#59102;" d="M512 896a512 512 0 1 1 0-1024A512 512 0 0 1 512 896z m207.140571-583.68h1.536c29.842286 0 54.052571-24.283429 54.052572-54.345143s-24.137143-54.418286-54.052572-54.418286H585.874286v-119.734857H585.874286l0.073143-2.779428a67.584 67.584 0 0 0-67.291429-67.803429 67.584 67.584 0 0 0-67.437714 67.803429l0.073143 2.779428V203.556571H314.148571a54.198857 54.198857 0 0 0-51.638857 54.418286c0 29.257143 22.893714 53.101714 51.638857 54.345143H451.218286V393.874286H314.148571a54.198857 54.198857 0 0 0-51.638857 54.345143c0 29.257143 22.893714 53.101714 51.638857 54.418285h65.682286l-56.466286 175.542857v0.146286l-0.731428 2.194286v0.073143a54.491429 54.491429 0 0 0 35.474286 66.267428 53.906286 53.906286 0 0 0 67.218285-32.768l0.585143-1.682285 0.146286-0.585143 0.219428-0.585143 67.072-208.603429h49.737143l67.072 208.457143 0.219429 0.585143 0.219428 0.731429 0.512 1.609142a53.906286 53.906286 0 0 0 67.291429 32.694858 54.491429 54.491429 0 0 0 35.401143-66.267429l-0.731429-2.267429-56.393143-175.542857h64.073143c29.769143 0 53.979429-24.356571 53.979429-54.418285 0-29.988571-24.137143-54.345143-53.979429-54.345143H585.874286V312.32h133.266285z"  horiz-adv-x="1024" />

    
    <glyph glyph-name="zhaopian" unicode="&#59096;" d="M168.96-68.421818a107.752727 107.752727 0 0 0-107.613091 107.613091V727.04A107.752727 107.752727 0 0 0 168.96 834.653091h687.848727A107.752727 107.752727 0 0 0 964.421818 727.04v-687.848727a107.752727 107.752727 0 0 0-107.613091-107.613091H168.96z m319.767273 265.309091l216.064-221.975273h152.017454c35.467636 0 64.232727 28.858182 64.232728 64.279273V271.36l-178.920728 178.967273L488.727273 196.887273z m-384-128.791273v-28.858182c0-35.514182 28.765091-64.325818 64.232727-64.325818h475.554909l-306.222545 303.150545-233.565091-209.966545zM168.96 791.272727c-35.467636 0-64.232727-28.765091-64.232727-64.232727v-597.643636l235.985454 215.412363 117.76-117.76 283.648 289.373091 178.967273-181.946182V727.04c0 35.467636-28.858182 64.232727-64.279273 64.232727H168.96z m114.688-286.580363A107.752727 107.752727 0 0 0 175.941818 612.352 107.752727 107.752727 0 0 0 283.648 720.058182a107.752727 107.752727 0 0 0 107.659636-107.659637 107.799273 107.799273 0 0 0-107.659636-107.659636z m0 172.032a64.279273 64.279273 0 1 1 0.046545-128.605091 64.279273 64.279273 0 0 1-0.046545 128.605091z"  horiz-adv-x="1024" />

    
    <glyph glyph-name="huazhuanjilu" unicode="&#59095;" d="M512 896a512 512 0 1 0 0-1024A512 512 0 0 0 512 896z m0-73.142857a438.857143 438.857143 0 1 1 0-877.714286A438.857143 438.857143 0 0 1 512 822.857143z m213.796571-482.742857v-87.771429h-269.165714l42.276572-63.414857-73.142858-48.713143L292.571429 340.114286h433.225142zM592.384 627.785143L725.723429 427.885714H294.326857V515.657143h267.264L519.314286 579.072l73.142857 48.713143z"  horiz-adv-x="1024" />

    
    <glyph glyph-name="coingecko" unicode="&#59094;" d="M872.433798 747.628375A512.019051 512.019051 0 0 0 1023.99117 386.254012c1.242882-282.761164-226.968759-512.994806-509.729923-514.248818C231.503793-129.241398 1.266441 98.970243 0.005009 381.735117-1.219323 661.665479 222.428901 890.118275 501.268495 895.883763l8.466437 0.107592a512.019051 512.019051 0 0 0 362.698866-148.36669z m-362.513362 109.629591l-5.739516-0.063072c-189.229675-3.14616-358.665993-118.760134-430.415517-294.284718-61.238825-149.813628-41.122691-318.333553 48.687574-448.305594 42.985158 96.336321 47.882483 180.362548 57.454528 294.507324l-0.285677-3.402156c7.112252 101.945985 36.221655 186.539856 210.20284 234.46315 40.031923 9.757549 81.733388 6.232959 123.954267-3.710095l0.467472 0.111303-0.467472 0.037101c48.557721 15.111216 106.988003 9.549784 128.925794-36.507333 1.606471-2.886454 2.700949-5.591113 3.335375-8.125108l0.115013-0.333908a43.359878 43.359878 0 0 1-0.044521 0.029681l0.044521-0.178085c36.062121-14.246764 71.679031-28.345124 106.034509-38.288178 181.820615-49.514925 163.526138-148.923205 74.250127-232.029328-22.026833-22.71691-45.541414-44.072216-60.893786-59.621223-68.043138-69.341672-189.326137-205.056939-169.625534-343.62898h-0.00371l0.100173-0.241156a473.98316 473.98316 0 0 1 99.382309 29.458153c176.600512 74.149954 291.134848 247.38912 290.199904 438.922764-1.335634 261.431829-214.250554 472.332167-475.678673 471.189458z m319.435451-512.987386l-2.207506-1.224331c-14.439689-7.921052-29.521224-14.714236-44.684382-20.976876a492.366679 492.366679 0 0 0-87.595338-27.083692 401.691963 401.691963 0 0 0-90.155303-7.42019c-29.083433 0.834771-58.30785 6.496376-83.822171 22.390422l-1.95522 1.242882-0.545384-0.619586c17.381794-10.225021 34.949093-33.66169 70.146762-33.66169 100.061256 0 175.431832 27.718118 240.818542 67.353061z m-56.686538 84.686623a19.849007 19.849007 0 1 1 19.96031-19.737704 19.886108 19.886108 0 0 1-19.96031 19.737704z m-327.786874 163.132868l-1.513719-0.01113c-49.871094-0.831061-90.03287-41.527091-90.01432-91.59111 0.022261-50.568592 41.033648-91.546589 91.602241-91.528038 50.064019 0.022261 90.726658 40.217427 91.516908 90.088521l0.01113 1.513719-0.037101 0.037101c-0.040811 50.542621-41.022518 91.490937-91.565139 91.490937z m0.037101-27.937014c35.572389 0 64.407246-28.834857 64.407245-64.407245 0-35.568679-28.834857-64.407246-64.407245-64.407246s-64.407246 28.838567-64.407246 64.407246c0 35.167988 28.18559 63.750559 63.197755 64.396115l1.209491 0.01113z"  horiz-adv-x="1024" />

    
    <glyph glyph-name="shangwuhezuo" unicode="&#58976;" d="M512-128C229.229714-128 0 101.229714 0 384S229.229714 896 512 896s512-229.229714 512-512-229.229714-512-512-512zM438.857143 640c-26.916571 0-48.749714-21.284571-48.749714-47.542857v-47.542857H438.857143v35.657143c0 6.582857 5.485714 11.885714 12.178286 11.885714h121.929142a12.068571 12.068571 0 0 0 12.178286-11.885714V544.914286h48.749714V592.457143c0 26.258286-21.833143 47.542857-48.749714 47.542857h-146.285714z m-219.428572-178.102857c0-124.708571 585.142857-128.402286 585.142858-2.669714V521.142857H219.428571v-59.245714z m341.321143-202.971429c0-25.856-21.833143-46.811429-48.749714-46.811428-26.953143 0-48.749714 20.955429-48.749714 46.811428v24.502857h97.499428v-24.502857z m-43.117714 60.196572c-165.851429 0-252.781714 29.001143-298.203429 61.696V164.571429h585.142858v212.736c-78.445714-52.809143-229.705143-58.185143-286.939429-58.185143z"  horiz-adv-x="1024" />

    
    <glyph glyph-name="zaixiankefu" unicode="&#58977;" d="M512-128C229.229714-128 0 101.229714 0 384S229.229714 896 512 896s512-229.229714 512-512-229.229714-512-512-512z m76.324571 785.078857h-152.649142C308.297143 657.078857 204.8 555.885714 204.8 431.286857v-4.132571c0-119.844571 96.036571-218.185143 216.978286-225.462857v-59.136c0-12.032 6.802286-22.784 17.773714-28.16 4.534857-2.194286 9.728-3.474286 14.555429-3.474286a34.011429 34.011429 0 0 1 19.090285 6.034286l116.736 84.114285c126.427429 0.950857 229.266286 101.814857 229.266286 225.792v4.096c0 124.598857-103.497143 226.121143-230.875429 226.121143z m-250.88-227.766857a38.765714 38.765714 0 0 0 77.385143 0c0-21.321143-17.334857-38.619429-38.729143-38.619429a38.656 38.656 0 0 0-38.656 38.619429z m135.789715 0a38.765714 38.765714 0 0 0 77.385143 0c0-21.321143-17.334857-38.619429-38.729143-38.619429a38.656 38.656 0 0 0-38.656 38.619429z m135.789714 0a38.765714 38.765714 0 0 0 77.385143 0 38.765714 38.765714 0 0 0-77.385143 0z"  horiz-adv-x="1024" />

    
    <glyph glyph-name="ios1" unicode="&#59091;" d="M779.6224 256.7168c22.9376-33.28 45.9264-49.8176 80.384-60.928-11.4688-38.7072-34.4576-82.9952-63.1808-121.7536C756.6336 7.6288 710.7072-25.6 670.5152-25.6c-17.2544 0-34.4576 5.5296-68.9664 16.5888-28.672 11.1104-51.6608 16.64-74.6496 16.64-22.9376 0-45.9264-5.5296-74.6496-16.64-28.672-11.0592-45.9264-16.5888-68.9152-16.5888-51.712 0-103.3728 38.7584-149.2992 127.3344-45.9264 82.9952-74.6496 166.0416-74.6496 249.0368 0 71.9872 22.9376 132.864 57.3952 182.6816 34.4576 44.288 86.1696 71.936 143.616 71.936 11.4688 0 28.672 0 40.192-5.5296 11.4688-11.0592 28.672-16.5888 40.192-22.1184 17.2032-11.0592 34.4576-16.64 40.192-22.1696 17.2544-5.5296 22.9888-5.5296 28.672-5.5296 5.7856 0 23.04 0 34.5088 5.5296 17.2032 5.5296 34.4576 11.1104 45.9264 22.1696 22.9888 5.5296 34.4576 11.0592 45.9776 16.5888 11.4688 5.5296 28.672 5.5296 34.4576 5.5296 40.192 0 74.6496-11.0592 109.056-33.1776 17.2544-11.1104 34.5088-27.6992 51.712-44.288-28.672-22.1696-45.9264-38.7584-57.4464-55.3472-22.9376-33.2288-34.4064-66.4576-34.4064-105.1648 11.4688-38.7584 22.9376-77.5168 40.192-105.1648z m-166.5536 381.9008c-22.9888-22.1184-34.4576-33.2288-51.712-33.2288-5.7344 0-11.4688-5.5296-22.9376-5.5296-11.52 0-22.9888 0-34.4576-5.5296 0 44.288 17.2032 94.1056 34.4576 121.7536 28.672 38.7584 68.9152 60.928 126.3104 77.5168v-22.1184c0-22.1696-5.7344-38.7584-17.2032-66.4576 0-22.1184-17.2544-44.288-34.4576-66.4064z"  horiz-adv-x="1024" />

    
    <glyph glyph-name="google-play" unicode="&#59092;" d="M641.536 442.1632L310.4768 774.0928l421.2224-241.8176-90.112-90.112zM224.1024 793.6c-19.456-10.24-32.5632-28.8256-32.5632-52.9408v-661.9648c0-24.1664 13.056-42.752 32.5632-52.9408l384.9216 384L224.1024 793.6z m637.7984-338.432l-88.3712 51.2-98.5088-96.768 98.5088-96.768 90.1632 51.2c26.9824 21.4016 26.9824 69.7344-1.792 91.136z m-551.424-410.112l421.2224 241.8688-90.112 90.112-331.1104-331.9296z"  horiz-adv-x="1024" />

    
    <glyph glyph-name="anzhuo1" unicode="&#59093;" d="M754.0224 531.0464c-81.3056-0.256-162.6624-2.816-243.968-2.816H267.4176c-9.4208 0-8.6528 5.3248-8.6528-4.096V174.08c0-3.2768-0.3072-6.5536-0.0512-9.8304 2.1504-29.952 28.1088-54.528 58.1632-54.8352 11.6736-0.1536 23.3472-0.4608 35.0208 0.1024 6.5536 0.3072 8.0384-1.792 7.9872-8.1408-0.3072-37.4784-0.2048-75.008-0.1536-112.4864 0.0512-21.76 8.704-39.2704 27.648-50.3808a56.0128 56.0128 0 0 1 84.7872 48.5888 9728 9728 0 0 1 0 115.2512c-0.0512 5.3248 1.024 7.2704 6.8608 7.168 20.3776-0.3584 40.8064-0.4096 61.184 0 6.5024 0.2048 7.68-2.048 7.68-7.9872-0.3072-37.9392-0.1536-75.9296-0.1536-113.8688 0-4.6592 0.0512-9.3696 1.1776-13.9776 7.2192-28.7232 33.0752-46.08 63.232-42.3424 26.8288 3.2768 47.36 27.3408 47.36 55.808v106.8544c0 15.36 0 15.2064 15.4624 15.4624 13.1072 0.2048 26.368-1.7408 39.2704 1.1776 29.3888 6.656 47.7696 31.3344 47.7696 63.488 0 117.1968 0 232.96 0.1536 350.1568 0 6.5024-1.7408 6.7584-8.1408 6.7584z m139.9808-49.3056c0 4.864-0.3072 9.8304-0.9216 14.6432-3.4816 28.416-29.0816 49.2032-58.88 47.9232-28.0064-1.2288-52.1216-25.344-52.4288-53.4528-0.4096-39.8336-0.1024-79.616-0.1024-119.4496 0-40.2944-0.3072-80.5888 0.1536-120.832 0.256-23.4496 17.92-44.8 40.5504-50.7392 37.1712-9.7792 71.5776 16.8448 71.6288 55.6544V481.7408zM235.9296 504.064c-8.0384 26.4192-38.912 43.6736-65.536 39.936-28.672-3.9936-53.3504-27.136-53.3504-56.064v-117.3504c0-38.8608 4.4544-77.7216 4.5056-116.6336 0-3.7376 2.304-7.5264 3.072-11.1616 6.1952-29.5424 32.9216-47.616 63.9488-44.4416 27.136 2.7648 48.64 26.88 48.64 55.808 0.1024 77.9776 0.3584 155.9552 0.3584 233.984 0 5.3248-0.0512 10.7008-1.6384 15.872z m513.9456 120.32c-20.6336 56.6272-58.5728 98.304-110.848 127.3344-4.7104 2.6112-5.0176 4.352-2.4576 8.8576 11.6736 20.736 22.9376 41.8304 34.4576 62.6688 2.7136 4.7616 4.0448 9.216-1.4848 12.8-4.352 2.7648-8.704 0.768-12.1856-5.5296-11.6224-21.0944-23.296-42.1888-34.6624-63.488-2.3552-4.4032-4.5056-5.12-9.216-3.1232a262.8608 262.8608 0 0 1-101.7856 20.5312 262.7584 262.7584 0 0 1-105.984-20.6848c-4.5056-1.8944-6.4-1.024-8.6016 3.1744-9.5232 17.9712-19.456 35.7376-29.2864 53.6064-2.3552 4.3008-4.6592 8.6528-7.2192 12.8-2.304 3.84-5.888 4.608-9.7792 3.072-3.9424-1.536-4.7104-5.0176-3.9936-8.704 0.4096-2.048 1.4848-3.9424 2.4576-5.7344 11.1104-20.3776 21.9648-40.8064 33.4336-60.928 3.1744-5.4784 1.536-7.0656-3.1744-9.7792-73.3696-42.3936-116.3776-104.3456-122.368-190.208-0.4096-6.144 1.0752-8.2944 7.8848-8.2944C346.368 553.0112 427.6736 552.96 509.0304 552.96c81.5616 0 163.1232 0.1024 244.6336-0.1024 6.7584 0 8.96 1.4336 8.4992 8.3968a229.4272 229.4272 0 0 1-12.288 63.1296zM394.4448 644.096a21.1456 21.1456 0 0 0-20.6336 22.1184 20.5312 20.5312 0 0 0 21.4528 20.2752 20.48 20.48 0 0 0 20.992-21.4528 20.992 20.992 0 0 0-21.8112-20.9408z m229.7856 0a21.5552 21.5552 0 0 0-20.992 21.8624 20.7872 20.7872 0 0 0 21.2992 20.5312c12.1344 0 21.3504-9.216 21.2992-21.248 0-11.776-9.728-21.2992-21.6064-21.1456z"  horiz-adv-x="1024" />

    
    <glyph glyph-name="jiantoubeifen2" unicode="&#59090;" d="M778.940632 667.648c42.037895 40.690526 104.717474-25.330526 62.517894-66.182737l-272.707368-263.545263 274.108631-272.869053c41.498947-41.337263-21.126737-107.466105-62.571789-66.128842L472.495158 305.313684c-16.976842 16.976842-17.408 49.421474 0 66.182737 102.130526 98.735158 204.261053 197.524211 306.445474 296.151579zM434.822737 667.648c42.037895 40.690526 104.771368-25.330526 62.517895-66.182737l-272.707369-263.545263 274.108632-272.869053c41.552842-41.337263-21.126737-107.466105-62.517895-66.128842L128.323368 305.313684c-16.922947 16.976842-17.354105 49.421474 0 66.182737C230.561684 470.231579 332.638316 569.020632 434.822737 667.648z"  horiz-adv-x="1024" />

    
    <glyph glyph-name="zhanghuzhongxin1" unicode="&#59085;" d="M128 426.6688h341.3312V768H128v-341.3312z m85.3312 256H384V512H213.3312V682.6688zM938.1632 595.968l-213.76 213.76-214.8608-214.848 213.76-213.76 214.8608 214.848z m-213.76 93.0816L817.472 595.968l-94.176-94.1696L630.2208 594.88l94.1824 94.1696zM128 0h341.3312V341.3312H128V0z m85.3312 256H384v-170.6688H213.3312V256z m341.3376-256H896V341.3312H554.6688V0zM640 256h170.6688v-170.6688H640V256z"  horiz-adv-x="1024" />

    
    <glyph glyph-name="anquanshezhi2" unicode="&#59086;" d="M917.3312 512a29.44 29.44 0 0 1 0 4.2688V519.04a48 48 0 0 1-1.7024 5.12 13.6512 13.6512 0 0 1-1.7088 2.9888 27.3088 27.3088 0 0 1-2.3488 4.2624 14.72 14.72 0 0 1-2.3424 2.7776A22.8288 22.8288 0 0 1 906.24 537.6l-2.56 2.1312-3.84 2.9888-3.84 1.92-4.48 2.1312-3.4112 1.0688a35.4112 35.4112 0 0 1-4.48 1.28 17.4912 17.4912 0 0 1-4.6976 0h-11.9424L512 469.3312l-182.8288 40.5376a42.6688 42.6688 0 1 1-18.3424-83.2l192-42.6688a39.8912 39.8912 0 0 1 18.3424 0L832 454.1888V320c0-123.9488-217.1712-248.1088-320-294.8288C409.1712 71.68 192 195.6288 192 320V670.2912L512 745.6l352.8512-84.2688a42.7392 42.7392 0 0 1 19.6288 83.2L521.8112 829.8688C512 832 512 832 502.1888 829.8688L139.52 744.5312C108.8 736 107.1168 736.2112 106.6688 704v-390.4c0-191.5712 349.0112-357.5488 388.6912-374.1888a42.6688 42.6688 0 0 1 33.28 0 1198.9312 1198.9312 0 0 1 188.8 103.2576C850.1312 133.76 917.3312 239.5712 917.3312 313.6V507.3088c0.1152 1.5616 0.1152 3.1296 0 4.6912z"  horiz-adv-x="1024" />

    
    <glyph glyph-name="tuichu1" unicode="&#59087;" d="M218.421728 660.404148c141.653333 147.342222 369.133037 152.911012 517.056791 14.411852l4.513185-4.298272 13.44474-13.590123-58.317432-60.681482-3.552395 3.786272a285.196642 285.196642 0 0 1-414.688395-0.025284c-114.574222-119.270716-114.574222-312.743506 0.018963-432.039506a285.139753 285.139753 0 0 1 411.483655-3.286914l2.578962 2.68642 2.736988 2.88237 58.266864-60.643555-2.534716-2.62321c-146.823901-152.139852-384.423506-151.893333-531.00721 0.613136-146.710123 152.683457-146.710123 400.12484 0 552.808296z m502.189828-229.742617V524.452346L926.65679 392.394272v-10.480198l-206.038913-130.408296-0.006321 93.582222H446.451358V430.648889l274.160198 0.006321z"  horiz-adv-x="1024" />

    
    <glyph glyph-name="api2" unicode="&#59088;" d="M528.5504 276.5696l52.9024 53.44 40.384-47.424-52.2112-52.7424 69.472-69.9264-95.3152-95.9424c-48.9664-49.2928-114.5984-77.184-180.864-77.184-56.1088 0-108.0832 17.1968-149.2416 51.4432L145.536-30.72l-46.2592 46.56 68.32 74.5536c-74.976 101.2992-64.5568 243.136 25.152 332.1984L288.1152 518.592l74.7968-75.2896 47.1936 47.6928 46.4256-46.7328-47.2-47.6864 119.2192-120z m12.352-116.6528L288.1216 414.3744l-43.5456-43.8336c-71.5136-71.9872-73.1136-186.304-5.344-254.5216l5.6768-5.7408c28.864-33.8944 73.3376-51.5264 123.36-51.5264 46.1504 0 92.6656 20.6528 129.0368 57.2672l43.6096 43.8976z m322.0288 526.528c74.8416-101.2928 64.384-243.0208-25.28-332.0384l-90.0224-90.624L391.1616 622.592l4.7552 4.5056L486.6112 713.024c48.9728 49.2928 114.6048 77.184 180.864 77.184 56.2048 0 108.2496-17.2544 149.44-51.616l62.8032 58.176 46.2272-46.528-63.0144-63.7952z m-368.096-63.9872l252.7872-254.464 38.208 38.464c73.3952 73.8752 76.5824 187.9168 5.344 254.5152l-5.6768 5.7408c-28.864 33.8944-73.344 51.5328-123.36 51.5328-46.1504 0-92.6656-20.6592-129.0368-57.28l-38.272-38.5088z"  horiz-adv-x="1030" />

    
    <glyph glyph-name="shenfenrenzheng2" unicode="&#59089;" d="M481.856 838.4c156.4544 0 283.7312-127.2768 283.7312-283.7376 0-156.4608-127.2768-283.7248-283.7312-283.7248-29.344 0-58.112 4.48-85.5616 13.184l-2.656 0.864-1.6-0.4608c-66.176-19.424-120.2432-68.672-163.0848-137.6512l-2.2016-3.584-2.1888-3.6288A546.5216 546.5216 0 0 1 185.6 60.192l-2.368-6.0992c-5.0432-13.2224-8.576-23.9872-10.0096-29.2416a42.5472 42.5472 0 0 0-52.3776-29.7024 42.56 42.56 0 0 0-29.696 52.3648l1.2992 4.4544c0.6528 2.176 1.4464 4.7168 2.3872 7.616 2.56 7.936 5.6448 16.7168 9.2672 26.2016a631.072 631.072 0 0 0 37.4912 80.6592c39.2768 70.848 89.4208 128.96 151.6992 166.6816l3.8272 2.2848 2.848 1.6576-0.736 0.608C237.568 389.6448 200.32 465.3952 198.2208 547.3664l-0.0704 3.7312-0.0256 3.5776C198.1248 711.136 325.3952 838.4 481.856 838.4z m409.9712-747.5968a42.5792 42.5792 0 0 0 1.4848-85.12l-1.4912-0.0256H578.3232a42.5792 42.5792 0 0 0-1.4912 85.12l1.4912 0.0256h313.504z m-96.4672 144.6912a42.5728 42.5728 0 0 0 1.4912-85.12l-1.4912-0.0256h-144.6912a42.5728 42.5728 0 0 0-1.4912 85.12l1.4912 0.0256h144.6912z m-313.504 517.76c-109.504 0-198.5856-89.088-198.5856-198.592 0-82.2976 50.7968-155.3408 125.9008-184.832 1.1264-0.3648 2.24-0.7872 3.0848-1.1584a197.3376 197.3376 0 0 1 69.6-12.6016c109.4848 0 198.592 89.1008 198.592 198.592 0 109.504-89.1008 198.592-198.592 198.592z"  horiz-adv-x="1024" />

    
    <glyph glyph-name="lishiheyuecaiwujilu" unicode="&#59084;" d="M866.450286 29.549714v-78.774857H157.549714v78.774857h708.900572zM1024 896v-761.417143H0V896h1024z m-78.774857-78.774857H78.774857v-603.867429h866.450286V817.225143zM655.067429 691.565714l176.420571-176.347428-176.420571-176.420572-55.661715 55.734857 81.334857 81.408H210.066286V554.569143l470.454857 0.073143-81.188572 81.188571 55.734858 55.661714z"  horiz-adv-x="1024" />

    
    <glyph glyph-name="gerenrenzheng" unicode="&#59082;" d="M507.222482-127.997724h8.533314a505.741098 505.741098 0 0 1 507.220206 507.220206v8.533314A505.741098 505.741098 0 0 1 515.755796 894.976002h-8.533314A505.741098 505.741098 0 0 1 0.002276 387.755796v-8.533314A505.741098 505.741098 0 0 1 507.222482-127.997724zM85.335419 387.755796a420.237288 420.237288 0 0 0 421.943951 422.00084h8.533315a420.237288 420.237288 0 0 0 422.00084-422.00084v-8.533314c0-98.019338-34.133257-187.505361-89.542912-259.981645-25.599943 93.752681-102.285995 170.495621-204.57199 208.838647 34.133257 34.133257 55.409655 81.009598 55.409655 132.152595v55.409655c0 102.285995-85.276255 187.56225-187.56225 187.56225S323.926889 617.927729 323.926889 515.641734v-55.409655c0-51.199886 21.333286-98.019338 55.409655-132.152595-106.552652-34.133257-183.238704-115.085966-208.838647-208.838647-51.142997 72.476283-85.219366 161.962307-85.219367 259.981645v8.533314z m123.562392-306.914873c12.799972 102.342884 98.076226 187.56225 217.428851 217.42885 25.599943-12.799972 55.409655-21.333286 85.219366-21.333286a193.99068 193.99068 0 0 1 85.276255 21.333286c115.085966-29.8666 204.57199-115.085966 213.105304-217.42885A414.889745 414.889745 0 0 0 511.489139-42.664581h-8.533314c-110.819309 0-217.315073 46.87634-294.114902 123.562392zM370.917007 460.232079v55.409655a143.701014 143.701014 0 0 0 144.895678 144.895678 143.701014 143.701014 0 0 0 144.952567-144.895678v-55.409655a143.701014 143.701014 0 0 0-144.952567-144.952566A143.701014 143.701014 0 0 0 370.917007 460.232079z"  horiz-adv-x="1024" />

    
    <glyph glyph-name="jigourenzheng" unicode="&#59083;" d="M833.251556 464.327111a26.737778 26.737778 0 0 0 26.339555-21.959111l0.455111-4.835556-0.056889-401.521777h80.327111a26.737778 26.737778 0 0 0 4.835556-53.134223l-4.835556-0.455111H83.683556a26.737778 26.737778 0 0 0-4.835556 53.134223l4.835556 0.398222h80.270222v401.635555a26.737778 26.737778 0 0 0 53.134222 4.778667l0.455111-4.835556-0.056889-401.521777h160.654222V437.475556a26.737778 26.737778 0 0 0 53.134223 4.835555l0.398222-4.835555v-401.521778h160.597333V437.475556a26.737778 26.737778 0 0 0 53.134222 4.835555l0.455112-4.835555-0.056889-401.521778h160.654222V437.475556c0 14.791111 12.003556 26.737778 26.794667 26.737777zM492.999111 858.965333a37.489778 37.489778 0 0 0 38.001778 0l448-263.509333c8.192-6.997333 10.24-8.760889 11.776-15.189333l1.706667-8.305778c-5.006222-17.351111-5.916444-20.48-17.692445-24.462222l-9.671111-2.844445H58.88c-14.222222 2.56-14.222222 2.56-23.552 13.425778-4.380444 17.066667-5.290667 20.48 2.275556 29.411556l7.395555 7.964444zM512 808.106667l-356.864-209.92h713.671111L512 808.106667z"  horiz-adv-x="1024" />

    
    <glyph glyph-name="guanbi1" unicode="&#59081;" d="M104.67328 837.08814222l860.41486222-860.41486222-45.76142222-45.76142222-860.41486222 860.41486222zM919.32672 837.08814222l45.76142222-45.76142222-860.41486222-860.41486222-45.76142222 45.76142222z"  horiz-adv-x="1024" />

    
    <glyph glyph-name="medium-circle" unicode="&#59080;" d="M512 896C229.257 896 0 666.743 0 384s229.257-512 512-512 512 229.257 512 512S794.743 896 512 896z m292.571-289.943l-46.628-44.686a13.535 13.535 0 0 1-5.257-13.028v-328.8c-0.8-5.029 1.143-10.057 5.257-13.029l45.714-44.685v-9.943H574.171v9.485l47.2 45.829c4.686 4.686 4.686 6.057 4.686 13.029V486.286L494.63 153.029h-17.715L324 486.286v-223.429c-1.371-9.371 1.943-18.857 8.571-25.6l61.486-74.4v-9.943H219.43v9.943l61.485 74.4a29.829 29.829 0 0 1 8 25.6V521.143c0.8 7.2-1.943 14.171-7.428 19.086l-54.629 65.828V616h169.714l130.972-287.429 115.314 287.2h161.714v-9.714z"  horiz-adv-x="1024" />

    
    <glyph glyph-name="tishi2" unicode="&#59079;" d="M512.548519 895.989761A493.66633 493.66633 0 0 0 711.624038 855.472554c62.019118-27.060228 116.066439-63.554969 162.068827-109.630493 46.075524-45.929253 82.6434-100.195981 109.630493-162.653914A497.323117 497.323117 0 0 0 1023.913701 383.527543c0-70.795408-13.530114-137.202672-40.517207-199.22179a520.799694 520.799694 0 0 0-109.630493-162.068827 520.434015 520.434015 0 0 0-162.068827-109.557358A492.642429 492.642429 0 0 0 512.548519-127.910774a496.738031 496.738031 0 0 0-199.806875 40.590342 518.605621 518.605621 0 0 0-162.653914 109.557358A520.214608 520.214608 0 0 0 40.530373 184.305753 492.934972 492.934972 0 0 0 0.013166 383.454407c0 70.795408 13.530114 137.422079 40.517207 199.73374a517.801128 517.801128 0 0 0 109.557357 162.653914 519.848929 519.848929 0 0 0 162.653914 109.703629A497.688796 497.688796 0 0 0 512.548519 895.989761z m61.65344-441.739945c0 18.283938-5.923996 33.642446-17.698852 46.221795a57.85038 57.85038 0 0 1-43.954588 18.869024 59.75191 59.75191 0 0 1-44.612809-18.869024 63.847512 63.847512 0 0 1-18.210802-46.14866v-382.499985c0-18.210802 6.143403-32.911089 18.283938-43.881452 12.140535-11.043499 27.060228-16.52868 44.539673-16.52868 17.552581 0 32.326003 5.631453 44.466538 17.040631a58.362331 58.362331 0 0 1 18.283938 44.612809L574.128823 454.249816z m-61.65344 141.590817c22.086997 0 40.882886 7.75239 56.533937 23.40344 15.50478 15.577915 23.403441 34.373804 23.403441 56.460801 0 22.086997-7.898661 40.956021-23.403441 56.460801a76.938812 76.938812 0 0 1-56.533937 23.403441c-22.086997 0-41.102293-7.75239-57.045887-23.403441a76.061183 76.061183 0 0 1-23.988526-56.460801c0-22.086997 7.971797-40.882886 23.915391-56.533936 16.01673-15.577915 35.032025-23.403441 57.045887-23.403441z"  horiz-adv-x="1024" />

    
    <glyph glyph-name="qitaguojiadiqu" unicode="&#59075;" d="M1010.72 496.384c-10.784 50.08-18.496 64.896-27.808 86.944C905.216 767.04 723.456 896 511.488 896 229.024 896 0 666.976 0 384.512 0 102.016 229.024-127.04 511.488-127.04c282.496 0 511.52 229.024 511.52 511.52 0 38.4-4.224 75.872-12.288 111.872z m-915.84-111.872c0 52.032 9.568 101.824 27.008 147.776 22.08-12.512 51.776-14.752 51.776-39.712 0-82.368 3.072-170.656 82.048-172.064 2.24 0 44.032-15.04 63.936-63.936 6.88-16.928 34.08 0 63.936 0 14.88 0 0-23.808 0-75.232 0-51.232 116.576-130.144 116.576-130.144-0.576-33.92 0.928-61.344 3.904-83.264-226.656 3.968-409.216 188.96-409.216 416.576zM612.48-19.776c16.416 66.304 24.384 103.456 58.72 131.68 49.6 40.8 5.888 86.144-31.872 80.8-29.76-4.256-10.944 34.88-37.504 37.12-26.56 2.112-61.28 52.192-99.52 69.408-20.256 9.088-40.16 33.568-71.424 34.688-27.712 1.024-68.224-22.24-68.224-4.32 0 57.632-6.112 98.784-7.424 115.2-1.024 13.216-9.12 4.48 28.352 3.648 20.384-0.512 10.432 38.816 30.624 40.32 19.776 1.472 67.04-17.6 79.04-10.016 11.2 7.072 82.144-176.608 82.144-30.368 0 17.344-9.472 47.52 0 63.936 37.504 64.928 72.608 117.856 69.472 125.6-1.792 4.384-38.336 7.968-67.584-1.344-9.888-3.104 3.104-17.824-11.072-20.928-53.152-11.616-100.064 13.568-83.648 37.248 16.832 24.288 77.824 10.592 83.2 59.328 3.04 27.904 5.6 60.224 7.328 84.256 149.056-22.08 272.384-123.168 326.08-259.264-141.856-103.36-105.536-175.456-58.88-216.736 24.48-21.696 47.872-54.336 63.136-77.76a417.888 417.888 0 0 0-290.944-262.496z"  horiz-adv-x="1024" />

    
    <glyph glyph-name="zhongguodalu" unicode="&#59076;" d="M512 896c282.784 0 512-229.216 512-512 0-279.392-223.808-506.56-501.92-511.904L512-128C229.216-128 0 101.216 0 384S229.216 896 512 896z m184.96-268.096s22.08-2.56 9.696-16c-12.352-13.504-12.352-35.392-30.016-37.92-16.32-2.336-15.296 4.672-15.04 5.76 0.032 0.128-12.32-33.568-7.904-38.624 4.416-5.056 18.56 5.056 19.424 0 21.184 13.472 42.368-12.64 30.88-17.696-11.456-5.056-22.4 0-22.4 0s-17.312-9.28-18.208-11.776c-0.864-2.56-50.304-23.616-53.856-19.392-3.52 4.224-18.56-15.168-4.416-22.72 4.896-5.536-14.112-21.12-26.464-24.48-12.384-3.36-30.048 5.088-37.984 0-7.936-5.024-24.704-11.776-23.84-14.304 0.896-2.528-40.608 26.112-89.152 26.112-8 0.064-25.6 5.888-25.6 5.888l-12.384 22.752a43.616 43.616 0 0 1-18.56 16.864 123.712 123.712 0 0 1-38.816 10.944 31.104 31.104 0 0 1 6.208 15.328c1.376 13.536-1.92 23.296-1.92 27.52s-10.368 12.192-12.16 14.72c-1.76 2.528-11.36 11.392-9.6 17.28 1.76 5.888-8.128 8.576-8.128 8.576s-58.272-34.56-61.824-26.112c-3.52 8.416-43.264-30.336-46.784-28.672-3.52 1.696-13.248-38.72-13.248-38.72-28.256-9.6-42.976-15.488-44.16-17.728-1.76-3.36-26.464 4.224-26.464 4.224s-5.088 0.64-11.072 0.736c-5.888-22.496-9.92-45.728-11.968-69.504l0.064-0.32c0.896-3.36 18.784-41.12 18.784-41.12l-0.224-38.912s-7.968-30.336 5.28-33.696c5.376-3.328 4.416-23.616 20.32-21.088 8.576 1.376 8.64 2.976 7.904 3.776a20.384 20.384 0 0 1 0.928-0.384c6.176-2.56 30.016-48.032 44.16-53.088 14.08-5.056 19.392-15.168 31.776-16 12.352-0.864 59.136-5.568 64.448-12.48 5.28-6.912 2.624-15.36 2.624-15.36l1.024-0.64c3.04-1.728 12.64-6.304 26.368-3.52 16.768 3.36 32.64 7.072 37.952 7.072 5.312 0 28.256 13.952 30.912 12.288 2.656-1.696 26.496-32.864 11.04-48.864-10.304-10.688-10.304-32.864 0-66.56l18.88-17.184 24.8-3.904c11.776 14.08 19.136 21.088 22.08 21.088 4.416 0 22.08 1.664 25.6 1.664 3.52 0 31.808 6.752 34.464 5.056 2.624-1.664 15.008-32.864 36.16-27.808 21.216 5.056 12.384 7.584 19.456-5.888 7.04-13.472 8.832-22.72-1.76-21.888-10.592 0.832-25.6-24.448-8.832-26.976 16.768-2.528 26.464 16.864 33.536 21.92 7.04 5.056-6.304 9.504-6.304 16.256v10.88s38.08 10.752 40.736 16.64c2.656 5.92 14.144 13.504 14.144 13.504s31.776-3.36 40.608 2.528c8.832 5.888 29.12 18.56 38.848 31.168 1.376 1.824 2.656 3.904 3.84 6.144l0.8 1.696-0.096 1.216c0.064 2.784 1.728 5.856 3.712 8.864l0.928 1.376 0.448 1.28c3.04 9.664 4.48 18.176 4.48 18.176v4.224s5.312 2.528 15.904 13.472a62.72 62.72 0 0 1 14.112 26.112v18.56s3.04 11.04 0.096 20-2.72 8.64-2.72 8.64-25.6 48.864-38.848 50.56c-13.248 1.664 32.64 46.336 32.64 52.224 0 5.888-66.208 8.416-66.208 8.416l-9.696 16s17.632 4.224 31.776 20.224c14.112 16 37.952 34.56 27.36-5.888-10.56-40.448 9.728 10.112 36.192 11.808 3.52 6.72 15.104 10.336 20.864 15.296l24.96 21.12-1.664 9.056s20.32 8.448 21.184 23.616c8.832-4.224 19.424 28.64 15.04 32.864-4.448 4.192 11.456 14.304 14.976 14.304 2.848 0 11.328 31.328 11.872 46.4a657.824 657.824 0 0 1-4.16 7.936c-9.024-1.856-32.16-23.808-43.008-22.304-12.384 1.664 3.52 24.416-28.256 27.808a322.688 322.688 0 0 1-19.84 1.728c-3.04 6.72-22.368 48.96-30.496 50.496-8.832 1.696-14.112 0-14.112 0s-20.32 21.056-52.096-12.64z m77.184-454.464h-1.056c-4.8-0.128-24.64-1.76-32.96-19.392l-3.648-5.184-0.32-0.448-0.768-2.4a91.936 91.936 0 0 0-2.88-7.296l-0.896-1.76 0.064-0.384c0.608-2.624 3.008-4.864 8.448-6.336 16.32-4.48 18.144-6.72 18.144-6.72s18.592 14.144 15.872 23.456c-2.72 9.312 17.696 19.008 0 26.464z"  horiz-adv-x="1024" />

    
    <glyph glyph-name="Naver" unicode="&#59077;" d="M706.173806 615.365486h-100.603612v-275.350675l-1.831497-0.596845-159.112046 275.953371H343.385234v-433.005714h101.241417V457.786514l1.796389 0.526629 159.147154-275.953372h100.603612v433.005715zM512 896C794.846354 896 1024 666.770286 1024 384c0-282.735177-229.153646-512-512-512C229.264823-128 0 101.264823 0 384 0.035109 666.770286 229.305783 896 512.035109 896H512z"  horiz-adv-x="1024" />

    
    <glyph glyph-name="Kakao" unicode="&#59078;" d="M511.327086 867.193417c288.533943 0 510.548846-186.303634 510.548845-416.095086 0-229.803154-222.014903-416.11264-510.548845-416.11264-32.943543 0.005851-65.828571 2.504411-98.397623 7.478126l-225.929509-144.735086 39.479589 204.612755C83.470629 176.566857 0.807497 305.005714 0.807497 451.098331c0 229.791451 221.968091 416.095086 510.519589 416.095086z m-121.932069-296.901486a23.066331 23.066331 0 0 1-12.217783-3.52256c-2.820389-1.755429-5.207771-4.125257-6.986605-6.928091-0.965486-1.299017-1.404343-1.890011-1.790538-2.492709a23.464229 23.464229 0 0 1-2.796982-6.518491l-0.678766-1.901714-91.50464-200.604526a22.3232 22.3232 0 0 1-2.036297-9.373989c0-4.330057 1.217097-8.572343 3.516708-12.235337 2.340571-3.774171 5.751954-6.764251 9.801143-8.589897l4.681143-2.141623a23.01952 23.01952 0 0 1 21.621029 1.521372c3.762469 2.33472 6.746697 5.7344 8.566491 9.771885l18.566583 40.743498h105.220388l18.67776-40.977555c1.837349-4.037486 4.827429-7.448869 8.589898-9.801143a23.01952 23.01952 0 0 1 21.574217-1.486262l4.727954 2.118217a22.586514 22.586514 0 0 1 9.795291 8.578194l6.577006 10.48576-97.051794 213.389897a23.639771 23.639771 0 0 1-2.978377 7.20896 22.832274 22.832274 0 0 1-3.036892 3.856092c-2.071406 2.410789-3.820983 3.908754-5.769508 5.137554a23.072183 23.072183 0 0 1-11.30496 3.510857 37.220937 37.220937 0 0 1-3.762469 0.257463z m-97.595977-1.895862H130.756023a23.59296 23.59296 0 0 1-16.108983-6.173258c-2.048-1.860754-3.703954-4.101851-4.885943-6.600411-1.152731-2.562926-1.813943-5.348206-1.813943-8.121783 0-2.779429 0.661211-5.564709 1.796389-8.063268a21.767314 21.767314 0 0 1 8.262217-9.245258c3.832686-2.352274 8.250514-3.598629 12.750263-3.592777h55.45984v-188.445257a22.797166 22.797166 0 0 1 6.699886-16.079726 22.820571 22.820571 0 0 1 16.108982-6.729142h5.114149a22.826423 22.826423 0 0 1 16.079726 6.699885 22.832274 22.832274 0 0 1 6.71744 16.108983V526.599314h54.862994a23.832869 23.832869 0 0 1 16.149943 6.173257 21.767314 21.767314 0 0 1 4.885943 6.664778c1.14688 2.516114 1.767131 5.307246 1.767131 8.063268a19.924114 19.924114 0 0 1-1.767131 8.092526 21.632731 21.632731 0 0 1-8.309029 9.221851 24.1664 24.1664 0 0 1-12.726857 3.581075z m260.991269 0h-5.184366a22.762057 22.762057 0 0 1-16.091429-6.67648 22.908343 22.908343 0 0 1-6.71744-16.103132V330.576457l2.317166-3.72736a21.726354 21.726354 0 0 1 7.665371-7.94624c3.054446-1.878309 6.653074-3.042743 10.374583-3.44064 0.801646-0.046811 1.585737-0.117029 2.387383-0.117028h132.83328a23.92064 23.92064 0 0 1 16.126537 6.097188c1.755429 1.579886 3.218286 3.452343 4.330057 5.535452l6.337098 11.743817-9.09312 10.187337a24.927086 24.927086 0 0 1-4.991269 4.148663c-3.739063 2.276206-8.162743 3.510857-12.709303 3.510857h-104.8576V545.616457a22.832274 22.832274 0 0 1-6.670628 16.073874 22.744503 22.744503 0 0 1-16.05632 6.705738z m341.571291-6.196663c-6.477531 6.18496-16.512731 7.881874-24.564297 4.54656a22.375863 22.375863 0 0 1-7.641966-5.231177L768.936229 464.310857V545.616457a22.838126 22.838126 0 0 1-22.726949 22.779612h-5.207771a22.861531 22.861531 0 0 1-16.108983-6.67648 22.89664 22.89664 0 0 1-6.699886-16.103132v-213.31968l2.855497-5.172663c1.053257-1.854903 2.340571-3.557669 3.844389-5.067337a22.832274 22.832274 0 0 1 16.103131-6.705737h5.131703a22.832274 22.832274 0 0 1 16.091429 6.694034 22.849829 22.849829 0 0 1 6.711588 16.108983v52.8384l30.088046 31.37536L870.575543 324.608a23.171657 23.171657 0 0 1 8.27392-6.945646c7.478126-3.639589 16.969143-2.8672 23.604663 2.012892l4.125257 3.042743a22.352457 22.352457 0 0 1 6.933943 8.250514 23.171657 23.171657 0 0 1 2.37568 10.181486 22.545554 22.545554 0 0 1-4.347612 13.39392L834.647771 459.541943l64.119955 66.852571a22.516297 22.516297 0 0 1 6.284434 15.72864c0 3.089554-0.57344 6.091337-1.702766 8.864915a22.674286 22.674286 0 0 1-5.248731 7.61856zM390.7584 483.310446l33.827109-74.073235H356.978103l33.786148 74.079086z"  horiz-adv-x="1024" />

    
    <glyph glyph-name="YouTube" unicode="&#59074;" d="M512.326115 892.738854c280.980382 0 508.751898-227.771516 508.751898-508.725809 0-280.967338-227.778038-508.751898-508.751898-508.751899C231.352255-124.738854 3.600306 103.045707 3.600306 384.013045 3.600306 664.967338 231.358777 892.738854 512.326115 892.738854z m186.811516-308.556637H325.364586c-3.769885-0.039134-98.095287-1.956688-98.095287-98.258344l0.006523-204.108637c0.08479-5.543949 2.941554-97.984408 98.206165-97.984408h373.916535c5.543949 0.091312 98.010497 2.948076 98.010497 98.245299V486.184764c-0.08479 5.543949-2.948076 97.997452-98.271388 97.997453zM623.022471 383.719541l-186.668025-109.633223v219.279491z"  horiz-adv-x="1024" />

    
    <glyph glyph-name="wenhao" unicode="&#59073;" d="M511.488 894.976C229.0176 894.976 0 666.0096 0 383.488 0 101.0176 229.0176-128 511.488-128c282.5216 0 511.488 229.0176 511.488 511.488 0 282.5216-228.9664 511.488-511.488 511.488z m0-937.728a426.24 426.24 0 1 0 0 852.5312 426.24 426.24 0 0 0 0-852.5312z m0 716.9536a170.496 170.496 0 0 1-170.496-170.496 42.6496 42.6496 0 0 1 85.248 0A85.248 85.248 0 1 0 511.488 418.4576a42.6496 42.6496 0 0 1-42.5984-42.6496v-111.2064a42.6496 42.6496 0 0 1 85.248 0v74.1376a170.496 170.496 0 0 1-42.6496 335.4624z m-42.5984-541.7472a42.6496 42.6496 0 1 1 85.248 0 42.6496 42.6496 0 0 1-85.248 0z"  horiz-adv-x="1024" />

    
    <glyph glyph-name="shiming" unicode="&#59072;" d="M915.968 284.416a32.384 32.384 0 0 1-45.632-3.776l-169.92-200.576-73.152 67.84a32.384 32.384 0 0 1-44.032-47.488l98.048-90.816a32.384 32.384 0 0 1 46.72 2.816l191.744 226.368a32.384 32.384 0 0 1-3.776 45.632zM576.384 71.936H192.896c0.192 12.608 0.512 26.176 0.832 38.784 0.32 12.8 0.64 24.576 0.64 33.664 5.376 8.896 18.048 14.08 41.216 22.144 8.128 2.816 16.576 5.76 24.96 9.28l44.736 19.136c22.656 9.728 46.08 19.776 67.776 28.672l29.568 8.128a32.256 32.256 0 0 1 9.792 4.544c17.152 11.776 28.864 35.008 40.32 59.84l1.472 3.136a32.384 32.384 0 0 1-5.44 35.456 245.76 245.76 0 0 0-61.888 161.6c0 184.832 79.488 206.144 139.328 206.144 59.776 0 139.264-21.312 139.264-206.08a245.76 245.76 0 0 0-61.888-161.664 32.384 32.384 0 0 1-5.376-35.52l1.536-3.328c11.456-24.704 23.104-47.808 40.192-59.584a32.256 32.256 0 0 1 9.856-4.544l29.568-8.128c18.752-7.68 38.784-16.256 58.496-24.704 3.2-1.344 30.144 57.088 34.944 55.424 4.8-1.664-48 20.608-70.72 29.952a34.176 34.176 0 0 1-3.84 1.28l-23.36 6.4a129.664 129.664 0 0 0-9.152 16 309.12 309.12 0 0 1 64.512 188.352c0 223.936-110.976 270.912-204.032 270.912-93.12 0-204.032-46.976-204.032-270.912A309.12 309.12 0 0 1 386.56 308.032c-3.008-6.016-6.4-12.16-9.152-16.064l-23.36-6.4a34.176 34.176 0 0 1-3.84-1.28c-22.656-9.28-47.04-19.776-70.592-29.888l-44.288-18.944c-6.4-2.688-13.504-5.12-20.992-7.744-30.464-10.56-68.352-23.68-82.88-65.92a32.384 32.384 0 0 1-1.792-10.56c0-9.216-0.32-23.296-0.704-38.976-0.64-25.088-1.28-53.568-0.896-73.344 0.32-17.6 14.72-31.68 32.32-31.68h480.896c-35.2 9.152-61.312 34.304-64.96 64.704z"  horiz-adv-x="1024" />

    
    <glyph glyph-name="web" unicode="&#59070;" d="M182.912 178.43200000000002V617.088h600.064a23.616 23.616 0 0 1 24.576 24.704 23.616 23.616 0 0 1-24.576 24.64H177.024c-23.808 0-43.328-17.536-43.328-39.68v-457.984c0-22.144 19.52-39.68 43.328-39.68h310.144v-106.432H291.072a23.616 23.616 0 0 1-24.576-24.704c0-14.528 10.112-24.64 24.576-24.64h441.408a23.616 23.616 0 0 1 24.576 24.64 23.616 23.616 0 0 1-24.576 24.704H536.32v106.432h310.144c23.808 0 43.328 17.536 43.328 39.68V626.752a23.616 23.616 0 0 1-24.576 24.704 23.616 23.616 0 0 1-24.64-24.704v-448.32H182.912z"  horiz-adv-x="1024" />

    
    <glyph glyph-name="APP" unicode="&#59071;" d="M728.448 768h-433.28a72.32 72.32 0 0 1-72.192-72.192V-26.24000000000001a72.32 72.32 0 0 1 72.256-72.192h433.216a72.32 72.32 0 0 1 72.192 72.192V695.808A72.32 72.32 0 0 1 728.448 768zM271.168 695.808c0 13.248 10.752 24.064 24.064 24.064h433.216c13.248 0 24.064-10.816 24.064-24.064v-553.6H271.168v553.6z m481.28-722.048a24.064 24.064 0 0 0-24-24.064h-433.28a24.064 24.064 0 0 0-24 24.064v120.32h481.28v-120.32zM463.68 21.888000000000034a48.128 48.128 0 1 1 96.32 0 48.128 48.128 0 0 1-96.32 0z"  horiz-adv-x="1024" />

    
    <glyph glyph-name="chongbi" unicode="&#59066;" d="M565.333333 810.666667v-88.917334H174.250667v-675.498666h675.498666V428.373333H938.666667V-42.666667H85.333333V810.666667h480z m306.346667-4.096l62.890667-62.890667-302.336-302.165333 84.224-84.224H485.290667V588.544l84.138666-84.138667 302.250667 302.250667z"  horiz-adv-x="1024" />

    
    <glyph glyph-name="tibi" unicode="&#59067;" d="M565.333333 810.666667v-88.917334H174.250667v-675.498666h675.498666V428.373333H938.666667V-42.666667H85.333333V810.666667h480z m369.237334-4.096v-231.168l-84.053334 84.138666-302.336-302.250666-62.890666 62.890666L787.626667 722.346667l-84.224 84.224h231.168z"  horiz-adv-x="1024" />

    
    <glyph glyph-name="guanbi" unicode="&#59068;" d="M288.64 101.248l39.808 39.808a603.52 603.52 0 0 1 169.152-24.896c189.12 0 333.44 79.616 437.888 248.832-54.72 84.608-119.424 149.248-194.048 189.056l34.816 34.88c84.608-49.792 154.24-124.416 214.016-224-114.496-199.04-283.648-298.496-497.6-298.496-69.696-4.992-139.392 9.92-204.032 34.816z m-134.4 74.624C94.528 220.672 44.8 285.312 0 360 114.432 559.04 283.648 658.56 497.6 658.56c44.8 0 89.6-4.992 129.408-14.912l-39.808-39.808c-29.888 4.992-54.72 4.992-89.6 4.992-189.056 0-333.44-79.616-437.888-248.832 39.808-59.712 84.608-109.44 134.4-149.312l-39.872-34.816z m268.736 54.784l34.816 34.816c9.984-4.992 24.896-4.992 34.88-4.992 54.72 0 99.52 44.8 99.52 99.52 0 14.912 0 24.896-4.992 34.816l34.816 34.88c14.912-19.904 19.904-44.8 19.904-74.688 0-84.544-64.64-149.248-149.248-149.248-19.968 4.928-44.8 14.912-69.696 24.896zM348.352 369.92c4.928 79.616 64.64 139.328 144.32 144.256 0-4.928-144.32-144.256-144.32-144.256zM756.352 703.36l34.88-34.816-597.12-597.12-39.872 34.816L756.352 703.36z"  horiz-adv-x="1024" />

    
    <glyph glyph-name="xianshi1" unicode="&#59069;" d="M512 592c-194.56 0-343.04-76.8-450.56-240 107.52-163.2 256-240 450.56-240s343.04 76.8 450.56 240c-107.52 163.2-256 240-450.56 240zM512 64c-220.16 0-394.24 96-512 288C117.76 544 291.84 640 512 640c220.16 0 394.24-96 512-288-117.76-192-291.84-288-512-288z m0 192c56.32 0 102.4 43.2 102.4 96S568.32 448 512 448c-56.32 0-102.4-43.2-102.4-96S455.68 256 512 256z m0-48c-87.04 0-153.6 62.4-153.6 144S424.96 496 512 496c87.04 0 153.6-62.4 153.6-144S599.04 208 512 208z"  horiz-adv-x="1024" />

    
    <glyph glyph-name="tishigantanhao" unicode="&#59065;" d="M512-25.6A409.6 409.6 0 1 0 512 793.6a409.6 409.6 0 0 0 0-819.2zM512 896a512 512 0 1 1 0-1024A512 512 0 0 1 512 896z m-51.2-563.2h102.4V640H460.8v-307.2z m0-204.8h102.4V230.4H460.8v-102.4z"  horiz-adv-x="1024" />

    
    <glyph glyph-name="quanping" unicode="&#59064;" d="M176.480711 124.225422l188.834133 195.828622a9.363911 9.363911 0 0 0 6.556445 2.855823 9.346844 9.346844 0 0 0 6.653155-2.628267l73.915734-71.480889-192.662756-199.796622h76.123022a9.352533 9.352533 0 0 0 9.344-9.352533v-84.195556H83.6864v0.312889h-0.620089v252.586667a9.352533 9.352533 0 0 0 9.344 9.355377h84.0704v-93.485511z m671.061333-76.188444v159.829333a9.344 9.344 0 0 0 9.341156 9.352533h84.076089v-261.936355h-0.674133V-45.511111h-252.216889a9.352533 9.352533 0 0 0-9.341156 9.358222v84.189867h168.817778z m0.554667 597.788444l-188.834133-195.828622a9.329778 9.329778 0 0 0-13.2096-0.227556l-73.915734 71.480889 192.659912 199.796623h-76.120178a9.346844 9.346844 0 0 0-9.346845 9.355377v84.195556h261.558045v-0.321422H941.511111v-252.583823a9.346844 9.346844 0 0 0-9.344-9.352533h-84.0704V645.825422zM175.903289 722.807467v-159.652978a9.346844 9.346844 0 0 0-9.338311-9.352533H82.488889V815.738311h0.318578V816.355556h252.216889a9.352533 9.352533 0 0 0 9.341155-9.352534v-84.195555H175.903289z"  horiz-adv-x="1024" />

    
    <glyph glyph-name="zhibiao" unicode="&#59061;" d="M654.262044 412.777244V-42.666667H540.387556V412.777244h113.877333zM995.555556 523.414756V-42.666667h-113.880178V523.414756H995.555556zM142.324622 184.109511V-42.666667H28.444444v226.776178h113.880178z m170.643911 113.388089V-42.666667H199.0912V297.500444h113.877333z m170.646756-113.388089V-42.666667h-113.877333v226.776178h113.877333z m341.293511 57.725156V-42.666667h-113.877333V241.834667h113.877333zM938.615467 810.666667C970.063644 810.666667 995.555556 785.208889 995.555556 753.800533c0-31.405511-25.491911-56.866133-56.940089-56.866133l-0.930134 0.011378-119.938844-199.842134a56.5504 56.5504 0 0 0 7.162311-27.633777c0-31.402667-25.491911-56.866133-56.940089-56.866134-31.445333 0-56.937244 25.460622-56.937244 56.866134 0 5.378844 0.745244 10.581333 2.141866 15.5136l-97.248711 99.939555a57.543111 57.543111 0 0 0-21.475555-1.2288l-115.126045-149.390222a56.632889 56.632889 0 0 0 4.295111-21.700267c0-31.402667-25.494756-56.866133-56.940089-56.866133-31.448178 0-56.940089 25.460622-56.940088 56.866133 0 1.009778 0.0256 2.013867 0.0768 3.009423l-90.541512 58.794666a56.800711 56.800711 0 0 0-23.241955-4.937955c-8.280178 0-16.147911 1.763556-23.2448 4.937955l-90.541511-58.794666c0.0512-0.995556 0.079644-1.999644 0.079644-3.009423 0-31.402667-25.494756-56.866133-56.940089-56.866133-31.448178 0-56.940089 25.460622-56.940089 56.866133 0 31.408356 25.491911 56.866133 56.940089 56.866134 9.301333 0 18.079289-2.2272 25.833245-6.175289l88.163555 57.250133a57.460622 57.460622 0 0 0-0.290133 5.791289c0 31.408356 25.491911 56.866133 56.940089 56.866133 31.445333 0 56.937244-25.457778 56.937244-56.866133 0-1.954133-0.096711-3.885511-0.290133-5.791289l88.163556-57.250133a56.758044 56.758044 0 0 0 25.836088 6.175289c2.545778 0 5.054578-0.164978 7.515023-0.489245l115.126044 149.390222a56.632889 56.632889 0 0 0-4.289422 21.697423c0 31.405511 25.491911 56.866133 56.937244 56.866133 31.448178 0 56.940089-25.457778 56.940089-56.866133 0-5.376-0.748089-10.581333-2.144711-15.5136l97.251556-99.939556a57.127822 57.127822 0 0 0 13.954844 1.720889l0.932978-0.005689 119.936 199.836445a56.5504 56.5504 0 0 0-7.162311 27.633777c0 31.405511 25.494756 56.866133 56.940089 56.866134z"  horiz-adv-x="1024" />

    
    <glyph glyph-name="kxianquanping" unicode="&#59062;" d="M0 554.666667h170.666667v-568.888889H0zM284.444444 440.888889h170.666667v-455.111111h-170.666667zM568.888889 782.222222h170.666667v-796.444444h-170.666667zM853.333333 384h170.666667v-398.222222h-170.666667z"  horiz-adv-x="1024" />

    
    <glyph glyph-name="tubiaoshuxing" unicode="&#59063;" d="M597.333333 867.555556v-132.744534a353.311289 353.311289 0 0 0 102.764089-42.032355l93.488356 93.485511 15.061333-15.061334 0.580267 0.605867 55.168-56.354133 49.8688-49.8688-92.430222-92.430222a366.520889 366.520889 0 0 0 42.114844-103.822223H995.555556v-170.666666h-132.278045a353.234489 353.234489 0 0 0-41.216-104.049778l92.202667-92.202667-15.533511-15.530666 1.0752-1.055289-86.3488-84.536889-0.164978 0.1536-19.706311-19.712-91.841422 91.841422a366.535111 366.535111 0 0 0-104.408178-42.467556L597.333333-99.555556h-170.666666v131.333689a353.194667 353.194667 0 0 0-104.641423 41.568711L230.414222-18.261333l-15.067022 15.067022-1.518933-1.553067-84.539734 86.3488 0.605867 0.657067-20.158578 20.158578 91.485867 91.485866A366.532267 366.532267 0 0 0 158.884978 298.666667L28.444444 298.666667v170.666666h131.800178a353.268622 353.268622 0 0 0 42.3936 103.350045l-92.9024 92.899555 55.918934 55.924623 43.946666 44.259555 0.164978-0.147911 20.650667 20.644978 92.074666-92.074667a366.520889 366.520889 0 0 0 104.177778 41.984L426.666667 867.555556h170.666666z m-85.802666-302.870756c-100.050489 0-181.159822-81.106489-181.159823-181.159822 0-100.0448 81.109333-181.151289 181.159823-181.151289 100.047644 0 181.154133 81.106489 181.154133 181.151289 0 100.053333-81.106489 181.159822-181.154133 181.159822z"  horiz-adv-x="1024" />

    
    <glyph glyph-name="rijian" unicode="&#59059;" d="M541.184 34.816v-109.568H482.5088v109.568h58.6752z m238.4896 123.0848l77.4656-77.5168-41.5232-41.472-77.5168 77.4144 41.5744 41.5744z m-535.6032 0l41.5232-41.5744-77.4656-77.4656-41.5744 41.5744 77.5168 77.4656z m267.776 515.2256a289.024 289.024 0 0 0 0-577.9968 289.024 289.024 0 0 0 0 578.048z m0-58.6752a229.7344 229.7344 0 0 1-162.816-67.4816 229.7344 229.7344 0 0 1-49.3568-252.416c11.6224-27.4432 28.2112-52.0704 49.3568-73.216a229.6832 229.6832 0 0 1 162.816-67.4816 229.7856 229.7856 0 0 1 162.816 67.4816c21.248 21.1456 37.888 45.7728 49.3568 73.216a228.1984 228.1984 0 0 1 18.1248 89.6 229.6832 229.6832 0 0 1-67.4816 162.816A229.8368 229.8368 0 0 1 511.8464 614.4zM162.5088 413.4912v-58.6752h-109.568V413.4912h109.568z m808.2944 0v-58.6752H861.184V413.4912h109.568zM208.128 729.3952l77.4656-77.4656-41.5232-41.5232-77.5168 77.4656 41.5744 41.5744z m607.4368 0l41.5744-41.472-77.4656-77.5168-41.5744 41.5232 77.4656 77.5168z m-274.3808 113.664v-109.568H482.5088v109.568h58.6752z"  horiz-adv-x="1024" />

    
    <glyph glyph-name="yejian" unicode="&#59060;" d="M506.88-25.6c-35.84 0-71.68 5.12-102.4 15.36-107.52 30.72-194.56 97.28-245.76 194.56C102.4 281.6 92.16 394.24 117.76 501.76c40.96 153.6 163.84 271.36 312.32 307.2l46.08 10.24-10.24-51.2c-5.12-10.24-5.12-20.48-10.24-30.72v-5.12c-25.6-97.28-15.36-199.68 25.6-281.6 46.08-81.92 117.76-143.36 209.92-163.84 46.08-10.24 102.4-15.36 163.84-5.12l46.08 10.24-20.48-46.08c-51.2-168.96-204.8-271.36-373.76-271.36zM399.36 737.28C286.72 696.32 204.8 604.16 174.08 486.4c-25.6-92.16-15.36-194.56 30.72-276.48 46.08-81.92 122.88-143.36 209.92-168.96 158.72-40.96 322.56 30.72 399.36 174.08-51.2 0-97.28 0-138.24 15.36-107.52 30.72-194.56 97.28-245.76 194.56-46.08 92.16-61.44 204.8-30.72 312.32z"  horiz-adv-x="1024" />

    
    <glyph glyph-name="jisuanqi" unicode="&#59058;" d="M810.31361328 805.875c38.70017578 0 70.10455078-31.49771484 70.10455078-70.20263672v-695.2115039c0-38.60683594-31.404375-70.10402344-70.10455078-70.10402344H212.96445312c-38.70070312 0-70.10455078 31.49771484-70.10455078 70.20263672V735.67236328C142.859375 774.37675781 174.26322266 805.875 212.96392578 805.875H810.31308594z m16.32814453-285.61517578H196.64105469v-479.7984375c0-9.02654297 7.29632813-16.42148437 16.32287109-16.42148438H810.31308594c9.02759766 0 16.32867187 7.39494141 16.32867187 16.42148438l-0.00052734 479.7984375z m-155.32330078-63.98103516l38.02570313-38.02886718-356.56875-356.46644532-38.02148438 38.03519531 356.56453125 356.46011719z m71.37070313-279.82335937l0.00316406-53.77957031H589.79849609l0.00369141 53.77957031h152.88644531z m0.76359375 81.46669922v-53.78378907H589.79744141v53.78378907h153.6553125z m-330.25166016 179.36542968v-48.97916015h49.55607422v-53.78220703l-49.55607422 0.00052734v-50.89763672H359.41941406v50.89763672h-49.55132812V388.30734375l49.55132812 0.00052734v48.9796875h53.78167969z m397.11251953 314.80576172H212.96445312c-9.02654297 0-16.32287109-7.39494141-16.32287109-16.42148437v-161.63033203h630.00070313l0.00052734 161.63085937c0 9.02601563-7.30107422 16.42095703-16.32867187 16.42095703z"  horiz-adv-x="1024" />

    
    <glyph glyph-name="jiantou3" unicode="&#59056;" d="M512 896c281.6 0 512-230.4 512-512s-230.4-512-512-512-512 230.4-512 512 230.4 512 512 512z m0-85.333333C277.333333 810.666667 85.333333 618.666667 85.333333 384s192-426.666667 426.666667-426.666667 426.666667 192 426.666667 426.666667-192 426.666667-426.666667 426.666667z m221.866667-311.466667l59.733333-59.733333L541.866667 187.733333a407.978667 407.978667 0 0 0-29.866667-25.6 396.8 396.8 0 0 0-29.866667 25.6L230.4 439.466667l59.733333 59.733333L512 277.333333l221.866667 221.866667z"  horiz-adv-x="1024" />

    
    <glyph glyph-name="jiantou4" unicode="&#59057;" d="M0 384c0 281.6 230.4 512 512 512s512-230.4 512-512-230.4-512-512-512-512 230.4-512 512z m85.333333 0c0-234.666667 192-426.666667 426.666667-426.666667s426.666667 192 426.666667 426.666667-192 426.666667-426.666667 426.666667-426.666667-192-426.666667-426.666667z m311.466667 221.866667l59.733333 59.733333L708.266667 413.866667c5.632-5.632 14.165333-15.530667 25.6-29.866667a396.8 396.8 0 0 0-25.6-29.866667L456.533333 102.4l-59.733333 59.733333L618.666667 384l-221.866667 221.866667z"  horiz-adv-x="1024" />

    
    <glyph glyph-name="xinshou" unicode="&#59045;" d="M127.853714 639.122286h383.561143v63.926857H127.853714v-63.926857z m0-383.561143h383.561143v63.926857H127.853714v-63.926857z m894.976 191.780571l-185.344-389.924571L447.488-128l185.417143 389.924571 389.924571 185.417143zM894.976 894.829714v-447.488h-63.926857V830.902857H63.926857v-894.976h319.634286V-128H0V894.829714h894.976zM677.668571 217.234286l-127.853714-242.980572 242.834286 127.853715L677.741714 217.234286z m25.6 294.034285v-63.926857H127.780571V511.268571h575.341715z"  horiz-adv-x="1024" />

    
    <glyph glyph-name="Fhuazhuan" unicode="&#59037;" d="M361.398857 472.868571H0L361.398857 822.857143v-207.652572H1024v-142.336H361.398857z m301.202286-177.737142H1024L662.601143-54.857143v207.652572H0V295.131429h662.601143z"  horiz-adv-x="1024" />

    
    <glyph glyph-name="fabiguan" unicode="&#59033;" d="M1024 676.571429v-804.571429H146.285714V457.142857a219.428571 219.428571 0 0 0 219.428572 219.428572h658.285714z m-146.285714 146.285714v-73.142857H219.428571a146.285714 146.285714 0 0 1-146.285714-146.285715v-658.285714H0V603.4285709999999a219.428571 219.428571 0 0 0 219.428571 219.428572h658.285715zM507.245714 493.714286H402.285714l117.76-204.580572H442.002286v-51.126857H544.182857v-45.787428H442.002286v-51.126858H544.182857v-114.395428h92.16V141.16571399999998H738.742857v51.2H636.489143v45.714286H738.742857v51.2H661.357714L782.482286 493.714286H680.228571L594.651429 326.802286h-4.681143L507.245714 493.714286z"  horiz-adv-x="1024" />

    
    <glyph glyph-name="qianbao" unicode="&#59053;" d="M1024 749.714286v-219.428572H694.857143a182.857143 182.857143 0 0 1 0-365.714285H1024v-219.428572H0V749.714286h1024zM658.285714 420.571429h146.285715v-146.285715H658.285714z"  horiz-adv-x="1024" />

    
    <glyph glyph-name="guanggao" unicode="&#59054;" d="M73.142857-54.857143h877.714286v73.142857H73.142857zM1024 749.714286v-658.285715H0V749.714286h1024zM400.603429 603.428571h-67.657143L219.428571 237.714286h66.413715l23.552 81.408h112.201143L444.269714 237.714286h68.534857L400.603429 603.428571z m267.702857 0h-129.462857v-365.714285h129.462857c23.04 0 43.008 4.681143 59.977143 14.116571 16.969143 9.362286 31.085714 22.235429 42.422857 38.619429a176.274286 176.274286 0 0 1 25.453714 58.441143c5.632 22.528 8.411429 47.104 8.411429 73.728a273.554286 273.554286 0 0 1-10.24 79.36 164.425143 164.425143 0 0 1-28.672 56.32 117.467429 117.467429 0 0 1-43.300572 33.865142A129.974857 129.974857 0 0 1 668.379429 603.428571z m-16.310857-67.584c16.237714 0 29.915429-2.852571 40.96-8.484571a67.291429 67.291429 0 0 0 26.697142-24.356571c6.729143-10.532571 11.556571-23.259429 14.482286-38.107429 2.925714-14.848 4.388571-31.451429 4.388572-49.956571 0-20.114286-2.048-37.229714-6.290286-51.2a99.474286 99.474286 0 0 0-16.822857-34.084572 61.147429 61.147429 0 0 0-23.917715-18.724571 71.168 71.168 0 0 0-27.794285-5.632H604.891429V535.844571z m-285.476572-22.528l37.888-134.217142H326.656L365.714286 513.316571h0.804571z"  horiz-adv-x="1024" />

    
    <glyph glyph-name="bianzu" unicode="&#59055;" d="M632.46153886 670.55307685l-48.95307772-48.95307685 185.64923144-185.67692315H268.30769258v-69.23076943h500.85l-185.67692315-185.67692315 48.98076944-48.95307685L901.67923057 401.30769258 632.46153886 670.55307685zM1031.23076943 834v-900H62V834h969.23076943z"  horiz-adv-x="1102" />

    
    <glyph glyph-name="jiahao" unicode="&#59018;" d="M576 896v-448H1024v-128H575.914667L576-128h-128l-0.085333 448H0v128h448V896h128z"  horiz-adv-x="1024" />

    
    <glyph glyph-name="xiazaiAPP" unicode="&#59017;" d="M341.317818 0H256V768h512v-768H341.317818z m0 85.317818h341.364364V682.682182H341.317818v-597.364364z m85.364364 42.682182v85.317818h170.635636V128H426.682182z"  horiz-adv-x="1024" />

    
    <glyph glyph-name="shanchu" unicode="&#59014;" d="M512 896c283.136 0 512-228.864 512-512s-228.864-512-512-512-512 228.864-512 512 228.864 512 512 512z m0-90.368A422.912 422.912 0 0 1 90.368 384 422.912 422.912 0 0 1 512-37.632 422.912 422.912 0 0 1 933.632 384 422.912 422.912 0 0 1 512 805.632zM783.018667 429.226667v-90.282667H240.981333V429.141333h542.037334z"  horiz-adv-x="1024" />

    
    <glyph glyph-name="xuanze2" unicode="&#59008;" d="M1024 896v-1024L0 896h1024z m-134.621867-175.581867l-196.8128-195.3792L595.285333 622.3872l-50.039466-50.039467 143.906133-144.1792 246.9888 245.418667-46.830933 46.830933z"  horiz-adv-x="1024" />

    
    <glyph glyph-name="dikoubeifen" unicode="&#58984;" d="M2560 896v-290.133333a221.866667 221.866667 0 0 1 0-443.733334V-128H0V896h2560zM756.053333 690.346667c-49.493333 0-91.050667-14.933333-124.586666-44.8-33.536-29.866667-51.456-70.144-53.76-120.746667h87.04c2.304 26.709333 11.52 47.957333 27.733333 63.573333 16.213333 15.616 37.376 23.466667 63.573333 23.466667 25.6 0 46.933333-8.277333 64-24.746667 17.066667-16.469333 25.6-39.509333 25.6-69.12 0-28.416-7.68-50.944-23.04-67.413333-15.36-16.469333-38.4-24.746667-69.12-24.746667h-14.506666v-75.946666h14.506666c33.536 0 58.88-8.789333 75.946667-26.453334 17.066667-17.664 25.6-42.069333 25.6-73.386666s-9.216-55.893333-27.733333-73.813334c-18.517333-17.92-42.24-26.88-71.253334-26.88-27.306667 0-50.176 7.68-68.693333 23.04-18.517333 15.36-28.586667 38.4-30.293333 69.12H570.026667c1.706667-56.32 20.053333-98.816 55.04-127.573333 34.986667-28.757333 78.677333-43.093333 130.986666-43.093333 53.504 0 97.877333 15.36 133.12 46.08 35.242667 30.72 52.906667 74.24 52.906667 130.56 0 70.570667-28.416 118.357333-85.333333 143.36 50.602667 25.002667 75.946667 68.266667 75.946666 129.706666 0 50.090667-16.469333 90.88-49.493333 122.453334-33.024 31.573333-75.349333 47.36-127.146667 47.36z m1237.333334-299.52c-34.133333 0-62.549333-10.496-85.333334-31.573334s-34.133333-49.493333-34.133333-85.333333V187.733333c0-35.84 11.349333-64.256 34.133333-85.333333s51.2-31.573333 85.333334-31.573333 62.549333 10.496 85.333333 31.573333 34.133333 49.493333 34.133333 85.333333V273.92c0 35.84-11.349333 64.256-34.133333 85.333333s-51.2 31.573333-85.333333 31.573334z m-777.386667 298.666666c-49.493333 0-91.050667-15.786667-124.586667-47.36-33.536-31.573333-50.346667-73.813333-50.346666-126.72v-269.653333c0-52.906667 16.810667-95.146667 50.346666-126.72 33.536-31.573333 75.093333-47.36 124.586667-47.36 50.090667 0 91.904 15.786667 125.44 47.36 33.536 31.573333 50.346667 73.813333 50.346667 126.72V515.413333c0 52.906667-16.810667 95.146667-50.346667 126.72-33.536 31.573333-75.349333 47.36-125.44 47.36z m764.586667-5.12h-69.12L1624.746667 76.8h69.973333l285.866667 607.573333z m12.8-351.573333c35.84 0 53.76-20.48 53.76-61.44v-81.066667c0-40.96-17.92-61.44-53.76-61.44-35.84 0-53.76 20.48-53.76 61.44v81.066667c0 40.96 17.92 61.44 53.76 61.44z m-777.386667 279.04c27.306667 0 48.896-9.130667 64.853333-27.306667 15.957333-18.176 23.893333-42.069333 23.893334-71.68v-264.533333c0-29.610667-7.936-53.504-23.893334-71.68-15.957333-18.176-37.546667-27.306667-64.853333-27.306667s-48.810667 8.96-64.426667 26.88c-15.616 17.92-23.466667 41.984-23.466666 72.106667v264.533333c0 30.122667 7.850667 54.186667 23.466666 72.106667 15.616 17.92 37.12 26.88 64.426667 26.88zM477.013333 354.133333H227.84v-81.066666h249.173333v81.066666zM1612.8 690.346667c-34.133333 0-62.549333-10.496-85.333333-31.573334s-34.133333-49.493333-34.133334-85.333333v-86.186667c0-35.84 11.349333-64.170667 34.133334-84.906666s51.2-31.146667 85.333333-31.146667 62.549333 10.410667 85.333333 31.146667 34.133333 49.066667 34.133334 84.906666V573.44c0 35.84-11.349333 64.256-34.133334 85.333333s-51.2 31.573333-85.333333 31.573334z m0-58.026667c35.84 0 53.76-20.48 53.76-61.44v-81.066667c0-40.362667-17.92-60.586667-53.76-60.586666-35.84 0-53.76 20.224-53.76 60.586666v81.066667c0 40.96 17.92 61.44 53.76 61.44z"  horiz-adv-x="2560" />

    
    <glyph glyph-name="fabikefutubiao" unicode="&#59050;" d="M512 886.690909a365.661091 365.661091 0 0 0 362.775273-319.860364h48.500363c50.501818 0 91.415273-40.96 91.415273-91.415272v-182.784c0-50.501818-40.96-91.415273-91.415273-91.415273h-48.500363a365.661091 365.661091 0 0 0-355.281455-319.813818 46.08 46.08 0 1 0 0.279273 91.461818l-7.773091-0.139636a274.199273 274.199273 0 0 1 274.152727 274.152727V521.169455a274.199273 274.199273 0 1 1-548.305454 0v-319.90691H100.677818A91.415273 91.415273 0 0 0 9.309091 292.631273V475.415273c0 50.501818 40.96 91.415273 91.415273 91.415272h48.500363A365.661091 365.661091 0 0 0 512 886.690909z m0-731.182545a363.892364 363.892364 0 0 0-174.08 44.078545 46.266182 46.266182 0 0 0-18.944 10.984727l-0.744727 0.465455a46.824727 46.824727 0 0 0-13.451637 32.768 46.08 46.08 0 0 0 61.114182 43.566545l0.791273 1.163637a272.896 272.896 0 0 1 145.314909-41.611637 272.896 272.896 0 0 1 145.314909 41.611637 46.08 46.08 0 0 0 37.329455-84.200728l8.424727 5.166546-10.845091-6.516364A363.892364 363.892364 0 0 0 512 155.461818zM146.385455 475.415273h-45.661091v-182.784h45.661091V475.415273z m776.890181 0h-45.661091v-182.784h45.661091V475.415273z"  horiz-adv-x="1024" />

    
    <glyph glyph-name="meiyoushoudaobi" unicode="&#59051;" d="M511.5904 896c266.103467 0 511.658667-235.3152 511.658667-511.522133 0-265.966933-245.5552-511.522133-511.658667-511.522134C235.3152-127.044267 0 118.442667 0 384.477867 0 660.6848 235.383467 896 511.658667 896zM512 806.843733c-125.201067 0-235.997867-52.565333-311.7056-137.693866-67.037867-74.888533-107.178667-174.6944-107.178667-285.627734 0-227.328 183.842133-423.389867 418.884267-423.389866 224.938667 0 418.884267 196.061867 418.884267 423.389866 0 237.568-193.9456 423.3216-418.884267 423.3216z m27.648-595.421866c6.417067-6.417067 12.765867-19.182933 12.765867-31.9488a48.878933 48.878933 0 0 0-12.834134-32.085334 48.878933 48.878933 0 0 0-31.9488-12.6976 48.878933 48.878933 0 0 0-32.017066 12.765867 48.7424 48.7424 0 0 0-12.765867 32.017067c0 12.765867 6.417067 25.531733 12.834133 31.9488a48.7424 48.7424 0 0 0 31.9488 12.834133c19.182933 0 25.6 0 32.017067-12.834133zM514.048 691.2c44.782933 0 89.565867-19.114667 121.514667-51.2 25.6-25.531733 44.782933-63.965867 38.365866-108.7488 0-31.9488-6.417067-63.965867-25.531733-89.565867-6.417067-12.765867-25.6-25.531733-57.617067-57.5488-19.114667-12.765867-31.9488-25.6-38.365866-38.365866a120.285867 120.285867 0 0 1-12.834134-51.2v-19.114667h-63.965866v19.114667c0 25.6 6.417067 44.782933 12.834133 63.965866 12.765867 19.182933 38.365867 44.782933 76.8 83.1488l25.531733 25.6c12.834133 19.2512 19.182933 38.365867 19.182934 57.617067 0 31.9488-6.417067 51.2-25.531734 70.314667-12.834133 19.2512-38.434133 25.6-70.314666 25.6-38.5024 0-64.034133-12.765867-83.285334-31.9488a142.336 142.336 0 0 1-25.531733-83.217067H341.333333c0 51.2 19.114667 95.982933 44.782934 127.931733C418.065067 672.085333 462.848 691.2 514.048 691.2z"  horiz-adv-x="1024" />

    
    <glyph glyph-name="chain" unicode="&#59052;" d="M740.920889 871.765333v-179.086222H472.177778A269.880889 269.880889 0 0 1 203.320889 423.822222 269.880889 269.880889 0 0 1 472.177778 155.079111h447.943111A269.880889 269.880889 0 0 1 1188.977778 423.822222v89.656889h179.2v-89.656889a449.080889 449.080889 0 0 0-448.056889-447.943111H472.177778A449.080889 449.080889 0 0 0 24.234667 423.822222 449.080889 449.080889 0 0 0 472.177778 871.765333h268.743111z m985.656889 0a449.080889 449.080889 0 0 0 447.943111-447.943111 449.080889 449.080889 0 0 0-447.943111-447.943111h-268.856889V155.079111h268.856889a269.880889 269.880889 0 0 1 268.743111 268.743111 269.880889 269.880889 0 0 1-268.743111 268.856889h-448.056889A269.880889 269.880889 0 0 1 1009.777778 423.822222v-89.543111H830.577778V423.822222A449.080889 449.080889 0 0 0 1278.520889 871.765333z"  horiz-adv-x="2275" />

    
    <glyph glyph-name="zhifubao1" unicode="&#58975;" d="M643.229257 227.924114c-89.680457-107.655314-182.487771-173.549714-323.093943-173.549714-140.551314 0-233.303771 86.776686-221.352228 191.422171 6.034286 68.790857 53.884343 182.429257 260.2752 164.443429 107.655314-8.930743 158.588343-29.816686 248.261485-59.8016 24.016457 41.823086 41.8816 89.6768 56.795429 137.537829H269.202286v38.8608h194.497828V595.861943H227.324343V640.815543h236.317257V742.381714s2.903771 14.972343 20.882286 14.972343H583.314286V640.694857h251.223771v-41.823086H580.242286v-68.794514h206.442057a731.600457 731.600457 0 0 0-83.759543-209.404343c50.925714-17.982171 257.2544-80.746057 317.059657-98.724571V745.398857c-0.146286 54.992457-0.146286 104.8576 0 149.599086H0V-128c44.752457 0.128 94.635886 0.128 149.653943 0h723.858286c54.992457 0.164571 104.839314 0.164571 149.544228 0v185.563429c-50.929371 23.837257-278.198857 122.561829-379.830857 170.422857v-0.062172z m-502.623086 26.916572c-8.9344-38.919314 14.965029-131.671771 164.447086-131.671772 89.738971 0 179.529143 56.784457 251.231086 149.540572-101.686857 50.929371-185.504914 74.770286-281.161143 74.770285-83.646171-2.958629-125.586286-53.716114-134.517029-92.635428z"  horiz-adv-x="1024" />

    
    <glyph glyph-name="yinhangka" unicode="&#58978;" d="M1024 896v-1024H0V896h1024z m-121.731657-449.938286H130.574629l1.4848-308.128914c7.851886-51.357257 47.235657-54.2208 48.0256-54.272h668.869485c50.165029 7.131429 53.255314 57.340343 53.313829 58.3424v304.054857z m-207.140572-208.943543v-56.195657h-56.561371v56.195657h56.561371z m139.776 0v-56.195657H778.349714v56.195657h56.557715z m-70.2464 0v-56.195657H708.096v56.195657h56.561371zM846.785829 684.909714H180.333714s-39.113143-1.056914-47.989028-41.157485l-0.285257-1.349486-1.4848-96.888686 771.693714-0.376686V639.806171c-0.073143 3.587657-2.088229 39.625143-55.482514 45.099886z"  horiz-adv-x="1024" />

    
    <glyph glyph-name="tongguo2" unicode="&#59034;" d="M890.88 725.333333L1024 594.602667 374.613333-42.666667 0 325.034667l133.290667 130.730666 241.493333-237.056z"  horiz-adv-x="1024" />

    
    <glyph glyph-name="weitongguo1" unicode="&#59035;" d="M806.485333 810.666667l125.098667-125.098667-298.069333-297.984 298.069333-298.069333-125.098667-125.098667-298.069333 298.069333-297.984-298.069333L85.333333 89.514667l298.069334 298.069333L85.333333 685.568 210.432 810.666667l297.984-298.069334L806.485333 810.666667z"  horiz-adv-x="1024" />

    
    <glyph glyph-name="shenhe" unicode="&#59036;" d="M286.378667 281.088h232.704v-1.706667l94.549333 1.706667V608.341333l-94.549333-1.706666v-236.032H285.525333l0.853334-89.6z m736.256 102.229333c0 276.138667-245.418667 511.317333-511.317334 511.317334C235.178667 894.634667 0 659.456 0 383.317333 0 117.418667 235.178667-128 511.317333-128c265.898667 0 511.317333 245.418667 511.317334 511.317333z m-800.426667 262.229334c70.229333 78.08 172.970667 126.378667 289.109333 126.378666 208.64 0 388.608-170.581333 388.608-388.608 0-208.64-179.968-388.608-388.608-388.608-218.026667 0-388.608 180.053333-388.608 388.608 0 101.888 37.205333 193.536 99.413334 262.229334z"  horiz-adv-x="1024" />

    
    <glyph glyph-name="tongguo1" unicode="&#59046;" d="M512 384m-512 0a512 512 0 1 1 1024 0 512 512 0 1 1-1024 0ZM236.864 403.264L159.936 326.336l210.9568-210.9632 441.664 434.656-76.3136 77.5424-364.736-358.944z"  horiz-adv-x="1024" />

    
    <glyph glyph-name="touxiang" unicode="&#59048;" d="M983.736895 583.283587a509.671337 509.671337 0 0 1-109.753882 162.699193 511.393514 511.393514 0 0 1-162.67592 109.777155A507.576798 507.576798 0 0 1 512 895.998371c-69.166357 0-136.168356-13.498145-199.28382-40.261708a509.554974 509.554974 0 0 1-162.699193-109.753883 511.393514 511.393514 0 0 1-109.777155-162.67592A507.995705 507.995705 0 0 1 0.001396 383.999767c0-69.049994 13.498145-136.168356 40.261709-199.28382a509.578247 509.578247 0 0 1 109.753882-162.699193 511.579696 511.579696 0 0 1 162.67592-109.777155A507.995705 507.995705 0 0 1 512-127.998836c69.049994 0 136.168356 13.498145 199.28382 40.261708a509.671337 509.671337 0 0 1 162.699193 109.753882 511.602968 511.602968 0 0 1 109.777155 162.67592A507.995705 507.995705 0 0 1 1023.998604 383.999767c0 69.049994-13.498145 136.168356-40.261709 199.28382z m-155.926847-475.064886c-43.007883 26.065383-85.992493 29.044284-85.992493 29.044285l-141.427978 59.903836v74.332888c27.554834 13.963598 38.865349 93.3932 38.865349 93.3932 31.674095-1.233451 27.089381 59.345293 27.554834 84.503043 0.465453 25.15775-13.149055 20.247218-13.149055 20.247217 7.214526 48.011505 4.119261 84.82886 4.119261 84.82886-18.990494 118.574222-145.105059 119.947309-145.105059 119.947309l-0.09309-13.498145-0.116364 13.498145s-126.137838-1.39636-145.105059-119.947309c0 0-3.188355-36.817354 4.119262-84.82886 0 0-13.614508 4.910532-13.149055-20.247217 0.465453-25.134477-4.119261-85.736493 27.554834-84.386679 0 0 11.333787-79.452874 38.865348-93.3932v-74.332888l-141.427978-60.0202s-43.450063-3.095264-86.6674-29.626101a418.04686 418.04686 0 0 0-104.028807 276.246519c0 231.307006 188.18276 419.489765 419.489765 419.489765 231.307006 0 419.489765-188.18276 419.489765-419.489765a417.744315 417.744315 0 0 0-103.79608-275.664703z"  horiz-adv-x="1024" />

    
    <glyph glyph-name="weitongguo" unicode="&#59049;" d="M512 384m-512 0a512 512 0 1 1 1024 0 512 512 0 1 1-1024 0ZM693.12 646.4l76.928-76.928-183.296-183.296 183.296-183.296-76.928-76.928-183.296 183.296-183.296-183.296L249.6 202.88l183.296 183.296L249.6 569.472 326.528 646.4l183.296-183.296L693.12 646.4z"  horiz-adv-x="1024" />

    
    <glyph glyph-name="tishi1" unicode="&#59047;" d="M511.488 896a511.488 511.488 0 1 1 0-1022.976A511.488 511.488 0 0 1 511.488 896z m138.410667-798.549333c-30.122667-10.410667-53.76-18.432-71.68-24.064-17.749333-5.717333-38.656-8.533333-62.293334-8.533334-36.181333 0-64.512 8.021333-84.48 23.637334a73.642667 73.642667 0 0 0-30.378666 60.586666c0 9.386667 0.768 18.858667 2.304 28.757334a391.68 391.68 0 0 0 7.168 33.621333l37.546666 118.613333c3.413333 11.434667 1.450667 21.76 3.754667 32.256 2.304 9.898667 3.413333 19.370667 3.413333 27.306667 0 15.701333 1.365333 26.112-5.546666 31.744-7.253333 6.144-20.309333 4.437333-40.106667 4.437333-9.813333 0-19.882667-1.450667-29.866667-3.84-10.24-2.816-19.029333-0.597333-26.197333-3.413333l10.069333 36.864c24.32 9.045333 47.957333 16.554667 70.4 22.698667a223.573333 223.573333 0 0 0 63.488 9.386666c36.266667 0 64-7.509333 83.541334-23.04 19.541333-15.701333 41.130667-36.010667 41.130666-60.586666 0-5.205333-0.853333-14.165333-2.048-27.392-1.28-12.8-3.925333-24.661333-7.509333-35.498667l-49.322667-118.186667c-2.816-9.386667-5.632-20.309333-8.021333-32.682666-2.56-11.776-3.84-21.333333-3.84-27.392 0-15.616 4.096-26.453333 11.861333-32.170667 7.936-5.632 21.589333-8.533333 40.874667-8.533333 8.96 0 19.285333 1.450667 30.805333 4.266666 11.605333 2.816 19.797333 5.205333 24.917334 7.594667l-9.984-36.437333z m-6.656 479.573333a93.525333 93.525333 0 0 0-62.72-21.76c-24.405333 0-45.482667 7.082667-63.232 21.674667a65.194667 65.194667 0 0 0-26.282667 52.565333c0 20.309333 8.789333 37.802667 26.282667 52.48a96.426667 96.426667 0 0 0 63.146666 22.186667 93.866667 93.866667 0 0 0 62.805334-22.186667c17.408-14.677333 26.197333-32.170667 26.197333-52.48a65.194667 65.194667 0 0 0-26.197333-52.565333z"  horiz-adv-x="1024" />

    
    <glyph glyph-name="jiantouzhuce" unicode="&#59044;" d="M1257.482111 331.828891l-381.660219-384.155985a44.667812 44.667812 0 0 1 0-62.906103c17.27838-17.406368 45.243758-17.406368 62.522138 0l456.917164 459.988876a44.667812 44.667812 0 0 1 0 62.906103L927.081086 882.56126a43.963878 43.963878 0 0 1-62.458144 0 44.667812 44.667812 0 0 1 0-62.906103l392.667187-399.002593H43.83589a44.347842 44.347842 0 0 1-44.15586-44.475831c0-24.573696 19.710152-44.47583 44.15586-44.47583H1257.482111z"  horiz-adv-x="1408" />

    
    <glyph glyph-name="logo" unicode="&#59038;" d="M806.836148 271.473778c0-94.01837-78.703881-170.029511-173.693155-165.592178-42.059852 1.956978-81.609007 20.624119-111.373274 50.403556l-12.66726 12.667259a13.183052 13.183052 0 0 0 0 18.65197l29.400178 29.385008a13.145126 13.145126 0 0 0 18.659556 0l13.054103-13.046519c17.256296-17.263881 39.996681-28.520296 64.337541-30.082844 56.668919-3.67123 103.970133 41.233067 104.303882 97.060029a164.924681 164.924681 0 0 0-97.833719-32.047407c-54.507141 0-102.953719 26.464711-133.188267 67.204741-30.340741-39.230578-77.854341-64.580267-131.185777-64.580267-90.612622 0-164.431644 73.068089-165.728712 163.384889H210.868148V655.443437a13.198222 13.198222 0 0 0 13.198222 13.205807h41.566815c7.281778 0 13.198222-5.916444 13.198222-13.198222v-114.422518a164.947437 164.947437 0 0 0 97.826134 32.047407c54.522311 0 102.968889-26.464711 133.195852-67.212326 30.348326 39.238163 77.846756 64.603022 131.178192 64.603022 89.914785 0 163.286281-71.968237 165.6832-161.314133h0.121363v-137.671111zM508.836978 896C227.821037 896 0 668.201719 0 387.163022 0 106.147081 227.821037-121.66637 508.844563-121.66637c281.008356 0 508.829393 227.813452 508.829393 508.829392 0 281.031111-227.821037 508.836978-508.829393 508.836978zM376.649956 505.120237c-53.945837 0-97.826133-43.895467-97.826134-97.826133v-0.015171c0-57.639822 50.084978-103.780504 109.014282-97.204148 44.889126 5.013807 81.009778 41.142044 86.016 86.016 6.583941 58.936889-39.571911 109.029452-97.204148 109.029452M631.011556 501.995141c-45.738667-4.581452-82.7392-41.566815-87.305482-87.305482-6.181926-61.804089 45.549037-113.535052 107.345541-107.353126 45.738667 4.566281 82.75437 41.5744 87.313066 87.313067 6.174341 61.796504-45.564207 113.512296-107.360711 107.345541M1470.941867 207.432059s-111.153304-3.822933-111.160889 130.2528v0.075852c0.007585 0.83437 1.562548 121.362963 111.160889 125.686519 0 0 111.873896 2.123852 111.153303-129.380504-0.690252-131.511941-111.153304-126.634667-111.153303-126.634667m29.93114 364.946015c-99.456948 4.642133-141.084444-62.941867-141.092029-62.972207V751.881481a18.909867 18.909867 0 0 1-18.909867 18.909867h-80.88083A18.909867 18.909867 0 0 1 1241.080415 751.881481v-624.412444a18.902281 18.902281 0 0 1 18.909866-18.894696h80.88083a18.902281 18.902281 0 0 1 18.909867 18.902281v27.564563c26.085452-40.216652 74.76717-60.180859 149.177837-59.027911 93.108148 1.41843 194.817896 78.779733 194.817896 239.213985 0 160.426667-103.431585 232.485926-202.903704 237.14323M2904.610133 386.06317s4.217363 87.479941 104.834845 87.381334c95.520237-0.098607 94.610015-87.381333 94.610015-87.381334h-199.44486z m102.657897 186.671408c-198.784948 0-220.99437-186.671407-220.994371-235.815822 0-40.171141 15.875793-241.087526 232.645215-241.087526 112.184889 0 166.350696 78.461156 185.988741 116.364326 5.347556 10.331022 0.098607 22.960356-10.953008 26.586074l-67.872237 22.285274c-8.260267 2.700326-17.42317-0.371674-22.088059-7.691378-11.908741-18.682311-40.982756-51.374459-98.645333-51.374459-70.185719 0-101.239467 60.22637-102.695822 101.451852l303.7184-0.015171a18.887111 18.887111 0 0 1 18.917451 18.560948c0.83437 60.909037-13.038933 250.728296-218.020977 250.728297zM1862.572563 541.134696h-82.193067a18.917452 18.917452 0 0 1-18.925037-18.902281v-407.3472a18.925037 18.925037 0 0 1 18.925037-18.917452h82.193067a18.925037 18.925037 0 0 1 18.917452 18.917452V522.232415a18.909867 18.909867 0 0 1-18.917452 18.902281M1821.468444 765.360356c-43.379674 0-78.559763-35.172504-78.559763-78.559763s35.180089-78.559763 78.559763-78.559763c43.394844 0 78.559763 35.164919 78.559763 78.559763 0 43.387259-35.164919 78.559763-78.559763 78.559763M2206.50003 549.994193h-59.422341c-7.570015 0-13.70643 6.144-13.70643 13.714014V665.683437a18.917452 18.917452 0 0 1-18.925037 18.902282h-75.58637a18.917452 18.917452 0 0 1-18.925037-18.902282v-101.97523c0-7.570015-6.12883-13.714015-13.714015-13.714014h-53.475556a18.917452 18.917452 0 0 1-18.909866-18.925037v-68.38803a18.909867 18.909867 0 0 1 18.917452-18.902282h53.46797c7.585185 0 13.714015-6.144 13.714015-13.729185v-199.8848s-7.221096-121.302281 109.021866-132.3008c38.904415-4.035319 66.013867 0.364089 81.07046 4.323556a18.849185 18.849185 0 0 1 13.979496 18.280296v62.350222a18.887111 18.887111 0 0 1-20.123496 18.871941c-25.106963-1.600474-65.384296 0.136533-70.511882 26.775704V430.042074c0 7.585185 6.136415 13.729185 13.70643 13.729185h59.422341a18.909867 18.909867 0 0 1 18.917451 18.902282v68.388029a18.909867 18.909867 0 0 1-18.917451 18.925037M3455.833126 443.778844h59.452681a18.909867 18.909867 0 0 1 18.917452 18.902282v68.38803a18.917452 18.917452 0 0 1-18.917452 18.925037h-59.452681a13.691259 13.691259 0 0 0-13.683674 13.683674V665.675852A18.909867 18.909867 0 0 1 3423.232 684.585719H3347.64563A18.909867 18.909867 0 0 1 3328.728178 665.675852v-102.005571c0-7.554844-6.12883-13.683674-13.691259-13.683674H3261.538607a18.909867 18.909867 0 0 1-18.917451-18.925037v-68.388029a18.902281 18.902281 0 0 1 18.917451-18.902282h53.498312c7.56243 0 13.691259-6.144 13.691259-13.698844v-199.915141s-7.236267-121.302281 109.021866-132.3008c38.89683-4.035319 66.006281 0.364089 81.055289 4.323556a18.834015 18.834015 0 0 1 13.987082 18.280296v62.350222a18.887111 18.887111 0 0 1-20.123496 18.871941c-25.106963-1.600474-65.384296 0.136533-70.519467 26.775704V430.08c0 7.554844 6.144 13.698844 13.683674 13.698844M2502.921481 240.852385c-62.27437 0-112.761363 50.479407-112.761362 112.753778s50.479407 112.746193 112.761362 112.746193c50.919348 0 110.940919-37.569422 110.940919-112.746193 0-75.169185-60.02157-112.753778-110.940919-112.753778m206.112238 324.023941h-79.287941a18.909867 18.909867 0 0 1-18.909867-18.902282v-33.291377c-9.0112 13.933985-44.411259 58.603141-128.720592 58.60314-99.836207 0-207.530667-62.828089-207.530667-223.232 0-160.441837 133.802667-210.10963 215.123437-210.109629 59.862281 0 101.869037 33.018311 121.135407 55.447703v-15.655822s5.825422-138.141393-107.922015-138.141392c-81.768296 0-109.55283 43.690667-118.708148 68.243911-3.398163 9.087052-13.289244 13.994667-22.694874 11.567407l-68.918992-17.772089a18.925037 18.925037 0 0 1-13.327171-23.9616c13.357511-43.083852 61.842015-143.284148 223.649185-143.284148 206.097067 0 225.022104 184.941985 225.022104 235.398637V545.974044a18.902281 18.902281 0 0 1-18.909866 18.902282"  horiz-adv-x="3534" />

    
    <glyph glyph-name="zichan1" unicode="&#59039;" d="M0 564.701867V648.3968h1024v-252.245333h-311.432533c-46.421333 0-84.3776-36.727467-84.3776-81.5104v-52.155734c0-44.8512 38.024533-81.578667 84.3776-81.578666H1024V-128H0V564.701867zM863.573333 698.026667H308.155733L659.933867 885.896533c40.686933 21.640533 92.16 7.304533 114.688-31.9488L863.573333 698.026667z m-164.795733-412.740267a47.104 47.104 0 0 0 24.576 41.028267 50.517333 50.517333 0 0 0 49.015467 0 47.104 47.104 0 0 0 24.507733-40.96 47.104 47.104 0 0 0-24.576-41.096534 50.517333 50.517333 0 0 0-49.015467 0 47.104 47.104 0 0 0-24.507733 41.028267z"  horiz-adv-x="1024" />

    
    <glyph glyph-name="zhanghu" unicode="&#59040;" d="M512 773.12a163.84 163.84 0 0 0 163.84-163.84v-102.4a163.84 163.84 0 0 0-327.68 0v102.4A163.84 163.84 0 0 0 512 773.12z m0-81.92a81.92 81.92 0 0 1-81.92-81.92v-102.4a81.92 81.92 0 1 1 163.84 0v102.4A81.92 81.92 0 0 1 512 691.2z m-312.32-427.473455c77.637818 25.6 181.76 38.353455 312.32 38.353455s234.682182-12.8 312.32-38.353455a81.92 81.92 0 0 0 56.32-77.824V76.79999999999995a81.92 81.92 0 0 0-81.92-81.92H225.28a81.92 81.92 0 0 0-81.92 81.92v109.102545c0 35.374545 22.714182 66.792727 56.32 77.824z m40.494545-71.586909a20.48 20.48 0 0 1-14.894545-19.735272v-75.124364c0-11.310545 9.169455-20.48 20.48-20.48h532.48a20.48 20.48 0 0 1 20.48 20.48v75.170909a20.48 20.48 0 0 1-14.894545 19.688727c-66.187636 18.664727-156.811636 28.020364-271.825455 28.020364-115.013818 0-205.637818-9.309091-271.825455-28.020364z"  horiz-adv-x="1024" />

    
    <glyph glyph-name="jiaoyijilu2" unicode="&#59041;" d="M647.441067 615.082667V896H102.4v-1024h819.2V615.082667H647.441067z m-378.88-80.008534c0 5.461333 4.642133 10.24 9.966933 10.24h294.843733c5.3248 0 10.0352-4.778667 10.0352-10.24v-40.96c0-5.461333-4.7104-10.308267-10.0352-10.308266h-294.912a10.376533 10.376533 0 0 0-9.966933 10.24v40.96z m476.910933-387.618133c0-5.461333-4.642133-10.24-9.966933-10.24H278.528a10.376533 10.376533 0 0 0-10.0352 10.24v41.028267c0 5.461333 4.7104 10.24 10.0352 10.24h456.977067c5.3248 0 9.966933-4.778667 9.966933-10.24v-40.96z m0 174.353067c0-5.461333-4.642133-10.24-9.966933-10.24H278.528a10.376533 10.376533 0 0 0-10.0352 10.24v40.96c0 5.461333 4.7104 10.24 10.0352 10.24h456.977067c5.3248 0 9.966933-4.778667 9.966933-10.24v-40.96z m159.470933 334.916266H689.425067L688.810667 875.52l216.200533-218.794667z"  horiz-adv-x="1024" />

    
    <glyph glyph-name="lingying" unicode="&#59042;" d="M512 896c282.752 0 512-229.248 512-512s-229.248-512-512-512S0 101.248 0 384 229.248 896 512 896zM322.218667 682.666667C285.269333 682.666667 255.914667 653.482667 256 616.832A65.706667 65.706667 0 0 1 322.304 551.68a65.493333 65.493333 0 0 1 66.218667 66.261333C388.394667 653.653333 358.656 682.709333 322.218667 682.666667z m52.48-181.973334H271.36c-6.272 0-6.272 0-6.272-6.144v-352.896c0-5.418667 0.042667-5.461333 5.461333-5.461333h104.149334c5.461333 0 5.504 0 5.504 5.418667V495.232c0 5.461333 0 5.461333-5.461334 5.461333z m434.346666-125.824a227.242667 227.242667 0 0 1-11.477333 59.648c-12.714667 35.925333-36.949333 59.946667-74.496 69.845334a175.445333 175.445333 0 0 1-70.314667 4.565333c-36.778667-5.333333-66.176-22.528-86.314666-54.101333-0.682667-1.066667-1.066667-3.114667-2.730667-2.56-1.450667 0.512-0.853333 2.432-0.853333 3.754666v39.253334c0 5.376 0 5.418667-5.461334 5.418666h-98.133333c-6.229333 0-6.229333 0-6.229333-6.186666v-352.896c0-5.376 0.042667-5.418667 5.504-5.418667h102.656c6.186667 0 6.186667 0 6.186666 6.229333 0 60.416 0 120.874667 0.085334 181.333334 0 13.952 1.322667 27.861333 5.205333 41.386666 4.437333 15.402667 11.989333 28.757333 26.581333 37.12 12.074667 6.869333 25.216 8.533333 38.912 8.448 26.453333-0.256 44.117333-12.885333 52.010667-37.845333 4.778667-15.146667 5.888-30.805333 5.930667-46.549333 0.085333-61.568 0-123.136 0.042666-184.661334 0-5.418667 0.042667-5.461333 5.504-5.461333h103.381334c5.418667 0 5.461333 0.042667 5.461333 5.461333 0 42.112 0.170667 84.224-0.042667 126.378667-0.170667 35.584 1.237333 71.253333-1.408 106.837333z"  horiz-adv-x="1024" />

    
    <glyph glyph-name="Reddit" unicode="&#59043;" d="M625.066667 228.778667c6.144-6.058667 6.144-11.946667 0-17.664-23.552-23.594667-61.44-35.413333-113.578667-35.413334s-90.026667 11.818667-113.578667 35.413334c-6.101333 5.674667-6.101333 11.605333 0 17.664a11.605333 11.605333 0 0 0 8.533334 3.413333c3.413333 0 6.314667-1.109333 8.576-3.413333 18.261333-18.645333 50.432-27.946667 96.469333-27.946667 45.653333 0 77.824 9.301333 96.469333 27.946667a11.648 11.648 0 0 0 8.576 3.413333c3.413333 0 6.272-1.109333 8.533334-3.413333z m-175.232 103.338666c0-14.08-4.949333-26.026667-14.848-35.968a48.981333 48.981333 0 0 0-35.968-14.848 49.92 49.92 0 0 0-36.266667 14.848 48.512 48.512 0 0 0-15.104 35.968c0 14.506667 5.034667 26.624 15.146667 36.522667a49.92 49.92 0 0 0 36.266666 14.848c14.08 0 26.026667-5.034667 35.925334-15.104 9.898667-10.112 14.848-22.186667 14.848-36.266667z m225.493333 0c0-14.08-5.034667-26.026667-15.104-35.968a49.92 49.92 0 0 0-36.266667-14.848c-14.08 0-26.026667 4.949333-35.968 14.848a48.981333 48.981333 0 0 0-14.848 35.968c0 14.08 4.949333 26.154667 14.848 36.266667 9.898667 10.069333 21.888 15.104 35.968 15.104 14.08 0 26.154667-4.949333 36.266667-14.848 10.069333-9.898667 15.104-22.058667 15.104-36.522667z m143.317333 68.522667c0 18.645333-6.656 34.602667-20.010666 47.957333a66.090667 66.090667 0 0 1-48.512 19.968c-19.029333 0-35.413333-6.826667-49.066667-20.565333-49.493333 34.261333-108.672 52.522667-177.578667 54.826667l35.968 161.536 114.176-25.685334c0-14.08 4.949333-26.026667 14.848-35.968 9.898667-9.898667 21.888-14.848 35.968-14.848 14.08 0 26.154667 5.034667 36.266667 15.146667 10.069333 10.069333 15.104 22.186667 15.104 36.266667 0 14.08-5.034667 26.154667-15.104 36.266666a49.493333 49.493333 0 0 1-36.266667 15.104c-20.565333 0-35.797333-9.514667-45.653333-28.586666l-126.165333 27.989333c-7.253333 1.92-11.989333-1.109333-14.293334-9.130667l-39.381333-178.090666c-68.522667-2.688-127.317333-21.12-176.384-55.381334-13.354667 14.08-29.866667 21.12-49.664 21.12-19.029333 0-35.242667-6.656-48.554667-19.968a65.408 65.408 0 0 1-19.968-47.957333 68.096 68.096 0 0 1 38.826667-61.653333c-2.304-10.282667-3.413333-20.949333-3.413333-32 0-54.016 26.624-100.266667 79.914666-138.666667 53.290667-38.485333 117.376-57.685333 192.384-57.685333 75.349333 0 139.648 19.2 192.938667 57.642666s79.914667 84.693333 79.914667 138.709334c0 12.202667-1.322667 23.04-3.968 32.554666a67.541333 67.541333 0 0 1 37.674666 61.098667z m204.373334-17.152c0-69.248-13.525333-135.466667-40.533334-198.656-27.050667-63.146667-63.402667-117.589333-109.056-163.285333-45.653333-45.653333-100.096-82.005333-163.242666-109.013334-63.189333-27.008-129.408-40.533333-198.698667-40.533333-69.248 0-135.466667 13.525333-198.656 40.533333-63.146667 27.008-117.589333 63.36-163.285333 109.013334-45.653333 45.696-82.005333 100.096-109.013334 163.285333A500.053333 500.053333 0 0 0 0 383.488c0 69.290667 13.525333 135.509333 40.533333 198.656 27.008 63.189333 63.36 117.632 109.013334 163.285333 45.653333 45.653333 100.096 82.005333 163.285333 109.056a500.053333 500.053333 0 0 0 198.656 40.533334c69.290667 0 135.509333-13.525333 198.698667-40.533334 63.146667-27.050667 117.589333-63.402667 163.242666-109.056 45.653333-45.653333 82.005333-100.096 109.056-163.285333 27.008-63.146667 40.533333-129.365333 40.533334-198.656z"  horiz-adv-x="1024" />

    
    <glyph glyph-name="shuaxin" unicode="&#58992;" d="M230.528 665.6a397.184 397.184 0 0 0 281.344 116.544c121.536 0 233.92-55.232 308.416-146.304l-137.792-137.6h341.248V839.04L901.12 716.608A512.512 512.512 0 0 1 511.872 895.744a510.72 510.72 0 0 1-361.792-149.888 508.48 508.48 0 0 1-136.96-247.616h116.992A391.872 391.872 0 0 0 230.528 665.6zM793.216 103.808a397.184 397.184 0 0 0-281.344-116.544 398.4 398.4 0 0 0-308.48 146.304l137.856 137.6H0v-340.672l122.496 122.24a512.64 512.64 0 0 1 389.376-179.072 510.72 510.72 0 0 1 361.792 149.824 510.72 510.72 0 0 1 136.896 247.68h-117.376c-19.136-64-53.824-121.28-99.968-167.36z"  horiz-adv-x="1024" />

    
    <glyph glyph-name="shuaxin1" unicode="&#59032;" d="M170.656 521.92H1024V-128H170.656zM708.768 894.944a114.368 114.368 0 0 1-114.24-114.528v-448.416l95.104-109.632a25.6 25.6 0 0 1 38.912 0.32l91.456 109.184V783.296A111.424 111.424 0 0 1 708.768 894.944z m-46.176-490.56V780.416c0 25.504 20.768 46.272 46.176 46.272 23.808 0 43.168-19.392 43.168-43.264V404.48h-89.344v-0.096z m45.76-99.584l-45.76 52.672h89.344v-0.64l-43.616-52.032zM921.536 721.856c-18.496 0-33.376-15.04-33.376-33.504V278.72l-1.184-0.864v-235.84H68.064V653.6h425.024c18.528 0 33.408 15.04 33.408 33.472v1.184c0 18.56-15.008 33.472-33.408 33.472H0V-26.24h954.944V688.352c0 18.464-15.008 33.504-33.408 33.504zM485.44 519.712H204.704c-18.848 0-34.048-15.232-34.048-34.112 0-18.88 15.2-34.112 34.048-34.112h280.736c18.816 0 34.016 15.232 34.016 34.112 0 18.88-15.2 34.112-34.016 34.112z m0-139.648H204.704c-18.848 0-34.048-15.264-34.048-34.144s15.2-34.112 34.048-34.112h280.736c18.816 0 34.016 15.264 34.016 34.112 0 18.88-15.2 34.144-34.016 34.144z"  horiz-adv-x="1024" />

    
    <glyph glyph-name="card1" unicode="&#59030;" d="M64.192 704v-185.984h892.416v180.48l-46.144-0.448L64.192 704z m0-700.096h892.416V428.992H64.192v-425.088z m579.712 120.512l29.184 121.28a11.136 11.136 0 0 0 10.56 8.832h176.128c7.104-0.128 12.416-7.424 10.496-14.912l-29.12-121.216a11.136 11.136 0 0 0-10.56-8.768h-176.192c-7.104 0-12.416 7.296-10.496 14.784z m-328.64 209.92c0 9.152 6.848 16.576 15.36 16.576h28.8c8.448 0 15.36-7.424 15.36-16.576v-43.904c0-9.152-6.912-16.576-15.36-16.576h-28.8c-8.512 0-15.36 7.424-15.36 16.576v43.904z m-95.232 0c0 9.152 6.848 16.576 15.296 16.576h28.8c8.448 0 15.36-7.424 15.36-16.576v-43.904c0-9.152-6.912-16.576-15.36-16.576h-28.8c-8.448 0-15.36 7.424-15.36 16.576v43.904z m-95.168 0c0 9.152 6.848 16.576 15.36 16.576h28.8c8.448 0 15.296-7.424 15.296-16.576v-43.904c0-9.152-6.848-16.576-15.36-16.576h-28.8c-8.448 0-15.36 7.424-15.36 16.576v43.904z"  horiz-adv-x="1024" />

    
    <glyph glyph-name="zhifufangshi" unicode="&#59031;" d="M1047.210667 515.157333v148.48c0 73.386667-26.965333 100.693333-99.242667 100.864H322.901333l-164.693333-0.085333c-65.365333-0.256-94.549333-29.866667-94.549333-96.426667v-152.832h983.552z m0-59.136H63.658667v-417.962666c0-66.56 29.269333-96.256 94.72-96.341334 264.192-0.170667 528.384-0.170667 792.576 0 67.413333 0 96.256 29.44 96.256 97.962667V456.021333z m63.488 59.136h1.877333v-59.136h-1.706667c0.170667-148.138667-0.085333-289.792-0.853333-428.8-0.426667-89.770667-59.562667-147.882667-150.528-147.968l-173.397333-0.085333H151.296C60.330667-120.490667 1.194667-62.464 0.768 27.306667c-0.938667 216.234667-0.938667 435.541333 0 651.776C1.194667 768.853333 60.330667 826.88 151.296 826.88h808.192c90.965333 0 150.186667-58.112 150.613333-147.882667l0.597334-163.84zM386.218667 204.8h531.114666v-75.861333H177.066667l209.237333 222.805333v-146.944z"  horiz-adv-x="1194" />

    
    <glyph glyph-name="zhifubao" unicode="&#59016;" d="M643.356444 228.522667c-89.656889-107.633778-182.442667-173.511111-323.015111-173.511111-140.515556 0-233.244444 86.755556-221.297777 191.374222 6.030222 68.778667 53.873778 182.385778 260.209777 164.408889 107.633778-8.931556 158.549333-29.809778 248.206223-59.790223 24.007111 41.813333 41.870222 89.656889 56.775111 137.500445h-394.808889V527.36h194.446222V596.366222H227.555556v44.942222h236.259555V742.855111s2.901333 14.961778 20.878222 14.961778h98.759111v-116.622222h251.164445v-41.813334h-254.236445v-68.778666h206.392889a731.477333 731.477333 0 0 0-83.740444-209.351111c50.915556-17.976889 257.194667-80.725333 316.984889-98.702223V745.870222A149.959111 149.959111 0 0 1 870.570667 895.431111H149.902222a149.959111 149.959111 0 0 1-149.617778-149.504V22.186667a149.959111 149.959111 0 0 1 149.617778-149.504h723.683556a149.959111 149.959111 0 0 1 149.504 149.504v36.010666c-50.915556 23.836444-278.129778 122.538667-379.733334 170.382223z m-502.499555 26.908444c-8.931556-38.912 14.961778-131.640889 164.408889-131.640889 89.713778 0 179.484444 56.775111 251.164444 149.504-101.660444 50.915556-185.457778 74.752-281.088 74.752-83.626667-2.958222-125.553778-53.703111-134.485333-92.615111z"  horiz-adv-x="1024" />

    
    <glyph glyph-name="bianji1" unicode="&#59029;" d="M1021.801943-50.396917a38.806404 38.806404 0 0 0 33.605818-19.397645 38.806404 38.806404 0 0 0 0-38.805015 38.806404 38.806404 0 0 0-33.605818-19.397644H38.800847a38.7939 38.7939 0 0 0-33.60165 19.397644 38.811962 38.811962 0 0 0 0 38.805015 38.7939 38.7939 0 0 0 33.60165 19.397645h983.001096z m-0.439056 703.750599L405.563745 37.532309l-240.060613-24.525981 24.553769 240.059224L725.503305 788.545303v0.026398l80.347181 80.320782c36.113715 36.108157 99.077905 36.108157 135.19162 0l80.320781-80.34718a94.997189 94.997189 0 0 0 28.016196-67.593726c0-25.536087-9.959338-49.541037-28.016196-67.597895zM873.449769 819.275028a17.830383 17.830383 0 0 1-12.728445-5.275614L807.820678 761.125167l105.774893-105.801292 52.874247 52.900646c7.027669 7.029058 7.027669 18.420885 0 25.455501l-80.292993 80.319392a17.895685 17.895685 0 0 1-12.727056 5.275614z"  horiz-adv-x="1061" />

    
    </font>
</defs>
</svg>
