<svg width="41" height="41" viewBox="0 0 41 41" fill="none" xmlns="http://www.w3.org/2000/svg">
<circle cx="20.1177" cy="20.5" r="20" fill="white"/>
<path fill-rule="evenodd" clip-rule="evenodd" d="M27.6978 25.21L27.9378 26.35C28.1652 27.3356 27.9406 28.3713 27.3254 29.1741C26.7102 29.977 25.7686 30.4632 24.7578 30.5H15.4778C14.4669 30.4632 13.5253 29.977 12.9101 29.1741C12.2949 28.3713 12.0703 27.3356 12.2978 26.35L12.5378 25.21C12.8138 23.6668 14.1404 22.5327 15.7078 22.5H24.5278C26.0951 22.5327 27.4217 23.6668 27.6978 25.21ZM24.7578 28.99C25.2656 28.9841 25.7434 28.7488 26.0578 28.35V28.36C26.4435 27.8762 26.5937 27.2458 26.4678 26.64L26.2278 25.5C26.0946 24.6552 25.3824 24.0226 24.5278 23.99H15.7078C14.8531 24.0226 14.1409 24.6552 14.0078 25.5L13.7678 26.64C13.6449 27.2426 13.795 27.8686 14.1778 28.35C14.4921 28.7488 14.97 28.9841 15.4778 28.99H24.7578Z" fill="#0B1C3F"/>
<path fill-rule="evenodd" clip-rule="evenodd" d="M20.6177 20.5H19.6177C17.4086 20.5 15.6177 18.7092 15.6177 16.5V13.86C15.615 12.9681 15.9682 12.1119 16.5989 11.4812C17.2296 10.8505 18.0857 10.4973 18.9777 10.5H21.2577C22.1496 10.4973 23.0058 10.8505 23.6365 11.4812C24.2672 12.1119 24.6204 12.9681 24.6177 13.86V16.5C24.6177 18.7092 22.8268 20.5 20.6177 20.5ZM18.9777 12C17.9504 12 17.1177 12.8328 17.1177 13.86V16.5C17.1177 17.8807 18.237 19 19.6177 19H20.6177C21.9984 19 23.1177 17.8807 23.1177 16.5V13.86C23.1177 13.3667 22.9217 12.8936 22.5729 12.5448C22.2241 12.196 21.751 12 21.2577 12H18.9777Z" fill="#0B1C3F"/>
</svg>
