<svg width="43" height="43" viewBox="0 0 43 43" fill="none" xmlns="http://www.w3.org/2000/svg">
<g filter="url(#filter0_d_1139_1613)">
<path d="M34.6209 12.8769L34.414 13.023C33.6895 13.5378 33.1912 14.2074 33.0775 15.1084C32.9427 16.1804 33.1588 17.1585 33.944 17.9525C34.2246 18.234 34.5519 18.4646 34.9112 18.634C35.0065 18.6796 35.0162 18.7274 34.9837 18.8208C34.6588 19.7511 34.1714 20.5891 33.5849 21.3733C33.3467 21.6915 33.0976 21.9989 32.7813 22.2422C32.3589 22.568 31.8818 22.687 31.3695 22.5762C31.0072 22.4974 30.6563 22.3638 30.3059 22.2384C29.8808 22.0863 29.4508 21.9946 28.9959 22.0461C28.6412 22.0863 28.3104 22.2091 27.9773 22.3275C27.7168 22.4203 27.4547 22.5083 27.1888 22.5833C26.7394 22.7098 26.3327 22.5903 25.9514 22.3437C25.6205 22.1298 25.3557 21.8474 25.1088 21.5443C24.2965 20.5424 23.6878 19.4323 23.3315 18.1882C23.0856 17.3274 22.9383 16.4503 22.9773 15.5532C23.0314 14.3513 23.4019 13.2722 24.2808 12.4212C25.0308 11.6979 25.9298 11.328 26.9885 11.4595C27.4964 11.5219 27.9697 11.7131 28.4349 11.9162C28.6265 12.0054 28.8348 12.0527 29.0461 12.0549C29.2573 12.057 29.4665 12.014 29.6599 11.9287C30.0942 11.7532 30.5393 11.6061 30.9926 11.4883C31.6137 11.3253 32.2349 11.391 32.8457 11.5768C33.4566 11.7625 33.9711 12.0655 34.3832 12.55C34.4503 12.6287 34.5088 12.7129 34.5711 12.7987C34.5857 12.8182 34.5982 12.8416 34.6209 12.8769Z" fill="#8594AA"/>
<path d="M31.9355 7.82812C31.9755 8.19546 31.944 8.56709 31.8429 8.92241C31.6055 9.75466 31.0677 10.4685 30.3341 10.9247C29.9269 11.1854 29.4677 11.2701 28.989 11.2299C28.7929 9.61483 30.2134 7.96335 31.9355 7.82812Z" fill="#8594AA"/>
<path d="M10.4629 12.7588H17.8332C17.8332 12.8022 17.8392 12.8424 17.8392 12.8832C17.8392 14.8712 17.8392 16.8595 17.8392 18.8483C17.8417 18.9252 17.8362 19.0022 17.823 19.078C17.7989 19.204 17.7322 19.3177 17.6341 19.4001C17.536 19.4824 17.4126 19.5283 17.2847 19.5298C17.1005 19.5374 16.9164 19.5374 16.7323 19.5298C16.6343 19.5266 16.6094 19.5619 16.6099 19.6553C16.6132 20.307 16.6099 20.963 16.6099 21.6169C16.6099 21.8765 16.5455 22.1127 16.363 22.3039C16.1101 22.5683 15.8057 22.6889 15.4461 22.5754C15.0698 22.4586 14.8418 22.1952 14.7784 21.8021C14.7675 21.7222 14.7628 21.6416 14.7644 21.5609C14.7644 20.9261 14.7644 20.2918 14.7644 19.6569C14.7644 19.5559 14.7373 19.5255 14.6349 19.5277C14.3132 19.5342 13.991 19.5353 13.6688 19.5277C13.5524 19.525 13.5302 19.5657 13.5313 19.6721C13.5356 20.3238 13.5313 20.9722 13.5313 21.6223C13.5313 22.0231 13.3623 22.3283 13.0065 22.5151C12.4688 22.8008 11.761 22.4163 11.7009 21.8091C11.6911 21.7135 11.6868 21.6174 11.6862 21.5213C11.6862 20.906 11.6825 20.2907 11.6862 19.6748C11.6862 19.5548 11.651 19.5233 11.5362 19.5293C11.3646 19.538 11.1913 19.5353 11.0191 19.5293C10.8713 19.5287 10.7297 19.4698 10.6249 19.3654C10.5201 19.2609 10.4605 19.1192 10.4591 18.971C10.4591 18.9167 10.4559 18.8624 10.4559 18.8081C10.4559 16.8382 10.4559 14.8688 10.4559 12.9L10.4629 12.7588Z" fill="#8594AA"/>
<path d="M17.8446 12.1287H10.4683C10.4635 11.5498 10.6002 10.9785 10.8664 10.4647C11.1307 9.94375 11.5219 9.49809 12.0036 9.16894C11.8178 8.98429 11.6435 8.81268 11.4707 8.6389C11.3699 8.54455 11.2745 8.44465 11.1848 8.33966C11.1547 8.30316 11.1338 8.25994 11.1238 8.21365C11.1139 8.16737 11.1151 8.11936 11.1274 8.07366C11.1398 8.02795 11.1629 7.98589 11.1949 7.951C11.2268 7.91611 11.2666 7.88942 11.311 7.87316C11.4436 7.81885 11.5519 7.86664 11.6467 7.95571C11.755 8.05563 11.8541 8.16044 11.9576 8.26363C12.1146 8.42112 12.2733 8.57753 12.4287 8.7372C12.4445 8.76083 12.4687 8.77752 12.4964 8.78388C12.5241 8.79024 12.5531 8.78577 12.5776 8.7714C13.0589 8.54663 13.5841 8.43235 14.115 8.43688C14.6447 8.43307 15.1635 8.50802 15.6476 8.7372C15.7711 8.79585 15.8469 8.78444 15.9417 8.68289C16.1691 8.43851 16.4095 8.20607 16.6457 7.972C16.7837 7.83678 16.9088 7.8156 17.0383 7.89435C17.2007 7.9959 17.2467 8.18706 17.1254 8.33912C17.0357 8.44411 16.9403 8.54401 16.8395 8.63835C16.6662 8.81159 16.4919 8.98266 16.3083 9.16405C17.3101 9.90263 17.804 10.8899 17.8446 12.1287ZM12.6177 11.0523C12.6782 11.0519 12.738 11.0394 12.7936 11.0156C12.8492 10.9918 12.8996 10.9571 12.9417 10.9136C12.9838 10.8701 13.0169 10.8186 13.039 10.7621C13.0611 10.7057 13.0718 10.6454 13.0704 10.5847C13.0686 10.4642 13.0197 10.3492 12.9342 10.2644C12.8488 10.1796 12.7336 10.1318 12.6134 10.1313C12.4912 10.1318 12.3743 10.181 12.2883 10.268C12.2023 10.3549 12.1542 10.4726 12.1547 10.5951C12.1548 10.6557 12.1669 10.7157 12.1903 10.7716C12.2137 10.8275 12.2479 10.8782 12.291 10.9208C12.334 10.9633 12.3851 10.9969 12.4412 11.0196C12.4972 11.0423 12.5572 11.0536 12.6177 11.0529V11.0523ZM15.692 11.0523C15.7525 11.0522 15.8123 11.0401 15.8681 11.0167C15.9239 10.9933 15.9745 10.959 16.017 10.9158C16.0594 10.8726 16.0929 10.8214 16.1155 10.7651C16.1381 10.7088 16.1493 10.6486 16.1485 10.588C16.1471 10.4676 16.0989 10.3526 16.0141 10.2673C15.9293 10.1821 15.8147 10.1335 15.6947 10.1318C15.6342 10.1314 15.5743 10.1429 15.5183 10.1658C15.4623 10.1887 15.4114 10.2225 15.3685 10.2652C15.3255 10.3079 15.2914 10.3587 15.2682 10.4146C15.2449 10.4706 15.2328 10.5306 15.2328 10.5912C15.2322 10.6519 15.2437 10.7121 15.2665 10.7683C15.2894 10.8245 15.3232 10.8756 15.3659 10.9186C15.4087 10.9615 15.4595 10.9955 15.5155 11.0186C15.5715 11.0416 15.6315 11.0533 15.692 11.0529V11.0523Z" fill="#8594AA"/>
<path d="M18.4582 15.8256C18.4582 15.1261 18.4554 14.4266 18.4582 13.7266C18.4582 13.228 18.7982 12.8278 19.2602 12.7643C19.8077 12.6888 20.2951 13.1319 20.301 13.7184C20.3059 14.28 20.301 14.841 20.301 15.402C20.301 16.2437 20.301 17.0857 20.301 17.9278C20.301 18.3775 20.0551 18.7326 19.6582 18.8679C19.1269 19.0482 18.5307 18.6685 18.4668 18.1075C18.4581 18.0159 18.4544 17.9238 18.4554 17.8317C18.4565 17.1633 18.4574 16.4946 18.4582 15.8256Z" fill="#3D3D3D"/>
<path d="M9.84498 15.8369C9.84498 16.5369 9.84498 17.2364 9.84498 17.9358C9.84498 18.3855 9.59696 18.7352 9.19514 18.8699C8.68772 19.0399 8.10665 18.6869 8.02271 18.1552C8.00919 18.0758 8.00212 17.9953 8.00159 17.9147C8.00159 16.5273 8.00159 15.1395 8.00159 13.7514C8.00159 13.2882 8.25016 12.9314 8.65848 12.7989C9.18215 12.6295 9.76809 13.0042 9.83253 13.5543C9.84364 13.6689 9.84798 13.7841 9.84553 13.8992C9.84589 14.5454 9.84571 15.1913 9.84498 15.8369Z" fill="#8594AA"/>
<path d="M12.6177 11.0539C12.5573 11.0546 12.4973 11.0433 12.4413 11.0207C12.3852 10.998 12.3342 10.9645 12.2912 10.922C12.2481 10.8795 12.2139 10.8288 12.1905 10.773C12.1671 10.7171 12.1549 10.6572 12.1547 10.5966C12.1542 10.4741 12.2023 10.3565 12.2883 10.2695C12.3743 10.1825 12.4912 10.1334 12.6134 10.1328C12.7336 10.1334 12.8488 10.1812 12.9342 10.266C13.0197 10.3507 13.0686 10.4657 13.0704 10.5863C13.0718 10.6469 13.0611 10.7072 13.039 10.7637C13.0169 10.8201 12.9838 10.8716 12.9417 10.9152C12.8996 10.9587 12.8492 10.9933 12.7936 11.0171C12.738 11.041 12.6782 11.0534 12.6177 11.0539Z" fill="#19191C"/>
<path d="M15.692 11.0533C15.6316 11.0538 15.5716 11.0421 15.5157 11.0191C15.4597 10.9961 15.4089 10.9621 15.3662 10.9192C15.3234 10.8763 15.2896 10.8253 15.2667 10.7692C15.2438 10.713 15.2323 10.6529 15.2328 10.5923C15.2329 10.5316 15.2449 10.4716 15.2682 10.4156C15.2915 10.3597 15.3256 10.3089 15.3685 10.2662C15.4114 10.2235 15.4623 10.1897 15.5183 10.1668C15.5743 10.144 15.6343 10.1324 15.6947 10.1328C15.8148 10.1345 15.9294 10.1831 16.0141 10.2684C16.0989 10.3536 16.1471 10.4686 16.1485 10.589C16.1493 10.6496 16.1381 10.7099 16.1155 10.7661C16.0929 10.8224 16.0595 10.8736 16.017 10.9168C15.9745 10.96 15.9239 10.9943 15.8682 11.0177C15.8124 11.0412 15.7525 11.0533 15.692 11.0533Z" fill="#0A0B0D"/>
<path d="M26.5206 3.36914H16.5796C15.6375 3.36914 14.8737 4.13504 14.8737 5.07982V26.9206C14.8737 27.8654 15.6375 28.6313 16.5796 28.6313H26.5206C27.4627 28.6313 28.2264 27.8654 28.2264 26.9206V5.07982C28.2264 4.13504 27.4627 3.36914 26.5206 3.36914Z" fill="white"/>
<path d="M26.5206 2.5H16.5796C15.8976 2.50086 15.2438 2.77292 14.7616 3.2565C14.2794 3.74008 14.0081 4.39571 14.0073 5.0796V26.9204C14.0081 27.6043 14.2794 28.2599 14.7616 28.7435C15.2438 29.2271 15.8976 29.4991 16.5796 29.5H26.5206C27.2025 29.4991 27.8563 29.2271 28.3385 28.7435C28.8207 28.2599 29.092 27.6043 29.0929 26.9204V5.0796C29.092 4.39571 28.8207 3.74008 28.3385 3.2565C27.8563 2.77292 27.2025 2.50086 26.5206 2.5ZM27.36 26.9204C27.3598 27.1436 27.2713 27.3576 27.1139 27.5155C26.9566 27.6733 26.7431 27.762 26.5206 27.7622H16.5796C16.357 27.762 16.1436 27.6733 15.9862 27.5155C15.8288 27.3576 15.7403 27.1436 15.7402 26.9204V5.0796C15.7403 4.85639 15.8288 4.64237 15.9862 4.48454C16.1436 4.32671 16.357 4.23798 16.5796 4.23784H18.5345C18.5933 4.66638 18.8047 5.05912 19.1297 5.34359C19.4547 5.62806 19.8713 5.78505 20.3026 5.7856H22.798C23.2294 5.78505 23.646 5.62806 23.971 5.34359C24.2959 5.05912 24.5073 4.66638 24.5662 4.23784H26.5206C26.7431 4.23798 26.9566 4.32671 27.1139 4.48454C27.2713 4.64237 27.3598 4.85639 27.36 5.0796V26.9204Z" fill="#0A0B0D"/>
<path d="M19.6019 17.1234L18.7019 16.2202L17.8273 17.0973L17.0995 16.368L18.7019 14.761L19.6019 15.6641L21.2986 13.9627L22.9795 15.6484L25.3244 13.2969L26.0517 14.0268L22.9795 17.1076L21.2986 15.4219L19.6019 17.1234Z" fill="#0A0B0D"/>
</g>
<defs>
<filter id="filter0_d_1139_1613" x="0.5" y="0.25" width="42.0005" height="42" filterUnits="userSpaceOnUse" color-interpolation-filters="sRGB">
<feFlood flood-opacity="0" result="BackgroundImageFix"/>
<feColorMatrix in="SourceAlpha" type="matrix" values="0 0 0 0 0 0 0 0 0 0 0 0 0 0 0 0 0 0 127 0" result="hardAlpha"/>
<feOffset dy="5.25"/>
<feGaussianBlur stdDeviation="3.75"/>
<feComposite in2="hardAlpha" operator="out"/>
<feColorMatrix type="matrix" values="0 0 0 0 0.278431 0 0 0 0 0.509804 0 0 0 0 1 0 0 0 0.25 0"/>
<feBlend mode="normal" in2="BackgroundImageFix" result="effect1_dropShadow_1139_1613"/>
<feBlend mode="normal" in="SourceGraphic" in2="effect1_dropShadow_1139_1613" result="shape"/>
</filter>
</defs>
</svg>
