<svg width="216" height="55" viewBox="0 0 216 55" fill="none" xmlns="http://www.w3.org/2000/svg">
<path d="M46.0118 47.2353H4.47336V5.17645H46.0118V47.2353Z" fill="#DBE6FF"/>
<path d="M20.6627 40.1177H29.8225V30.8431H38.9823V21.5686H29.8225V12.2941H20.6627V21.5686H11.503V30.8431H20.6627V40.1177Z" fill="#19191C"/>
<path d="M205.257 9.78003L201.076 16.133L197.078 9.78003H190.445L191.081 10.7007C190.081 10.3325 188.536 9.78003 187.446 9.78003H177.995V15.8568C177.632 14.4757 176.905 13.2788 175.814 12.266C174.088 10.7007 172.089 9.68796 168.454 9.68796H168.363C164.819 9.68796 162.911 10.7007 161.184 12.266C160.184 13.1867 159.457 14.3836 159.003 15.7647C158.821 15.3043 158.549 14.4757 158.458 14.1074C157.913 12.9105 157.004 11.8977 155.913 11.1611C154.914 10.5166 153.914 10.1483 152.733 9.96418C152.733 9.96418 151.915 9.68796 150.189 9.68796C146.463 9.59589 144.736 10.6087 143.101 12.1739C141.465 13.7391 140.647 16.0409 140.556 18.9872V19.2634C139.92 18.5268 139.193 17.8823 138.284 17.514C136.467 16.7775 134.65 16.225 132.741 15.9488C132.014 15.8568 131.378 15.6726 130.742 15.3043C130.47 15.1202 130.379 14.844 130.379 14.5678C130.379 14.1995 130.56 13.8312 130.924 13.555C131.378 13.2788 131.923 13.0946 132.469 13.1867C133.196 13.1867 133.832 13.3708 134.468 13.7391C135.013 14.1074 135.286 14.7519 135.377 15.3964H141.011C140.92 13.7391 140.011 12.1739 138.648 11.1611C136.921 10.1483 135.013 9.68796 133.105 9.68796C130.742 9.68796 129.924 10.0562 128.38 10.6087C127.38 10.977 126.471 11.6215 125.835 12.5422C125.29 13.2788 125.017 14.1995 125.017 15.1202C125.017 16.5013 125.653 17.7903 126.653 18.6189C128.289 19.7238 130.197 20.4603 132.196 20.7366C133.287 20.9207 134.286 21.1969 135.195 21.8414C135.558 22.1176 135.831 22.578 135.831 23.0383C135.831 23.5908 135.558 24.0511 135.104 24.3273C134.559 24.6956 133.832 24.9718 133.105 24.8798C132.105 24.9718 131.197 24.5115 130.47 23.7749C130.015 23.3146 129.833 22.6701 129.743 22.0256H124.381L119.383 9.78003H113.295L107.025 25.7084L101.3 16.8695L108.66 9.78003H100.936L94.4846 16.7775V9.78003H88.4871V21.9335C88.3962 22.4859 88.1236 22.9463 87.6692 23.3146C87.0331 23.867 86.1244 24.1432 85.3066 24.1432C84.3979 24.2353 83.58 23.867 82.9439 23.3146C82.3078 22.6701 82.0352 21.8414 82.1261 21.0128V9.78003H76.2195V14.1074C76.1286 13.4629 76.0377 12.8184 75.7651 12.266C75.4016 10.8849 74.7655 9.68796 73.8568 8.67517C72.9481 7.66239 71.7668 6.83374 70.4946 6.28131C68.8589 5.54474 67.0415 5.17645 65.2241 5.17645H54.3195V28.1944H64.3153C66.1328 28.0102 67.9502 27.8261 69.7676 27.2736C71.0398 26.9974 72.1303 26.3529 73.1298 25.5243C74.2203 24.6036 75.0381 23.4987 75.5834 22.2097C75.9469 21.3811 76.1286 20.4603 76.3103 19.5396V20.8286C76.3103 21.8414 76.4921 22.8542 76.8556 23.867C77.1282 24.6036 77.5825 25.3401 78.1278 25.9846C78.673 26.6291 79.4 27.1816 80.1269 27.5499C80.9448 27.9181 81.9444 28.1944 82.8531 28.2864C83.9435 28.3785 84.9431 28.4706 85.8518 28.4706C86.9423 28.4706 87.851 28.4706 88.9414 28.1944H94.3028V24.1432L97.4833 20.7366L101.482 28.1944H112.295L113.204 25.156H119.928L120.837 28.1944H127.016L126.471 26.6291C127.743 27.8261 129.924 28.3785 133.196 28.3785C134.741 28.4706 136.376 28.1944 137.83 27.6419C139.011 27.1816 139.92 26.445 140.647 25.4322C141.101 24.8798 141.374 24.1432 141.556 23.4066C141.738 23.7749 141.919 24.1432 142.192 24.5115C143.01 25.8005 144.191 26.9054 145.554 27.5499C147.19 28.1944 148.916 28.4706 150.643 28.3785C151.37 28.3785 152.097 28.2864 152.915 28.1944C153.642 28.1023 154.278 27.9181 154.914 27.6419C156.004 27.1816 156.913 26.445 157.64 25.5243C158.185 24.8798 158.64 24.1432 158.912 23.3146C159.003 23.1304 159.094 22.6701 159.094 22.3018C159.276 22.9463 159.639 23.6828 160.003 24.2353C160.821 25.6164 162.002 26.6291 163.456 27.2736C165.091 27.9181 165.728 28.2864 167.727 28.2864H169.181C170.635 28.2864 172.452 27.9181 174.179 27.0895C176.087 26.0767 177.541 24.3273 178.177 22.2097V28.1944H184.084V21.289H187.355C189.718 21.289 191.535 20.8286 192.625 19.8158C193.807 18.711 194.443 17.1458 194.352 15.5805C194.352 15.3964 194.352 15.1202 194.352 14.936L198.35 20.5524V28.1023H204.257V20.5524L211.527 10.1483L210.345 9.78003H205.257ZM68.4045 20.6445C68.1319 21.3811 67.5867 21.9335 66.8597 22.3938C66.3145 22.6701 65.7693 22.578 65.2241 22.6701H64.3153H61.5892V10.7007H65.2241C66.1328 10.7007 68.9498 11.3453 68.9498 16.6854C69.0406 18.0665 68.8589 19.3555 68.4045 20.6445ZM114.567 21.1969L116.566 15.0281L116.657 14.7519L118.747 21.1969H114.567ZM158.912 21.5652H153.733C153.642 22.2097 153.278 22.8542 152.915 23.3146C152.188 23.9591 151.279 24.2353 150.37 24.2353C149.371 24.3273 148.371 23.867 147.644 23.1304C147.008 22.3938 146.645 21.0128 146.645 19.0793C146.554 17.8823 146.826 16.5933 147.462 15.5805C148.189 14.5678 149.28 14.0153 150.552 14.0153C151.097 14.0153 151.643 14.1074 152.188 14.3836C152.46 14.4757 152.733 14.6598 152.915 14.844C153.278 15.1202 153.551 15.5805 153.733 16.0409H159.094C158.821 17.0537 158.64 18.1585 158.64 19.1713C158.64 19.9079 158.73 20.7366 158.912 21.5652ZM171.543 23.0383C170.816 23.867 169.726 24.2353 168.545 24.2353C167.454 24.3273 166.364 23.867 165.637 23.0383C164.819 21.9335 164.455 20.5524 164.546 19.1713C164.455 17.7903 164.819 16.4092 165.637 15.2123C166.364 14.3836 167.454 13.9233 168.454 14.0153H168.545C169.635 14.0153 170.725 14.3836 171.452 15.2123C172.27 16.225 172.634 17.6061 172.543 18.8951C172.543 20.8286 172.179 22.3018 171.543 23.0383ZM187.809 17.2378C187.082 17.6061 186.264 17.8823 185.447 17.7903H183.993V13.7391H185.719C186.537 13.647 187.264 13.9233 187.991 14.2915C188.354 14.6598 188.627 15.2123 188.627 15.7647C188.536 16.3171 188.264 16.8695 187.809 17.2378Z" fill="#DBE6FF"/>
<path d="M54.8832 44.5482C55.2472 45.1811 55.7933 45.6331 56.5214 45.9044C57.3404 46.266 58.1595 46.3564 59.0696 46.3564C59.7977 46.3564 60.5257 46.1756 61.2538 45.9044C61.8909 45.6331 62.3459 45.1811 62.7099 44.6386C63.074 44.1866 63.256 43.5537 63.256 43.1016C63.256 42.5592 63.074 42.0167 62.8009 41.5646C62.4369 41.0222 61.8909 40.6605 61.3448 40.3893C60.5257 40.1181 59.7067 39.8468 58.8876 39.666C58.0685 39.5756 57.3404 39.3044 56.6124 38.8523C56.3393 38.5811 56.1573 38.2195 56.1573 37.8578C56.1573 37.4058 56.4304 36.9537 56.7944 36.6825C57.3404 36.3208 58.0685 36.14 58.7966 36.14C59.5246 36.0496 60.1617 36.3208 60.7077 36.6825C61.1628 37.0441 61.4358 37.677 61.5268 38.2195L62.983 38.129C62.983 37.4962 62.8009 36.8633 62.4369 36.5017C62.0729 35.9592 61.5268 35.5976 60.9808 35.3263C60.2527 35.0551 59.5246 34.8743 58.7966 34.9647C58.0685 34.9647 57.4314 35.0551 56.7034 35.3263C56.1573 35.5071 55.6113 35.9592 55.2472 36.4112C54.9742 36.8633 54.7922 37.4058 54.7922 37.8578C54.7922 38.3099 54.8832 38.8523 55.1562 39.214C55.4293 39.666 55.8843 40.0277 56.3393 40.2989C57.0674 40.5701 57.7955 40.8414 58.5235 41.0222C59.1606 41.203 59.8887 41.3838 60.5257 41.5646C60.8898 41.6551 61.2538 41.9263 61.5268 42.1975C61.7088 42.4688 61.7998 42.74 61.7998 43.1016C61.7998 43.4633 61.7088 43.8249 61.4358 44.0961C61.1628 44.4578 60.8898 44.6386 60.4347 44.8194C59.9797 45.0002 59.4336 45.0907 58.9786 45.0907C58.4325 45.0907 57.7955 45.0002 57.2494 44.729C56.7944 44.5482 56.4304 44.277 56.1573 43.8249C55.8843 43.3729 55.7023 42.9208 55.7023 42.4688H54.3372C54.2461 43.2824 54.5192 43.9153 54.8832 44.5482ZM68.1704 45.9948L69.8086 39.9373L70.1726 41.2934L71.4467 45.9044H72.9029L75.4511 38.129H74.086L72.7209 42.6496L72.2658 44.0961L71.9018 42.6496L70.5367 38.2195H69.0805L67.8064 42.74C67.5334 43.7345 67.4424 44.277 67.3514 44.277L66.8963 42.74L65.6222 38.2195H64.1661L66.6233 45.9948H68.1704ZM78.0904 36.6825V35.1455H76.7252V36.6825H78.0904ZM78.0904 45.9948V38.2195H76.7252V45.9948H78.0904ZM80.8206 45.5427C81.5487 45.9948 82.3677 46.266 83.2778 46.1756C83.8239 46.1756 84.4609 46.0852 85.007 45.8139C85.462 45.6331 85.9171 45.2715 86.1901 44.9098C86.4631 44.5482 86.5541 44.0961 86.5541 43.6441C86.5541 43.192 86.4631 42.8304 86.1901 42.4688C85.9171 42.1071 85.644 41.9263 85.28 41.7455C84.643 41.4742 83.9149 41.2934 83.2778 41.1126C82.6408 40.9318 82.1857 40.8414 82.0947 40.751C81.9127 40.6605 81.7307 40.5701 81.5487 40.3893C81.4577 40.2989 81.3667 40.1181 81.3667 39.9373C81.3667 39.666 81.5487 39.3948 81.7307 39.214C82.0947 38.9427 82.6408 38.8523 83.0958 38.9427C83.5509 38.9427 84.0059 39.0332 84.3699 39.3044C84.643 39.5756 84.825 39.9373 84.916 40.2989L86.2811 40.1181C86.1901 39.666 86.0991 39.214 85.8261 38.8523C85.553 38.4907 85.189 38.2195 84.734 38.129C84.1879 37.8578 83.5508 37.7674 83.0048 37.7674C82.6408 37.7674 82.1857 37.8578 81.8217 37.9482C81.5487 38.0386 81.1846 38.129 80.9116 38.3099C80.6386 38.4907 80.3656 38.7619 80.1835 39.0332C80.0015 39.3044 79.9105 39.666 79.9105 40.0277C79.9105 40.8414 80.3656 41.4742 81.0936 41.8359C81.7307 42.1071 82.4588 42.2879 83.1868 42.4688C83.6419 42.5592 84.1879 42.74 84.643 42.9208C84.916 43.1016 85.007 43.3729 85.007 43.6441C85.007 44.0057 84.825 44.3674 84.5519 44.5482C84.1879 44.8194 83.6419 45.0002 83.0958 44.9098C82.5498 44.9098 82.0947 44.8194 81.6397 44.4578C81.2756 44.0961 81.0026 43.7345 81.0026 43.192L79.6375 43.5537C79.9105 44.4578 80.2746 45.0907 80.8206 45.5427ZM88.8293 45.5427C89.5574 45.9948 90.3765 46.266 91.2866 46.1756C91.8326 46.1756 92.4697 46.0852 93.0157 45.8139C93.4708 45.6331 93.9258 45.2715 94.1988 44.9098C94.4719 44.5482 94.5629 44.0961 94.5629 43.6441C94.5629 43.192 94.4719 42.8304 94.1988 42.4688C93.9258 42.1071 93.6528 41.9263 93.2887 41.7455C92.6517 41.4742 91.9236 41.2934 91.2866 41.1126C90.6495 40.9318 90.1945 40.8414 90.1035 40.751C89.9214 40.6605 89.7394 40.5701 89.5574 40.3893C89.4664 40.2085 89.3754 40.1181 89.3754 39.9373C89.3754 39.666 89.5574 39.3948 89.7394 39.214C90.1035 38.9427 90.6495 38.8523 91.1045 38.9427C91.5596 38.9427 92.0146 39.0332 92.3787 39.3044C92.6517 39.5756 92.8337 39.9373 92.9247 40.2989L94.2898 40.1181C94.1988 39.666 94.1078 39.214 93.8348 38.8523C93.5618 38.4907 93.1977 38.2195 92.7427 38.129C92.1967 37.9482 91.6506 37.8578 91.0135 37.8578C90.6495 37.8578 90.1945 37.9482 89.8304 38.0386C89.5574 38.129 89.1934 38.2195 88.9203 38.4003C88.6473 38.5811 88.3743 38.8523 88.1923 39.1236C88.0103 39.3948 87.9193 39.7564 87.9193 40.1181C87.9193 40.9318 88.3743 41.5647 89.1024 41.9263C89.7394 42.1975 90.4675 42.3783 91.1956 42.5592C91.6506 42.6496 92.1967 42.8304 92.6517 43.0112C92.9247 43.192 93.1067 43.4633 93.0157 43.7345C93.0157 44.0961 92.8337 44.4578 92.5607 44.6386C92.1966 44.9098 91.6506 45.0907 91.1045 45.0002C90.5585 45.0002 90.1035 44.9098 89.6484 44.5482C89.2844 44.1866 89.0114 43.8249 89.0114 43.2824L87.6462 43.4633C87.9193 44.4578 88.2833 45.0907 88.8293 45.5427ZM105.211 45.9948C105.848 45.9948 106.394 45.9044 107.031 45.8139C107.486 45.7235 107.85 45.5427 108.305 45.2715C108.669 45.0002 108.942 44.6386 109.124 44.1866C109.306 43.7345 109.488 43.192 109.488 42.8304C109.488 42.1975 109.306 41.6551 108.942 41.203C108.578 40.751 108.032 40.3893 107.395 40.2085C107.85 40.0277 108.305 39.666 108.578 39.214C108.851 38.8523 108.942 38.3099 108.942 37.8578C108.942 37.3154 108.76 36.8633 108.487 36.5017C108.214 36.0496 107.759 35.688 107.304 35.4167C106.667 35.1455 105.939 35.0551 105.211 35.0551H101.024V45.8139L105.211 45.9948ZM102.481 36.5921H104.756C105.302 36.5921 105.939 36.5921 106.485 36.7729C106.758 36.8633 107.031 37.0441 107.213 37.3154C107.395 37.5866 107.486 37.9482 107.486 38.3099C107.486 38.6715 107.395 39.0332 107.213 39.3044C107.031 39.5756 106.667 39.7564 106.394 39.8468C105.939 39.9373 105.484 40.0277 104.938 39.9373H102.481C102.481 39.7564 102.481 36.5921 102.481 36.5921ZM102.481 41.0222H105.12C105.666 41.0222 106.212 41.0222 106.758 41.203C107.122 41.2934 107.395 41.5646 107.668 41.8359C108.032 42.4688 108.123 43.192 107.759 43.7345C107.668 44.0057 107.395 44.1866 107.213 44.3674C106.94 44.5482 106.667 44.6386 106.394 44.6386C106.03 44.6386 105.757 44.729 105.393 44.729H102.572V41.0222H102.481ZM117.042 45.9948H118.498C118.316 45.7235 118.225 45.3619 118.134 45.0002C118.043 44.1866 118.043 43.4633 118.043 42.6496V40.9318C118.043 40.4797 118.043 40.1181 117.952 39.666C117.861 39.3044 117.77 39.0332 117.497 38.7619C117.224 38.4907 116.951 38.3099 116.496 38.129C115.95 37.9482 115.404 37.8578 114.767 37.8578C114.13 37.8578 113.493 37.9482 112.947 38.129C112.492 38.3099 112.036 38.5811 111.763 38.9427C111.49 39.3948 111.217 39.8468 111.126 40.2989L112.492 40.4797C112.583 40.0277 112.856 39.5756 113.22 39.3044C113.675 39.0332 114.13 38.9427 114.676 38.9427C115.222 38.9427 115.768 39.0332 116.223 39.3948C116.496 39.7564 116.678 40.1181 116.587 40.5701C116.587 40.6605 116.587 40.751 116.587 40.9318C115.768 41.203 114.949 41.2934 114.13 41.3838C113.675 41.3838 113.311 41.4742 112.856 41.5646C112.492 41.6551 112.127 41.8359 111.854 42.0167C111.581 42.1975 111.308 42.4688 111.126 42.8304C110.944 43.192 110.853 43.5537 110.853 43.9153C110.853 44.5482 111.126 45.1811 111.581 45.4523C112.127 45.9044 112.856 46.1756 113.675 46.0852C114.221 46.0852 114.676 45.9948 115.222 45.8139C115.768 45.6331 116.223 45.2715 116.678 44.9098C116.769 45.3619 116.86 45.7235 117.042 45.9948ZM116.678 42.5592C116.678 43.0112 116.587 43.4633 116.496 43.9153C116.314 44.277 115.95 44.6386 115.586 44.8194C115.131 45.0907 114.676 45.1811 114.13 45.1811C113.675 45.1811 113.22 45.0907 112.947 44.8194C112.674 44.6386 112.492 44.277 112.492 43.9153C112.492 43.6441 112.583 43.4633 112.674 43.2824C112.765 43.1016 113.038 42.9208 113.22 42.8304C113.584 42.6496 114.039 42.5592 114.403 42.5592C115.131 42.4688 115.95 42.2879 116.678 42.0167V42.5592ZM121.774 45.9948V41.7455C121.683 41.0222 121.956 40.2989 122.411 39.7564C122.866 39.3948 123.413 39.214 123.959 39.214C124.323 39.214 124.596 39.3044 124.96 39.4852C125.233 39.666 125.415 39.8468 125.506 40.1181C125.597 40.5701 125.688 40.9318 125.688 41.3838V46.0852H127.053V41.2934C127.053 40.8414 127.053 40.3893 126.962 39.9373C126.871 39.5756 126.78 39.214 126.507 38.9427C126.234 38.6715 125.961 38.4003 125.597 38.2195C125.142 38.0386 124.687 37.9482 124.232 37.9482C123.231 37.9482 122.229 38.4003 121.683 39.3044V38.129H120.409V45.9044L121.774 45.9948ZM130.602 45.9948V42.9208L131.603 42.0167L134.243 46.0852H135.972L132.513 41.203L135.608 38.3099H133.787L130.511 41.4742V35.3263H129.146V46.0852L130.602 45.9948ZM138.611 36.6825V35.1455H137.246V36.6825H138.611ZM138.611 45.9948V38.2195H137.246V45.9948H138.611ZM142.251 45.9948V41.7455C142.16 41.0222 142.433 40.2989 142.888 39.7564C143.343 39.3948 143.889 39.214 144.435 39.214C144.799 39.214 145.073 39.3044 145.437 39.4852C145.71 39.666 145.892 39.8468 145.983 40.1181C146.074 40.4797 146.165 40.9318 146.165 41.3838V46.0852H147.53V41.2934C147.53 40.8414 147.53 40.3893 147.439 39.9373C147.348 39.5756 147.257 39.214 146.984 38.9427C146.711 38.6715 146.438 38.4003 146.074 38.2195C145.619 38.0386 145.164 37.9482 144.708 37.9482C143.707 37.9482 142.706 38.4003 142.069 39.3044V38.129H140.795V45.9044L142.251 45.9948ZM150.351 48.5263C151.079 48.9783 151.898 49.2495 152.717 49.1591C153.445 49.1591 154.173 49.0687 154.81 48.7071C155.356 48.4359 155.812 47.9838 156.085 47.4413C156.358 46.6276 156.54 45.7235 156.449 44.8194V38.129H155.174V39.1236C154.628 38.4003 153.718 37.9482 152.808 37.9482C151.443 37.9482 150.169 38.7619 149.714 39.9373C149.441 40.5701 149.259 41.2934 149.259 42.0167C149.259 43.0112 149.532 44.0057 150.169 44.8194C150.806 45.6331 151.716 46.0852 152.808 45.9948C153.718 45.9948 154.537 45.6331 155.083 44.9098C155.083 45.5427 155.083 46.0852 154.992 46.5372C154.901 46.9893 154.628 47.3509 154.264 47.6222C153.809 47.8934 153.354 48.0742 152.808 47.9838C152.353 47.9838 151.807 47.8934 151.443 47.6222C151.17 47.4413 150.988 47.0797 150.988 46.718L149.623 46.5372C149.441 47.3509 149.714 48.0742 150.351 48.5263ZM151.261 39.8468C151.625 39.3948 152.262 39.1236 152.808 39.1236C153.445 39.1236 153.991 39.3948 154.446 39.8468C154.901 40.4797 155.174 41.203 155.083 42.0167C155.174 42.8304 154.901 43.5537 154.446 44.1866C153.718 45.0907 152.353 45.1811 151.534 44.4578C151.443 44.3674 151.352 44.277 151.261 44.1866C150.806 43.5537 150.533 42.74 150.624 41.9263C150.624 41.203 150.806 40.4797 151.261 39.8468ZM171.92 41.8359V43.8249C171.465 44.1866 171.01 44.4578 170.555 44.6386C169.918 44.9098 169.281 45.0002 168.644 45.0002C167.916 45.0002 167.188 44.8194 166.551 44.5482C165.913 44.1866 165.367 43.7345 165.094 43.1016C164.73 42.2879 164.548 41.5646 164.548 40.6605C164.548 39.9373 164.73 39.214 165.003 38.4907C165.185 38.129 165.458 37.677 165.731 37.4058C166.095 37.0441 166.459 36.7729 166.915 36.5921C167.461 36.4112 168.098 36.2304 168.644 36.3208C169.19 36.3208 169.736 36.4112 170.191 36.5921C170.646 36.7729 171.01 37.0441 171.283 37.4058C171.556 37.7674 171.829 38.2195 171.92 38.7619L173.285 38.4003C173.103 37.7674 172.83 37.1345 172.466 36.6825C172.102 36.2304 171.556 35.7784 170.919 35.5976C170.191 35.3263 169.463 35.1455 168.735 35.2359C167.734 35.2359 166.642 35.4167 165.731 35.9592C164.821 36.4112 164.184 37.1345 163.729 37.9482C163.274 38.8523 163.001 39.8468 163.001 40.9318C163.001 41.9263 163.183 42.9208 163.729 43.8249C164.184 44.729 164.912 45.3619 165.731 45.8139C166.642 46.266 167.734 46.5372 168.735 46.5372C169.554 46.5372 170.373 46.3564 171.101 46.0852C171.92 45.8139 172.648 45.3619 173.376 44.8194V40.8414H168.644V42.1071L171.92 41.8359ZM176.925 45.9948V41.9263C176.925 41.3838 177.016 40.8414 177.198 40.3893C177.289 40.1181 177.472 39.8468 177.745 39.666C178.018 39.4852 178.291 39.3948 178.564 39.3948C178.928 39.3948 179.292 39.4852 179.565 39.666L180.02 38.4003C179.565 38.129 179.11 37.9482 178.564 37.9482C178.291 37.9482 177.927 38.0386 177.654 38.2195C177.289 38.4907 177.016 38.9427 176.743 39.3948V38.129H175.469V45.9044L176.925 45.9948ZM181.476 45.0907C182.204 45.8139 183.205 46.1756 184.206 46.1756C184.934 46.1756 185.571 45.9948 186.208 45.7235C186.754 45.3619 187.3 44.9098 187.573 44.3674C187.937 43.6441 188.12 42.8304 188.028 42.0167C188.12 40.9318 187.755 39.9373 186.936 39.1236C186.208 38.4003 185.207 37.9482 184.206 38.0386C183.296 38.0386 182.386 38.3099 181.658 38.9427C180.748 39.8468 180.293 40.9318 180.384 42.1975C180.293 43.192 180.657 44.3674 181.476 45.0907ZM182.477 39.8468C183.296 38.9427 184.752 38.8523 185.662 39.666C185.753 39.7564 185.844 39.7564 185.844 39.8468C186.299 40.4797 186.572 41.203 186.572 42.0167C186.663 42.8304 186.39 43.6441 185.844 44.277C185.389 44.8194 184.843 45.0907 184.115 45.0907C183.478 45.0907 182.841 44.8194 182.386 44.277C181.567 43.0112 181.567 41.2934 182.477 39.8468ZM196.31 45.9948V38.2195H194.945V42.3783C194.945 42.9208 194.854 43.4633 194.672 43.9153C194.49 44.277 194.217 44.5482 193.853 44.729C193.489 44.9098 193.125 45.0907 192.67 45.0002C192.306 45.0002 191.942 44.9098 191.669 44.729C191.396 44.5482 191.214 44.1866 191.123 43.9153C191.032 43.4633 191.032 42.9208 191.032 42.5592V38.2195H189.758V43.0112C189.758 43.4633 189.758 43.9153 189.849 44.277C189.94 44.6386 190.031 45.0002 190.304 45.2715C190.577 45.5427 190.85 45.8139 191.214 45.9948C191.669 46.1756 192.124 46.266 192.579 46.266C193.58 46.266 194.581 45.8139 195.127 44.9098V46.0852H196.31V45.9948ZM200.042 49.0687V45.2715C200.315 45.5427 200.588 45.8139 200.952 45.9948C201.316 46.1756 201.771 46.266 202.226 46.266C202.863 46.266 203.5 46.0852 204.046 45.7235C204.592 45.3619 205.047 44.8194 205.32 44.277C205.593 43.5537 205.775 42.9208 205.775 42.1071C205.775 41.3838 205.684 40.751 205.411 40.0277C205.138 39.3948 204.774 38.8523 204.228 38.5811C203.682 38.3099 203.045 38.0386 202.408 38.0386C201.953 38.0386 201.498 38.129 201.043 38.3099C200.679 38.5811 200.315 38.8523 200.042 39.214V38.129H198.767V48.9783H200.042V49.0687ZM200.588 39.8468C200.952 39.3044 201.498 39.0332 202.135 39.0332C202.772 39.0332 203.318 39.3044 203.682 39.7564C204.137 40.3893 204.41 41.203 204.319 42.0167C204.41 42.8304 204.137 43.6441 203.682 44.277C203.318 44.729 202.681 45.0907 202.135 45.0907C201.498 45.0907 200.952 44.8194 200.588 44.3674C200.133 43.7345 199.86 43.0112 199.951 42.1071C199.86 41.3838 200.133 40.4797 200.588 39.8468Z" fill="#8F9BC6"/>
</svg>
