<svg width="117" height="55" viewBox="0 0 117 55" fill="none" xmlns="http://www.w3.org/2000/svg">
<path fill-rule="evenodd" clip-rule="evenodd" d="M48.1751 37.6237C44.0324 45.9989 34.2252 51.7248 23.4879 49.4173C12.9198 47.1953 5.14161 37.5383 5.64888 26.0865C6.15615 15.1475 14.4416 6.17412 25.0097 4.72128C36.0006 3.18299 44.7933 9.76347 48.2597 17.0276C48.1751 17.1131 48.0906 17.1131 48.0061 17.1131C47.1606 17.1131 46.2306 17.1131 45.3852 17.1131C45.1315 17.1131 45.047 17.0276 44.8779 16.8567C44.0324 15.4894 43.1024 14.2929 42.0033 13.1819C39.0443 10.2762 35.5779 8.3961 31.5197 7.79787C25.8552 6.8578 20.7825 8.13972 16.217 11.6436C12.328 14.7202 9.7916 18.7369 8.94615 23.6081C7.76251 30.0177 9.45342 35.7436 13.7652 40.7003C16.7243 43.9478 20.3598 45.9989 24.6716 46.8535C25.8552 47.1099 27.0388 47.1953 28.2225 47.1953C31.1815 47.1953 34.0561 46.5116 36.7615 45.2297C38.6215 44.2897 40.3124 43.0932 41.8343 41.6404C42.9333 40.5294 43.9479 39.3329 44.7933 37.9656C44.8779 37.7946 44.9624 37.7092 45.1315 37.7092C46.1461 37.7092 47.0761 37.7092 48.0906 37.7092C48.0906 37.6237 48.0906 37.6237 48.1751 37.6237Z" fill="#DBE6FF"/>
<path fill-rule="evenodd" clip-rule="evenodd" d="M47.2452 31.9833C48.2597 27.5393 47.9215 23.1808 46.0615 18.9932C46.1461 18.9078 46.2306 18.9078 46.3152 18.9078C47.1606 18.9078 48.0061 18.9078 48.8515 18.9078C49.0206 18.9078 49.1897 18.9932 49.1897 19.1641C49.7815 20.7879 50.2042 22.4117 50.3733 24.0354C50.5424 25.4882 50.627 26.8556 50.5424 28.3085C50.4579 30.7014 49.9506 33.0943 49.0206 35.3162C48.8515 35.6581 48.9361 35.6581 48.5979 35.6581C47.7524 35.6581 46.9915 35.6581 46.1461 35.6581C45.8924 35.6581 45.7233 35.5726 45.6388 35.4017C43.6097 32.4106 41.4961 29.5049 39.467 26.5138C38.8752 25.5737 38.1988 24.7191 37.607 23.779C37.5225 23.6936 37.5225 23.6081 37.3534 23.5226C37.3534 23.6936 37.3534 23.779 37.3534 23.8645C37.3534 27.6248 37.3534 31.385 37.3534 35.2308V35.3162C37.3534 35.6581 37.3534 35.6581 37.0152 35.6581C36.2543 35.6581 35.4934 35.6581 34.7325 35.6581C34.4788 35.6581 34.4788 35.6581 34.4788 35.4017C34.4788 35.3162 34.4788 35.2308 34.4788 35.1453C34.4788 29.8467 34.4788 24.5482 34.4788 19.2496C34.4788 18.7368 34.3943 18.8223 34.9016 18.8223C35.5779 18.8223 36.2543 18.8223 37.0152 18.8223C37.2688 18.8223 37.3534 18.9078 37.5225 19.0787C39.2134 21.3861 40.9888 23.6936 42.7643 26.0865C44.2015 27.9666 45.5543 29.8467 46.9915 31.7269C47.0761 31.8123 47.0761 31.9833 47.2452 31.9833ZM97.1269 27.2829C97.1269 24.6336 97.1269 21.9843 97.1269 19.2496C97.1269 18.8223 97.0423 18.8223 97.5496 18.8223C98.226 18.8223 98.9023 18.8223 99.5787 18.8223C100.001 18.8223 99.9169 18.8223 99.9169 19.1641C99.9169 21.3007 99.9169 23.4372 99.9169 25.5737C99.9169 26.0865 99.9169 26.0865 100.424 26.0865C102.876 26.0865 105.243 26.0865 107.695 26.0865C107.78 26.0865 107.78 26.0865 107.864 26.0865C108.118 26.0865 108.118 26.0865 108.118 25.8301C108.118 25.4882 108.118 25.1464 108.118 24.89C108.118 23.0953 108.118 21.2152 108.118 19.4205C108.118 19.3351 108.118 19.2496 108.118 19.1641C108.118 18.9932 108.202 18.9078 108.371 18.9078C109.132 18.9078 109.893 18.9078 110.739 18.9078C110.908 18.9078 110.992 18.9932 110.992 19.1641C110.992 19.2496 110.992 19.3351 110.992 19.3351C110.992 24.6336 110.992 29.8467 110.992 35.1453C110.992 35.2308 110.992 35.2308 110.992 35.3162C110.992 35.829 110.992 35.7435 110.57 35.7435C109.893 35.7435 109.217 35.7435 108.54 35.7435C108.118 35.7435 108.202 35.829 108.118 35.4017C108.118 34.3762 108.118 33.2652 108.118 32.2397C108.118 31.2141 108.118 30.1886 108.118 29.2485C108.118 28.9067 108.118 28.9067 107.78 28.9067C105.243 28.9067 102.707 28.9067 100.171 28.9067C99.7478 28.9067 99.8323 28.9067 99.8323 29.2485C99.8323 31.2996 99.8323 33.2652 99.8323 35.3162C99.8323 35.829 99.9169 35.7435 99.4096 35.7435C98.7332 35.7435 98.0569 35.7435 97.296 35.7435C97.0423 35.7435 97.0423 35.7435 97.0423 35.4872C97.0423 33.8634 97.0423 32.2397 97.0423 30.6159C97.1269 29.5049 97.1269 28.3939 97.1269 27.2829ZM66.4369 27.112C66.4369 24.5482 66.4369 22.0698 66.4369 19.506C66.4369 19.4205 66.4369 19.4205 66.4369 19.3351C66.4369 18.9932 66.4369 18.9932 66.7751 18.9932C69.6497 18.9932 72.5242 18.9932 75.3987 18.9932C76.0751 18.9932 76.836 18.9932 77.5124 18.9932C77.766 18.9932 77.766 18.9932 77.766 19.2496C77.766 19.9333 77.766 20.617 77.766 21.3007C77.766 21.4716 77.6815 21.557 77.5124 21.557C77.2587 21.557 77.0051 21.557 76.836 21.557C74.3842 21.557 72.0169 21.557 69.5651 21.557C69.4806 21.557 69.4806 21.557 69.396 21.557C69.1424 21.557 69.1424 21.557 69.1424 21.8989C69.1424 23.0953 69.1424 24.2918 69.1424 25.5737C69.1424 25.9155 69.1424 25.9155 69.4806 25.9155C71.8478 25.9155 74.1306 25.9155 76.4978 25.9155C76.9206 25.9155 76.9206 25.9155 76.9206 26.3429C76.9206 26.9411 76.9206 27.5393 76.9206 28.1375C76.9206 28.3939 76.9205 28.3939 76.6669 28.3939C75.0606 28.3939 73.4542 28.3939 71.8478 28.3939C71.0869 28.3939 70.326 28.3939 69.5651 28.3939C69.2269 28.3939 69.2269 28.3939 69.2269 28.6503C69.2269 29.8467 69.2269 31.1287 69.2269 32.3251C69.2269 32.667 69.2269 32.667 69.5651 32.667C72.2706 32.667 74.976 32.667 77.6815 32.667C78.1887 32.667 78.1042 32.5815 78.1042 33.0943C78.1042 33.6925 78.1042 34.3762 78.1042 34.9744C78.1042 35.1453 78.1042 35.2308 77.8505 35.2308C77.766 35.2308 77.6815 35.2308 77.5969 35.2308C74.046 35.2308 70.4106 35.2308 66.8597 35.2308H66.7751C66.4369 35.2308 66.4369 35.2308 66.4369 34.8889C66.4369 32.3251 66.4369 29.6758 66.4369 27.112ZM95.1823 33.6925C94.4214 34.5471 93.576 35.2308 92.646 35.6581C91.2087 36.4272 89.6023 36.6836 87.9114 36.5982C86.3051 36.5127 84.6987 36.0854 83.346 35.2308C81.1478 33.7779 79.7951 31.7269 79.5415 29.0776C79.3724 27.3684 79.4569 25.7446 80.2178 24.1209C81.486 21.4716 83.5996 19.8478 86.3896 19.2496C88.1651 18.8223 90.0251 18.9078 91.8005 19.506C93.1532 19.9333 94.2523 20.7879 95.2669 21.728C95.3514 21.8134 95.436 21.8989 95.2669 21.9843C94.6751 22.5826 94.1678 23.1808 93.576 23.8645C93.4069 23.779 93.3223 23.6936 93.2378 23.6081C92.4769 22.9244 91.6314 22.3262 90.6169 22.0698C88.2496 21.4716 86.0514 21.728 84.1914 23.4372C83.2614 24.2918 82.6696 25.3173 82.5005 26.5992C82.3314 27.8811 82.416 29.1631 82.9233 30.2741C83.6842 31.8978 85.6287 33.7779 88.5033 33.6925C90.0251 33.607 91.2932 33.0943 92.4769 32.1542C92.646 31.9833 92.8996 31.8123 93.0687 31.6414C93.1532 31.556 93.2378 31.556 93.3223 31.6414C93.9987 32.496 94.5905 33.0943 95.1823 33.6925ZM15.7943 27.112C15.7943 24.5482 15.7943 21.9843 15.7943 19.4205C15.7943 18.9932 15.7943 19.0787 16.217 19.0787C19.768 19.0787 23.4034 19.0787 26.9543 19.0787H27.0388C27.377 19.0787 27.377 19.0787 27.377 19.4205C27.377 20.0187 27.377 20.7024 27.377 21.3007C27.377 21.557 27.4616 21.6425 27.0388 21.6425C24.587 21.6425 22.1352 21.6425 19.6834 21.6425C19.5143 21.6425 19.2607 21.6425 19.0916 21.6425C18.7534 21.6425 18.7534 21.6425 18.7534 21.9843C18.7534 22.839 18.7534 23.6936 18.7534 24.5482C18.7534 24.9755 18.7534 25.4028 18.7534 25.8301C18.7534 26.0865 18.7534 26.0865 19.007 26.0865C19.937 26.0865 20.867 26.0865 21.797 26.0865C23.2343 26.0865 24.6716 26.0865 26.1088 26.0865C26.447 26.0865 26.447 26.0865 26.447 26.4283C26.447 27.112 26.447 27.7102 26.447 28.3939C26.447 28.6503 26.447 28.6503 26.1088 28.6503C23.8261 28.6503 21.5434 28.6503 19.1761 28.6503C18.5843 28.6503 18.6689 28.6503 18.6689 29.0776C18.6689 30.9577 18.6689 32.9233 18.6689 34.8035C18.6689 34.8889 18.6689 34.9744 18.6689 34.9744C18.6689 35.2308 18.6689 35.2308 18.4152 35.2308C17.6543 35.2308 16.8089 35.2308 16.048 35.2308C15.7943 35.2308 15.7098 35.2308 15.7098 34.9744C15.7098 34.0343 15.7098 33.0943 15.7098 32.1542C15.7943 30.445 15.7943 28.8212 15.7943 27.112ZM57.0524 28.3939C57.0524 26.2574 57.0524 24.1209 57.0524 21.9843C57.0524 21.557 57.137 21.557 56.6297 21.557C55.1924 21.557 53.8397 21.557 52.4024 21.557C52.3179 21.557 52.2333 21.557 52.1488 21.557C51.9797 21.557 51.9797 21.4716 51.9797 21.3861C51.9797 20.7024 51.9797 19.9333 51.9797 19.2496C51.9797 19.0787 52.0642 19.0787 52.1488 19.0787C52.2333 19.0787 52.3179 19.0787 52.3179 19.0787C56.3761 19.0787 60.4342 19.0787 64.5769 19.0787C64.6615 19.0787 64.746 19.0787 64.746 19.0787C64.9151 19.0787 64.9151 19.0787 64.9151 19.2496C64.9151 19.9333 64.9151 20.7024 64.9151 21.3861C64.9151 21.557 64.8306 21.557 64.746 21.557C64.5769 21.557 64.4078 21.557 64.1542 21.557C62.8015 21.557 61.5333 21.557 60.1806 21.557C60.096 21.557 60.0115 21.557 59.9269 21.557C59.8424 21.557 59.7579 21.557 59.7579 21.728C59.7579 21.8134 59.7579 21.8989 59.7579 22.0698C59.7579 26.3429 59.7579 30.6159 59.7579 34.8035C59.7579 35.3162 59.8424 35.2308 59.3351 35.2308C58.6588 35.2308 57.9824 35.2308 57.306 35.2308C56.8833 35.2308 56.9679 35.2308 56.9679 34.8889C57.0524 32.667 57.0524 30.5304 57.0524 28.3939ZM28.8143 27.112C28.8143 24.5482 28.8143 21.9843 28.8143 19.4205C28.8143 18.9932 28.7297 19.0787 29.237 19.0787C29.9979 19.0787 30.7588 19.0787 31.5197 19.0787C31.7734 19.0787 31.7734 19.0787 31.7734 19.3351C31.7734 19.4205 31.7734 19.4205 31.7734 19.506C31.7734 24.6336 31.7734 29.7613 31.7734 34.8035C31.7734 35.3162 31.7734 35.2308 31.3507 35.2308C30.6743 35.2308 29.9134 35.2308 29.237 35.2308C28.8988 35.2308 28.8988 35.2308 28.8988 34.8889C28.8143 32.3251 28.8143 29.6758 28.8143 27.112ZM74.8915 42.0677C74.8915 42.4095 74.8915 42.8368 74.8915 43.1786C74.8915 43.3496 74.976 43.3496 75.0606 43.3496C75.5678 43.3496 76.0751 43.3496 76.4978 43.3496C76.6669 43.3496 76.836 43.3496 77.0896 43.2641C77.6815 43.0932 77.9351 42.8368 78.0196 42.2386C78.1042 41.2985 77.766 40.8712 76.9206 40.7857C76.3287 40.7003 75.7369 40.7857 75.1451 40.7857C74.976 40.7857 74.8915 40.8712 74.8915 41.0421C74.8915 41.384 74.8915 41.7258 74.8915 42.0677ZM77.766 44.2896C78.3578 45.1442 78.9496 45.9989 79.5415 46.8535C79.4569 46.9389 79.3724 46.9389 79.2878 46.9389C79.0342 46.9389 78.696 46.9389 78.4424 46.9389C78.1887 46.9389 78.0196 46.8535 77.9351 46.6825C77.5124 45.9989 77.0896 45.4006 76.6669 44.7169C76.5824 44.546 76.4133 44.4606 76.2442 44.4606C75.906 44.4606 75.6524 44.4606 75.3142 44.4606C75.0606 44.4606 75.0606 44.4606 74.976 44.8024C74.976 45.4006 74.976 46.0843 74.976 46.6825C74.976 46.9389 74.976 46.9389 74.7224 46.9389C74.4687 46.9389 74.2151 46.9389 73.9615 46.9389C73.7924 46.9389 73.7924 46.8535 73.7924 46.768C73.7924 46.6825 73.7924 46.6825 73.7924 46.5971C73.7924 44.3751 73.7924 42.1531 73.7924 40.0166C73.7924 39.5893 73.7924 39.6747 74.1306 39.6747C75.1451 39.6747 76.0751 39.6747 77.0896 39.7602C77.4278 39.7602 77.766 39.8457 78.0196 39.9311C78.696 40.1875 79.1187 40.6148 79.2033 41.384C79.2878 41.8967 79.2878 42.324 79.2033 42.8368C79.0342 43.5205 78.696 43.9478 78.1042 44.2042C77.9351 44.2042 77.8506 44.2896 77.766 44.2896ZM105.581 43.2641C105.581 42.1531 105.581 41.1276 105.581 40.0166C105.581 39.9311 105.581 39.8457 105.581 39.7602C105.581 39.6747 105.666 39.5893 105.75 39.5893C105.835 39.5893 105.92 39.5893 106.004 39.5893C107.61 39.5893 109.301 39.5893 110.908 39.5893C110.992 39.5893 110.992 39.5893 111.077 39.5893C111.246 39.5893 111.246 39.6747 111.246 39.7602C111.246 40.0166 111.246 40.273 111.246 40.6148C111.246 40.7857 111.161 40.7857 110.992 40.7857C110.654 40.7857 110.316 40.7857 109.893 40.7857C108.963 40.7857 108.118 40.7857 107.188 40.7857C106.934 40.7857 106.85 40.7857 106.85 41.0421C106.85 41.4694 106.85 41.9822 106.85 42.4095C106.85 42.6659 106.85 42.6659 107.103 42.6659C108.118 42.6659 109.217 42.6659 110.231 42.6659C110.316 42.6659 110.4 42.6659 110.485 42.6659C110.57 42.6659 110.654 42.6659 110.654 42.8368C110.654 43.0932 110.654 43.435 110.654 43.6914C110.654 43.7769 110.57 43.7769 110.485 43.7769C110.4 43.7769 110.316 43.7769 110.231 43.7769C109.217 43.7769 108.118 43.7769 107.103 43.7769C106.765 43.7769 106.765 43.7769 106.765 44.0333C106.765 44.4606 106.765 44.9733 106.765 45.4006C106.765 45.657 106.765 45.657 107.103 45.657C108.287 45.657 109.555 45.657 110.739 45.657C110.823 45.657 110.908 45.657 110.992 45.657C111.161 45.657 111.161 45.7425 111.161 45.8279C111.161 46.0843 111.161 46.3407 111.161 46.6825C111.161 46.8535 111.077 46.8535 110.992 46.8535C110.908 46.8535 110.739 46.8535 110.654 46.8535C109.048 46.8535 107.441 46.8535 105.835 46.8535C105.412 46.8535 105.412 46.8535 105.412 46.5116C105.581 45.4861 105.581 44.3751 105.581 43.2641ZM90.1096 44.9733C90.3632 45.2297 90.6169 45.4006 90.786 45.5715C90.9551 45.7425 90.9551 45.7425 90.786 45.9134C90.1942 46.4262 89.6023 46.768 88.8414 46.9389C87.4042 47.1953 86.136 46.9389 85.0369 46.0843C84.3605 45.5715 83.9378 44.8024 83.8533 44.0333C83.6842 42.9223 83.9378 41.8967 84.6987 41.0421C85.4596 40.1875 86.3896 39.7602 87.5733 39.6747C88.7569 39.5893 89.856 39.8457 90.786 40.6148C90.8705 40.7003 90.8705 40.7003 90.9551 40.7857C91.0396 40.8712 91.0396 40.9567 90.9551 41.0421C90.7014 41.213 90.5323 41.4694 90.3632 41.6403C90.2787 41.7258 90.1942 41.7258 90.1096 41.6403C89.9405 41.4694 89.7714 41.384 89.6023 41.2985C88.6723 40.7003 86.7278 40.6148 85.7133 41.8967C85.0369 42.7513 85.0369 43.6914 85.5442 44.6315C86.0514 45.4861 86.9814 45.9134 88.0805 45.9134C88.6723 45.9134 89.1796 45.657 89.6023 45.4006C89.856 45.1442 89.9405 45.0588 90.1096 44.9733ZM61.1951 44.9733C61.4488 45.1442 61.7024 45.4006 61.8715 45.5715C62.0406 45.657 61.956 45.7425 61.8715 45.8279C61.026 46.6825 59.927 47.0244 58.6588 46.9389C57.2215 46.8535 56.0379 46.3407 55.3615 45.1442C53.9242 42.8368 55.3615 39.7602 58.6588 39.5893C59.7579 39.5038 60.6879 39.7602 61.6179 40.3584C62.2097 40.7857 62.2097 40.7857 61.7024 41.2985C61.5333 41.384 61.4488 41.6403 61.2797 41.6403C61.1106 41.6403 61.026 41.4694 60.857 41.384C59.5042 40.4439 57.4751 40.7003 56.6297 42.0677C56.0379 42.9223 56.1224 43.8623 56.7142 44.7169C57.306 45.5715 58.1515 45.9134 59.2506 45.8279C59.927 45.8279 60.4342 45.5715 60.9415 45.1442C61.026 45.0588 61.1106 44.9733 61.1951 44.9733ZM96.6196 42.7513C96.6196 43.6914 96.6196 44.6315 96.6196 45.4861C96.6196 45.8279 96.6196 45.8279 96.8732 45.8279C97.7187 45.8279 98.6487 45.8279 99.4941 45.8279C99.7478 45.8279 99.7478 45.8279 99.7478 46.0843C99.7478 46.3407 99.7478 46.5116 99.7478 46.768C99.7478 46.9389 99.7478 47.0244 99.5787 47.0244C99.4941 47.0244 99.4096 47.0244 99.325 47.0244C98.1414 47.0244 97.0423 47.0244 95.8587 47.0244C95.7741 47.0244 95.7741 47.0244 95.6896 47.0244C95.5205 47.0244 95.5205 46.9389 95.5205 46.8535C95.5205 46.768 95.5205 46.768 95.5205 46.6825C95.5205 44.4606 95.5205 42.2386 95.5205 40.1021C95.5205 39.7602 95.5205 39.7602 95.8587 39.7602C96.0278 39.7602 96.1969 39.7602 96.4505 39.7602C96.7887 39.7602 96.7887 39.7602 96.7887 40.1021C96.7887 40.9567 96.7887 41.8113 96.7887 42.6659C96.6196 42.5804 96.6196 42.6659 96.6196 42.7513ZM66.4369 43.2641C66.4369 42.1531 66.4369 41.1276 66.4369 40.0166C66.4369 39.9311 66.4369 39.8457 66.4369 39.7602C66.4369 39.6747 66.5215 39.6747 66.606 39.6747C67.0288 39.6747 67.3669 39.6747 67.7897 39.6747C67.8742 39.6747 67.9587 39.7602 67.9587 39.7602C67.9587 39.8457 67.9587 39.9311 67.9587 40.0166C67.9587 42.2386 67.9587 44.4606 67.9587 46.5971C67.9587 46.9389 68.0433 46.9389 67.536 46.9389C67.2824 46.9389 67.0288 46.9389 66.7751 46.9389C66.606 46.9389 66.5215 46.8535 66.5215 46.768C66.5215 46.3407 66.5215 45.9134 66.5215 45.4861C66.4369 44.7169 66.4369 44.0333 66.4369 43.2641Z" fill="#DBE6FF"/>
</svg>
