<svg width="153" height="42" viewBox="0 0 153 42" fill="none" xmlns="http://www.w3.org/2000/svg">
<path fill-rule="evenodd" clip-rule="evenodd" d="M7.21933 9.68813C7.03113 9.30441 6.56063 9.20848 6.18423 9.40034C5.90193 9.68814 5.71374 10.0719 5.90194 10.4556C6.09013 10.8393 6.56063 10.9352 6.93703 10.7434C7.31343 10.5515 7.40752 10.0719 7.21933 9.68813ZM4.01995 31.2485C4.30225 31.6322 4.77274 31.824 5.24324 31.5362C5.61964 31.3444 5.80783 30.7688 5.61964 30.2892C5.33734 29.9054 4.86684 29.7136 4.39634 30.0014C3.92585 30.2652 3.73765 30.7688 4.01995 31.2485ZM17.3115 38.3713L15.8059 38.2753C15.8059 38.1794 15.8059 37.9876 15.6177 37.8916C15.3354 37.5079 14.8649 37.316 14.3944 37.6038C14.018 37.8916 13.8298 38.3713 14.1121 38.8509C14.3944 39.2346 14.8649 39.4265 15.3354 39.1387C15.6177 39.0428 15.7118 38.8509 15.8059 38.5631L17.3115 38.6591C17.3115 38.8509 17.4056 39.1387 17.4997 39.3306C17.8761 40.098 18.8171 40.2899 19.4758 39.9062C20.2286 39.5224 20.4168 38.5631 20.0404 37.8916C19.664 37.1242 18.723 36.9323 18.0643 37.316C17.9702 37.316 17.8761 37.412 17.782 37.5079L13.3593 33.5508C13.5475 33.263 13.5475 32.8793 13.3593 32.5915C13.077 32.2078 12.6065 32.0159 12.136 32.3037C11.6655 32.5915 11.4773 33.0711 11.7596 33.5508L12.0419 33.8386L11.195 35.949C10.8186 35.7572 10.4422 35.8531 10.0658 36.045C9.31304 36.4287 9.12484 37.388 9.50124 38.0595C9.87763 38.8269 10.8186 39.0188 11.4773 38.6351C12.2301 38.2514 12.4183 37.2921 12.0419 36.6206C11.9478 36.3328 11.6655 36.1409 11.4773 36.045L12.3242 33.9345C12.5124 34.0304 12.7947 33.9345 12.9829 33.8386L13.077 33.7426L17.5938 37.6998C17.4056 37.8676 17.3115 38.1554 17.3115 38.3713ZM15.2413 10.0719L16.7469 7.28988C16.9351 7.38581 17.2174 7.38581 17.3115 7.19395C17.782 6.90616 17.9702 6.42651 17.6879 5.94686C17.4056 5.56314 16.9351 5.37128 16.4646 5.65907C16.0882 5.94686 15.9 6.42651 16.1823 6.90616C16.1823 7.00209 16.2764 7.09802 16.3705 7.19395L14.8649 9.97593C14.6767 9.88 14.3944 9.78407 14.2062 9.88L12.5124 5.15543C13.077 4.77171 13.2652 4.1002 12.9829 3.52462C12.6065 3.04497 11.9478 2.85311 11.3832 3.1409C10.8186 3.52462 10.6304 4.19613 10.9127 4.77171C11.195 5.25136 11.7596 5.44322 12.2301 5.34729L13.9239 10.0719C13.3593 10.4556 13.1711 11.1271 13.4534 11.7027C13.8298 12.1823 14.4885 12.3742 15.0531 12.0864C15.6177 11.7027 15.8059 11.0312 15.5236 10.4556C15.5236 10.3117 15.406 10.2157 15.3119 10.1438C15.2883 10.1198 15.2648 10.0958 15.2413 10.0719ZM12.9829 29.5937H13.8298C13.3593 29.0181 12.9829 28.4425 12.7947 27.8669C12.7477 27.771 12.7241 27.6511 12.6771 27.5551C12.4418 26.9076 12.2066 26.308 12.136 25.6605C10.4422 26.8117 9.59534 27.9628 9.78353 28.6344C9.94821 29.2099 11.1715 29.4977 12.9829 29.5937ZM21.2637 29.7855C19.7581 30.1692 18.3466 30.457 17.0292 30.6489C18.1584 31.3204 19.4758 31.8001 21.0755 31.896C21.1696 31.5123 21.4519 31.1285 21.8283 30.9367C22.6752 30.3611 23.8984 30.7448 24.3689 31.6082C24.463 31.6082 24.463 31.7041 24.463 31.7041C26.0627 31.5123 27.4742 31.0326 28.6975 30.2652C28.4152 29.5937 28.7916 28.7303 29.4503 28.3466C29.9208 28.0588 30.4854 28.0588 30.9559 28.2506C31.4264 27.5791 31.8969 26.8117 32.1792 25.9483C29.4503 27.1954 26.8155 28.1547 25.6863 28.5384C24.4866 28.9221 23.2868 29.2339 22.1576 29.5457C21.8518 29.6416 21.5695 29.7136 21.2637 29.7855ZM29.0974 14.7724C28.9092 14.3887 28.8151 13.9091 28.9092 13.5253C27.2154 12.8538 25.4276 12.566 23.8279 12.4701C23.6867 12.5181 23.522 12.5421 23.3574 12.566C23.1927 12.59 23.028 12.614 22.8869 12.662C22.7928 13.2376 22.5105 13.8131 21.9459 14.1009C21.1931 14.4846 20.3462 14.3887 19.7816 13.9091C18.9347 14.3887 18.0878 15.0602 17.335 15.7317C16.5822 16.4033 16.0176 17.0748 15.453 17.8422C15.453 17.8902 15.4765 17.9142 15.5001 17.9381C15.5236 17.9621 15.5471 17.9861 15.5471 18.0341C16.0176 18.8974 15.7353 20.0486 14.8884 20.5283C14.6061 20.816 14.2297 20.816 13.8533 20.816C13.6651 21.3916 13.4769 21.9672 13.3828 22.4469C13.2887 22.6387 13.2887 22.7346 13.2887 22.9265C17.0527 20.5283 21.2166 18.7775 25.5452 17.6264C25.5452 17.2426 25.8275 16.8589 26.2039 16.5711C26.8626 16.0915 27.8036 16.2833 28.2741 16.9549C28.5564 17.3386 28.6505 17.7223 28.5564 18.2019C28.4623 18.5857 28.3682 18.8735 27.8977 19.1612C27.4272 19.449 26.3921 19.449 25.9216 18.8735C21.4048 20.1206 17.0527 21.9432 13.1946 24.5573C13.2887 25.4207 13.4769 26.2841 13.8533 27.0515C14.2297 27.9149 14.7943 28.6823 15.453 29.3538C17.0527 29.162 18.9347 28.8742 20.9108 28.3945C22.2282 28.1067 23.7338 27.6271 25.2394 27.1474C26.1804 26.8596 29.5679 25.5166 32.6967 23.9817C32.7908 23.8858 32.7908 23.6939 32.7908 23.598C32.7908 23.0224 32.7908 22.6387 32.6026 22.3509C31.8498 22.8306 30.8147 22.5428 30.3442 21.7753C30.3442 21.7753 30.2501 21.6794 30.2501 21.5835C29.5915 21.5835 28.8387 21.7753 28.0859 21.9672C25.7334 22.5428 23.0986 23.7899 21.3813 24.6532C21.3813 25.3248 21.099 25.9003 20.5344 26.2841C19.7816 26.7637 18.7465 26.4759 18.276 25.7085C17.8055 24.941 18.0878 23.8858 18.8406 23.4062C19.4993 23.0224 20.2521 23.1184 20.8167 23.598C22.6046 22.7346 25.3335 21.4876 27.8036 20.816C27.9918 20.7681 28.18 20.7441 28.3682 20.6961C29.0974 20.5522 29.7561 20.4083 30.3442 20.3364C30.4384 20.0486 30.7206 19.7608 31.0029 19.569C31.7557 19.0893 32.7908 19.3771 33.2613 20.1445C33.4495 20.4323 33.4495 20.816 33.4495 21.1038C33.8259 21.5835 34.0141 22.3509 34.0141 23.3102C36.743 21.7753 38.9073 20.1445 38.5309 18.6816C38.3427 18.2979 37.684 18.0101 36.6489 17.8182C36.6254 17.8902 36.6254 17.9381 36.6019 17.9861C36.5548 18.154 36.5548 18.2499 36.1784 18.3938C33.92 19.3531 32.979 16.6671 34.4846 15.7078C34.9551 15.42 36.1784 15.42 36.6489 15.8996C36.743 15.9955 36.8371 16.0915 36.8371 16.1874C38.4368 16.4752 39.4719 17.0508 39.8483 18.0101V18.2019C40.4129 20.6961 37.3076 23.1184 33.7318 24.941C33.3554 26.4759 32.6967 27.723 31.8498 28.8982C31.8498 28.9461 31.8734 28.9701 31.8734 29.0181C31.9675 29.3538 32.0145 29.6176 31.9439 29.9534L35.4256 31.0086C35.5197 30.7208 35.7079 30.529 35.8961 30.433C36.0843 30.3371 36.3666 30.3371 36.6489 30.3371L37.5899 26.8836C37.4017 26.7877 37.2135 26.6918 37.1194 26.4999C36.8371 26.0203 37.0253 25.4447 37.4958 25.1569C37.9663 24.965 38.5309 25.061 38.8132 25.5406C38.9073 25.7325 38.9073 25.9243 38.9073 26.1162L41.1657 26.5958C41.2598 26.308 41.5421 26.0203 41.8244 25.8284C42.4831 25.4447 43.33 25.6365 43.7064 26.3081C44.0828 26.9796 43.8946 27.8429 43.2359 28.2267C42.5772 28.6104 41.7303 28.4185 41.3539 27.747C41.1657 27.4592 41.1657 27.1714 41.1657 26.8836L38.9073 26.404C38.9073 26.5958 38.7191 26.7877 38.5309 26.8836C38.3427 26.9796 38.1545 26.9796 37.9663 26.9796L37.0253 30.433C37.3076 30.529 37.4958 30.7208 37.5899 30.9127C37.8722 31.3923 37.7781 31.9679 37.4017 32.3517L39.3778 34.9418C39.7542 34.7499 40.2247 34.8458 40.4129 35.2296C40.6011 35.6133 40.507 36.0929 40.1306 36.2848C39.7542 36.4767 39.2837 36.3807 39.0955 35.997C39.0014 35.9011 39.0014 35.8051 39.0014 35.7092L32.979 34.9418C32.8849 35.2296 32.6967 35.5173 32.4144 35.7092C32.038 35.9011 31.6616 35.9011 31.3793 35.8051L29.8738 38.5871C29.9208 38.6351 29.9443 38.683 29.9679 38.731C29.9914 38.779 30.0149 38.8269 30.062 38.8749C30.2502 39.3546 30.1561 39.8342 29.6856 40.122C29.2151 40.4098 28.7446 40.3139 28.4623 39.8342C28.2741 39.3546 28.3682 38.8749 28.8387 38.5871C29.121 38.3953 29.3092 38.3953 29.5915 38.4912L30.8147 35.5174L30.5324 35.2296L25.1688 38.3953C25.357 38.8749 25.1688 39.3546 24.7924 39.5464C24.3219 39.8342 23.8514 39.7383 23.5691 39.2586C23.3809 38.779 23.475 38.2993 23.9455 38.0115C24.3219 37.7237 24.7924 37.8197 25.0747 38.2034L30.4383 35.0377C30.156 34.558 30.4383 33.8865 30.9088 33.5987C31.4734 33.215 32.2262 33.4069 32.5085 33.9825C32.6026 34.1743 32.6967 34.3662 32.6967 34.558L38.7191 35.3255C38.7661 35.2775 38.7897 35.2296 38.8132 35.1816C38.8367 35.1336 38.8602 35.0857 38.9073 35.0377L36.9312 32.4476C36.3666 32.8313 35.6138 32.6394 35.3315 32.0639C35.2374 31.872 35.2374 31.5842 35.2374 31.2964L31.7557 30.2412C31.5675 30.6249 31.3793 30.9127 31.0029 31.1046C30.4384 31.3924 29.7797 31.3924 29.3092 31.1046C27.8977 31.9679 26.298 32.5435 24.416 32.8313C24.3219 33.4069 24.0396 33.7906 23.5691 34.0784C22.7222 34.654 21.4989 34.2703 21.0284 33.4069C20.9343 33.311 20.8402 33.1191 20.8402 33.0232C19.0523 32.9272 17.4526 32.3517 16.1352 31.5842C15.7588 31.3924 15.3824 31.1046 15.0061 30.8168C14.2533 30.9127 13.5005 30.9127 12.8418 30.9127C10.3952 30.9127 8.79549 30.2412 8.32499 28.9941V28.8022C7.9486 27.3633 9.26599 25.5406 11.8067 23.7899C11.8067 23.3822 11.8772 22.9745 11.9478 22.4948C11.9713 22.4229 11.9713 22.3269 11.9949 22.255C12.089 21.9192 12.1831 21.6075 12.2772 21.2957C12.3713 20.9839 12.4654 20.6721 12.5595 20.3364C12.5124 20.2884 12.4654 20.2165 12.4183 20.1445C12.3713 20.0726 12.3242 20.0006 12.2772 19.9527C12.1831 19.8567 12.089 19.6649 12.089 19.569L9.54829 20.3364C9.64239 20.7201 9.45419 21.1038 9.07779 21.2957C8.60729 21.4876 8.0427 21.3916 7.7604 20.912C7.6663 20.7201 7.6663 20.4323 7.6663 20.2405L4.84332 19.1852C4.74922 19.3771 4.56102 19.5689 4.27872 19.7608C3.62002 20.1445 2.77313 19.9527 2.39673 19.2812C2.02034 18.6096 2.20853 17.7463 2.86723 17.3626C3.52593 16.9788 4.37282 17.1707 4.74922 17.8422C4.93742 18.2259 5.03152 18.5137 4.93742 18.8974L7.7604 19.9527C7.8545 19.7608 7.9486 19.6649 8.1368 19.569C8.23089 19.473 8.41909 19.473 8.60729 19.473L9.36009 15.2281C9.07779 15.1322 8.88959 14.9403 8.70139 14.6525C8.41909 14.0769 8.60729 13.3095 9.17189 13.0217C9.73649 12.638 10.4893 12.8298 10.7716 13.4054C11.0539 13.981 10.8657 14.7485 10.3011 15.0362C10.1129 15.2281 9.83058 15.2281 9.64239 15.2281L8.88959 19.473C9.17189 19.569 9.36009 19.7608 9.45419 19.9527V20.0486L12.089 19.2812C11.9949 18.5137 12.2772 17.8422 12.9359 17.4585C13.4064 17.2666 13.7828 17.1707 14.2533 17.2666C14.9119 16.4033 15.5706 15.6358 16.4175 14.8684C17.2644 14.1009 18.1113 13.4294 19.0523 12.9498C18.9582 12.1823 19.2405 11.319 19.9933 10.9352C20.8402 10.4556 21.9694 10.7434 22.534 11.6067C22.9104 11.5108 23.2868 11.4149 23.6632 11.4149C25.6393 11.223 27.6154 11.5108 29.4974 12.3742C29.5915 12.3742 29.6856 12.2782 29.7797 12.1823C30.6265 11.6067 31.8498 11.9905 32.3203 12.8538C32.8849 13.8131 32.6026 14.9643 31.6616 15.4439C30.7912 16.0435 29.5679 15.6598 29.0974 14.7724ZM33.5201 8.05732L34.6493 11.0312C34.0847 11.4149 33.8965 12.0864 34.2729 12.566C34.5552 13.1416 35.2139 13.3335 36.0608 12.9498C36.4372 12.662 36.7195 12.2783 36.6254 11.7986L42.5536 10.2637V10.3596C42.7418 10.6474 43.0241 10.8393 43.3064 10.8393L44.1533 17.3865C44.0592 17.3865 43.9651 17.3865 43.871 17.4825L40.9775 13.7172C41.3539 13.3335 41.448 12.7579 41.1657 12.2783C40.7893 11.7986 40.1306 11.6067 39.566 11.8945C39.0014 12.2783 38.8132 12.9498 39.0955 13.5253C39.4719 14.005 40.1306 14.1969 40.6952 13.9091L43.6123 17.6503C43.2359 18.0341 43.1418 18.6096 43.4241 19.0893C43.8005 19.569 44.4592 19.7608 45.0238 19.473C45.5884 19.0893 45.7766 18.4178 45.4943 17.8422C45.3061 17.4585 44.8356 17.2666 44.4592 17.2666L43.6123 10.7194C43.6593 10.7194 43.6828 10.6954 43.7064 10.6714C43.7299 10.6474 43.7534 10.6235 43.8005 10.6235C44.271 10.3357 44.4592 9.85602 44.1769 9.37636C43.8946 8.99264 43.4241 8.80078 42.9536 9.08857C42.5772 9.28043 42.4831 9.56822 42.4831 9.95194L36.5548 11.4868L36.4607 11.3909C36.3666 11.199 36.2725 11.1031 36.0843 11.0072L37.684 7.64962C37.8722 7.74555 38.1545 7.64962 38.3427 7.55369C38.7191 7.2659 38.9073 6.78625 38.625 6.30659C38.3427 5.92287 37.8722 5.73101 37.4017 6.01881C36.9312 6.3066 36.743 6.78625 37.0253 7.2659L37.3076 7.55369L35.7079 10.9112C35.6138 10.9112 35.5197 10.8873 35.4256 10.8873C35.2845 10.8633 35.1668 10.8393 35.0492 10.9112L33.8259 7.93741C34.2023 7.64962 34.3905 7.07403 34.1082 6.69031C33.8259 6.30659 33.3554 6.11473 32.8849 6.40252C32.6026 6.59438 32.4144 6.78625 32.4144 7.07404L29.0269 7.16996C29.0269 6.9781 28.9328 6.78625 28.8387 6.59438C28.7446 6.40252 28.6505 6.30659 28.5564 6.21066L30.8147 3.23683C31.097 3.42869 31.3793 3.42869 31.6616 3.23683C32.1321 2.94904 32.3203 2.46939 32.038 1.98973C31.7557 1.60601 31.2852 1.41415 30.8147 1.70194C30.3442 1.98974 30.156 2.46939 30.4383 2.94904C30.4383 2.997 30.4619 3.02098 30.4854 3.04497C30.5089 3.06895 30.5324 3.09293 30.5324 3.1409L28.3682 6.11473C27.8977 5.82694 27.3331 5.82694 26.8626 6.11473C26.3921 6.40252 26.2039 6.78624 26.1098 7.16996L22.6281 6.88217C22.6281 6.78624 22.6281 6.59439 22.534 6.49846L22.2517 6.21066L23.5691 3.33276C23.8514 3.42869 24.2278 3.42869 24.5101 3.23683C25.0747 2.85311 25.2629 2.18159 24.9806 1.60601C24.6042 1.03043 23.9455 0.83857 23.3809 1.12636C22.8163 1.51008 22.6281 2.18159 22.9104 2.75718C23.0045 2.94904 23.1927 3.1409 23.3809 3.04497L22.0635 5.92287C21.8753 5.82694 21.593 5.92287 21.4048 6.01881C20.9343 6.3066 20.7461 6.78625 21.0284 7.2659C21.3107 7.64962 21.7812 7.84148 22.2517 7.55369C22.4869 7.48174 22.6046 7.24191 22.6751 7.05005C22.6987 7.02607 22.6987 7.00209 22.7222 6.95412L26.2039 7.24191C26.2039 7.43377 26.298 7.72157 26.3921 7.91343C26.7685 8.68087 27.7095 8.87273 28.3682 8.48901C28.8387 8.29714 29.121 7.8175 29.121 7.33785L32.5085 7.24191C32.5085 7.33784 32.5085 7.43377 32.6026 7.5297C32.7673 7.93741 33.1437 8.15325 33.5201 8.05732ZM151.074 7.93741L145.334 16.787V22.6627H142.793V16.8829L137.053 8.03334H140.064L144.11 14.4846L148.157 7.93741H151.074ZM129.76 15.1562L134.936 22.6627H131.83L128.066 17.0748L124.302 22.6627H121.385L126.655 15.2521L121.668 8.05732H124.679L128.255 13.3575L131.83 8.05732H134.748L129.76 15.1562ZM109.317 16.811H114.304L111.764 10.9352L109.317 16.811ZM110.729 7.93741H113.081L119.292 22.6627H116.657L115.245 19.1133H108.47L106.965 22.6627H104.424L110.729 7.93741ZM101.954 22.6627H91.8617V8.03334H94.4024V20.3604H101.954V22.6627ZM78.4055 16.811H83.3928L80.8521 10.9352L78.4055 16.811ZM79.7229 7.93741H82.0754L88.2859 22.6627H85.6512L84.2397 19.1133H77.441L75.9354 22.6627H73.3947L79.7229 7.93741ZM150.321 35.3735H145.898V28.9221H147.027V34.3182H150.321V35.3735ZM131.195 32.8793H133.36L132.23 30.2892L131.195 32.8793ZM131.76 28.9221H132.795L135.524 35.3735H134.395L133.736 33.8386H130.725L130.066 35.3735H128.937L131.76 28.9221ZM119.88 29.9774H117.904V35.3735H116.775V29.9774H114.798V28.9221H119.88V29.9774ZM104.306 35.3735H103.177V28.9221H104.306V35.3735ZM92.4498 31.824V34.5101C92.3557 34.606 92.1675 34.7979 91.8852 34.8938C91.7911 34.9418 91.6735 34.9897 91.5559 35.0377C91.4383 35.0857 91.3206 35.1336 91.2266 35.1816C91.0854 35.2296 90.9678 35.2535 90.8502 35.2775C90.7325 35.3015 90.6149 35.3255 90.4738 35.3735C90.2856 35.4694 90.0033 35.4694 89.721 35.4694C89.2505 35.4694 88.78 35.3735 88.4036 35.1816C88.0272 35.0857 87.6508 34.7979 87.3685 34.5101C87.0862 34.2223 86.898 33.8386 86.7098 33.4548C86.6863 33.3829 86.6863 33.311 86.6627 33.239C86.5922 32.8553 86.5216 32.5195 86.5216 32.0878C86.5216 31.7041 86.6157 31.2245 86.8039 30.8408C86.9921 30.457 87.1803 30.0733 87.4626 29.7855C87.7449 29.4977 88.1213 29.3059 88.4977 29.114C88.8741 28.9221 89.3446 28.8262 89.8151 28.8262C89.9797 28.8262 90.1209 28.8502 90.262 28.8742C90.3797 28.8982 90.4738 28.9221 90.5678 28.9221C90.6619 28.9221 90.7561 28.9461 90.8502 28.9461C90.9913 28.9701 91.1089 28.9941 91.2266 28.9221L91.7911 29.2099C91.8852 29.3059 92.0734 29.4977 92.2616 29.5937L91.603 30.457C91.5559 30.4091 91.4853 30.3611 91.4147 30.3131C91.3442 30.2652 91.2736 30.2172 91.2266 30.1692C91.1795 30.1213 91.1089 30.0973 91.0383 30.0733C90.9678 30.0493 90.8972 30.0253 90.8502 29.9774C90.7561 29.9774 90.6855 29.9534 90.6149 29.9294C90.5443 29.9054 90.4738 29.8815 90.3797 29.8815C90.1915 29.7855 90.0033 29.7855 89.8151 29.7855C89.5328 29.7855 89.2505 29.8814 88.9682 29.9774C88.6859 30.0733 88.4977 30.2652 88.3095 30.457C88.2624 30.553 88.1918 30.6249 88.1448 30.6969C88.0272 30.8647 87.9095 31.0326 87.839 31.2245C87.7449 31.5123 87.6508 31.8001 87.6508 32.0878C87.6508 32.4716 87.7449 32.7594 87.839 33.0471C87.9331 33.3349 88.1213 33.6227 88.3095 33.8146C88.4977 34.0065 88.6859 34.1983 88.9682 34.2942C89.1564 34.3902 89.5328 34.4861 89.8151 34.4861C90.0974 34.4861 90.3797 34.4861 90.662 34.3902C90.9443 34.2942 91.1325 34.1983 91.3206 34.0064V32.7594H89.721V31.8001H92.4498V31.824ZM75.9354 35.3735H74.8062V28.9221H75.9354V35.3735ZM62.8321 33.0711C62.9262 32.7833 63.0203 32.4955 63.0203 32.2078C63.0203 31.824 62.9262 31.5362 62.8321 31.3444C62.738 31.0566 62.5498 30.8647 62.3616 30.6729C62.1734 30.481 61.9852 30.2892 61.7029 30.1932C61.4206 30.0973 61.1383 30.0014 60.7619 30.0014H59.5386V34.4381H60.7619C61.1383 34.4381 61.4206 34.3422 61.7029 34.2463C61.9852 34.1503 62.1734 33.9585 62.3616 33.7666C62.5498 33.5508 62.738 33.3589 62.8321 33.0711ZM63.8671 30.9607C64.0554 31.3444 64.1495 31.7281 64.1495 32.2078C64.1495 32.5915 64.0554 33.0711 63.8671 33.3589C63.7731 33.7426 63.4908 34.1264 63.2085 34.4142C62.9262 34.7019 62.5498 34.9897 62.0793 35.0857C61.7029 35.2775 61.2324 35.3735 60.7619 35.3735H58.4094V28.9221H60.7619C61.2324 28.9221 61.7029 29.0181 62.1734 29.2099C62.5498 29.4018 62.9262 29.5937 63.2085 29.8815C63.4908 30.1692 63.7731 30.457 63.8671 30.9607ZM70.3835 14.4846V20.6482C70.0071 20.936 69.6307 21.2237 69.1602 21.5115C68.6897 21.7993 68.2192 22.0871 67.7487 22.279C67.2783 22.4708 66.7137 22.6627 66.1491 22.7586C65.5845 22.8546 65.0199 22.9505 64.3612 22.9505C63.3261 22.9505 62.291 22.7586 61.35 22.3749C60.409 21.9912 59.6562 21.4156 58.9975 20.7441C58.3388 20.0726 57.8683 19.3051 57.4919 18.3458C57.1155 17.4825 56.9273 16.4272 56.9273 15.372C56.9273 14.4127 57.1155 13.4534 57.4919 12.4941C57.8683 11.5348 58.3388 10.6714 58.9975 9.99991C59.6562 9.3284 60.409 8.75281 61.35 8.36909C62.291 7.98537 63.232 7.79351 64.3612 7.79351C64.9258 7.79351 65.5845 7.79351 66.2432 7.98537C66.7137 8.0813 67.1842 8.17723 67.6547 8.36909C68.0311 8.46502 68.5015 8.65689 68.8779 8.94468L70.0071 9.80805L68.4074 11.7267C68.1252 11.4389 67.8428 11.247 67.5606 11.0551C67.2783 10.8633 66.9019 10.6714 66.6196 10.5755C66.3373 10.4796 65.9609 10.3836 65.5845 10.2877C65.2081 10.1918 64.8317 10.1918 64.3612 10.1918C63.7025 10.1918 63.0438 10.2877 62.4792 10.5755C61.9146 10.8633 61.35 11.247 60.9736 11.7267C60.5972 12.2063 60.3149 12.686 60.0326 13.3575C59.7503 14.029 59.6562 14.7005 59.6562 15.372C59.6562 16.1394 59.8444 16.811 60.0326 17.4825C60.3149 18.058 60.5972 18.6336 61.0677 19.1133C61.4441 19.497 62.0087 19.8807 62.5733 20.1685C63.1379 20.4563 63.7966 20.5522 64.5494 20.5522C65.2081 20.5522 65.8668 20.4563 66.4314 20.2644C66.996 20.0726 67.4665 19.7848 67.937 19.497V16.715H64.2671V14.5086H70.3835V14.4846Z" fill="#6B82B0"/>
</svg>
