<svg width="166" height="55" viewBox="0 0 166 55" fill="none" xmlns="http://www.w3.org/2000/svg">
<path d="M67.6769 6.47058H26.1769V48.5294H67.6769V6.47058Z" fill="#19191C"/>
<path d="M88.7462 27.5247L67.6769 6.47058V48.5294L88.7462 27.5247Z" fill="#DBE6FF"/>
<path d="M46.9269 27.8235L67.6769 6.47058H26.1769L46.9269 27.8235Z" fill="#DBE6FF"/>
<path d="M5.1077 27.5247L26.1769 48.5294V6.47058L5.1077 27.5247Z" fill="#DBE6FF"/>
<path d="M46.9269 27.8235L26.1769 48.5294H67.6769L46.9269 27.8235Z" fill="#DBE6FF"/>
<path d="M107.262 28.7759H99.6V36.2353H95.7692V18.7647H99.6V25.9296H107.262V18.7647H111.092V36.2353H107.262V28.7759Z" fill="#DBE6FF"/>
<path d="M120.475 36.8824C116.746 36.8824 113.695 35.3059 113.646 30.9835H117.376C117.424 32.9159 118.49 34.0855 120.524 34.0855C122.025 34.0855 123.769 33.2718 123.769 31.492C123.769 30.0681 122.607 29.6613 120.669 29.051L119.41 28.6951C116.698 27.8814 113.985 26.7627 113.985 23.5081C113.985 19.4907 117.569 18.1177 120.815 18.1177C124.157 18.1177 127.063 19.3381 127.111 23.3555H123.382C123.236 21.7282 122.316 20.762 120.572 20.762C119.168 20.762 117.812 21.5248 117.812 23.1521C117.812 24.4743 118.974 24.8811 121.396 25.6948L122.849 26.1524C125.803 27.1186 127.692 28.1865 127.692 31.2377C127.644 35.3059 123.866 36.8824 120.475 36.8824Z" fill="#DBE6FF"/>
<path d="M129.608 18.7824H135.762C136.904 18.7333 138.095 18.7824 139.236 18.9791C141.371 19.4707 143.009 20.8473 143.009 23.2071C143.009 25.4686 141.569 26.5994 139.485 27.1401C141.867 27.5826 143.654 28.7625 143.654 31.3682C143.654 35.3504 139.683 36.2353 136.606 36.2353H129.657L129.608 18.7824ZM135.762 26.0586C137.45 26.0586 139.187 25.7144 139.187 23.6987C139.187 21.8797 137.599 21.3881 136.01 21.3881H133.33V26.0586H135.762ZM136.11 33.6297C137.896 33.6297 139.634 33.2364 139.634 31.0732C139.634 28.91 138.145 28.5167 136.308 28.5167H133.281V33.6297H136.11Z" fill="#DBE6FF"/>
<path d="M153.696 36.8824C148.066 36.8824 145.569 33.1802 145.569 27.6522C145.569 22.1242 148.36 18.1177 153.892 18.1177C157.368 18.1177 160.745 19.7406 160.843 23.7978H156.927C156.731 21.972 155.556 21.0592 153.892 21.0592C150.465 21.0592 149.437 24.8628 149.437 27.7536C149.437 30.6444 150.465 33.9916 153.745 33.9916C155.458 33.9916 156.731 33.028 156.976 31.2023H160.892C160.501 35.3609 157.319 36.8824 153.696 36.8824Z" fill="#DBE6FF"/>
</svg>
