<svg width="76" height="28" viewBox="0 0 76 28" fill="none" xmlns="http://www.w3.org/2000/svg">
<g clip-path="url(#clip0_679_40126)">
<path d="M13.6121 8.97804L17.5577 4.95429C17.6437 4.86612 17.692 4.74681 17.692 4.62245C17.692 4.49809 17.6437 4.37879 17.5577 4.29061L13.6121 0.263389C13.5699 0.218983 13.5193 0.183681 13.4634 0.159575C13.4075 0.135468 13.3474 0.123047 13.2867 0.123047C13.2261 0.123047 13.166 0.135468 13.1101 0.159575C13.0542 0.183681 13.0036 0.218983 12.9614 0.263389L0.403625 13.085C0.145201 13.3489 2.93467e-05 13.7065 0 14.0794V26.9381C3.82537e-05 27.0309 0.0270559 27.1216 0.0776385 27.1988C0.128221 27.2759 0.200098 27.3361 0.284186 27.3716C0.368273 27.4071 0.460797 27.4164 0.550064 27.3983C0.63933 27.3802 0.721333 27.3355 0.785708 27.2699L6.22785 21.7118C6.35703 21.5799 6.45931 21.4232 6.52878 21.2507C6.59825 21.0783 6.63354 20.8935 6.6326 20.707L6.51129 8.36523C6.50919 8.17821 6.54382 7.99265 6.61314 7.81949C6.68246 7.64633 6.78507 7.48907 6.91492 7.35698L8.81626 5.41679C8.90273 5.3291 9.01971 5.27987 9.14166 5.27987C9.2636 5.27987 9.38059 5.3291 9.46705 5.41679L12.958 8.97804C13.0015 9.02115 13.0361 9.07274 13.0597 9.12974C13.0834 9.18674 13.0956 9.248 13.0956 9.30989C13.0956 9.37178 13.0834 9.43304 13.0597 9.49004C13.0361 9.54704 13.0015 9.59862 12.958 9.64173L9.0124 13.6655C8.92648 13.7535 8.87824 13.8726 8.87824 13.9967C8.87824 14.1209 8.92648 14.24 9.0124 14.328L12.9625 18.3564C13.0485 18.4446 13.0967 18.5639 13.0967 18.6882C13.0967 18.8126 13.0485 18.9319 12.9625 19.0201L9.0124 23.0473C8.92641 23.1355 8.87815 23.2548 8.87815 23.3791C8.87815 23.5035 8.92641 23.6228 9.0124 23.711L12.9625 27.7382C13.0047 27.7824 13.0553 27.8176 13.111 27.8416C13.1668 27.8656 13.2268 27.8779 13.2873 27.8779C13.3479 27.8779 13.4078 27.8656 13.4636 27.8416C13.5194 27.8176 13.5699 27.7824 13.6121 27.7382L22.162 19.0201C22.248 18.9319 22.2962 18.8126 22.2962 18.6882C22.2962 18.5639 22.248 18.4446 22.162 18.3564L13.6121 9.64173C13.5686 9.59862 13.534 9.54704 13.5103 9.49004C13.4867 9.43304 13.4745 9.37178 13.4745 9.30989C13.4745 9.248 13.4867 9.18674 13.5103 9.12974C13.534 9.07274 13.5686 9.02115 13.6121 8.97804Z" fill="#0052FF"/>
<path d="M42.697 9.37473L44.2843 7.75598C44.3318 7.70705 44.3584 7.64099 44.3584 7.57214C44.3584 7.50329 44.3318 7.43722 44.2843 7.38829L42.697 5.76954C42.649 5.72075 42.584 5.69336 42.5162 5.69336C42.4484 5.69336 42.3834 5.72075 42.3353 5.76954L40.748 7.38829C40.7002 7.43727 40.6733 7.50358 40.6733 7.57271C40.6733 7.64185 40.7002 7.70816 40.748 7.75714L42.3353 9.37589C42.3835 9.42452 42.4486 9.45171 42.5164 9.45149C42.5842 9.45128 42.6491 9.42367 42.697 9.37473Z" fill="#0A0B0D"/>
<path d="M36.8739 6.68799C36.1834 6.30643 35.3104 6.10986 34.2787 6.10986H28.2198C28.1523 6.10986 28.0876 6.13711 28.0398 6.18565C27.992 6.23419 27.965 6.30007 27.9647 6.36886V21.8349C27.9647 21.9039 27.9915 21.97 28.0394 22.0188C28.0872 22.0676 28.1521 22.095 28.2198 22.095H34.3682C35.4771 22.095 36.4306 21.8892 37.2027 21.4845C37.9254 21.1258 38.5326 20.564 38.953 19.8653C39.3734 19.1667 39.5894 18.3601 39.5757 17.5406C39.5905 16.7223 39.368 15.9179 38.9362 15.2281C38.4767 14.5329 37.8423 13.9766 37.0995 13.6174L36.9544 13.5422L37.095 13.459C38.3523 12.7132 38.9895 11.6263 38.9895 10.2215C38.9936 9.50584 38.807 8.8025 38.4498 8.18649C38.0679 7.55017 37.523 7.03209 36.8739 6.68799ZM30.832 8.74727C30.832 8.67827 30.8589 8.6121 30.9067 8.56331C30.9545 8.51452 31.0194 8.48711 31.0871 8.48711H33.9215C34.5701 8.48711 35.1007 8.65939 35.4998 9.00164C35.8988 9.34389 36.1052 9.8619 36.1052 10.5291C36.1052 11.1962 35.9011 11.7084 35.4986 12.0472C35.0961 12.386 34.5701 12.5502 33.9215 12.5502H31.0871C31.0194 12.5502 30.9545 12.5228 30.9067 12.474C30.8589 12.4252 30.832 12.359 30.832 12.29V8.74727ZM36.0474 19.0159C35.6188 19.4842 35.0168 19.7212 34.2583 19.7212H31.0871C31.0194 19.7212 30.9545 19.6938 30.9067 19.645C30.8589 19.5963 30.832 19.5301 30.832 19.4611V15.1564C30.832 15.0874 30.8589 15.0212 30.9067 14.9724C30.9545 14.9236 31.0194 14.8962 31.0871 14.8962H34.256C35.0145 14.8962 35.6165 15.1344 36.0451 15.6038C36.4588 16.0712 36.6877 16.6785 36.6877 17.3081C36.6877 17.9378 36.4588 18.545 36.0451 19.0125L36.0474 19.0159Z" fill="#0A0B0D"/>
<path d="M43.6607 11.1719H41.3716C41.2307 11.1719 41.1165 11.2884 41.1165 11.432V21.8348C41.1165 21.9785 41.2307 22.095 41.3716 22.095H43.6607C43.8015 22.095 43.9158 21.9785 43.9158 21.8348V11.432C43.9158 11.2884 43.8015 11.1719 43.6607 11.1719Z" fill="#0A0B0D"/>
<path d="M52.0302 11.1717H50.6107C50.5746 11.1717 50.54 11.157 50.5145 11.131C50.489 11.105 50.4747 11.0697 50.4747 11.0329V7.91104C50.4747 7.84204 50.4478 7.77587 50.4 7.72708C50.3521 7.67829 50.2872 7.65088 50.2196 7.65088H47.952C47.9185 7.65073 47.8852 7.65735 47.8542 7.67037C47.8232 7.68339 47.795 7.70255 47.7713 7.72674C47.7476 7.75093 47.7288 7.77967 47.716 7.8113C47.7033 7.84293 47.6968 7.87683 47.6969 7.91104V11.0329C47.6969 11.0697 47.6826 11.105 47.6571 11.131C47.6315 11.157 47.5969 11.1717 47.5609 11.1717H45.7207C45.6531 11.1717 45.5882 11.1991 45.5404 11.2479C45.4925 11.2967 45.4656 11.3628 45.4656 11.4318V13.3755C45.4656 13.4445 45.4925 13.5106 45.5404 13.5594C45.5882 13.6082 45.6531 13.6356 45.7207 13.6356H47.5609C47.5969 13.6356 47.6315 13.6502 47.6571 13.6763C47.6826 13.7023 47.6969 13.7376 47.6969 13.7744V21.8346C47.6969 21.9036 47.7238 21.9698 47.7716 22.0186C47.8195 22.0673 47.8844 22.0948 47.952 22.0948H50.2196C50.2872 22.0948 50.3521 22.0673 50.4 22.0186C50.4478 21.9698 50.4747 21.9036 50.4747 21.8346V13.7744C50.4745 13.7561 50.4779 13.738 50.4847 13.7211C50.4915 13.7042 50.5015 13.6888 50.5142 13.6759C50.5268 13.663 50.5419 13.6528 50.5585 13.6459C50.5751 13.639 50.5928 13.6355 50.6107 13.6356H52.8193C52.8614 13.6357 52.9029 13.6252 52.94 13.605C52.9771 13.5848 53.0088 13.5555 53.0321 13.5198C53.0555 13.4841 53.0698 13.443 53.0738 13.4003C53.0778 13.3576 53.0714 13.3145 53.0552 13.2749L52.2615 11.3312C52.2423 11.2846 52.2102 11.2446 52.1692 11.2163C52.1281 11.188 52.0798 11.1725 52.0302 11.1717Z" fill="#0A0B0D"/>
<path d="M75.7047 21.6868L72.2648 16.6086C72.2352 16.5649 72.2193 16.5131 72.2193 16.46C72.2193 16.4069 72.2352 16.3551 72.2648 16.3114L75.4983 11.58C75.5248 11.541 75.5403 11.4953 75.5432 11.448C75.546 11.4006 75.5361 11.3533 75.5145 11.3113C75.4929 11.2692 75.4604 11.234 75.4206 11.2095C75.3808 11.1849 75.3351 11.1719 75.2886 11.1719H72.8181C72.7758 11.1716 72.7341 11.182 72.6967 11.2022C72.6593 11.2224 72.6274 11.2517 72.6038 11.2875L70.6288 14.3943C70.6212 14.4065 70.6107 14.4166 70.5983 14.4235C70.5859 14.4305 70.572 14.4341 70.5579 14.4341C70.5438 14.4341 70.5298 14.4305 70.5175 14.4235C70.5051 14.4166 70.4946 14.4065 70.487 14.3943L68.487 11.2887C68.4637 11.2529 68.432 11.2236 68.3948 11.2034C68.3576 11.1832 68.316 11.1728 68.2739 11.173H65.6277C65.581 11.1731 65.5353 11.1862 65.4955 11.2109C65.4556 11.2356 65.4232 11.271 65.4017 11.3132C65.3802 11.3554 65.3704 11.4028 65.3735 11.4502C65.3766 11.4977 65.3923 11.5434 65.419 11.5823L68.707 16.3565C68.7377 16.4004 68.7541 16.4529 68.7541 16.5068C68.7541 16.5607 68.7377 16.6132 68.707 16.6571L65.1923 21.6845C65.165 21.7234 65.1487 21.7692 65.1453 21.8169C65.1418 21.8646 65.1514 21.9124 65.1728 21.9549C65.1943 21.9975 65.2268 22.0331 65.2668 22.0581C65.3069 22.083 65.3529 22.0961 65.3998 22.0961H67.8873C67.9292 22.0959 67.9704 22.0853 68.0073 22.0651C68.0443 22.045 68.0759 22.0159 68.0993 21.9805L70.3226 18.5684C70.3304 18.5565 70.3409 18.5467 70.3533 18.5399C70.3656 18.5332 70.3795 18.5296 70.3935 18.5296C70.4075 18.5296 70.4213 18.5332 70.4337 18.5399C70.4461 18.5467 70.4566 18.5565 70.4644 18.5684L72.648 21.9782C72.6714 22.0142 72.7033 22.0436 72.7408 22.0638C72.7782 22.084 72.82 22.0943 72.8623 22.0938H75.4949C75.5413 22.0937 75.5867 22.0806 75.6264 22.0561C75.666 22.0316 75.6983 21.9965 75.7199 21.9547C75.7415 21.9128 75.7515 21.8658 75.7488 21.8186C75.7461 21.7714 75.7308 21.7258 75.7047 21.6868Z" fill="#0A0B0D"/>
<path d="M64.6005 11.1719H62.1379C62.0861 11.1721 62.0356 11.1883 61.993 11.2185C61.9505 11.2486 61.918 11.2913 61.8998 11.3407L59.3885 18.1765C59.3825 18.1932 59.3717 18.2077 59.3574 18.2179C59.3431 18.2281 59.326 18.2336 59.3085 18.2336C59.2911 18.2336 59.274 18.2281 59.2597 18.2179C59.2454 18.2077 59.2346 18.1932 59.2286 18.1765L56.8307 11.3407C56.8131 11.2902 56.7805 11.2464 56.7374 11.2156C56.6943 11.1847 56.6429 11.1682 56.5903 11.1685H54.1436C54.1017 11.1684 54.0604 11.179 54.0234 11.1991C53.9864 11.2193 53.9548 11.2484 53.9315 11.284C53.9082 11.3195 53.8938 11.3604 53.8897 11.403C53.8855 11.4456 53.8918 11.4885 53.9078 11.5281L57.7706 21.0417C57.7961 21.1042 57.8085 21.1715 57.8069 21.2392C57.8054 21.3069 57.7899 21.3736 57.7615 21.4348L55.9395 25.3661C55.9213 25.4054 55.9131 25.4488 55.9156 25.4922C55.918 25.5356 55.9312 25.5777 55.9537 25.6147C55.9763 25.6516 56.0076 25.6821 56.0447 25.7036C56.0818 25.725 56.1236 25.7365 56.1663 25.7372H58.5098C58.5593 25.7374 58.6078 25.7228 58.6493 25.6953C58.6908 25.6678 58.7235 25.6285 58.7434 25.5823L64.8329 11.5373C64.85 11.4978 64.8572 11.4545 64.8539 11.4114C64.8505 11.3683 64.8367 11.3268 64.8136 11.2905C64.7905 11.2542 64.759 11.2244 64.7217 11.2037C64.6845 11.183 64.6428 11.1721 64.6005 11.1719Z" fill="#0A0B0D"/>
</g>
<defs>
<clipPath id="clip0_679_40126">
<rect width="75.75" height="27.75" fill="white" transform="translate(0 0.125)"/>
</clipPath>
</defs>
</svg>
