<svg width="150" height="42" viewBox="0 0 150 42" fill="none" xmlns="http://www.w3.org/2000/svg">
<path d="M10.8422 30.7129C11.2961 30.6826 11.7499 30.6331 12.2037 30.6283C13.852 30.6155 14.6154 30.1015 15.1211 28.5433C16.0466 25.6983 16.9445 22.8421 17.8521 19.9908C18.8878 16.7339 19.9008 13.4707 20.9592 10.2218C22.3985 5.79311 26.5979 3.26905 31.4846 4.01143V10.6065L31.5073 10.5858C31.0486 10.5858 30.5915 10.5986 30.1329 10.6002C28.4505 10.6002 27.6871 11.127 27.1685 12.7267C26.1571 15.8527 25.17 18.985 24.1732 22.1157C23.251 25.0198 22.3353 27.9254 21.4065 30.8263C19.9965 35.2294 16.1325 37.7295 11.429 37.3256C10.8973 37.2793 10.9103 36.9983 10.9103 36.6375C10.9103 34.8654 10.9103 33.0922 10.9103 31.318C10.9103 31.1088 10.8795 30.8981 10.8633 30.6794L10.8422 30.7129Z" fill="#6B82B0"/>
<path d="M11.2742 31.0429C9.41622 31.0223 7.55828 31.0013 5.70034 30.9796C5.35339 30.9796 5.00645 30.9796 4.59466 30.9796V10.6768H11.2531C11.2878 10.8835 11.3111 11.0919 11.3228 11.3012C11.3228 17.6752 11.3228 24.0482 11.3228 30.4201C11.311 30.6342 11.2871 30.8476 11.2515 31.0591L11.2742 31.0429Z" fill="#6B82B0"/>
<path d="M31.5823 10.691C33.5538 10.691 35.5248 10.691 37.4953 10.691C37.5838 10.7045 37.6707 10.7274 37.7549 10.7594V30.5738H31.5508C31.5343 30.283 31.5073 30.0272 31.5073 29.7793C31.5073 23.6692 31.5073 17.5591 31.5073 11.449C31.522 11.1897 31.5531 10.9317 31.6003 10.6768C31.5945 10.6818 31.5885 10.6866 31.5823 10.691Z" fill="#6B82B0"/>
<path d="M111.965 17.8198C112.004 17.579 112.057 17.2398 112.117 16.8532H114.087C114.122 16.9204 114.169 16.9662 114.167 17.017C114.151 20.785 114.177 24.5694 114.093 28.3424C114.051 30.2395 113.496 32.0072 111.598 32.8345C109.504 33.7503 107.361 33.7552 105.362 32.4921C104.456 31.9187 104.018 30.9947 103.873 29.7938C104.593 29.7938 105.23 29.7677 105.861 29.8119C106.011 29.8234 106.183 30.0478 106.277 30.2133C106.952 31.3895 107.976 31.8515 109.499 31.6173C110.754 31.4305 111.558 30.6802 111.794 29.3482C111.938 28.5537 111.956 27.7362 112.041 26.8745C111.88 26.9089 111.778 26.899 111.743 26.9416C111.291 27.4784 110.722 27.9005 110.081 28.1747C109.44 28.4488 108.746 28.5673 108.052 28.5209C107.358 28.4745 106.685 28.2644 106.085 27.9072C105.485 27.55 104.976 27.0557 104.596 26.4633C103.187 24.3122 103.277 20.5868 104.79 18.5029C105.381 17.666 106.222 17.0444 107.187 16.7297C108.152 16.415 109.191 16.4239 110.151 16.7549C110.802 16.981 111.368 17.4594 111.965 17.8198ZM112.088 22.4954C112.015 21.8876 111.986 21.2602 111.859 20.654C111.582 19.3254 110.86 18.6127 109.71 18.4521C108.215 18.2424 107.119 18.7061 106.515 19.9266C106.119 20.6865 105.902 21.5296 105.882 22.3894C105.861 23.2491 106.037 24.102 106.396 24.8807C106.955 26.1487 108.05 26.7303 109.396 26.5812C110.741 26.4322 111.537 25.7179 111.848 24.2877C111.973 23.7061 112.009 23.1065 112.088 22.4954Z" fill="#6B82B0"/>
<path d="M61.3738 16.8767C60.6782 16.8767 60.0164 16.9053 59.3595 16.8561C59.1984 16.845 58.9779 16.6167 58.899 16.4391C58.0633 14.5744 55.5354 13.8101 53.7465 14.8979C52.4777 15.6685 52.4374 17.6219 53.7465 18.3148C54.5516 18.743 55.4999 18.9301 56.3775 19.2456C57.4788 19.6404 58.6156 19.9734 59.6638 20.4792C62.5782 21.8856 62.335 26.1081 59.8683 27.6398C57.7284 28.9669 53.9107 28.9844 51.8304 27.5605C50.6212 26.7328 49.9723 25.5833 49.7694 24.0373C50.4875 24.0373 51.1235 24.0024 51.7499 24.0595C51.9351 24.0769 52.1718 24.3227 52.2571 24.5193C53.2006 26.6615 56.3082 27.5668 58.3177 26.2635C59.6702 25.3866 59.7137 23.2334 58.2952 22.3819C57.445 21.8729 56.4274 21.6319 55.479 21.2894C54.4517 20.9184 53.3713 20.6552 52.3923 20.1922C49.4764 18.8048 49.9916 15.0342 51.9302 13.6595C53.9204 12.2483 57.7542 12.2594 59.6702 13.7578C60.1632 14.1284 60.5702 14.5983 60.864 15.1361C61.1578 15.674 61.3316 16.2674 61.3738 16.8767Z" fill="#6B82B0"/>
<path d="M123.408 21.4903C123.674 19.1365 122.53 18.0826 120.325 18.6213C119.782 18.7831 119.324 19.1393 119.042 19.6176C118.775 20.1266 118.52 20.3057 117.973 20.259C117.557 20.2231 117.133 20.259 116.712 20.259C116.776 18.7334 117.632 17.5035 119.146 17.2031C120.39 16.9564 121.669 16.919 122.926 17.0925C124.753 17.3619 125.651 18.573 125.683 20.4567C125.718 22.1068 125.692 23.7585 125.694 25.4101V28.3399C125.191 28.3399 124.596 28.4613 124.102 28.2979C123.782 28.192 123.612 27.6752 123.351 27.3016C122.19 28.6357 120.546 28.8381 118.773 28.4691C118.074 28.3367 117.438 27.988 116.96 27.4754C116.483 26.9627 116.188 26.3135 116.122 25.625C115.934 24.0356 116.564 22.7077 118.057 22.1613C119.127 21.769 120.321 21.6678 121.472 21.5105C122.083 21.4171 122.724 21.4903 123.408 21.4903ZM123.509 22.8291C122.076 22.9972 120.785 23.0595 119.53 23.3288C118.685 23.511 118.318 24.28 118.368 25.1471C118.373 25.5383 118.512 25.9168 118.761 26.2241C119.011 26.5314 119.357 26.7503 119.748 26.847C121.564 27.3561 123.113 26.4314 123.407 24.6411C123.487 24.1368 123.468 23.6199 123.509 22.826V22.8291Z" fill="#6B82B0"/>
<path d="M94.9442 23.2359H86.772C86.5739 25.8087 88.2057 27.4862 90.466 27.0327C91.0018 26.9264 91.6659 26.5793 91.9273 26.1342C92.3462 25.4067 92.8707 25.3602 93.5348 25.4001C93.8741 25.42 94.2167 25.4001 94.6454 25.4001C94.2736 26.6491 93.6419 27.5692 92.658 28.2236C89.7109 30.1868 85.788 28.7767 84.7553 25.3619C84.1861 23.5333 84.2514 21.5596 84.9404 19.7746C85.7864 17.5374 87.7592 16.3382 90.2143 16.5176C92.5589 16.6837 94.1615 18.0772 94.673 20.4788C94.8435 21.3292 94.8468 22.2161 94.9442 23.2359ZM92.5443 21.5933C92.5183 19.4574 91.4077 18.2366 89.5989 18.2931C87.9167 18.3446 86.7785 19.6932 86.8483 21.5933H92.5443Z" fill="#6B82B0"/>
<path d="M137.222 23.2308C137.178 25.9297 138.702 27.4777 140.945 27.0359C141.548 26.9115 142.089 26.5745 142.471 26.0842C142.862 25.5112 143.247 25.3385 143.865 25.3983C144.264 25.4381 144.669 25.3983 145.153 25.3983C144.791 26.7037 144.1 27.6504 143.031 28.3032C139.98 30.18 136.148 28.6752 135.175 25.2039C134.625 23.3358 134.74 21.3302 135.501 19.5403C136.376 17.4525 138.337 16.338 140.725 16.5191C142.99 16.6852 144.513 17.9341 145.101 20.183C145.286 20.8939 145.3 21.6496 145.39 22.3854C145.467 23.0032 145.263 23.254 144.585 23.2391C142.44 23.1926 140.294 23.2225 138.147 23.2225L137.222 23.2308ZM137.289 21.5782H143.069C142.995 19.5187 141.99 18.3328 140.33 18.2946C138.529 18.2531 137.424 19.4223 137.289 21.5782Z" fill="#6B82B0"/>
<path d="M83.8908 17.0183C83.1708 19.0263 82.4971 20.9084 81.8155 22.7888C81.1977 24.4982 80.548 26.1963 79.9653 27.917C79.7769 28.4755 79.4959 28.6417 78.9292 28.632C77.269 28.6062 77.2674 28.632 76.7151 27.0179C75.6732 23.9833 74.6318 20.9492 73.5909 17.9157C73.4984 17.6445 73.4201 17.3685 73.318 17.0441H75.6934C76.6336 20.0932 77.5739 23.1472 78.5669 26.3674C78.9452 25.1535 79.2597 24.0963 79.6061 23.0503C80.1952 21.2747 80.8273 19.5121 81.394 17.7236C81.568 17.1732 81.8107 16.9262 82.3982 16.9973C82.895 17.0317 83.3932 17.0387 83.8908 17.0183Z" fill="#6B82B0"/>
<path d="M128.973 18.728H127.143V16.9609H128.943V13.5879H131.094V16.9235H133.464V18.6922H131.114C131.114 19.3137 131.114 19.8425 131.114 20.3697C131.114 22.1221 131.128 23.8745 131.099 25.6269C131.086 26.377 131.341 26.7334 132.1 26.6813C132.667 26.6423 133.238 26.6813 133.871 26.6813V28.6046C132.775 28.6046 131.711 28.6778 130.66 28.585C129.643 28.4939 128.984 27.5779 128.974 26.3949C128.956 24.1837 128.974 21.9741 128.974 19.7628L128.973 18.728Z" fill="#6B82B0"/>
<path d="M71.3956 28.6319H69.4733V12.6172H71.3956V28.6319Z" fill="#6B82B0"/>
<path d="M96.8665 17.2638H98.8238V19.1135C99.466 18.5324 99.9798 17.8434 100.667 17.5037C101.354 17.164 102.234 17.1544 103.114 16.9854V19.1956C102.848 19.1956 102.568 19.1956 102.289 19.1956C100.261 19.2278 99.0405 20.3901 98.9908 22.4265C98.9458 24.2939 98.9779 26.1629 98.9731 28.0319C98.9731 28.2138 98.9442 28.3958 98.9233 28.6324H96.8665V17.2638Z" fill="#6B82B0"/>
<path d="M64.1869 16.9854H66.5898V28.6324H64.1869V16.9854Z" fill="#6B82B0"/>
<path d="M64.1869 15.0437V12.6172H66.5898V15.0437H64.1869Z" fill="#6B82B0"/>
</svg>
