<svg width="68" height="68" viewBox="0 0 68 68" fill="none" xmlns="http://www.w3.org/2000/svg">
<g filter="url(#filter0_d_702_4376)">
<path d="M57.326 21.4472L56.9583 21.7069C55.6701 22.6221 54.7844 23.8125 54.5823 25.4143C54.3425 27.3201 54.7267 29.0589 56.1226 30.4704C56.6216 30.971 57.2034 31.3809 57.8421 31.6821C58.0115 31.7632 58.0288 31.8481 57.9711 32.0142C57.3934 33.668 56.527 35.1577 55.4843 36.5519C55.0607 37.1176 54.6179 37.6641 54.0556 38.0966C53.3047 38.6759 52.4565 38.8873 51.5458 38.6904C50.9017 38.5504 50.2779 38.3129 49.655 38.0898C48.8992 37.8195 48.1348 37.6563 47.3261 37.7481C46.6955 37.8195 46.1073 38.0377 45.5152 38.2482C45.0522 38.4133 44.5862 38.5697 44.1135 38.7029C43.3144 38.9279 42.5914 38.7155 41.9136 38.2771C41.3254 37.8967 40.8546 37.3947 40.4156 36.856C38.9715 35.0747 37.8894 33.1013 37.2559 30.8894C36.8189 29.3592 36.557 27.7999 36.6263 26.205C36.7226 24.0684 37.3811 22.15 38.9436 20.6371C40.277 19.3511 41.8751 18.6937 43.7573 18.9273C44.6603 19.0383 45.5018 19.3782 46.3287 19.7393C46.6693 19.8979 47.0397 19.9819 47.4152 19.9858C47.7907 19.9896 48.1627 19.9132 48.5064 19.7615C49.2785 19.4495 50.0699 19.1879 50.8757 18.9785C51.98 18.6888 53.0842 18.8056 54.1702 19.1358C55.2562 19.466 56.1708 20.0048 56.9034 20.866C57.0228 21.006 57.1268 21.1556 57.2375 21.3081C57.2635 21.3429 57.2856 21.3844 57.326 21.4472Z" fill="#8594AA"/>
<path d="M52.5518 12.4722C52.6229 13.1252 52.567 13.7859 52.3872 14.4176C51.9653 15.8971 51.0091 17.1661 49.7051 17.9772C48.9811 18.4406 48.1647 18.5913 47.3136 18.5198C46.9651 15.6485 49.4903 12.7126 52.5518 12.4722Z" fill="#8594AA"/>
<path d="M14.3785 21.2385H27.4813C27.4813 21.3158 27.4919 21.3872 27.4919 21.4596C27.4919 24.9939 27.4919 28.5288 27.4919 32.0643C27.4963 32.2011 27.4866 32.3379 27.463 32.4727C27.4202 32.6966 27.3016 32.8989 27.1272 33.0453C26.9529 33.1916 26.7334 33.2731 26.5061 33.276C26.1787 33.2895 25.8514 33.2895 25.524 33.276C25.3498 33.2702 25.3055 33.3329 25.3065 33.499C25.3122 34.6575 25.3065 35.8238 25.3065 36.9862C25.3065 37.4477 25.1919 37.8677 24.8675 38.2075C24.4179 38.6777 23.8768 38.892 23.2376 38.6903C22.5685 38.4827 22.1632 38.0144 22.0505 37.3154C22.0311 37.1734 22.0227 37.0301 22.0255 36.8868C22.0255 35.7582 22.0255 34.6305 22.0255 33.5019C22.0255 33.3223 21.9773 33.2682 21.7954 33.2721C21.2235 33.2837 20.6507 33.2856 20.0779 33.2721C19.8709 33.2673 19.8314 33.3397 19.8333 33.5289C19.841 34.6875 19.8333 35.8402 19.8333 36.9959C19.8333 37.7084 19.533 38.251 18.9005 38.5831C17.9445 39.0909 16.6862 38.4074 16.5793 37.328C16.562 37.1581 16.5543 36.9872 16.5533 36.8163C16.5533 35.7224 16.5466 34.6286 16.5533 33.5337C16.5533 33.3204 16.4907 33.2644 16.2866 33.275C15.9814 33.2904 15.6734 33.2856 15.3672 33.275C15.1045 33.274 14.8527 33.1693 14.6664 32.9835C14.4801 32.7978 14.3743 32.5459 14.3717 32.2825C14.3717 32.1859 14.366 32.0894 14.366 31.9928C14.366 28.4908 14.366 24.9897 14.366 21.4896L14.3785 21.2385Z" fill="#8594AA"/>
<path d="M27.5016 20.1186H14.3882C14.3796 19.0894 14.6226 18.0738 15.0958 17.1604C15.5658 16.2343 16.2612 15.442 17.1175 14.8569C16.7873 14.5286 16.4773 14.2235 16.1702 13.9146C15.991 13.7468 15.8213 13.5692 15.6619 13.3826C15.6084 13.3177 15.5712 13.2409 15.5535 13.1586C15.5358 13.0763 15.538 12.9909 15.5599 12.9097C15.5819 12.8284 15.623 12.7537 15.6798 12.6916C15.7366 12.6296 15.8073 12.5822 15.8862 12.5532C16.122 12.4567 16.3146 12.5417 16.4831 12.7C16.6756 12.8776 16.8518 13.064 17.0357 13.2474C17.3149 13.5274 17.5969 13.8055 17.8732 14.0893C17.9014 14.1313 17.9444 14.161 17.9936 14.1723C18.0428 14.1836 18.0944 14.1757 18.138 14.1501C18.9936 13.7505 19.9274 13.5474 20.8712 13.5554C21.8128 13.5487 22.7351 13.6819 23.5957 14.0893C23.8152 14.1936 23.95 14.1733 24.1185 13.9928C24.5229 13.5583 24.9503 13.1451 25.3701 12.729C25.6156 12.4886 25.838 12.4509 26.0681 12.5909C26.3569 12.7715 26.4387 13.1113 26.223 13.3816C26.0636 13.5683 25.8939 13.7459 25.7147 13.9136C25.4066 14.2216 25.0967 14.5257 24.7703 14.8482C26.5513 16.1612 27.4294 17.9164 27.5016 20.1186ZM18.2092 18.2051C18.3168 18.2043 18.4231 18.1821 18.522 18.1398C18.6209 18.0975 18.7104 18.0358 18.7853 17.9585C18.8602 17.8811 18.919 17.7896 18.9583 17.6892C18.9975 17.5888 19.0165 17.4816 19.0141 17.3738C19.0108 17.1595 18.9239 16.9551 18.772 16.8044C18.62 16.6536 18.4153 16.5686 18.2016 16.5677C17.9844 16.5687 17.7766 16.6561 17.6237 16.8107C17.4708 16.9653 17.3853 17.1744 17.3861 17.3922C17.3863 17.5 17.4079 17.6066 17.4495 17.706C17.4911 17.8054 17.5519 17.8955 17.6285 17.9712C17.705 18.0469 17.7957 18.1066 17.8954 18.1469C17.9951 18.1872 18.1018 18.2073 18.2092 18.206V18.2051ZM23.6747 18.2051C23.7822 18.205 23.8886 18.1834 23.9878 18.1418C24.087 18.1001 24.1769 18.0391 24.2524 17.9623C24.3279 17.8855 24.3874 17.7945 24.4276 17.6945C24.4677 17.5945 24.4877 17.4874 24.4863 17.3796C24.4838 17.1656 24.3981 16.9611 24.2473 16.8096C24.0966 16.6581 23.8929 16.5716 23.6795 16.5686C23.572 16.5679 23.4654 16.5884 23.3659 16.6291C23.2664 16.6698 23.1758 16.7298 23.0995 16.8057C23.0232 16.8816 22.9626 16.9719 22.9212 17.0714C22.8798 17.1709 22.8584 17.2776 22.8583 17.3854C22.8573 17.4933 22.8777 17.6003 22.9183 17.7002C22.959 17.8001 23.019 17.8909 23.095 17.9673C23.171 18.0437 23.2614 18.1041 23.3609 18.1451C23.4604 18.1861 23.5671 18.2068 23.6747 18.206V18.2051Z" fill="#8594AA"/>
<path d="M28.5923 26.6887C28.5923 25.4452 28.5875 24.2016 28.5923 22.9572C28.5923 22.0709 29.1969 21.3593 30.0181 21.2464C30.9914 21.1122 31.8579 21.9 31.8685 22.9427C31.8772 23.941 31.8685 24.9383 31.8685 25.9356C31.8685 27.4321 31.8685 28.9289 31.8685 30.426C31.8685 31.2254 31.4314 31.8568 30.7257 32.0972C29.7813 32.4177 28.7213 31.7429 28.6077 30.7456C28.5923 30.5825 28.5855 30.4188 28.5875 30.2551C28.5894 29.067 28.591 27.8782 28.5923 26.6887Z" fill="#3D3D3D"/>
<path d="M13.2801 26.7108C13.2801 27.9553 13.2801 29.1988 13.2801 30.4423C13.2801 31.2417 12.8391 31.8635 12.1248 32.1029C11.2227 32.4051 10.1897 31.7776 10.0405 30.8324C10.0164 30.6911 10.0039 30.548 10.0029 30.4047C10.0029 27.9382 10.0029 25.4711 10.0029 23.0034C10.0029 22.1799 10.4448 21.5455 11.1707 21.31C12.1017 21.0088 13.1434 21.6749 13.2579 22.653C13.2777 22.8567 13.2854 23.0614 13.281 23.266C13.2817 24.4149 13.2814 25.5632 13.2801 26.7108Z" fill="#8594AA"/>
<path d="M18.2093 18.206C18.1019 18.2073 17.9953 18.1872 17.8957 18.147C17.796 18.1067 17.7053 18.0471 17.6288 17.9715C17.5523 17.896 17.4914 17.8059 17.4498 17.7067C17.4081 17.6074 17.3865 17.5008 17.3861 17.3931C17.3853 17.1754 17.4708 16.9662 17.6237 16.8116C17.7766 16.657 17.9844 16.5696 18.2016 16.5686C18.4153 16.5696 18.6201 16.6546 18.772 16.8053C18.9239 16.956 19.0108 17.1605 19.0141 17.3748C19.0165 17.4826 18.9976 17.5898 18.9583 17.6902C18.919 17.7905 18.8602 17.8821 18.7853 17.9594C18.7104 18.0368 18.6209 18.0984 18.522 18.1408C18.4231 18.1831 18.3168 18.2053 18.2093 18.206Z" fill="#19191C"/>
<path d="M23.6747 18.2061C23.5672 18.2068 23.4606 18.1862 23.3612 18.1452C23.2617 18.1043 23.1713 18.0439 23.0954 17.9676C23.0194 17.8914 22.9593 17.8007 22.9186 17.7009C22.8779 17.6011 22.8574 17.4942 22.8583 17.3864C22.8584 17.2786 22.8798 17.1719 22.9212 17.0724C22.9626 16.9729 23.0232 16.8826 23.0995 16.8067C23.1758 16.7308 23.2664 16.6708 23.3659 16.6301C23.4654 16.5894 23.572 16.5688 23.6795 16.5696C23.8929 16.5726 24.0967 16.6591 24.2474 16.8106C24.3981 16.9621 24.4838 17.1666 24.4863 17.3806C24.4877 17.4884 24.4677 17.5954 24.4276 17.6955C24.3874 17.7955 24.3279 17.8865 24.2524 17.9633C24.1769 18.0401 24.087 18.1011 23.9878 18.1427C23.8887 18.1844 23.7822 18.2059 23.6747 18.2061Z" fill="white"/>
<path d="M42.9255 4.5448H25.2526C23.5777 4.5448 22.22 5.9064 22.22 7.58601V46.4141C22.22 48.0937 23.5777 49.4553 25.2526 49.4553H42.9255C44.6004 49.4553 45.9581 48.0937 45.9581 46.4141V7.58601C45.9581 5.9064 44.6004 4.5448 42.9255 4.5448Z" fill="#19191C"/>
<path d="M42.9254 3H25.2526C24.0402 3.00153 22.8779 3.48518 22.0206 4.34489C21.1634 5.20459 20.6811 6.37016 20.6796 7.58596V46.414C20.6811 47.6298 21.1634 48.7954 22.0206 49.6551C22.8779 50.5148 24.0402 50.9985 25.2526 51H42.9254C44.1378 50.9985 45.3001 50.5148 46.1573 49.6551C47.0146 48.7954 47.4969 47.6298 47.4984 46.414V7.58596C47.4969 6.37016 47.0146 5.20459 46.1573 4.34489C45.3001 3.48518 44.1378 3.00153 42.9254 3V3ZM44.4177 46.414C44.4174 46.8108 44.2601 47.1913 43.9803 47.4719C43.7005 47.7525 43.3211 47.9103 42.9254 47.9105H25.2526C24.8569 47.9103 24.4775 47.7525 24.1977 47.4719C23.9179 47.1913 23.7606 46.8108 23.7603 46.414V7.58596C23.7606 7.18915 23.9179 6.80866 24.1977 6.52807C24.4775 6.24748 24.8569 6.08974 25.2526 6.08949H28.728C28.8326 6.85134 29.2084 7.54956 29.7861 8.05528C30.3638 8.561 31.1045 8.84009 31.8713 8.84106H36.3076C37.0745 8.84009 37.8151 8.561 38.3928 8.05528C38.9706 7.54956 39.3464 6.85134 39.451 6.08949H42.9254C43.3211 6.08974 43.7005 6.24748 43.9803 6.52807C44.2601 6.80866 44.4174 7.18915 44.4177 7.58596V46.414Z" fill="white"/>
<path d="M30.6257 28.998L29.0256 27.3924L27.4708 28.9516L26.1769 27.655L29.0256 24.7982L30.6257 26.4038L33.6419 23.379L36.6302 26.3758L40.7989 22.1953L42.0918 23.4929L36.6302 28.97L33.6419 25.9732L30.6257 28.998Z" fill="white"/>
</g>
<defs>
<filter id="filter0_d_702_4376" x="0" y="0" width="68.001" height="68" filterUnits="userSpaceOnUse" color-interpolation-filters="sRGB">
<feFlood flood-opacity="0" result="BackgroundImageFix"/>
<feColorMatrix in="SourceAlpha" type="matrix" values="0 0 0 0 0 0 0 0 0 0 0 0 0 0 0 0 0 0 127 0" result="hardAlpha"/>
<feOffset dy="7"/>
<feGaussianBlur stdDeviation="5"/>
<feComposite in2="hardAlpha" operator="out"/>
<feColorMatrix type="matrix" values="0 0 0 0 0.278431 0 0 0 0 0.509804 0 0 0 0 1 0 0 0 0.25 0"/>
<feBlend mode="normal" in2="BackgroundImageFix" result="effect1_dropShadow_702_4376"/>
<feBlend mode="normal" in="SourceGraphic" in2="effect1_dropShadow_702_4376" result="shape"/>
</filter>
</defs>
</svg>
