<svg width="68" height="68" viewBox="0 0 68 68" fill="none" xmlns="http://www.w3.org/2000/svg">
<g filter="url(#filter0_d_701_4588)">
<path d="M46.3249 39.068C46.3249 40.0921 46.3249 41.0427 46.3249 41.9941C46.3249 42.7073 46.0439 42.9864 45.333 42.9872C44.1422 42.9872 42.9498 42.979 41.759 42.9921C41.2659 42.9978 40.9651 42.7946 40.7893 42.3393C40.4005 41.3373 39.9847 40.3451 39.596 39.343C39.5138 39.1301 39.4045 39.0607 39.1769 39.0615C33.1503 39.0675 27.1237 39.0675 21.0972 39.0615C20.8679 39.0615 20.7602 39.1341 20.6789 39.3455C20.2951 40.3344 19.8965 41.3185 19.4979 42.3026C19.2744 42.8542 19.0739 42.9856 18.4731 42.9864C17.2952 42.9864 16.1173 42.9864 14.9394 42.9864C14.2285 42.9864 13.9532 42.7073 13.9532 41.9917C13.9532 41.0403 13.9532 40.0896 13.9532 39.0672C13.7067 39.0672 13.4799 39.0672 13.2539 39.0672C11.3711 39.046 10.0077 37.7037 10.0069 35.8425C10.0031 25.9691 10.0031 16.0957 10.0069 6.22231C10.0069 4.36105 11.3785 3.00326 13.2547 3.00245C24.5129 2.99918 35.7716 2.99918 47.0309 3.00245C48.9062 3.00245 50.2754 4.36187 50.2754 6.22476C50.2803 16.0981 50.2803 25.9715 50.2754 35.8449C50.2754 37.6907 48.921 39.0378 47.0703 39.0664C46.8312 39.068 46.6019 39.068 46.3249 39.068ZM16.3184 30.4358C16.3184 31.0959 16.3184 31.6793 16.3184 32.2627C16.3184 32.7956 16.3184 32.7972 16.8493 32.7972H43.4314C43.9565 32.7972 43.9573 32.7972 43.9573 32.2579V9.81835C43.9573 9.27327 43.9573 9.27245 43.3985 9.27245H16.8961C16.8277 9.27653 16.7591 9.27653 16.6906 9.27245C16.4112 9.23818 16.297 9.34263 16.311 9.63557C16.3315 10.0697 16.3159 10.5054 16.3159 10.9411C16.3159 11.6127 16.3159 11.6127 16.9791 11.6282C17.602 11.6429 17.8888 11.9162 17.8913 12.5258C17.8973 14.0212 17.8973 15.5172 17.8913 17.0137C17.8913 17.5955 17.5922 17.8794 16.9996 17.8982C16.7868 17.9047 16.5731 17.8982 16.3512 17.8982V24.1658C16.6167 24.1658 16.8443 24.1551 17.0802 24.1658C17.5733 24.1927 17.8839 24.4791 17.8872 24.963C17.8987 26.5264 17.8987 28.0901 17.8872 29.6541C17.8831 30.1241 17.579 30.4039 17.1057 30.4268C16.8616 30.4431 16.6183 30.4333 16.3159 30.4333L16.3184 30.4358ZM11.5716 30.4635V35.6589C11.5716 36.8975 12.1896 37.5087 13.4429 37.5087H26.1389C33.0558 37.5087 39.9727 37.5087 46.8895 37.5087C48.0277 37.5087 48.7024 36.8804 48.7024 35.8066C48.7024 25.9604 48.7024 16.1142 48.7024 6.26801C48.7024 5.22192 48.0343 4.56179 46.9766 4.56179C35.7453 4.56179 24.514 4.56179 13.2826 4.56179C12.2307 4.56179 11.5724 5.22518 11.57 6.27535C11.5656 7.92037 11.5656 9.56566 11.57 11.2112C11.57 11.3312 11.5807 11.4511 11.5872 11.5915C11.7113 11.6037 11.8173 11.6233 11.9234 11.6241C12.7312 11.6241 13.5398 11.6127 14.3469 11.6315C14.6567 11.6396 14.7479 11.5401 14.7421 11.2373C14.7241 10.3536 14.7282 9.46911 14.7421 8.5854C14.7495 7.99953 15.0437 7.72209 15.6371 7.70495C15.7053 7.70495 15.7735 7.70495 15.8425 7.70495H44.4414C44.5507 7.70495 44.6608 7.70087 44.7701 7.70984C45.2204 7.74901 45.4908 8.01747 45.5319 8.46953C45.5434 8.60416 45.5393 8.74125 45.5393 8.87752V33.1938C45.5393 33.3301 45.5434 33.4663 45.5311 33.6018C45.4892 34.053 45.218 34.3215 44.766 34.3549C44.6016 34.3672 44.4373 34.3606 44.2729 34.3606H18.9991C17.8757 34.3606 16.7531 34.3664 15.6297 34.3606C15.0364 34.3557 14.7479 34.0702 14.7397 33.4802C14.7282 32.692 14.7397 31.9029 14.7397 31.1138V30.4611L11.5716 30.4635ZM14.7101 24.1454V17.9259H11.5963V24.1454H14.7101ZM11.5971 16.2801C11.6407 16.3005 11.6869 16.315 11.7343 16.3234C13.1692 16.3234 14.6041 16.3234 16.039 16.334C16.2937 16.334 16.3233 16.1985 16.3217 15.9978C16.3217 15.1818 16.3093 14.3658 16.3217 13.5547C16.3274 13.2618 16.2173 13.1867 15.9395 13.1892C14.6961 13.2006 13.4527 13.1941 12.2085 13.1941H11.593L11.5971 16.2801ZM16.32 28.8536C16.32 27.9062 16.3069 27.0119 16.3266 26.1176C16.334 25.7985 16.2091 25.7333 15.9157 25.7365C14.5893 25.7488 13.2629 25.7406 11.9365 25.743C11.8245 25.7486 11.7128 25.76 11.602 25.7773V28.8536H16.32ZM19.0821 39.1056H15.5483V41.4295C16.3701 41.4295 17.1607 41.4344 17.9513 41.423C18.0011 41.4183 18.0492 41.4025 18.092 41.3766C18.1347 41.3507 18.1709 41.3155 18.1978 41.2736C18.4994 40.5621 18.7813 39.8465 19.0796 39.1031L19.0821 39.1056ZM44.7315 41.4295V39.0917H41.187C41.496 39.8587 41.7845 40.5866 42.091 41.3079C42.1165 41.3691 42.2414 41.423 42.3211 41.4246C43.1068 41.4344 43.8973 41.427 44.729 41.427L44.7315 41.4295Z" fill="white"/>
<path d="M44.7295 41.427C43.8978 41.427 43.1073 41.427 42.3159 41.4221C42.2337 41.4221 42.1112 41.3666 42.0857 41.3054C41.7825 40.5841 41.494 39.8563 41.1818 39.0892H44.7262L44.7295 41.427Z" fill="white"/>
<path d="M30.126 11.6266C35.3543 11.6184 39.6104 15.846 39.6072 21.043C39.6024 23.5329 38.6039 25.9194 36.8305 27.6798C35.0571 29.4401 32.6534 30.4309 30.1457 30.435C28.9005 30.4355 27.6673 30.1924 26.5168 29.7195C25.3662 29.2466 24.3208 28.5532 23.4403 27.6789C22.5598 26.8046 21.8614 25.7666 21.3852 24.6242C20.9089 23.4818 20.664 22.2574 20.6646 21.021C20.67 18.5311 21.6686 16.1447 23.4417 14.3841C25.2149 12.6235 27.6183 11.632 30.126 11.6266ZM30.1359 17.1182C29.0924 17.1182 28.0914 17.5287 27.3521 18.2598C26.6127 18.991 26.1953 19.9833 26.1912 21.0194C26.189 22.0562 26.6001 23.0517 27.3348 23.7885C28.0694 24.5252 29.0679 24.9434 30.112 24.9516C30.6327 24.954 31.1486 24.8541 31.6303 24.6578C32.1119 24.4615 32.5497 24.1726 32.9185 23.8077C33.2873 23.4428 33.5799 23.0091 33.7793 22.5315C33.9787 22.054 34.0811 21.542 34.0805 21.0251C34.0779 19.988 33.6612 18.9943 32.9217 18.2619C32.1822 17.5295 31.1803 17.1182 30.1359 17.1182V17.1182ZM26.8642 16.5919C29.0486 15.1835 31.2404 15.1965 33.3861 16.5788L35.0396 14.9395C32.2923 12.5095 27.6433 12.7127 25.2182 14.9713L26.8642 16.5919ZM24.0118 16.1529C21.645 18.7526 21.6458 23.3204 24.0742 25.9887C24.5311 25.5203 24.9782 25.043 25.4466 24.5934C25.6546 24.3951 25.6611 24.267 25.5083 24.0157C24.2854 22.019 24.301 20.0173 25.5239 18.0166C25.5781 17.9268 25.6266 17.8338 25.6447 17.8011L24.0118 16.1529ZM36.2632 25.9308C38.681 23.1262 38.5536 18.7273 36.2813 16.1594C35.7381 16.7012 35.1932 17.2446 34.6287 17.806C36.0331 19.939 36.0159 22.1307 34.6106 24.2866L36.2632 25.9308ZM33.4149 25.4746C31.2428 26.874 29.0355 26.8724 26.8914 25.495C26.3227 26.0556 25.7754 26.5966 25.2305 27.1352C28.1775 29.6647 32.7623 29.242 35.0494 27.0935L33.4149 25.4746Z" fill="white"/>
<path d="M54.6306 29.4476H39.5447C38.115 29.4476 36.9561 30.5984 36.9561 32.018V46.997C36.9561 48.4165 38.115 49.5673 39.5447 49.5673H54.6306C56.0603 49.5673 57.2193 48.4165 57.2193 46.997V32.018C57.2193 30.5984 56.0603 29.4476 54.6306 29.4476Z" fill="#19191C"/>
<path d="M49.3948 37.5569C49.3948 36.9492 49.1517 36.3664 48.7189 35.9367C48.2862 35.507 47.6992 35.2656 47.0872 35.2656C46.4753 35.2658 45.8886 35.5073 45.456 35.937C45.0234 36.3667 44.7804 36.9494 44.7804 37.5569C44.7803 37.9614 44.8882 38.3586 45.0931 38.7082C45.2979 39.0578 45.5924 39.3472 45.9465 39.5471V43.7486H48.2533V39.5332C48.6008 39.3314 48.889 39.0427 49.0892 38.696C49.2895 38.3493 49.3948 37.9566 49.3948 37.5569V37.5569Z" fill="white"/>
<path d="M54.4104 27.082V29.3725H51.6984V27.082C51.6976 25.868 51.2115 24.704 50.3469 23.8455C49.4823 22.9871 48.31 22.5044 47.0873 22.5036C45.8635 22.5036 44.6898 22.9863 43.8244 23.8455C42.959 24.7048 42.4729 25.8702 42.4729 27.0853V29.3758H39.765V27.0853C39.765 25.157 40.5364 23.3077 41.9096 21.9441C43.2828 20.5805 45.1452 19.8143 47.0873 19.8141C49.0289 19.8143 50.8909 20.58 52.2641 21.9429C53.6373 23.3057 54.4093 25.1542 54.4104 27.082V27.082Z" fill="#19191C"/>
<path d="M55.191 28.7197V27.082C55.1887 24.9487 54.3341 22.9035 52.8148 21.395C51.2956 19.8865 49.2358 19.038 47.0872 19.0356C44.9388 19.0382 42.8792 19.8868 41.3601 21.3953C39.8411 22.9037 38.9866 24.9489 38.9842 27.082V28.7197C38.1994 28.852 37.4869 29.2556 36.9728 29.8592C36.4588 30.4628 36.1763 31.2275 36.1753 32.0179V46.9969C36.1753 47.8842 36.5303 48.7351 37.1622 49.3625C37.7941 49.99 38.6511 50.3424 39.5447 50.3424H54.6306C55.5242 50.3424 56.3812 49.99 57.0131 49.3625C57.645 48.7351 58 47.8842 58 46.9969V32.0179C57.999 31.2275 57.7165 30.4628 57.2024 29.8592C56.6884 29.2556 55.9759 28.852 55.191 28.7197V28.7197ZM50.9177 28.6724H43.2502V27.082C43.2513 26.0728 43.6556 25.1052 44.3743 24.3916C45.093 23.678 46.0675 23.2766 47.0839 23.2755C48.1004 23.2763 49.0751 23.6777 49.7938 24.3914C50.5126 25.105 50.9168 26.0727 50.9177 27.082V28.6724ZM40.5424 27.082C40.5441 25.3599 41.2338 23.7087 42.4602 22.4908C43.6866 21.273 45.3495 20.588 47.0839 20.586C48.8185 20.588 50.4814 21.273 51.7079 22.4908C52.9345 23.7086 53.6244 25.3598 53.6263 27.082V28.5973H52.4758V27.082C52.4743 25.6618 51.9054 24.3001 50.8939 23.2958C49.8825 22.2915 48.5111 21.7266 47.0806 21.7251C45.6502 21.7266 44.2788 22.2915 43.2674 23.2958C42.2559 24.3001 41.687 25.6618 41.6855 27.082V28.5973H40.5391L40.5424 27.082ZM56.4353 46.9969C56.4353 47.473 56.2448 47.9296 55.9057 48.2663C55.5667 48.6029 55.1068 48.7921 54.6273 48.7921H39.5447C39.0652 48.7921 38.6053 48.6029 38.2663 48.2663C37.9272 47.9296 37.7367 47.473 37.7367 46.9969V32.0179C37.7367 31.5418 37.9272 31.0852 38.2663 30.7486C38.6053 30.4119 39.0652 30.2228 39.5447 30.2228H54.6306C55.1101 30.2228 55.5699 30.4119 55.909 30.7486C56.2481 31.0852 56.4385 31.5418 56.4385 32.0179L56.4353 46.9969Z" fill="white"/>
</g>
<defs>
<filter id="filter0_d_701_4588" x="0" y="0" width="68" height="68" filterUnits="userSpaceOnUse" color-interpolation-filters="sRGB">
<feFlood flood-opacity="0" result="BackgroundImageFix"/>
<feColorMatrix in="SourceAlpha" type="matrix" values="0 0 0 0 0 0 0 0 0 0 0 0 0 0 0 0 0 0 127 0" result="hardAlpha"/>
<feOffset dy="7"/>
<feGaussianBlur stdDeviation="5"/>
<feComposite in2="hardAlpha" operator="out"/>
<feColorMatrix type="matrix" values="0 0 0 0 0.278431 0 0 0 0 0.509804 0 0 0 0 1 0 0 0 0.25 0"/>
<feBlend mode="normal" in2="BackgroundImageFix" result="effect1_dropShadow_701_4588"/>
<feBlend mode="normal" in="SourceGraphic" in2="effect1_dropShadow_701_4588" result="shape"/>
</filter>
</defs>
</svg>
