<svg width="130" height="28" viewBox="0 0 130 28" fill="none" xmlns="http://www.w3.org/2000/svg">
<g clip-path="url(#clip0_369_519)">
<path d="M66.3644 3.01284L63.924 0.638443C63.8083 0.526443 63.6348 0.526443 63.5192 0.638443L61.0672 3.01284C60.9516 3.12484 60.9516 3.29284 61.0672 3.40484L63.5192 5.77924C63.6348 5.89124 63.8083 5.89124 63.924 5.77924L66.3759 3.40484C66.48 3.30404 66.48 3.12484 66.3644 3.01284Z" fill="#007FFF"/>
<path d="M38.8621 21.2576C37.4742 21.2576 36.2251 20.9664 35.1379 20.384C34.0507 19.8016 33.1948 18.9952 32.5934 17.9648C31.9804 16.9344 31.6797 15.7584 31.6797 14.448C31.6797 13.1376 31.9804 11.9392 32.5934 10.92C33.1948 9.90083 34.0391 9.09443 35.1147 8.51203C36.1904 7.92963 37.4279 7.63843 38.8158 7.63843C40.2037 7.63843 41.3834 7.96323 42.4937 8.60163C43.6041 9.24003 44.4021 10.1696 44.911 11.3792L41.58 12.5216C41.3256 12.0176 40.9439 11.6144 40.4119 11.312C39.8799 11.0096 39.3016 10.8528 38.6539 10.8528C38.0062 10.8528 37.4048 11.0096 36.9074 11.312C36.4101 11.6144 36.0169 12.0288 35.7277 12.5664C35.4386 13.104 35.2998 13.7312 35.2998 14.4368C35.2998 15.1424 35.4386 15.7696 35.7277 16.296C36.0169 16.8224 36.4101 17.248 36.9306 17.5504C37.451 17.8528 38.0409 18.0208 38.7002 18.0208C39.3594 18.0208 39.9261 17.8528 40.4582 17.528C40.9902 17.2032 41.3719 16.7664 41.6263 16.2288L44.9804 17.3712C44.4599 18.6032 43.6503 19.5552 42.5516 20.2272C41.4528 20.9216 40.2268 21.2576 38.8621 21.2576Z" fill="white"/>
<path d="M65.4864 7.95203H61.9473V20.944H65.4864V7.95203Z" fill="white"/>
<path d="M78.7881 9.08323C77.9207 8.12003 76.6716 7.63843 75.0524 7.63843C74.0346 7.63843 73.144 7.89603 72.3922 8.40003C71.8949 8.73603 71.4785 9.18403 71.1316 9.71043L70.9696 7.95203H67.6387V20.944H71.1778V14.1344C71.1778 13.048 71.4207 12.2192 71.918 11.6704C72.4154 11.1216 73.1093 10.8528 74.023 10.864C74.5203 10.864 74.9599 10.976 75.3415 11.1888C75.7116 11.4016 76.0123 11.76 76.209 12.2416C76.4171 12.7232 76.5212 13.4064 76.5212 14.2912V20.944H80.0604V13.5184C80.0835 11.5248 79.6556 10.0464 78.7881 9.08323Z" fill="white"/>
<path d="M99.0515 7.95215L96.2063 16.2737L93.4768 7.95215H93.072H90.4234H89.9839L87.1734 16.4641L84.386 7.95215H80.7891L85.346 20.9441H85.693H88.6538H88.8389L91.7419 12.0513L94.5987 20.9441H97.7446H98.0916L102.648 7.95215H99.0515Z" fill="white"/>
<path d="M128.173 9.08323C127.305 8.12003 126.056 7.63843 124.437 7.63843C123.419 7.63843 122.529 7.89603 121.777 8.40003C121.28 8.73603 120.863 9.18403 120.516 9.71043L120.354 7.94083H117.023V20.9328H120.563V14.1232C120.563 13.0368 120.805 12.208 121.303 11.6592C121.8 11.1104 122.494 10.8416 123.408 10.8528C123.905 10.8528 124.345 10.9648 124.726 11.1776C125.096 11.3904 125.397 11.7488 125.605 12.2304C125.813 12.712 125.918 13.3952 125.918 14.28V20.944H129.457V13.5184C129.468 11.5248 129.04 10.0464 128.173 9.08323Z" fill="white"/>
<path d="M58.8822 10.92C58.2807 9.90083 57.4596 9.09443 56.3955 8.51203C55.343 7.92963 54.117 7.63843 52.7176 7.63843C51.3181 7.63843 50.15 7.92963 49.0859 8.51203C48.0218 9.09443 47.1891 9.88963 46.5877 10.92C45.9863 11.9392 45.6855 13.1152 45.6855 14.448C45.6855 15.7808 45.9863 16.9568 46.5992 17.976C47.2122 18.9952 48.045 19.8016 49.109 20.3728C50.1731 20.9552 51.3991 21.2464 52.7638 21.2464C54.1286 21.2464 55.3546 20.9552 56.3955 20.3728C57.4364 19.7904 58.2576 18.9952 58.859 17.976C59.4605 16.9568 59.7612 15.7808 59.7612 14.448C59.7612 13.1152 59.4836 11.9392 58.8822 10.92ZM55.5281 12.656C55.8057 13.1712 55.9444 13.776 55.9444 14.448C55.9444 15.12 55.8057 15.7248 55.5396 16.24C55.2736 16.7552 54.9035 17.1696 54.4293 17.4608C53.9551 17.752 53.4 17.8976 52.7754 17.8976C52.1508 17.8976 51.5957 17.752 51.0984 17.4608C50.601 17.1696 50.2309 16.7552 49.9533 16.24C49.6873 15.7248 49.5485 15.12 49.5485 14.448C49.5485 13.776 49.6873 13.1712 49.9533 12.656C50.2194 12.1408 50.601 11.7264 51.0752 11.4352C51.561 11.144 52.1046 10.9984 52.706 10.9984H56.3377L55.5859 11.7712C55.4124 11.9504 55.2042 12.2528 55.343 12.4432C55.424 12.5216 55.4934 12.5776 55.5281 12.656Z" fill="white"/>
<path d="M114.191 10.4161C113.74 9.50886 113.069 8.81446 112.179 8.35526C111.288 7.88486 110.166 7.64966 108.825 7.64966C107.714 7.64966 106.778 7.82886 105.991 8.16486C105.205 8.50086 104.592 8.94886 104.117 9.47526C103.643 10.0017 103.285 10.5505 103.03 11.0993L106.199 12.1409C106.5 11.6369 106.87 11.2785 107.298 11.0545C107.726 10.8305 108.212 10.7185 108.744 10.7185C109.345 10.7185 109.843 10.8641 110.201 11.1441C110.571 11.4353 110.837 11.8497 111.011 12.3873C111.08 12.6001 111.126 12.8465 111.161 13.1041H108.131C106.396 13.1041 105.054 13.4513 104.094 14.1569C103.134 14.8625 102.66 15.9041 102.66 17.2929C102.66 18.5585 103.1 19.5329 103.99 20.2273C104.881 20.9217 106.118 21.2689 107.738 21.2689C109.357 21.2689 110.479 20.7761 111.184 19.7905C111.242 19.7009 111.288 19.6001 111.346 19.5105L111.369 20.9553H114.885V13.7649C114.862 12.4321 114.631 11.3233 114.191 10.4161ZM111.184 16.4193C111.069 16.5313 110.999 16.6545 110.953 16.7553L110.941 16.7665C110.907 16.8337 110.895 16.9009 110.86 16.9569C110.606 17.3825 110.27 17.7297 109.831 17.9985C109.391 18.2673 108.883 18.4017 108.316 18.4017C107.668 18.4017 107.171 18.2897 106.812 18.0769C106.454 17.8641 106.28 17.5617 106.28 17.1809C106.28 16.6993 106.5 16.3185 106.951 16.0497C107.402 15.7809 108.2 15.6465 109.368 15.6465H111.936L111.184 16.4193Z" fill="white"/>
<path d="M8.84739 25.9392C11.0449 27.944 14.48 27.944 16.6775 25.9392L19.8928 23.0048V15.1424L11.3109 22.9488V21.0112C11.3109 20.5744 11.1259 20.1488 10.7905 19.8464L0.554688 10.5168V17.696C0.554688 18.1328 0.739741 18.5584 1.07515 18.8608L8.84739 25.9392Z" fill="#007FFF"/>
<path d="M10.0962 14.2575L12.5482 11.8831C12.6638 11.7711 12.8373 11.7711 12.953 11.8831L15.4049 14.2575C15.5206 14.3695 15.5206 14.5375 15.4049 14.6495L12.9645 17.0239C12.8489 17.1359 12.6754 17.1359 12.5597 17.0239L10.1078 14.6495C9.99212 14.5375 9.99212 14.3583 10.0962 14.2575Z" fill="#007FFF"/>
<path d="M24.4503 10.0464L16.6665 2.96796C14.469 0.963155 11.0339 0.963155 8.8364 2.96796L5.62109 5.89116V13.7648L14.2029 5.95836V7.89596C14.2029 8.33276 14.388 8.75836 14.7234 9.06076L24.9823 18.3904V11.2112C24.9707 10.7632 24.7741 10.3488 24.4503 10.0464Z" fill="#007FFF"/>
</g>
<defs>
<clipPath id="clip0_369_519">
<rect width="130" height="28" fill="white"/>
</clipPath>
</defs>
</svg>
