<svg width="35" height="38" viewBox="0 0 35 38" fill="none" xmlns="http://www.w3.org/2000/svg">
<path d="M13.8705 31.3809C16.1953 33.5406 19.8186 33.5394 22.1433 31.3797L25.5406 28.2217V19.7412L16.4824 28.1565V26.0693C16.4824 25.5961 16.2845 25.1434 15.9351 24.8187L5.10547 14.7568V22.4948C5.10547 22.968 5.30337 23.4207 5.65275 23.7455L13.8705 31.3797V31.3809Z" fill="#0080FF"/>
<path d="M20.8049 18.7864L18.2161 16.2281C18.0973 16.1107 17.9047 16.1107 17.7859 16.2281L15.197 18.7864C15.0783 18.9038 15.0783 19.0941 15.197 19.2115L17.7859 21.7697C17.9047 21.8871 18.0973 21.8871 18.2161 21.7697L20.8049 19.2115C20.9237 19.0941 20.9237 18.9038 20.8049 18.7864Z" fill="#0080FF"/>
<path d="M30.349 14.2534L22.13 6.61914C19.8053 4.45948 16.1808 4.46069 13.8573 6.62034L10.46 9.77834V18.26L19.5182 9.84473V11.932C19.5182 12.4052 19.7161 12.8591 20.0655 13.1826L30.8951 23.2433V15.504C30.8951 15.0308 30.6972 14.5781 30.3478 14.2534H30.349Z" fill="#0080FF"/>
</svg>
